<?xml version="1.0" encoding="UTF-8"?>
<svg width="450px" height="404px" viewBox="0 0 450 404" version="1.1" xmlns="http://www.w3.org/2000/svg" xmlns:xlink="http://www.w3.org/1999/xlink">
    <!-- Generator: Sketch 52.2 (67145) - http://www.bohemiancoding.com/sketch -->
    <title>Group 250</title>
    <desc>Created with Sketch.</desc>
    <defs>
        <path d="M283.928906,0.0160435967 C257.283984,0.0160435967 236.01144,21.7721635 236.159598,48.3704414 C236.226395,60.3680436 233.848326,72.2743978 226.562444,81.000109 C216.399275,93.1711826 195.926283,93.0704087 173.335882,92.9696349 C147.340848,92.8533188 118.54135,92.7365014 99.4193638,111.318496 C71.3360491,138.608153 90.2481027,168.476817 84.3845424,210.999368 C79.1301897,249.105417 0.122042411,275.814997 0,323.2143 L0,323.428883 C0.0145647321,328.856632 1.06322545,334.559629 3.37550223,340.577984 C25.9382813,399.307074 132.239732,346.974866 206.585156,333.606038 C242.272768,327.189101 270.610212,333.61055 296.96183,340.032 C325.507199,346.987902 351.723214,353.943804 382.428181,344.58036 C444.073661,325.781275 449.952288,227.783978 449.952288,227.783978 L449.952288,47.0548665 C449.952288,21.0762725 428.855525,0.0160435967 402.831864,0.0160435967 L283.928906,0.0160435967 Z" id="path-1"></path>
        <linearGradient x1="100.599983%" y1="10.6008473%" x2="0.330496816%" y2="122.628085%" id="linearGradient-3">
            <stop stop-color="#E2F7FF" offset="0%"></stop>
            <stop stop-color="#ADE3F5" offset="100%"></stop>
        </linearGradient>
        <polygon id="path-4" points="0 404 449.952288 404 449.952288 0.0160397022 0 0.0160397022"></polygon>
        <polygon id="path-6" points="0.247757653 0.059902027 42.2891658 148.567095 196.877378 148.512226 154.836472 0.00553716216"></polygon>
        <linearGradient x1="65.2193955%" y1="115.826764%" x2="46.5811865%" y2="35.2125346%" id="linearGradient-8">
            <stop stop-color="#E2F7FF" offset="0%"></stop>
            <stop stop-color="#B5D4F6" offset="100%"></stop>
        </linearGradient>
        <path d="M1.948,2.23888889 C1.6305,2.44333333 1.2725,2.44222222 0.951,2.44055556 C0.573,2.43833333 0.244,2.43666667 0.087,2.76777778 C-0.2055,3.38222222 1.26,5.93888889 2.795,3.355 C3.573,2.04444444 3.759,0.515 3.759,0.515 L3.214,0.353333333 C3.214,0.353333333 2.6385,1.795 1.948,2.23888889" id="path-9"></path>
        <linearGradient x1="14.0243375%" y1="94.8607557%" x2="87.1056745%" y2="3.99119273%" id="linearGradient-11">
            <stop stop-color="#FFA96A" offset="0%"></stop>
            <stop stop-color="#FFBE81" offset="100%"></stop>
        </linearGradient>
        <polygon id="path-12" points="0 404 449.952288 404 449.952288 0.0160397022 0 0.0160397022"></polygon>
    </defs>
    <g id="Page-1" stroke="none" stroke-width="1" fill="none" fill-rule="evenodd">
        <g id="Group-250">
            <g id="Group-3">
                <mask id="mask-2" fill="white">
                    <use xlink:href="#path-1"></use>
                </mask>
                <g id="Clip-2"></g>
                <path d="M283.928906,0.0160435967 C257.283984,0.0160435967 236.01144,21.7721635 236.159598,48.3704414 C236.226395,60.3680436 233.848326,72.2743978 226.562444,81.000109 C216.399275,93.1711826 195.926283,93.0704087 173.335882,92.9696349 C147.340848,92.8533188 118.54135,92.7365014 99.4193638,111.318496 C71.3360491,138.608153 90.2481027,168.476817 84.3845424,210.999368 C79.1301897,249.105417 0.122042411,275.814997 0,323.2143 L0,323.428883 C0.0145647321,328.856632 1.06322545,334.559629 3.37550223,340.577984 C25.9382813,399.307074 132.239732,346.974866 206.585156,333.606038 C242.272768,327.189101 270.610212,333.61055 296.96183,340.032 C325.507199,346.987902 351.723214,353.943804 382.428181,344.58036 C444.073661,325.781275 449.952288,227.783978 449.952288,227.783978 L449.952288,47.0548665 C449.952288,21.0762725 428.855525,0.0160435967 402.831864,0.0160435967 L283.928906,0.0160435967 Z" id="Fill-1" fill="url(#linearGradient-3)" mask="url(#mask-2)"></path>
            </g>
            <g id="Group-35">
                <path d="M348.717204,360.865832 L75.0052065,360.865832 L75.0052065,184.0221 C75.0052065,181.110894 77.3697154,178.751554 80.2861775,178.751554 L343.436233,178.751554 C346.352695,178.751554 348.717204,181.110894 348.717204,184.0221 L348.717204,360.865832 Z" id="Fill-4" fill="#0C1B4F"></path>
                <mask id="mask-5" fill="white">
                    <use xlink:href="#path-4"></use>
                </mask>
                <g id="Clip-7"></g>
                <polygon id="Fill-6" fill="#CBF4FF" mask="url(#mask-5)" points="85.7762277 350.74869 337.945982 350.74869 337.945982 188.868998 85.7762277 188.868998"></polygon>
                <polygon id="Fill-8" fill="#283E6A" mask="url(#mask-5)" points="395.190352 390.308811 30.6446484 390.308811 75.0053069 360.865933 348.717305 360.865933"></polygon>
                <path d="M389.909029,403.99995 L35.9257701,403.99995 C33.009308,403.99995 30.6447991,401.640109 30.6447991,398.729404 L30.6447991,390.309062 L395.190502,390.309062 L395.190502,398.729404 C395.190502,401.640109 392.825993,403.99995 389.909029,403.99995" id="Fill-9" fill="#0C1B4F" mask="url(#mask-5)"></path>
                <polygon id="Fill-10" fill="#0C1B4F" mask="url(#mask-5)" points="91.8921596 364.130714 71.0897042 384.173324 350.640653 384.173324 332.577874 364.306148"></polygon>
                <path d="M237.240301,320.47285 C237.807824,323.371525 219.623002,329.355837 196.624286,333.838934 C173.625569,338.32153 154.521161,339.605708 153.954141,336.707033 C153.386618,333.807857 171.570937,327.823544 194.569654,323.340949 C217.568873,318.857852 236.672779,317.573673 237.240301,320.47285" id="Fill-11" fill="#E8E8E8" mask="url(#mask-5)"></path>
                <path d="M155.71341,278.891927 C155.71341,278.891927 129.795218,237.987177 129.73043,221.742969 C129.665642,205.499262 134.627193,201.475301 131.1638,186.227058 C127.70091,170.978314 138.218655,154.76017 133.857773,139.177599 C129.497394,123.595028 128.428142,109.736726 138.225184,107.247564 C148.022227,104.758403 149.062349,133.249927 156.390419,146.213013 C163.717985,159.176601 168.748845,167.749822 166.851914,189.879098 C164.953979,212.008373 166.964916,209.246036 180.971669,231.857505 C194.978421,254.467971 189.409671,275.774209 189.409671,275.774209 L155.71341,278.891927 Z" id="Fill-12" fill="#009B80" mask="url(#mask-5)"></path>
                <path d="M173.915859,293.129819 C173.915859,293.129819 152.294766,248.992067 153.823058,238.692072 C155.350848,228.391576 171.803973,219.752191 172.377522,208.776022 C172.951071,197.799352 161.977801,182.282945 160.564018,161.734583 C159.150737,141.186221 160.393259,117.403854 177.050792,121.400246 C193.708326,125.396136 180.009944,162.018787 186.863906,171.547372 C193.718371,181.075958 208.362455,186.370062 208.365469,204.930002 C208.368984,223.489442 201.018817,234.347318 206.528806,244.219754 C212.038292,254.09169 211.343705,273.460633 210.526574,273.921774 C209.709944,274.382916 173.915859,293.129819 173.915859,293.129819" id="Fill-13" fill="#00B195" mask="url(#mask-5)"></path>
                <path d="M183.390619,262.215899 L181.833198,262.2565 C181.810597,261.376822 181.315898,240.593879 185.120307,228.770614 C189.095474,216.415532 190.513778,207.40974 186.626501,195.224579 C185.139894,190.563041 182.442405,186.222296 179.586211,181.62642 C174.580965,173.572986 169.404961,165.245373 169.555631,153.708316 C169.788666,135.84109 171.183867,132.20509 171.243131,132.059229 L172.687048,132.642673 C172.63582,132.779512 171.340061,136.392455 171.113555,153.729368 C170.969414,164.811299 176.022874,172.942927 180.910597,180.806892 C183.819023,185.486976 186.565731,189.907418 188.111099,194.752912 C192.125441,207.336559 190.67851,216.583949 186.603398,229.246291 C182.879347,240.819438 183.385095,262.002872 183.390619,262.215899" id="Fill-14" fill="#009B80" mask="url(#mask-5)"></path>
                <path d="M190.462048,209.202578 L188.95284,208.814117 C189.026669,208.528409 190.858811,201.760658 200.337941,196.906141 L201.049102,198.289566 C192.23543,202.803238 190.478622,209.138921 190.462048,209.202578" id="Fill-15" fill="#009B80" mask="url(#mask-5)"></path>
                <path d="M174.240552,171.884607 C174.189325,171.868066 169.112762,170.24154 164.116055,171.640503 L163.694682,170.143297 C169.164492,168.610001 174.503722,170.333768 174.728722,170.407952 L174.240552,171.884607 Z" id="Fill-16" fill="#009B80" mask="url(#mask-5)"></path>
                <path d="M184.896311,230.730214 C184.84659,230.671068 179.881021,224.816075 174.797427,223.826125 L175.095251,222.299847 C180.724269,223.395559 185.87466,229.474105 186.091624,229.731743 L184.896311,230.730214 Z" id="Fill-17" fill="#009B80" mask="url(#mask-5)"></path>
                <path d="M183.484286,250.359401 L182.143326,249.567942 C182.30404,249.295769 186.263136,242.861843 201.490313,238.827858 L201.889085,240.331079 C187.273627,244.203163 183.520949,250.29825 183.484286,250.359401" id="Fill-18" fill="#009B80" mask="url(#mask-5)"></path>
                <path d="M171.081512,149.665559 L169.760642,148.841018 C169.860586,148.679619 172.335084,144.848135 182.737316,142.474259 L183.084358,143.990512 C173.435474,146.191961 171.104113,149.631475 171.081512,149.665559" id="Fill-19" fill="#009B80" mask="url(#mask-5)"></path>
                <path d="M187.077907,194.566751 C186.981479,194.496577 177.283376,187.561411 168.340128,189.304726 L168.0413,187.778448 C177.658041,185.903808 187.576624,193.005887 187.994481,193.309138 L187.077907,194.566751 Z" id="Fill-20" fill="#009B80" mask="url(#mask-5)"></path>
                <path d="M164.723655,258.074298 C164.052171,256.971568 148.23889,230.880486 144.826724,215.753042 C143.002617,207.66803 145.351055,201.20002 147.837104,194.352069 C150.123265,188.05398 152.487773,181.541861 151.904682,173.082923 C151.197037,162.826536 147.464448,154.871345 143.854403,147.178303 C141.240285,141.608015 138.771311,136.346491 137.661378,130.610293 L139.191177,130.315563 C140.264448,135.861792 142.693744,141.038104 145.265173,146.519171 C148.935988,154.341032 152.731356,162.430055 153.458588,172.976159 C154.06428,181.762407 151.643019,188.432417 149.301613,194.881881 C146.895921,201.509787 144.62332,207.770283 146.346981,215.411697 C149.702896,230.289524 165.892349,256.999136 166.055073,257.2673 L164.723655,258.074298 Z" id="Fill-21" fill="#00B195" mask="url(#mask-5)"></path>
                <path d="M148.685575,192.389712 C148.677539,192.36064 147.913142,189.466476 145.670173,186.339737 C142.69043,182.185955 138.64495,179.60206 133.644224,178.659226 L133.93351,177.131444 C140.696066,178.406099 144.757617,182.377429 146.973968,185.485623 C149.367606,188.843434 150.161635,191.876442 150.194782,192.003757 L148.685575,192.389712 Z" id="Fill-22" fill="#00B195" mask="url(#mask-5)"></path>
                <path d="M146.296557,215.903013 L144.875742,215.264934 C144.981211,215.029351 147.577249,209.460066 157.661568,205.992984 L158.169325,207.463624 C148.782104,210.690611 146.320162,215.851386 146.296557,215.903013" id="Fill-23" fill="#00B195" mask="url(#mask-5)"></path>
                <path d="M144.333231,148.152063 C144.249358,147.756083 142.333845,138.389398 146.877037,132.677259 L148.097963,133.644654 C144.004771,138.789889 145.838421,147.741046 145.857506,147.830768 L144.333231,148.152063 Z" id="Fill-24" fill="#00B195" mask="url(#mask-5)"></path>
                <path d="M167.53495,166.534464 C158.535954,164.530002 152.812517,169.329382 152.75476,169.377501 L151.739247,168.198583 C151.995385,167.97904 158.120608,162.844831 167.874459,165.016206 L167.53495,166.534464 Z" id="Fill-25" fill="#00B195" mask="url(#mask-5)"></path>
                <polygon id="Fill-26" fill="#FFAF00" mask="url(#mask-5)" points="168.373677 334.343132 142.882383 269.693608 214.694046 253.492507 220.347171 324.105792"></polygon>
                <path d="M234.905675,144.000186 L271.357684,143.123015 C271.357684,143.123015 268.405061,134.47561 264.136088,134.10369 C259.867115,133.731769 258.77476,136.49962 258.77476,136.49962 C258.77476,136.49962 256.994849,129.77698 250.358354,130.172459 C243.721858,130.567938 243.028276,136.49962 243.028276,136.49962 C243.028276,136.49962 241.938432,134.522226 238.868287,134.621471 C235.797137,134.720216 234.905675,144.000186 234.905675,144.000186" id="Fill-27" fill="#FFFFFF" mask="url(#mask-5)"></path>
                <path d="M275.843019,102.546979 L324.954291,102.546979 C324.954291,102.546979 324.53091,91.0374903 317.616177,91.0881156 C310.700441,91.1382397 307.31389,95.9270933 307.31389,95.9270933 C307.31389,95.9270933 308.442907,82.6351926 302.092684,82.6612571 C295.741456,82.6873216 290.802003,90.5427658 290.802003,90.5427658 C290.802003,90.5427658 291.931021,84.8005524 286.709816,85.0822496 C281.488108,85.3639469 275.843019,102.546979 275.843019,102.546979" id="Fill-28" fill="#FFFFFF" mask="url(#mask-5)"></path>
                <polygon id="Fill-29" fill="#FFB000" mask="url(#mask-5)" points="247.036741 286.741907 324.650692 207.590488 337.662522 220.323505 260.800915 300.211247"></polygon>
                <polygon id="Fill-30" fill="#FFC300" mask="url(#mask-5)" points="328.488599 212.857375 251.631512 291.237886 256.595575 296.094908 334.209526 216.94399"></polygon>
                <path d="M324.650742,207.590438 L353.190586,190.948745 L337.662573,220.323455 C337.662573,220.323455 333.830541,222.059252 332.70303,221.029703 C331.575519,220.000155 331.361066,217.140577 331.361066,217.140577 C331.361066,217.140577 328.503365,218.097445 326.660173,216.220299 C324.816479,214.342651 324.975184,211.553748 324.975184,211.553748 C324.975184,211.553748 323.691479,212.799832 323.184224,211.199872 C322.67697,209.59941 324.650742,207.590438 324.650742,207.590438" id="Fill-31" fill="#FFBF81" mask="url(#mask-5)"></path>
                <polygon id="Fill-32" fill="#0C1B4F" mask="url(#mask-5)" points="353.190686 190.948645 342.98784 196.898372 347.639012 201.450139"></polygon>
                <path d="M247.036741,286.741907 C247.036741,286.741907 240.828147,295.793813 248.350078,300.917495 C255.873013,306.041679 260.800915,300.211247 260.800915,300.211247 L247.036741,286.741907 Z" id="Fill-33" fill="#FFFFFF" mask="url(#mask-5)"></path>
                <path d="M86.4077846,200.08115 C86.0823382,202.405403 87.7055525,204.552719 90.0344029,204.878024 C92.3627511,205.202828 94.5153181,203.582317 94.8407645,201.258565 C95.1662109,198.934312 93.5429967,196.786495 91.213644,196.46119 C88.8852958,196.136386 86.733231,197.756897 86.4077846,200.08115" id="Fill-34" fill="#FFFFFF" mask="url(#mask-5)"></path>
            </g>
            <g id="Group-38" transform="translate(138.000000, 219.000000)">
                <mask id="mask-7" fill="white">
                    <use xlink:href="#path-6"></use>
                </mask>
                <g id="Clip-37"></g>
                <polygon id="Fill-36" fill="url(#linearGradient-8)" mask="url(#mask-7)" points="0.247757653 0.059902027 42.2891658 148.567095 196.877378 148.512226 154.836472 0.00553716216"></polygon>
            </g>
            <g id="Group-129" transform="translate(95.000000, 219.000000)">
                <polygon id="Fill-39" fill="#FFFFFF" points="154.776827 148.497862 0.3319775 148.443522 42.3342608 0.00528301887 196.778609 0.0596226415"></polygon>
                <polygon id="Fill-41" fill="#FFB000" points="66.326815 35.2794969 48.5957421 35.272956 53.7245233 17.1451572 71.4560983 17.1516981"></polygon>
                <polygon id="Fill-43" fill="#EDEDED" points="92.3434679 35.2888553 74.612395 35.2823145 79.7416783 17.1545157 97.4732533 17.1610566"></polygon>
                <polygon id="Fill-45" fill="#EDEDED" points="118.360623 35.2977107 100.62955 35.291673 105.758331 17.1638742 123.489906 17.1704151"></polygon>
                <polygon id="Fill-47" fill="#EDEDED" points="144.377226 35.3070189 126.646153 35.300478 131.775436 17.1731824 149.507011 17.1792201"></polygon>
                <polygon id="Fill-49" fill="#EDEDED" points="170.394381 35.3163774 152.663308 35.3098365 157.792089 17.1820377 175.523664 17.1885786"></polygon>
                <polygon id="Fill-51" fill="#EDEDED" points="59.5594848 59.1955723 41.8284119 59.1895346 46.9571931 41.0617358 64.6887681 41.0682767"></polygon>
                <polygon id="Fill-53" fill="#EDEDED" points="85.5761377 59.2049308 67.8450648 59.1983899 72.9743481 41.0710943 90.7059231 41.0776352"></polygon>
                <polygon id="Fill-55" fill="#EDEDED" points="111.592791 59.214239 93.8622198 59.2076981 98.991001 41.0804025 116.722576 41.0864403"></polygon>
                <polygon id="Fill-57" fill="#FF0F4A" points="137.609895 59.2235975 119.878823 59.2170566 125.008106 41.0892579 142.739179 41.0957987"></polygon>
                <polygon id="Fill-59" fill="#EDEDED" points="163.626548 59.2324528 145.895977 59.2264151 151.024759 41.0986164 168.756334 41.1051572"></polygon>
                <polygon id="Fill-61" fill="#EDEDED" points="52.7916525 83.1121509 35.0610817 83.1056101 40.1898629 64.9783145 57.9214379 64.9843522"></polygon>
                <polygon id="Fill-63" fill="#EDEDED" points="78.8088075 83.1215094 61.0777346 83.1149686 66.2070179 64.9871698 83.9380908 64.9937107"></polygon>
                <polygon id="Fill-65" fill="#FFB000" points="39.2643225 130.919245 21.5332496 130.913208 26.6620308 112.785409 44.3936058 112.79195"></polygon>
                <polygon id="Fill-67" fill="#EDEDED" points="130.842565 83.139673 113.111492 83.1331321 118.240776 65.0058365 135.971849 65.0123774"></polygon>
                <polygon id="Fill-69" fill="#EDEDED" points="156.859218 83.1490314 139.128145 83.1424906 144.257429 65.015195 161.989004 65.0212327"></polygon>
                <polygon id="Fill-71" fill="#FF0F4A" points="46.0243223 107.028226 28.2932494 107.022189 33.4225327 88.8943899 51.1541077 88.9009308"></polygon>
                <polygon id="Fill-73" fill="#EDEDED" points="72.0414271 107.037585 54.3103542 107.031044 59.4391354 88.9037484 77.1707104 88.9102893"></polygon>
                <polygon id="Fill-75" fill="#EDEDED" points="98.05808 107.046893 80.3270071 107.040352 85.4562904 88.9130566 103.187865 88.9190943"></polygon>
                <polygon id="Fill-77" fill="#EDEDED" points="124.075235 107.056252 106.344162 107.049711 111.472943 88.9219119 129.204518 88.9284528"></polygon>
                <polygon id="Fill-79" fill="#EDEDED" points="150.091888 107.065107 132.360815 107.058566 137.490098 88.9312704 155.221673 88.9378113"></polygon>
                <polygon id="Fill-81" fill="#EDEDED" points="65.2740969 130.954113 47.543024 130.947572 52.6718052 112.819774 70.4033802 112.826314"></polygon>
                <polygon id="Fill-83" fill="#EDEDED" points="91.2907498 130.962969 73.5596769 130.956931 78.6889602 112.829132 96.4205352 112.835673"></polygon>
                <polygon id="Fill-85" fill="#0C1B4F" points="117.307905 130.972327 99.5768319 130.965786 104.705613 112.838491 122.437188 112.845031"></polygon>
                <polygon id="Fill-87" fill="#EDEDED" points="143.324558 130.981635 125.593485 130.975094 130.722768 112.847799 148.453841 112.853836"></polygon>
                <polygon id="Fill-89" fill="#FF0F4A" points="39.9679421 65.7634717 41.4244858 82.9005786 58.2929796 68.7853585 57.5514025 67.4610818 43.7225213 77.7976855 43.0547504 65.764478"></polygon>
                <polygon id="Fill-91" fill="#FF0F4A" points="60.6347465 89.4005031 62.0912902 106.538113 78.959784 92.4223899 78.2182069 91.0981132 64.3898277 101.434717 63.7215548 89.4015094"></polygon>
                <polygon id="Fill-93" fill="#FF0F4A" points="131.702584 113.344553 133.158625 130.48166 150.027119 116.365937 149.285542 115.04166 135.457163 125.378767 134.78889 113.34556"></polygon>
                <polygon id="Fill-95" fill="#FF0F4A" points="78.8779444 17.6510189 80.3344881 34.7881258 97.2029819 20.6724025 96.4614048 19.3486289 82.6325235 29.6847296 81.9647527 17.6520252"></polygon>
                <path d="M182.11637,81.6897107 C182.11637,81.6897107 182.315697,79.6363774 179.943855,79.1961258 C177.571511,78.7558742 174.36119,81.5397736 175.500417,82.4539874 C176.640147,83.367195 182.020472,83.3088302 182.020472,83.3088302 L182.11637,81.6897107 Z" id="Fill-97" fill="#FFBF81"></path>
                <polygon id="Fill-99" fill="#FFBF81" points="208.634102 149.249157 209.030245 155.199849 211.471375 155.199849 210.712727 148.951296"></polygon>
                <path d="M199.248959,158.962214 C199.248959,158.962214 206.829915,154.96473 208.637415,154.668377 C210.445418,154.372025 211.731253,154.506365 211.731253,154.506365 L213.017088,158.639698 L199.248959,158.962214 Z" id="Fill-101" fill="#FF0F4A"></path>
                <polygon id="Fill-103" fill="#FFB000" points="199.029298 158.781384 213.347208 158.318491 213.347208 159.486289 199.029298 159.596478"></polygon>
                <path d="M214.663018,96.6931321 L210.887853,123.506214 L211.891518,151.545459 L207.993845,151.823698 C207.993845,151.823698 203.425389,129.762314 202.93636,122.885836 C202.49302,116.649862 204.335164,98.6735094 204.335164,98.6735094 L214.663018,96.6931321 Z" id="Fill-105" fill="#0C1B4F"></path>
                <polygon id="Fill-107" fill="#FFBF81" points="217.345047 149.592604 217.740688 155.543296 220.181817 155.543296 219.42317 149.295245"></polygon>
                <path d="M207.959904,159.30566 C207.959904,159.30566 215.540358,155.308176 217.347858,155.011824 C219.156362,154.715975 220.441696,154.850314 220.441696,154.850314 L221.727531,158.983648 L207.959904,159.30566 Z" id="Fill-109" fill="#FF0F4A"></path>
                <polygon id="Fill-111" fill="#FFB000" points="207.739791 159.12483 222.057701 158.661937 222.057701 159.829736 207.739791 159.940428"></polygon>
                <path d="M222.549743,97.2350692 C225.305176,100.443119 219.60151,123.228528 219.60151,123.228528 L220.604672,151.267774 L216.706497,151.546013 C216.706497,151.546013 212.138543,129.484629 211.649012,122.607648 C211.205672,116.371673 212.901207,97.5299119 212.901207,97.5299119 C212.901207,97.5299119 219.793807,94.0265157 222.549743,97.2350692" id="Fill-113" fill="#0C1B4F"></path>
                <path d="M204.130565,56.1919497 C204.130565,56.1919497 200.277075,45.1459119 210.582336,43.845283 C219.209634,42.7569811 217.751081,52.4540881 223.513994,56.9054088 C229.276906,61.3572327 231.768746,53.0050314 238.102527,59.9152201 C244.436811,66.8264151 239.184015,81.3904403 226.704734,80.7006289 C214.22495,80.0108176 213.929223,71.3698113 211.075381,68.0057862 C208.222042,64.6422642 210.108369,61.5896855 207.651675,60.9683019 C205.194981,60.3474214 204.130565,56.1919497 204.130565,56.1919497" id="Fill-115" fill="#FFB000"></path>
                <path d="M206.19724,69.1336855 C206.19724,69.1336855 200.216926,78.9525535 197.250617,80.0041258 C194.283305,81.0556981 181.851721,80.0911698 181.851721,80.0911698 L181.45608,83.4159497 C181.45608,83.4159497 191.516826,85.9155723 198.200057,84.7150692 C204.884292,83.5150692 212.166007,70.8826164 211.771871,70.7814843 C211.377736,70.6808553 206.19724,69.1336855 206.19724,69.1336855" id="Fill-117" fill="#FF0F4A"></path>
                <path d="M209.376934,63.8909686 C217.191359,62.0575094 216.372461,48.4957484 211.743755,48.0056855 C201.822588,46.9546164 201.562509,65.7249308 209.376934,63.8909686" id="Fill-119" fill="#FFBF81"></path>
                <path d="M203.580934,97.9760503 C203.580934,97.9760503 207.30087,90.4439748 206.73452,84.7584403 C206.600463,83.4135346 203.779257,83.2957987 203.253576,78.2960503 C202.948309,75.3944151 204.538407,70.9602013 207.281288,67.5685031 C209.849947,64.3936604 215.493363,62.9169308 220.022657,66.4560503 C224.213547,69.7290063 220.173784,79.8145409 221.581626,89.4542893 C222.230317,93.8955472 223.824432,98.0701384 223.824432,98.0701384 L203.580934,97.9760503 Z" id="Fill-121" fill="#FF0F4A"></path>
                <polygon id="Fill-123" fill="#FFBF81" points="208.266878 60.1674969 210.925911 69.893283 214.680993 64.4477484 212.096267 58.5996981"></polygon>
                <path d="M205.534842,47.6822138 C205.534842,47.6822138 203.946752,50.7488805 206.495327,52.6980629 C209.043902,54.6467421 216.689125,54.1355472 216.689125,54.1355472 L215.448979,47.0447296 C215.448979,47.0447296 210.649062,45.4940377 210.553667,45.4900126 C210.458271,45.4849811 205.534842,47.6822138 205.534842,47.6822138" id="Fill-125" fill="#FFB000"></path>
                <path d="M213.908939,55.3247296 C213.875299,56.0029686 214.396462,56.5805786 215.07327,56.6142893 C215.750581,56.6485031 216.32647,56.1257358 216.360612,55.4474969 C216.394251,54.7692579 215.873089,54.1916478 215.195779,54.1579371 C214.519472,54.1237233 213.942579,54.6459874 213.908939,55.3247296" id="Fill-127" fill="#FFBF81"></path>
            </g>
            <g id="Group-132" transform="translate(299.000000, 273.000000)">
                <mask id="mask-10" fill="white">
                    <use xlink:href="#path-9"></use>
                </mask>
                <g id="Clip-131"></g>
                <path d="M1.948,2.23888889 C1.6305,2.44333333 1.2725,2.44222222 0.951,2.44055556 C0.573,2.43833333 0.244,2.43666667 0.087,2.76777778 C-0.2055,3.38222222 1.26,5.93888889 2.795,3.355 C3.573,2.04444444 3.759,0.515 3.759,0.515 L3.214,0.353333333 C3.214,0.353333333 2.6385,1.795 1.948,2.23888889" id="Fill-130" fill="url(#linearGradient-11)" mask="url(#mask-10)"></path>
            </g>
            <g id="Group-249">
                <polygon id="Fill-133" fill="#FFB000" points="311.845781 322.353505 302.272232 312.583822 294.942154 319.253331 304.671395 328.064641"></polygon>
                <path d="M309.282137,316.253456 C309.282137,316.253456 307.891456,314.738205 305.977952,316.204835 C304.064448,317.672468 303.983086,321.910458 305.423488,321.673371 C306.86389,321.436284 309.588499,318.111054 309.588499,318.111054 L309.282137,316.253456 Z" id="Fill-135" fill="#FFBF81"></path>
                <path d="M312.013527,289.761582 C314.252478,292.515899 320.122567,301.15378 319.279821,304.180271 C318.436574,307.206763 307.526585,314.258718 307.526585,314.258718 L309.408951,317.498738 C309.408951,317.498738 321.553929,312.431696 324.409118,306.280971 C327.264308,300.130247 318.076473,287.756118 316.014308,285.575721 C313.951641,283.396326 309.774576,287.007264 312.013527,289.761582" id="Fill-137" fill="#FF0F4A"></path>
                <polygon id="Fill-139" fill="#0C1B4F" points="134.854102 271.355672 128.743945 290.305578 142.021959 292.248888 146.980497 274.937538"></polygon>
                <path d="M122.578795,373.401712 C123.36529,370.018337 114.476283,369.146178 112.544196,368.831399 C110.611607,368.516119 109.2375,368.658471 109.2375,368.658471 L107.863393,373.058863 C107.863393,373.058863 120.732087,373.406724 122.578795,373.401712" id="Fill-141" fill="#FFB000"></path>
                <polygon id="Fill-143" fill="#FFFFFF" points="122.813739 373.209386 107.510725 372.716666 107.510725 373.959743 122.813739 374.077033"></polygon>
                <path d="M112.054018,373.401712 C112.289063,370.060441 103.951507,369.146178 102.01942,368.831399 C100.08683,368.516119 98.7132254,368.658471 98.7132254,368.658471 L97.3386161,373.058863 C97.3386161,373.058863 110.192746,373.515995 112.054018,373.401712" id="Fill-145" fill="#FFB000"></path>
                <polygon id="Fill-147" fill="#FFFFFF" points="112.288962 373.209386 96.9859487 372.716666 96.9859487 373.959743 112.288962 374.077033"></polygon>
                <path d="M101.366869,308.726023 C101.366869,308.726023 104.97139,327.928554 105.54745,334.248197 C106.176244,341.137249 109.25995,368.942574 109.25995,368.942574 L113.43601,368.942574 C113.43601,368.942574 113.43149,340.726733 113.43149,333.388068 C113.43149,326.733597 113.43601,309.143056 113.43601,309.143056 L101.366869,308.726023 Z" id="Fill-149" fill="#0C1B4F"></path>
                <path d="M93.8794922,308.401019 C90.9600167,314.912637 95.9291016,331.846051 95.9994141,338.19226 C96.0752511,345.108379 98.6617467,368.854155 98.6617467,368.854155 L103.267718,369.222066 C103.267718,369.222066 103.340541,345.276796 103.926646,337.96219 C104.458008,331.328269 105.877316,309.776423 105.877316,309.776423 C105.877316,309.776423 96.7989676,301.8889 93.8794922,308.401019" id="Fill-151" fill="#0C1B4F"></path>
                <path d="M92.575346,309.210623 C92.575346,309.210623 83.6411384,272.056156 103.098114,271.364444 C122.555089,270.672732 115.498225,310.521367 115.498225,310.521367 L92.575346,309.210623 Z" id="Fill-153" fill="#00339C"></path>
                <path d="M139.227991,300.222074 C139.221462,300.195007 140.965714,298.97599 142.433237,299.10531 C143.900759,299.235131 148.370123,301.922784 146.552042,303.534272 C144.734464,305.146263 139.867333,302.843062 139.867333,302.843062 L139.227991,300.222074 Z" id="Fill-155" fill="#FFC17B"></path>
                <path d="M112.209007,276.011246 C112.411908,276.781653 124.576473,296.540561 124.576473,296.540561 L140.272232,299.259792 L139.814196,303.272224 C139.814196,303.272224 123.852254,303.411067 119.403984,300.734442 C115.337913,298.287886 101.812801,281.619127 101.812801,281.619127 L112.209007,276.011246 Z" id="Fill-157" fill="#00339C"></path>
                <path d="M105.66673,265.627644 L102.61567,271.389406 C102.61567,271.389406 107.877556,275.047962 107.884085,274.935183 C107.890614,274.822905 109.381239,267.909793 109.381239,267.909793 L105.66673,265.627644 Z" id="Fill-159" fill="#FFC17B"></path>
                <path d="M104.053108,256.956782 C104.053108,256.956782 101.143677,265.44429 106.278499,266.3776 C111.41332,267.310911 110.779503,259.974752 112.134023,260.015352 C113.489046,260.05495 113.19976,263.04836 113.19976,263.04836 L114.143454,263.102494 L116.352773,258.11164 L104.053108,256.956782 Z" id="Fill-161" fill="#74122C"></path>
                <path d="M116.037522,258.823703 C116.037522,258.823703 120.609844,253.132115 119.489364,251.064998 C117.029431,246.524259 106.790926,248.335241 104.394275,250.759742 C103.270781,251.897058 102.325078,263.196025 103.998013,264.926308 C105.594107,266.576894 106.543326,261.765484 106.543326,261.765484 C106.543326,261.765484 110.755547,259.003147 112.04779,259.077331 C113.339531,259.151013 116.037522,258.823703 116.037522,258.823703" id="Fill-163" fill="#0C1B4F"></path>
                <path d="M117.938571,261.684283 C117.621663,267.198933 114.296384,271.493564 110.510558,271.277529 C106.725234,271.060993 103.912734,266.414993 104.229643,260.900343 C104.546049,255.385693 107.87183,251.09006 111.657154,251.307097 C115.44298,251.523633 118.25548,256.169633 117.938571,261.684283" id="Fill-165" fill="#FFC17B"></path>
                <path d="M117.412785,256.971969 C117.412785,256.971969 111.760162,255.93791 110.63918,256.956932 C109.517695,257.975453 108.989849,261.292163 108.989849,261.292163 L107.605195,261.292163 C107.605195,261.292163 107.538901,258.442108 106.68159,258.900242 C105.82428,259.357875 106.435999,263.30715 105.998052,264.88656 C105.560106,266.46647 103.979079,266.400808 103.121267,264.42592 C102.262952,262.451533 103.500452,254.362009 103.500452,254.362009 L106.285831,251.524987 L110.115352,250.537542 L114.002126,251.130009 L117.412785,251.919964 L117.412785,256.971969 Z" id="Fill-167" fill="#0C1B4F"></path>
                <path d="M93.5553013,309.266411 L113.436161,310.403726 L113.435156,314.439215 C113.435156,314.439215 106.916183,311.860833 102.206752,310.947071 C97.4968192,310.032808 93.3227679,310.159121 93.3227679,310.159121 L93.5553013,309.266411 Z" id="Fill-169" fill="#070D24"></path>
                <path d="M116.745268,298.037467 L96.9879576,286.533993 C96.9879576,286.533993 106.580592,297.634469 110.627578,299.397333 C114.675067,301.159695 116.520268,301.601288 116.520268,301.601288 L116.745268,298.037467 Z" id="Fill-171" fill="#00215C"></path>
                <path d="M102.298259,274.34843 C102.900435,274.962951 115.097143,291.852257 115.097143,291.852257 L127.161261,283.955711 L129.792455,286.741606 C129.792455,286.741606 117.76048,300.433497 112.487042,298.53981 C107.213605,296.645621 95.5432366,285.142649 95.5432366,285.142649 L102.298259,274.34843 Z" id="Fill-173" fill="#00339C"></path>
                <path d="M127.493739,284.308133 C127.493739,284.308133 131.103281,279.74183 133.119743,280.263121 C136.119576,281.037537 131.834029,286.477503 130.227891,286.519607 C128.621752,286.562212 127.493739,284.308133 127.493739,284.308133" id="Fill-175" fill="#FFC17B"></path>
                <path d="M241.420982,163.190988 C241.420982,167.898641 237.596987,171.715087 232.880022,171.715087 C228.163058,171.715087 224.339063,167.898641 224.339063,163.190988 C224.339063,158.483335 228.163058,154.666889 232.880022,154.666889 C237.596987,154.666889 241.420982,158.483335 241.420982,163.190988" id="Fill-177" fill="#FFD77A"></path>
                <path d="M229.616568,156.402435 C229.616568,158.516668 227.899436,160.23041 225.781021,160.23041 C223.662606,160.23041 221.945474,158.516668 221.945474,156.402435 C221.945474,154.288201 223.662606,152.573958 225.781021,152.573958 C227.899436,152.573958 229.616568,154.288201 229.616568,156.402435" id="Fill-179" fill="#FFD77A"></path>
                <polygon id="Fill-181" fill="#0C1B4F" points="257.601797 201.106839 261.646775 190.361742 267.881987 187.333747 263.331763 199.49936"></polygon>
                <polygon id="Fill-183" fill="#FFBF81" points="239.975608 239.700668 238.973153 242.590822 241.10764 244.424361 242.796646 240.033994"></polygon>
                <polygon id="Fill-185" fill="#FFBF81" points="263.270541 247.944223 265.052963 251.778715 268.282316 251.778715 265.77668 247.055524"></polygon>
                <path d="M276.902377,255.551453 C276.902377,255.551453 269.513036,251.620724 267.747188,251.322987 C265.981842,251.025751 264.724252,251.149557 264.724252,251.149557 L263.446574,255.167001 L276.902377,255.551453 Z" id="Fill-187" fill="#FF0F4A"></path>
                <polygon id="Fill-189" fill="#0C1B4F" points="277.118689 255.37667 263.125497 254.852373 263.11947 255.989688 277.114169 256.170636"></polygon>
                <path d="M239.692098,179.22262 C239.692098,179.22262 248.965815,187.407881 252.231328,187.440462 C255.497344,187.47204 261.599967,179.337404 261.599967,179.337404 L264.338136,179.43264 C264.338136,179.43264 259.845167,191.294501 252.880212,192.365151 C245.915257,193.435801 234.525636,183.528779 234.878203,183.298208 C235.231272,183.067136 239.692098,179.22262 239.692098,179.22262" id="Fill-191" fill="#A103AA"></path>
                <path d="M236.035246,176.138336 C227.873973,174.473716 228.324978,160.437974 233.112757,159.795383 C243.373862,158.417472 244.196016,177.802956 236.035246,176.138336" id="Fill-193" fill="#FFBF81"></path>
                <path d="M224.696752,216.192781 L248.805402,213.524175 L239.407634,240.093441 L242.796696,241.641272 C242.796696,241.641272 261.124654,215.016369 256.452388,210.189421 C252.21606,205.812587 232.901217,208.813014 232.901217,208.813014 L224.696752,216.192781 Z" id="Fill-195" fill="#0C1B4F"></path>
                <path d="M221.838348,214.426709 C222.867422,224.753771 246.888181,219.593498 246.888181,219.593498 L263.294598,249.153667 L266.518929,248.018858 C266.518929,248.018858 256.090078,221.186441 252.766306,215.352501 C249.751908,210.061905 231.622835,209.313052 231.622835,209.313052 C231.622835,209.313052 221.125179,207.265985 221.838348,214.426709" id="Fill-197" fill="#0C1B4F"></path>
                <path d="M241.025173,209.271098 C241.025173,209.271098 238.22774,204.363951 238.64861,198.473371 C238.748052,197.079922 242.598666,195.772185 243.554414,192.653966 C244.50966,189.535748 242.575061,183.856691 241.89303,182.06676 C239.858488,176.730051 230.823834,174.594264 224.32495,179.95353 C220.073555,183.459207 222.670597,195.017316 223.383767,203.76146 C223.761445,208.385405 222.018198,212.7061 222.018198,212.7061 L241.025173,209.271098 Z" id="Fill-199" fill="#A103AA"></path>
                <path d="M245.75173,252.563557 C245.75173,252.563557 242.585156,244.826907 241.417969,243.472054 C240.250279,242.116699 239.203627,241.410451 239.203627,241.410451 L235.648326,243.685081 L245.75173,252.563557 Z" id="Fill-201" fill="#FF0F4A"></path>
                <polygon id="Fill-203" fill="#0C1B4F" points="246.029816 252.566515 235.602974 243.238927 234.870218 244.10908 245.518041 253.17452"></polygon>
                <polygon id="Fill-205" fill="#FFBF81" points="237.076975 172.258583 234.604487 182.385148 230.54846 176.869496 233.058114 170.751352"></polygon>
                <path d="M239.544492,159.278454 C239.544492,159.278454 241.281713,162.400682 238.695218,164.488851 C236.10822,166.577521 228.162405,166.27427 228.162405,166.27427 L229.240195,158.912047 C229.240195,158.912047 234.174626,157.168732 234.273064,157.160712 C234.372003,157.153193 239.544492,159.278454 239.544492,159.278454" id="Fill-207" fill="#FFD77A"></path>
                <path d="M264.338237,179.43259 C264.338237,179.43259 264.686786,175.992074 261.085781,175.695339 C257.484777,175.399106 255.665692,178.23663 257.893092,179.337354 C260.120993,180.438079 261.284665,179.746868 261.284665,179.746868 L264.338237,179.43259 Z" id="Fill-209" fill="#FFBF81"></path>
                <path d="M255.116602,220.19193 L251.389035,227.703021 L253.252818,231.061334 C253.252818,231.061334 253.581278,227.095016 254.324079,225.626381 C255.066378,224.157746 256.489704,223.316163 256.489704,223.316163 L255.116602,220.19193 Z" id="Fill-211" fill="#0A1133"></path>
                <polygon id="Fill-213" fill="#A103AA" points="232.880073 197.287335 256.490006 197.287335 256.490006 199.890278 233.812215 203.105737"></polygon>
                <path d="M256.489905,197.287335 C256.489905,197.287335 258.44861,193.969623 260.633823,194.531012 C262.819035,195.092402 261.926568,198.562993 260.633823,199.380015 C259.341077,200.196536 256.489905,199.890278 256.489905,199.890278 L256.489905,197.287335 Z" id="Fill-215" fill="#FFBF81"></path>
                <polygon id="Fill-217" fill="#FFB400" points="202.444051 257.479074 204.109955 251.439124 210.47173 252.31028 209.03635 259.41236"></polygon>
                <path d="M190.596445,278.272694 C191.370887,278.506773 207.170608,286.321617 207.170608,286.321617 L213.518823,274.372039 L216.948064,275.475771 C216.948064,275.475771 213.254648,292.181622 208.056044,293.00516 C202.856434,293.828699 188.033052,289.633314 188.033052,289.633314 L190.596445,278.272694 Z" id="Fill-219" fill="#FFB000"></path>
                <path d="M213.952199,274.511434 C213.952199,274.511434 215.030491,270.618799 216.948013,270.226327 C218.865033,269.833856 218.508449,274.336 217.206161,275.096883 C215.903371,275.857265 213.952199,274.511434 213.952199,274.511434" id="Fill-221" fill="#FFC17B"></path>
                <path d="M214.32154,274.164425 C214.32154,274.164425 216.718192,271.824132 217.419308,272.62712 C218.120424,273.429606 215.1226,274.657144 215.1226,274.657144 L214.32154,274.164425 Z" id="Fill-223" fill="#FFC17B"></path>
                <path d="M209.165826,262.973625 C209.165826,268.384518 206.154442,272.770875 202.439933,272.770875 C198.725926,272.770875 195.714542,268.384518 195.714542,262.973625 C195.714542,257.562732 198.725926,253.176374 202.439933,253.176374 C206.154442,253.176374 209.165826,257.562732 209.165826,262.973625" id="Fill-225" fill="#FFC17B"></path>
                <path d="M197.385419,267.51662 C197.385419,267.51662 194.730619,276.494843 194.914939,276.494843 C195.099258,276.494843 200.076881,276.605617 200.076881,276.494843 C200.076881,276.38457 201.146133,269.540129 201.146133,269.540129 L197.385419,267.51662 Z" id="Fill-227" fill="#FFC17B"></path>
                <polygon id="Fill-229" fill="#FFC17B" points="188.52082 371.628773 188.717695 375.382064 191.691412 375.382064 191.691412 371.236302"></polygon>
                <polygon id="Fill-231" fill="#FFC17B" points="202.728013 371.481459 202.924888 375.234749 205.898605 375.234749 205.898605 371.088987"></polygon>
                <polygon id="Fill-233" fill="#FF0F4A" points="187.173532 318.370496 187.173532 372.094977 193.662874 372.094977 196.907796 327.496084 201.037148 372.094977 207.525988 372.094977 208.410921 316.898352"></polygon>
                <path d="M184.713398,319.253532 C184.713398,319.253532 180.088343,276.544316 194.224169,275.458628 C216.372104,273.757417 210.909827,319.253532 210.909827,319.253532 L184.713398,319.253532 Z" id="Fill-235" fill="#FFB000"></path>
                <path d="M187.713532,374.707694 L192.35918,374.707694 C192.35918,374.707694 198.94043,376.860022 199.548131,377.743208 C200.156836,378.625893 200.212081,379.17826 200.212081,379.17826 L187.713532,379.17826 L187.713532,374.707694 Z" id="Fill-237" fill="#FFB000"></path>
                <mask id="mask-13" fill="white">
                    <use xlink:href="#path-12"></use>
                </mask>
                <g id="Clip-240"></g>
                <polygon id="Fill-239" fill="#FF0F4A" mask="url(#mask-13)" points="187.463672 380.435672 200.589509 380.435672 200.589509 378.914407 187.463672 378.914407"></polygon>
                <path d="M201.945737,374.707694 L206.590882,374.707694 C206.590882,374.707694 213.172132,376.860022 213.780335,377.743208 C214.388538,378.625893 214.444286,379.17826 214.444286,379.17826 L201.945737,379.17826 L201.945737,374.707694 Z" id="Fill-241" fill="#FFB000" mask="url(#mask-13)"></path>
                <polygon id="Fill-242" fill="#FF0F4A" mask="url(#mask-13)" points="201.695424 380.435672 214.821261 380.435672 214.821261 378.914407 201.695424 378.914407"></polygon>
                <path d="M231.626451,277.47532 C231.59933,277.466298 231.040346,276.285375 231.931306,275.089414 C232.822768,273.893955 235.051172,271.533613 235.051172,271.533613 C235.051172,271.533613 236.909431,272.422313 237.339342,274.844809 C237.769252,277.266804 234.23404,278.314898 234.23404,278.314898 L231.626451,277.47532 Z" id="Fill-243" fill="#FFC17B" mask="url(#mask-13)"></path>
                <path d="M202.192935,279.526798 C202.967377,279.760376 220.66654,288.151145 220.66654,288.151145 L230.828705,277.117334 L234.810904,278.40853 C234.810904,278.40853 226.75058,294.010649 221.551473,294.834689 C216.352366,295.658729 201.528984,291.462843 201.528984,291.462843 L202.192935,279.526798 Z" id="Fill-244" fill="#FFB000" mask="url(#mask-13)"></path>
                <path d="M195.320592,259.126703 C195.320592,259.126703 192.951563,267.590152 198.026116,268.2157 C203.100167,268.841249 202.06808,261.702579 203.39548,261.665487 C204.722879,261.628896 204.607868,264.572683 204.607868,264.572683 L205.533984,264.572683 L207.414342,259.568296 L195.320592,259.126703 Z" id="Fill-245" fill="#FFB000" mask="url(#mask-13)"></path>
                <path d="M194.768789,263.27076 C194.768789,263.27076 194.40216,254.760195 195.869682,253.323639 C197.338209,251.886582 198.025765,252.393837 198.025765,252.393837 C198.025765,252.393837 199.254224,249.80142 201.09139,250.365316 C202.928052,250.928711 203.323309,251.632954 203.323309,251.632954 C203.323309,251.632954 207.360753,247.322284 210.550932,250.562304 C213.74111,253.802324 207.822807,258.480403 207.210084,260.110438 C206.597863,261.740974 199.963878,260.480855 199.963878,260.480855 L194.768789,263.27076 Z" id="Fill-246" fill="#FFB000" mask="url(#mask-13)"></path>
                <path d="M187.173532,319.253532 L208.373253,319.253532 L208.373253,320.76377 C208.373253,320.76377 198.995575,320.698608 195.023923,320.76377 C191.052271,320.828931 187.173532,321.770261 187.173532,321.770261 L187.173532,319.253532 Z" id="Fill-247" fill="#D00B3A" mask="url(#mask-13)"></path>
                <path d="M210.408147,293.632513 L201.528683,291.463143 C201.528683,291.463143 204.920257,292.918746 206.776507,294.283625 C208.631752,295.648002 210.980692,297.625898 210.980692,297.625898 C210.980692,297.625898 210.752176,294.508181 210.408147,293.632513" id="Fill-248" fill="#E78C00" mask="url(#mask-13)"></path>
            </g>
        </g>
    </g>
</svg>