<svg xmlns="http://www.w3.org/2000/svg" xmlns:xlink="http://www.w3.org/1999/xlink" width="35" height="35" viewBox="0 0 35 35"><defs><path id="jwvwa" d="M811.367 1313.412l1.293-4.962 2.315.773-.057.17v4.138l-1.694 1.129 1.13 1.693-3.388 2.823h-1.106z"/><path id="jwvwb" d="M819.438 1313.153v6.03h-8.468l3.387-2.823-1.129-1.694 1.694-1.129v-4.138l.056-.169 2.145.711a3.388 3.388 0 0 1 2.315 3.212z"/><path id="jwvwc" d="M811.369 1313.413l-1.507 5.763h-.587l-.565-4.516 1.152-2.32z"/><path id="jwvwd" d="M805.275 1312.366l1.18 2.291-.565 4.517h-.587l-1.863-5.584.192-.062 1.637-1.168z"/><path id="jwvwe" d="M803.44 1313.593l1.863 5.583h-1.107l-3.387-2.822 1.13-1.694-2.259-1.129v-1.693l.841.418c.186.096.401.146.61.146.756 0 1.372-.615 1.372-1.372v-.062c0-.084-.006-.169-.023-.248z"/><path id="jwvwf" d="M804.196 1319.175h-4.516v-5.645l2.258 1.129-1.129 1.694z"/><path id="jwvwg" d="M809.865 1312.342l-2.28-1.632-2.315 1.654.006.006 1.18 2.292-.565 4.516h3.387l-.564-4.516z"/><path id="jwvwh" d="M817.744 1306.754s-.423.424-1.27.847-2.117.847-3.81.847l-1.694-.565v-2.258a5.655 5.655 0 0 0 2.145-3.387h.113a2.257 2.257 0 0 0 2.258-2.258v1.32c0 2.05.813 4.009 2.258 5.454z"/><path id="jwvwi" d="M813.228 1294.899a3.808 3.808 0 0 1-3.166 1.693h-.22v-1.693l-.097.096a5.457 5.457 0 0 1-3.855 1.597v-1.693l-.096.096a5.457 5.457 0 0 1-3.856 1.597v1.13a2.257 2.257 0 0 0-2.258 2.257v-4.516a7.905 7.905 0 0 1 13.492-5.588 7.9 7.9 0 0 1 2.314 5.588v4.516c0-.62-.254-1.185-.66-1.597a2.273 2.273 0 0 0-1.598-.66z"/><path id="jwvwj" d="M814.82 1298.39a2.257 2.257 0 0 1-1.598 3.856h-.112c.074-.361.113-.74.113-1.129v-3.387c.621 0 1.186.254 1.598.66z"/><path id="jwvwk" d="M813.23 1297.723v3.387a5.655 5.655 0 0 1-2.258 4.516 5.64 5.64 0 0 1-7.378-.525 5.64 5.64 0 0 1-1.654-3.991v-4.516a5.457 5.457 0 0 0 3.856-1.598l.096-.096v1.694a5.457 5.457 0 0 0 3.855-1.598l.096-.096v1.694h.22a3.808 3.808 0 0 0 3.167-1.694z"/><path id="jwvwl" d="M812.66 1308.455l-1.292 4.962-1.507-1.073-2.281-1.631 3.387-2.823z"/><path id="jwvwm" d="M810.964 1305.63v2.258l-3.387 2.823-3.387-2.823v-2.258a5.64 5.64 0 0 0 6.774 0z"/><path id="jwvwn" d="M807.584 1310.713l-2.315 1.654-1.637 1.168-.192.062-.96-2.873c0-.006 0-.006-.005-.011a1.38 1.38 0 0 0-.694-.954l-1.231-.655 3.647-1.214z"/><path id="jwvwo" d="M804.194 1305.625v2.258l-3.646 1.214-3.568-1.903a9.212 9.212 0 0 0 2.698-6.514v-.7c0 .621.254 1.186.66 1.598.413.406.977.66 1.598.66h.113a5.64 5.64 0 0 0 2.145 3.387z"/><path id="jwvwp" d="M802.495 1310.97v.062c0 .757-.615 1.372-1.371 1.372-.209 0-.424-.05-.61-.146l-.841-.418-5.645-2.823-5.645 2.823-.842.418a1.37 1.37 0 0 1-1.981-1.225v-.063c0-.508.277-.97.722-1.213l7.746-4.127 2.947 1.57 3.567 1.902 1.231.655c.367.203.62.553.694.954.006.005.006.005.006.01.017.08.022.165.022.25z"/><path id="jwvwq" d="M802.051 1302.246h-.113a2.273 2.273 0 0 1-1.598-.66 2.257 2.257 0 0 1 1.598-3.856v3.387c0 .39.04.768.113 1.13z"/><path id="jwvwr" d="M799.68 1319.181v2.258h-11.29v-9.596l5.645-2.823 5.645 2.823z"/><path id="jwvws" d="M818.871 1318.603h-6.343l2.578-2.147-1.097-1.644 1.475-.982v-3.842l1.457.485a2.816 2.816 0 0 1 1.93 2.674zm-18.63-1.984l2.393 1.994h-2.392zm-11.29 4.252v-8.683l5.081-2.54 5.08 2.54v8.683zm-1.656-9.117a.806.806 0 0 1-1.166-.72v-.067c0-.298.164-.57.427-.71l7.476-3.988 7.477 3.987c.263.14.426.413.426.711v.066a.806.806 0 0 1-1.166.721l-6.737-3.37zm14.308-8.981a6.22 6.22 0 0 0 2.026 3.126v1.581l-3.031 1.01-2.716-1.448a9.67 9.67 0 0 0 2.242-4.912c.41.347.918.576 1.48.643zm-.232-4.379v2.719c0 .158.012.313.024.468a1.69 1.69 0 0 1-1.153-1.597c0-.735.473-1.356 1.129-1.59zm6.21-10.265c4.046 0 7.338 3.292 7.338 7.339v2.272c-.33-.249-.71-.436-1.129-.521v-2.88h-1.129v.377a3.228 3.228 0 0 1-2.258 1.298v-2.474l-1.06 1.061a4.852 4.852 0 0 1-2.891 1.4v-2.46l-1.061 1.06a4.852 4.852 0 0 1-2.891 1.397v-1.66h-1.129v2.88c-.42.086-.8.272-1.13.522v-2.272c0-4.047 3.293-7.339 7.34-7.339zm6.186 13.452c.011-.155.023-.31.023-.468v-2.719a1.691 1.691 0 0 1 1.13 1.59 1.69 1.69 0 0 1-1.153 1.597zm3.144 5.104c-.654.443-2.053 1.17-4.169 1.189l-1.21-.403v-1.579a6.207 6.207 0 0 0 2.026-3.12 2.792 2.792 0 0 0 1.412-.587 8.173 8.173 0 0 0 1.941 4.5zm-9.961 8.54h1.262l.423 3.378h-2.108zm-2.877-6.703l2.585 2.154-2.908 2.076-.736-2.208a1.929 1.929 0 0 0-.973-1.284l-.07-.037zm3.503-1.201c1.014 0 1.97-.25 2.817-.684v.982l-2.817 2.346-2.818-2.346v-.982a6.164 6.164 0 0 0 2.818.684zm3.451 5.157l-2.524-1.803 2.585-2.153.894.298zm-.954.705l.649.464-1.062 4.067-.37-2.954zm-3.277.924l-.803-1.566 1.588-1.138 1.562 1.12-.783 1.584zm-1.731-.907l.805 1.565-.395 3.156-1.35-4.049zm-2.565-16.068a5.959 5.959 0 0 0 2.823-1.013v1.042h.564a5.974 5.974 0 0 0 3.387-1.042v1.042h.788c.953 0 1.858-.313 2.6-.863v4.815a5.086 5.086 0 0 1-5.081 5.08 5.086 5.086 0 0 1-5.081-5.08zm-2.258 17.314l.87.432-.87 1.297zm0-1.264v-.43l.023.012a1.93 1.93 0 0 0 2.195-.328l2.066 6.167h-.118l-2.848-2.363 1.206-1.8zm13.362 3.064l-2.841 2.367h-.17l2.462-9.435 1.3.433v3.62l-1.912 1.274zm6.396-3.095a3.946 3.946 0 0 0-2.702-3.749l-2.128-.709c1.923-.517 2.915-1.48 2.971-1.536l.4-.399-.4-.4a7.097 7.097 0 0 1-2.093-5.052v-5.838c0-4.67-3.798-8.468-8.467-8.468-4.67 0-8.468 3.799-8.468 8.468v5.214a8.586 8.586 0 0 1-2.257 5.813l-2.824-1.506-8.008 4.271a1.931 1.931 0 0 0-1.024 1.707v.066a1.937 1.937 0 0 0 2.8 1.731l.023-.011V1322h12.419v-2.258H820z"/><path id="jwvwt" d="M810.969 1298.855a.565.565 0 1 1-1.129 0 .565.565 0 0 1 1.129 0z"/><path id="jwvwu" d="M805.319 1298.855a.565.565 0 1 1-1.129 0 .565.565 0 0 1 1.129 0z"/><path id="jwvwv" d="M807.578 1304.498a2.26 2.26 0 0 0 2.258-2.258h-1.129a1.13 1.13 0 0 1-2.258 0h-1.129a2.26 2.26 0 0 0 2.258 2.258z"/><path id="jwvww" d="M794.034 1314.098c.311 0 .564.253.564.565h1.13c0-.735-.474-1.356-1.13-1.59v-1.233h-1.129v1.233a1.691 1.691 0 0 0-1.129 1.59c0 .933.76 1.693 1.694 1.693a.565.565 0 1 1-.565.565h-1.129c0 .735.474 1.356 1.129 1.59v1.232h1.13v-1.233a1.691 1.691 0 0 0 1.128-1.59c0-.933-.76-1.693-1.693-1.693a.565.565 0 0 1 0-1.129z"/></defs><g><g transform="translate(-785 -1287)"><g><use fill="#aab2bd" xlink:href="#jwvwa"/></g><g><use fill="#838f9b" xlink:href="#jwvwb"/></g><g><use fill="#e6e9ed" xlink:href="#jwvwc"/></g><g><use fill="#e6e9ed" xlink:href="#jwvwd"/></g><g><use fill="#aab2bd" xlink:href="#jwvwe"/></g><g><use fill="#838f9b" xlink:href="#jwvwf"/></g><g><use fill="#ff826e" xlink:href="#jwvwg"/></g><g><use fill="#fcd770" xlink:href="#jwvwh"/></g><g><use fill="#fcd770" xlink:href="#jwvwi"/></g><g><use fill="#f0d0b4" xlink:href="#jwvwj"/></g><g><use fill="#f0d0b4" xlink:href="#jwvwk"/></g><g><use fill="#e6e9ed" xlink:href="#jwvwl"/></g><g><use fill="#f0d0b4" xlink:href="#jwvwm"/></g><g><use fill="#e6e9ed" xlink:href="#jwvwn"/></g><g><use fill="#fcd770" xlink:href="#jwvwo"/></g><g><use fill="#ff826e" xlink:href="#jwvwp"/></g><g><use fill="#f0d0b4" xlink:href="#jwvwq"/></g><g><use fill="#e6e9ed" xlink:href="#jwvwr"/></g><g><use xlink:href="#jwvws"/></g><g><use xlink:href="#jwvwt"/></g><g><use xlink:href="#jwvwu"/></g><g><use xlink:href="#jwvwv"/></g><g><use xlink:href="#jwvww"/></g></g></g></svg>