<svg xmlns="http://www.w3.org/2000/svg" xmlns:xlink="http://www.w3.org/1999/xlink" width="35" height="29" viewBox="0 0 35 29"><defs><path id="h8nfa" d="M416.682 1295.72c-1.42-3.526-4.077-2.559-4.077-2.559s-2.656-.967-4.076 2.559c-.857 2.126-.415 3.907.022 5.806a.844.844 0 0 0 .829.644h6.45a.844.844 0 0 0 .83-.644c.436-1.899.878-3.68.022-5.806z"/><path id="h8nfb" d="M410.693 1301.526c-.483-1.899-.971-3.68-.025-5.806.97-2.18 2.461-2.642 3.459-2.678a3.29 3.29 0 0 0-1.044.12s-2.934-.968-4.503 2.558c-.946 2.126-.458 3.907.024 5.806.096.377.477.644.916.644h2.089c-.44 0-.82-.267-.916-.644z"/><path id="h8nfc" d="M418.607 1304.601l-2.14-.901c-.453.542-.929 1.107-1.387 1.65-1.353 1.598-3.674 1.598-5.027 0-.451-.534-.92-1.09-1.366-1.624l-2.077.875s-1.61.72-1.61 2.715v7.505c0 .581.434 1.053.97 1.053h13.278c.535 0 .97-.472.97-1.053v-7.505c0-1.995-1.611-2.715-1.611-2.715z"/><path id="h8nfd" d="M407.048 1313.402v-7.723c0-.964.474-1.598.915-1.979l-1.307.484s-1.656.649-1.656 2.449v6.769c0 .525.446.95.996.95h2.047c-.55 0-.996-.425-.996-.95z"/><path id="h8nfe" d="M415.963 1303.7c-.334.37-.7.77-1.05 1.15a2.098 2.098 0 0 1-3.087 0c-.344-.373-.704-.766-1.034-1.13l-1.222.473c.442.487.908.995 1.356 1.481a3.315 3.315 0 0 0 4.876 0c.455-.494.928-1.01 1.377-1.504z"/><path id="h8nff" d="M414.5 1302.073v-1.416a3.04 3.04 0 0 1-1.808.602 3.198 3.198 0 0 1-1.907-.609v1.423a.42.42 0 0 1-.246.391l-.969.41c.393.476.826.992 1.238 1.48.966 1.148 2.624 1.148 3.59 0 .42-.497.86-1.023 1.259-1.505l-.91-.385a.42.42 0 0 1-.247-.391z"/><path id="h8nfg" d="M412.476 1303.058c.082-.057.136-.201.136-.362v-1.502c-.324-.059-.61-.253-.85-.544v1.315c0 .16-.053.304-.135.362l-.537.379c.158.317.326.654.494.987z"/><path id="h8nfh" d="M436.33 1299.008a.227.227 0 0 1-.053-.264c.268-.602.012-1.328-.58-1.591a.22.22 0 0 1-.126-.203v-1.189c0-2.31-1.753-4.224-3.945-4.241-2.192.017-3.945 1.931-3.945 4.241v1.19a.22.22 0 0 1-.126.202c-.591.262-.849.988-.58 1.59.04.091.02.201-.053.265-1.221 1.05-.527 3.164 1.069 3.164h7.27c1.595 0 2.291-2.113 1.07-3.164z"/><path id="h8nfi" d="M428.81 1299.008a.233.233 0 0 0 .05-.264c-.258-.603-.01-1.329.56-1.591a.22.22 0 0 0 .121-.203v-1.189c0-1.948 1.202-3.616 2.846-4.1a3.475 3.475 0 0 0-.955-.141c-2.112.017-3.802 1.931-3.802 4.241v1.19a.22.22 0 0 1-.12.202c-.57.262-.819.988-.56 1.59.04.091.02.201-.05.265-1.178 1.05-.509 3.164 1.03 3.164h1.91c-1.538 0-2.207-2.114-1.03-3.164z"/><path id="h8nfj" d="M438.387 1304.601l-2.14-.901c-.453.542-.929 1.107-1.387 1.65-1.353 1.598-3.674 1.598-5.027 0-.451-.534-.92-1.09-1.366-1.624l-2.077.875s-1.61.72-1.61 2.715v7.505c0 .581.434 1.053.97 1.053h13.278c.535 0 .97-.472.97-1.053v-7.505c0-1.995-1.611-2.715-1.611-2.715z"/><path id="h8nfk" d="M433.91 1309.085c0-1.04-.25-1.915-.625-2.635-1.166.256-2.432-.118-3.305-1.123a351.06 351.06 0 0 1-1.405-1.627l-2.138.877s-1.657.721-1.657 2.72v7.521c0 .583.447 1.056.997 1.056h8.133z"/><path id="h8nfl" d="M434.223 1303.7c-.334.37-.7.77-1.05 1.15a2.098 2.098 0 0 1-3.087 0c-.344-.373-.704-.766-1.034-1.13l-1.222.473c.442.487.908.995 1.356 1.481a3.315 3.315 0 0 0 4.876 0c.455-.494.928-1.01 1.377-1.504z"/><path id="h8nfm" d="M432.395 1306.663a5.29 5.29 0 0 0-.875-1.243 2.074 2.074 0 0 1-1.399-.725l-.445-.517-1.16-.478-.686.283c.45.527.922 1.077 1.377 1.604.842.975 2.065 1.333 3.188 1.076z"/><path id="h8nfn" d="M434.28 1302.073v-1.416a3.04 3.04 0 0 1-1.808.602 3.198 3.198 0 0 1-1.907-.609v1.423a.42.42 0 0 1-.246.391l-.969.41c.393.476.826.992 1.238 1.48.966 1.148 2.625 1.148 3.59 0 .42-.497.86-1.023 1.259-1.505l-.91-.385a.42.42 0 0 1-.247-.391z"/><path id="h8nfo" d="M430.736 1303.058c.082-.057.136-.201.136-.362v-1.502c-.324-.059-.61-.253-.85-.544v1.315c0 .16-.053.304-.135.362l-.537.379c.158.317.326.654.494.987z"/><path id="h8nfp" d="M435.284 1296.858a1.54 1.54 0 0 1-1.097-.688c-.062-.094-.21-.108-.29-.027-.27.271-.878.705-1.902.53-.087-.014-.172.026-.204.098-.154.347-.713 1.286-2.267 1.34-.097.003-.174.072-.174.157v1.28c0 1.383 1.244 2.646 3.124 2.629 1.646-.015 2.963-1.206 2.963-2.65v-2.515c0-.078-.065-.143-.153-.154z"/><path id="h8nfq" d="M415.515 1296.969c-.527.034-2.36-.732-2.823-2.339a.082.082 0 0 0-.078-.06.082.082 0 0 0-.08.06c-.463 1.607-2.294 2.373-2.822 2.339a.132.132 0 0 0-.142.13v2.053c0 .986.478 1.92 1.289 2.482l.018.013.01.007c.47.325 1.035.518 1.646.525l.08-.001h.08a2.935 2.935 0 0 0 1.647-.524l.01-.007.018-.013a3.023 3.023 0 0 0 1.289-2.482v-2.052a.132.132 0 0 0-.142-.131z"/><path id="h8nfr" d="M413.624 1301.654l-.007-.007-.014-.013c-.603-.562-.96-1.496-.96-2.482v-2.052c0-.078.05-.136.106-.131.245.021.867-.268 1.384-.879a3.322 3.322 0 0 1-.717-1.46c-.008-.035-.032-.06-.06-.06-.027 0-.05.025-.058.06-.345 1.607-1.71 2.373-2.102 2.339-.057-.005-.106.053-.106.13v2.053c0 .986.356 1.92.96 2.482l.013.013.008.007c.35.325.771.518 1.226.525l.06-.002.06.002c.251-.004.492-.065.716-.173a2.071 2.071 0 0 1-.509-.352z"/><path id="h8nfs" d="M421.735 1290c-2.521 0-4.565 2.143-4.565 4.787v6.752c0 .35.27.635.605.635h7.92c.335 0 .605-.284.605-.635v-6.752c0-2.644-2.043-4.787-4.565-4.787z"/><path id="h8nft" d="M418.955 1301.54v-6.753c0-2.363 1.858-4.327 4.302-4.717a5.692 5.692 0 0 0-.893-.07c-2.869 0-5.194 2.143-5.194 4.787v6.752c0 .35.308.635.688.635h1.786c-.38 0-.689-.284-.689-.635z"/><path id="h8nfu" d="M428.938 1306.233l-2.568-1.013c-.543.61-1.114 1.246-1.664 1.855a4.046 4.046 0 0 1-6.032 0c-.542-.6-1.103-1.225-1.639-1.826l-2.492.985s-1.933.81-1.933 3.054v8.443c0 .654.52 1.185 1.163 1.185h15.935c.642 0 1.163-.53 1.163-1.185v-8.443c0-2.245-1.933-3.055-1.933-3.055z"/><path id="h8nfv" d="M415.956 1317.689v-9.694c0-1.452.696-2.325 1.217-2.775l-1.261.56s-1.782.839-1.782 3.164v8.745c0 .677.48 1.227 1.072 1.227h1.827c-.593 0-1.073-.55-1.073-1.227z"/><path id="h8nfw" d="M426.372 1303.7c-.401.555-.841 1.156-1.26 1.726-.998 1.353-2.709 1.353-3.705 0-.413-.56-.844-1.15-1.24-1.697l-1.467.71c.53.73 1.089 1.492 1.627 2.223 1.574 2.138 4.277 2.138 5.852 0 .546-.742 1.114-1.517 1.651-2.257z"/><path id="h8nfx" d="M423.63 1303.593v-1.416c-.517.38-1.14.602-1.808.602a3.197 3.197 0 0 1-1.907-.609v1.423c0 .173-.098.329-.246.391l-.969.41c.393.476.826.992 1.238 1.48.966 1.148 2.625 1.148 3.59 0 .42-.497.86-1.022 1.259-1.505l-.91-.385a.421.421 0 0 1-.247-.391z"/><path id="h8nfy" d="M421.471 1304.579a.391.391 0 0 0 .272-.362v-1.503a3.94 3.94 0 0 1-1.697-.544v1.315c0 .16-.108.304-.272.362l-1.074.379c.315.317.652.654.988.987z"/><path id="h8nfz" d="M426.302 1296.122v2.895l-.002.084c.83.198 1.522-.544 1.522-1.49 0-.944-.69-1.686-1.52-1.49z"/><path id="h8nfA" d="M427.822 1296.67a1.522 1.522 0 0 0-1.52-.548v2.895l-.002.084a1.523 1.523 0 0 0 1.522-.547z"/><path id="h8nfB" d="M426.062 1295.897a5.604 5.604 0 0 1-2.263-1.235.385.385 0 0 0-.511.01c-.618.611-2.279 2.103-4.36 2.77-.137.043-.228.156-.228.282v1.204c0 1.698 1.535 3.25 3.859 3.25 2.067 0 3.75-1.458 3.75-3.25v-2.743c0-.133-.1-.25-.247-.288z"/><path id="h8nfC" d="M420.44 1300.046v-2.436c-.47.298-.98.567-1.52.768a.339.339 0 0 0-.22.317v1.351c0 1.908 1.482 3.651 3.725 3.651.29 0 .57-.035.84-.1-1.73-.395-2.825-1.912-2.825-3.55z"/><path id="h8nfD" d="M430.948 1298.958v-2.868c-.232.487-.673 1.062-1.47 1.109-.072.004-.128.089-.128.192v1.567c0 1.693.914 3.24 2.296 3.219.263-.004.515-.077.747-.205-.893-.473-1.445-1.7-1.445-3.014z"/><path id="h8nfE" d="M406.025 1307.212c0-1.427 1.172-1.98 1.267-2.023l1.458-.576c.369.414.77.86 1.194 1.33a4.087 4.087 0 0 0 3.333 1.356 3.866 3.866 0 0 0-.317 1.57v5.723h-3.94v-5.374a.518.518 0 0 0-.512-.522.518.518 0 0 0-.513.522v5.374h-1.596a.377.377 0 0 1-.374-.38zm4.209-3.185c.256.288.545.609.862.96a2.61 2.61 0 0 0 3.883 0l.844-.94.388.154c-1.015 1.129-.994 1.101-1.071 1.176a3.946 3.946 0 0 0-.927.622 3.072 3.072 0 0 1-3.515-.768l-.923-1.023zm4.276-.52c.09.058.14.074.297.136-.178.2-.37.414-.575.64-.642.71-1.738.71-2.379 0l-.593-.66.098-.039a.87.87 0 0 0 .542-.807v-.175a3.518 3.518 0 0 0 2.217-.002c0 .16-.045.621.393.907zm-3.866-4.138v-1.607c.681-.156 1.733-.707 2.367-1.661.635.954 1.686 1.505 2.367 1.661v1.607c0 1.372-1.085 2.364-2.373 2.364-1.285.024-2.36-1.04-2.36-2.364zm-1.086 2.097a.372.372 0 0 1-.363-.297l-.031-.142c-.446-2.033-.83-3.788-.015-5.917 1.267-3.31 3.498-2.537 3.589-2.504a.504.504 0 0 0 .36 0 2.363 2.363 0 0 1 1.267-.029c.992.247 1.773 1.1 2.322 2.533.816 2.128.431 3.884-.014 5.917l-.031.142a.372.372 0 0 1-.364.297h-.585c.45-.593.7-1.332.7-2.09v-1.96a.655.655 0 0 0-.2-.472.638.638 0 0 0-.461-.175h-.036c-.336-.01-1.765-.603-2.123-1.858a.595.595 0 0 0-.567-.434.596.596 0 0 0-.567.435c-.36 1.265-1.81 1.857-2.132 1.857-.453 0-.688.323-.688.647v1.96c0 .727.232 1.476.7 2.09zm8.8 1.955h1.674v.03l-.294.116-1.143.451-3.3-1.303-.153-.06v-.154h1.136c.358 0 .685-.135.934-.363v.116c0 .643.514 1.167 1.146 1.167zm-.12-8.032c0-2.395 1.912-4.344 4.262-4.344 2.35 0 4.262 1.949 4.262 4.344v.995a2.254 2.254 0 0 0-.304-.074.838.838 0 0 0-.57-.634c-.378-.117-1.12-.427-1.842-1.186a.818.818 0 0 0-1.218.031c-.537.624-1.977 2.146-3.762 2.818a.848.848 0 0 0-.542.793v1.287c0 1.1.446 2.185 1.283 2.957h-1.449a.122.122 0 0 1-.12-.122v-6.865zm8.238 3.55v-1.549c.427.149.746.56.592.998-.091.26-.33.458-.592.55zm2.055 4.24l-.862.34-1.266.5-.551-.217-.889-.351v-.03h1.679c.337 0 .639-.15.849-.386.249.094.516.143.793.143zm-.743-3.977c.256-.352.367-.765.34-1.15a.743.743 0 0 0 .347-.633v-1.19c0-2.037 1.6-3.706 3.57-3.723 1.968.017 3.57 1.686 3.57 3.723v1.19c0 .3.174.568.442.683a.666.666 0 0 1 .336.889.75.75 0 0 0 .195.891c.497.414.522.997.38 1.405-.142.404-.521.836-1.162.836h-1.687v-.107a3.473 3.473 0 0 0 1.254-2.677v-2.76c0-.32-.21-.59-.507-.67l-.012-.003a.835.835 0 0 0-.062-.013c-.158-.024-.455-.121-.667-.497a.681.681 0 0 0-.525-.347.677.677 0 0 0-.58.234c-.223.262-.632.546-1.31.412a.68.68 0 0 0-.766.43c-.125.327-.539 1.092-1.683 1.138a.688.688 0 0 0-.655.694V1299.384c.008 1.066.502 2.032 1.25 2.632v.107h-1.573c-.178 0-.344-.034-.495-.1zm1.845.179v-1.097a2.772 2.772 0 0 0 2.134-1.471l.025-.048c.79.08 1.357-.214 1.705-.493.287.335.616.503.869.587v2.488c0 2.32-2.944 3.263-4.277 1.428a2.406 2.406 0 0 1-.456-1.394zm3.477 3.529a.879.879 0 0 0 .532.679l.099.038c-.185.208-.383.43-.594.664a1.59 1.59 0 0 1-2.379 0l-.575-.643.149-.06a.966.966 0 0 0 .05-.022l.01-.004c.013-.006.026-.014.038-.021l.018-.01.022-.014c.427-.271.404-.696.404-.925.703.24 1.506.255 2.216.01 0 .193-.002.222.01.3v.008zm1.125 2.326a3.08 3.08 0 0 1-3.41.816c-.292-.272-.705-.565-1.074-.71-.1-.101-.917-1.015-1.014-1.124l.43-.17c.25.282.534.598.844.943a2.602 2.602 0 0 0 3.883 0c.317-.352.606-.675.862-.964l.416.165-.937 1.044zm-13.764-.834a.943.943 0 0 0 .584-.874v-.373c.48.184 1.005.267 1.489.267.478 0 .961-.094 1.385-.259v.365c0 .384.235.736.585.874l.26.104c-.25.282-.523.588-.816.914a2.012 2.012 0 0 1-3.014 0c-.286-.318-.552-.616-.795-.89zm5.96-4.38h.002c.11-.017.218-.042.323-.075l.006-.002v2.311a.122.122 0 0 1-.12.12h-1.45a4.036 4.036 0 0 0 1.24-2.354zm-.98-.603c0 1.61-1.285 2.954-2.897 2.957H422.545c-1.75-.002-2.995-1.378-2.995-2.957v-1.15c1.47-.586 2.864-1.728 3.91-2.9a5.5 5.5 0 0 0 1.99 1.26zm-.397 6.965a3.49 3.49 0 0 1-5.209 0l-1.152-1.282.431-.172c.314.353.671.751 1.067 1.19a3.04 3.04 0 0 0 4.53 0c.403-.446.767-.853 1.089-1.214l.423.167c-.368.41-.762.85-1.179 1.31zm-12.094 9.254v1.664c0 .888.709 1.611 1.58 1.611h6.726a.518.518 0 0 0 .513-.523.518.518 0 0 0-.513-.522h-3.673v-6.582a.518.518 0 0 0-.512-.523.517.517 0 0 0-.513.523v6.582h-2.028a.56.56 0 0 1-.555-.566v-8.433c0-.776.278-1.48.87-2.035.546-.513.763-.518 2.813-1.327.437.49.914 1.02 1.422 1.584a4.51 4.51 0 0 0 6.719 0c.52-.577 1.006-1.118 1.449-1.613l2.029.8c1.065.42 1.728 1.476 1.728 2.591v8.433a.56.56 0 0 1-.555.566h-2.028v-6.582a.517.517 0 0 0-.513-.523.518.518 0 0 0-.512.523v6.582h-3.748a.517.517 0 0 0-.513.522c0 .289.23.523.513.523h6.801c.871 0 1.58-.723 1.58-1.61v-1.665h6.561c.771 0 1.399-.64 1.399-1.426v-2.647a.518.518 0 0 0-.513-.523.518.518 0 0 0-.512.523v2.647c0 .21-.168.38-.374.38h-1.596v-5.374a.518.518 0 0 0-.513-.522.518.518 0 0 0-.512.522v5.374h-3.94v-5.723c0-.614-.125-1.133-.316-1.569a4.116 4.116 0 0 0 3.274-1.357c.429-.474.834-.926 1.21-1.346l1.5.592c.095.042 1.267.596 1.267 2.023v1.914c0 .289.229.523.512.523a.518.518 0 0 0 .513-.523v-1.914c0-2.168-1.826-2.958-1.904-2.99l-.01-.005-2.632-1.039h.36c.969 0 1.804-.6 2.13-1.531a2.315 2.315 0 0 0-.532-2.415 1.748 1.748 0 0 0-.034-1.125 1.68 1.68 0 0 0-.73-.87v-1.004c0-2.65-2.115-4.772-4.603-4.772-1.978.015-3.669 1.323-4.314 3.14-.376-2.6-2.578-4.601-5.231-4.601-2.477 0-4.56 1.745-5.132 4.092-1.08-2.233-2.858-2.943-4.45-2.52-1.708-.454-3.659.376-4.724 3.155-.93 2.423-.473 4.505-.031 6.519l.03.141a1.396 1.396 0 0 0 1.365 1.115h1.316v.152l-2.167.856-1.793.707a.356.356 0 0 0-.01.005c-.078.032-1.904.822-1.904 2.99v7c0 .786.628 1.426 1.399 1.426z"/></defs><g><g transform="translate(-405 -1290)"><g><use fill="#495766" xlink:href="#h8nfa"/></g><g><use fill="#3c4957" xlink:href="#h8nfb"/></g><g><use fill="#fec13b" xlink:href="#h8nfc"/></g><g><use fill="#fcb237" xlink:href="#h8nfd"/></g><g><use fill="#fcb237" xlink:href="#h8nfe"/></g><g><use fill="#f7c1b3" xlink:href="#h8nff"/></g><g><use fill="#efb5a8" xlink:href="#h8nfg"/></g><g><use fill="#495766" xlink:href="#h8nfh"/></g><g><use fill="#3c4957" xlink:href="#h8nfi"/></g><g><use fill="#ff80bd" xlink:href="#h8nfj"/></g><g><use fill="#f964b2" xlink:href="#h8nfk"/></g><g><use fill="#f964b2" xlink:href="#h8nfl"/></g><g><use fill="#ef54ac" xlink:href="#h8nfm"/></g><g><use fill="#d88460" xlink:href="#h8nfn"/></g><g><use fill="#cc785a" xlink:href="#h8nfo"/></g><g><use fill="#e5966e" xlink:href="#h8nfp"/></g><g><use fill="#ffcdbe" xlink:href="#h8nfq"/></g><g><use fill="#f7c1b3" xlink:href="#h8nfr"/></g><g><use fill="#495766" xlink:href="#h8nfs"/></g><g><use fill="#3c4957" xlink:href="#h8nft"/></g><g><use fill="#e6e9ed" xlink:href="#h8nfu"/></g><g><use fill="#c1c6cc" xlink:href="#h8nfv"/></g><g><use fill="#4188ff" xlink:href="#h8nfw"/></g><g><use fill="#f0a479" xlink:href="#h8nfx"/></g><g><use fill="#e5966e" xlink:href="#h8nfy"/></g><g><use fill="#f0a479" xlink:href="#h8nfz"/></g><g><use fill="#e5966e" xlink:href="#h8nfA"/></g><g><use fill="#f7b594" xlink:href="#h8nfB"/></g><g><use fill="#f0a479" xlink:href="#h8nfC"/></g><g><use fill="#d88460" xlink:href="#h8nfD"/></g><g><use xlink:href="#h8nfE"/></g></g></g></svg>