<svg xmlns="http://www.w3.org/2000/svg" xmlns:xlink="http://www.w3.org/1999/xlink" width="69" height="56" viewBox="0 0 69 56"><defs><path id="mpc6a" d="M1590.322 3646.96c-3.63 3.637-7.628 3.388-10.84 3.188-2.862-.179-5.123-.32-7.276 1.836-2.152 2.156-2.012 4.421-1.833 7.289.2 3.218.45 7.222-3.18 10.859-3.63 3.636-7.628 3.387-10.84 3.186-2.862-.18-5.123-.32-7.274 1.835-2.152 2.156-2.011 4.42-1.833 7.288.2 3.218.45 7.222-3.18 10.858-3.629 3.636-7.626 3.387-10.838 3.186-2.862-.18-5.123-.32-7.274 1.835a2.313 2.313 0 0 1-3.276 0 2.323 2.323 0 0 1 0-3.281c3.63-3.636 7.627-3.387 10.839-3.186 2.862.18 5.122.32 7.274-1.835 2.152-2.156 2.011-4.42 1.833-7.288-.2-3.217-.45-7.221 3.18-10.857 3.63-3.637 7.626-3.387 10.838-3.186 2.862.179 5.123.32 7.275-1.837 2.152-2.156 2.011-4.421 1.833-7.289-.2-3.218-.449-7.221 3.18-10.858 3.63-3.636 7.628-3.387 10.84-3.187 2.863.179 5.124.32 7.276-1.837a2.314 2.314 0 0 1 3.276 0 2.323 2.323 0 0 1 0 3.282"/></defs><g><g clip-path="url(#clip-C6D9BE11-5ECA-4E69-B565-C5A605F42F77)" transform="translate(-1522 -3643)"><use fill="#fc5c42" xlink:href="#mpc6a"/></g></g></svg>