<svg xmlns="http://www.w3.org/2000/svg" xmlns:xlink="http://www.w3.org/1999/xlink" width="74" height="73" viewBox="0 0 74 73"><defs><path id="yyooa" d="M346.774 3504.393a2.39 2.39 0 0 1-2.388 2.394 2.39 2.39 0 0 1-2.386-2.394 2.39 2.39 0 0 1 2.386-2.393 2.39 2.39 0 0 1 2.388 2.393"/><path id="yyoob" d="M361.094 3504.393a2.39 2.39 0 0 1-2.387 2.394 2.39 2.39 0 0 1-2.387-2.394 2.39 2.39 0 0 1 2.387-2.393 2.39 2.39 0 0 1 2.387 2.393"/><path id="yyooc" d="M374.224 3504.393a2.39 2.39 0 0 1-2.387 2.394 2.39 2.39 0 0 1-2.387-2.394 2.39 2.39 0 0 1 2.387-2.393 2.39 2.39 0 0 1 2.387 2.393"/><path id="yyood" d="M388.544 3504.393a2.39 2.39 0 0 1-2.388 2.394 2.39 2.39 0 0 1-2.386-2.394 2.39 2.39 0 0 1 2.386-2.393 2.39 2.39 0 0 1 2.388 2.393"/><path id="yyooe" d="M401.674 3504.393a2.39 2.39 0 0 1-2.387 2.394 2.39 2.39 0 0 1-2.387-2.394 2.39 2.39 0 0 1 2.387-2.393 2.39 2.39 0 0 1 2.387 2.393"/><path id="yyoof" d="M346.774 3517.553a2.39 2.39 0 0 1-2.388 2.394 2.39 2.39 0 0 1-2.386-2.394 2.39 2.39 0 0 1 2.386-2.393 2.39 2.39 0 0 1 2.388 2.393"/><path id="yyoog" d="M361.094 3517.553a2.39 2.39 0 0 1-2.387 2.394 2.39 2.39 0 0 1-2.387-2.394 2.39 2.39 0 0 1 2.387-2.393 2.39 2.39 0 0 1 2.387 2.393"/><path id="yyooh" d="M374.224 3517.553a2.39 2.39 0 0 1-2.387 2.394 2.39 2.39 0 0 1-2.387-2.394 2.39 2.39 0 0 1 2.387-2.393 2.39 2.39 0 0 1 2.387 2.393"/><path id="yyooi" d="M388.544 3517.553a2.39 2.39 0 0 1-2.388 2.394 2.39 2.39 0 0 1-2.386-2.394 2.39 2.39 0 0 1 2.386-2.393 2.39 2.39 0 0 1 2.388 2.393"/><path id="yyooj" d="M401.674 3517.553a2.39 2.39 0 0 1-2.387 2.394 2.39 2.39 0 0 1-2.387-2.394 2.39 2.39 0 0 1 2.387-2.393 2.39 2.39 0 0 1 2.387 2.393"/><path id="yyook" d="M346.774 3532.512c0 1.652-1.068 2.992-2.388 2.992-1.317 0-2.386-1.34-2.386-2.992s1.069-2.992 2.386-2.992c1.32 0 2.388 1.34 2.388 2.992"/><path id="yyool" d="M361.094 3532.512c0 1.652-1.068 2.992-2.387 2.992-1.318 0-2.387-1.34-2.387-2.992s1.069-2.992 2.387-2.992c1.319 0 2.387 1.34 2.387 2.992"/><path id="yyoom" d="M374.224 3532.512c0 1.652-1.069 2.992-2.387 2.992-1.319 0-2.387-1.34-2.387-2.992s1.068-2.992 2.387-2.992c1.318 0 2.387 1.34 2.387 2.992"/><path id="yyoon" d="M388.544 3532.512c0 1.652-1.069 2.992-2.388 2.992-1.318 0-2.386-1.34-2.386-2.992s1.068-2.992 2.386-2.992c1.32 0 2.388 1.34 2.388 2.992"/><path id="yyooo" d="M401.674 3532.512c0 1.652-1.068 2.992-2.387 2.992-1.318 0-2.387-1.34-2.387-2.992s1.069-2.992 2.387-2.992c1.32 0 2.387 1.34 2.387 2.992"/><path id="yyoop" d="M346.774 3545.681c0 1.653-1.068 2.993-2.388 2.993-1.317 0-2.386-1.34-2.386-2.993 0-1.651 1.069-2.991 2.386-2.991 1.32 0 2.388 1.34 2.388 2.991"/><path id="yyooq" d="M361.094 3545.681c0 1.653-1.068 2.993-2.387 2.993-1.318 0-2.387-1.34-2.387-2.993 0-1.651 1.069-2.991 2.387-2.991 1.319 0 2.387 1.34 2.387 2.991"/><path id="yyoor" d="M374.224 3545.681c0 1.653-1.069 2.993-2.387 2.993-1.319 0-2.387-1.34-2.387-2.993 0-1.651 1.068-2.991 2.387-2.991 1.318 0 2.387 1.34 2.387 2.991"/><path id="yyoos" d="M388.544 3545.681c0 1.653-1.069 2.993-2.388 2.993-1.318 0-2.386-1.34-2.386-2.993 0-1.651 1.068-2.991 2.386-2.991 1.32 0 2.388 1.34 2.388 2.991"/><path id="yyoot" d="M401.674 3545.681c0 1.653-1.068 2.993-2.387 2.993-1.318 0-2.387-1.34-2.387-2.993 0-1.651 1.069-2.991 2.387-2.991 1.32 0 2.387 1.34 2.387 2.991"/><path id="yyoou" d="M346.774 3559.443a2.39 2.39 0 0 1-2.388 2.394 2.39 2.39 0 0 1-2.386-2.394 2.39 2.39 0 0 1 2.386-2.393 2.39 2.39 0 0 1 2.388 2.393"/><path id="yyoov" d="M361.094 3559.443a2.39 2.39 0 0 1-2.387 2.394 2.39 2.39 0 0 1-2.387-2.394 2.39 2.39 0 0 1 2.387-2.393 2.39 2.39 0 0 1 2.387 2.393"/><path id="yyoow" d="M374.224 3559.443a2.39 2.39 0 0 1-2.387 2.394 2.39 2.39 0 0 1-2.387-2.394 2.39 2.39 0 0 1 2.387-2.393 2.39 2.39 0 0 1 2.387 2.393"/><path id="yyoox" d="M388.544 3559.443a2.39 2.39 0 0 1-2.388 2.394 2.39 2.39 0 0 1-2.386-2.394 2.39 2.39 0 0 1 2.386-2.393 2.39 2.39 0 0 1 2.388 2.393"/><path id="yyooy" d="M401.674 3559.443a2.39 2.39 0 0 1-2.387 2.394 2.39 2.39 0 0 1-2.387-2.394 2.39 2.39 0 0 1 2.387-2.393 2.39 2.39 0 0 1 2.387 2.393"/><path id="yyooz" d="M346.774 3572.603a2.39 2.39 0 0 1-2.388 2.394 2.39 2.39 0 0 1-2.386-2.394 2.39 2.39 0 0 1 2.386-2.393 2.39 2.39 0 0 1 2.388 2.393"/><path id="yyooA" d="M361.094 3572.603a2.39 2.39 0 0 1-2.387 2.394 2.39 2.39 0 0 1-2.387-2.394 2.39 2.39 0 0 1 2.387-2.393 2.39 2.39 0 0 1 2.387 2.393"/><path id="yyooB" d="M374.224 3572.603a2.39 2.39 0 0 1-2.387 2.394 2.39 2.39 0 0 1-2.387-2.394 2.39 2.39 0 0 1 2.387-2.393 2.39 2.39 0 0 1 2.387 2.393"/><path id="yyooC" d="M388.544 3572.603a2.39 2.39 0 0 1-2.388 2.394 2.39 2.39 0 0 1-2.386-2.394 2.39 2.39 0 0 1 2.386-2.393 2.39 2.39 0 0 1 2.388 2.393"/><path id="yyooD" d="M401.674 3572.603a2.39 2.39 0 0 1-2.387 2.394 2.39 2.39 0 0 1-2.387-2.394 2.39 2.39 0 0 1 2.387-2.393 2.39 2.39 0 0 1 2.387 2.393"/><path id="yyooE" d="M416.004 3504.393a2.39 2.39 0 0 1-2.387 2.394 2.39 2.39 0 0 1-2.387-2.394 2.39 2.39 0 0 1 2.387-2.393 2.39 2.39 0 0 1 2.387 2.393"/><path id="yyooF" d="M416.004 3517.553a2.39 2.39 0 0 1-2.387 2.394 2.39 2.39 0 0 1-2.387-2.394 2.39 2.39 0 0 1 2.387-2.393 2.39 2.39 0 0 1 2.387 2.393"/><path id="yyooG" d="M416.004 3532.512c0 1.652-1.068 2.992-2.387 2.992-1.318 0-2.387-1.34-2.387-2.992s1.069-2.992 2.387-2.992c1.32 0 2.387 1.34 2.387 2.992"/><path id="yyooH" d="M416.004 3545.681c0 1.653-1.068 2.993-2.387 2.993-1.318 0-2.387-1.34-2.387-2.993 0-1.651 1.069-2.991 2.387-2.991 1.32 0 2.387 1.34 2.387 2.991"/><path id="yyooI" d="M416.004 3559.443a2.39 2.39 0 0 1-2.387 2.394 2.39 2.39 0 0 1-2.387-2.394 2.39 2.39 0 0 1 2.387-2.393 2.39 2.39 0 0 1 2.387 2.393"/><path id="yyooJ" d="M416.004 3572.603a2.39 2.39 0 0 1-2.387 2.394 2.39 2.39 0 0 1-2.387-2.394 2.39 2.39 0 0 1 2.387-2.393 2.39 2.39 0 0 1 2.387 2.393"/></defs><g><g transform="translate(-342 -3502)"><g><use fill="#fc6dab" xlink:href="#yyooa"/></g><g><use fill="#fc6dab" xlink:href="#yyoob"/></g><g><use fill="#fc6dab" xlink:href="#yyooc"/></g><g><use fill="#fc6dab" xlink:href="#yyood"/></g><g><use fill="#fc6dab" xlink:href="#yyooe"/></g><g><use fill="#fc6dab" xlink:href="#yyoof"/></g><g><use fill="#fc6dab" xlink:href="#yyoog"/></g><g><use fill="#fc6dab" xlink:href="#yyooh"/></g><g><use fill="#fc6dab" xlink:href="#yyooi"/></g><g><use fill="#fc6dab" xlink:href="#yyooj"/></g><g><use fill="#fc6dab" xlink:href="#yyook"/></g><g><use fill="#fc6dab" xlink:href="#yyool"/></g><g><use fill="#fc6dab" xlink:href="#yyoom"/></g><g><use fill="#fc6dab" xlink:href="#yyoon"/></g><g><use fill="#fc6dab" xlink:href="#yyooo"/></g><g><use fill="#fc6dab" xlink:href="#yyoop"/></g><g><use fill="#fc6dab" xlink:href="#yyooq"/></g><g><use fill="#fc6dab" xlink:href="#yyoor"/></g><g><use fill="#fc6dab" xlink:href="#yyoos"/></g><g><use fill="#fc6dab" xlink:href="#yyoot"/></g><g><use fill="#fc6dab" xlink:href="#yyoou"/></g><g><use fill="#fc6dab" xlink:href="#yyoov"/></g><g><use fill="#fc6dab" xlink:href="#yyoow"/></g><g><use fill="#fc6dab" xlink:href="#yyoox"/></g><g><use fill="#fc6dab" xlink:href="#yyooy"/></g><g><use fill="#fc6dab" xlink:href="#yyooz"/></g><g><use fill="#fc6dab" xlink:href="#yyooA"/></g><g><use fill="#fc6dab" xlink:href="#yyooB"/></g><g><use fill="#fc6dab" xlink:href="#yyooC"/></g><g><use fill="#fc6dab" xlink:href="#yyooD"/></g><g><use fill="#fc6dab" xlink:href="#yyooE"/></g><g><use fill="#fc6dab" xlink:href="#yyooF"/></g><g><use fill="#fc6dab" xlink:href="#yyooG"/></g><g><use fill="#fc6dab" xlink:href="#yyooH"/></g><g><use fill="#fc6dab" xlink:href="#yyooI"/></g><g><use fill="#fc6dab" xlink:href="#yyooJ"/></g></g></g></svg>