<svg xmlns="http://www.w3.org/2000/svg" xmlns:xlink="http://www.w3.org/1999/xlink" width="35" height="35" viewBox="0 0 35 35"><defs><path id="qo0ra" d="M1186.24 1293.28a2.74 2.74 0 1 1-5.48 0 2.74 2.74 0 0 1 5.48 0z"/><path id="qo0rb" d="M1188.98 1298.21a5.48 5.48 0 1 1-10.96 0 5.48 5.48 0 0 1 10.96 0z"/><path id="qo0rc" d="M1189.672 1308.181l-3.34-1.541a1.096 1.096 0 0 1-.636-.996v-1.954h-4.384v1.954c0 .428-.249.816-.637.996l-3.34 1.541a1.644 1.644 0 0 0-.955 1.493v.592h14.248v-.592c0-.642-.373-1.224-.956-1.493z"/><path id="qo0rd" d="M1181.31 1305.65a5.279 5.279 0 0 0 2.192.472c.78 0 1.52-.166 2.192-.461v-1.971h-4.384v1.96z"/><path id="qo0re" d="M1187.037 1298.59c-1.158-.27-3.263-.91-4.799-2.221a.545.545 0 0 0-.743.015l-2.054 2.054a1.096 1.096 0 0 0-.321.776v1.04c0 2.334 1.762 4.373 4.092 4.524a4.384 4.384 0 0 0 4.676-4.375v-.745c0-.511-.353-.951-.85-1.067z"/><path id="qo0rf" d="M1182.296 1297.777c2.032 1.373 4.283 1.838 5.592 1.997v-.116c0-.511-.353-.95-.852-1.068-1.158-.27-3.262-.91-4.797-2.221a.545.545 0 0 0-.744.015l-2.054 2.054a1.096 1.096 0 0 0-.321.775v.964c0 1.96 1.197 3.78 3.058 4.398.752.25 1.47.257 2.14.131a4.384 4.384 0 0 1-3.554-4.302v-1.285c0-.29.115-.569.32-.775l.51-.509a.552.552 0 0 1 .702-.058z"/><path id="qo0rg" d="M1188.434 1297.388c.16 0 .318-.014.476-.024a5.476 5.476 0 0 0-5.408-4.634c-.632 0-1.237.113-1.802.31a7.393 7.393 0 0 0 6.734 4.348z"/><path id="qo0rh" d="M1190.628 1310.271v-.592c0-.64-.373-1.224-.956-1.492l-1.683-.777c-2.623 2.347-6.347 2.347-8.97 0l-1.684.777a1.644 1.644 0 0 0-.955 1.492v.592z"/><path id="qo0ri" d="M1185.148 1286.154a1.644 1.644 0 1 1-3.288 0 1.644 1.644 0 0 1 3.288 0z"/><path id="qo0rj" d="M1184.326 1286.978a1.644 1.644 0 0 1-1.644-1.644c0-.24.055-.468.148-.674a1.642 1.642 0 1 0 2.17 2.17 1.631 1.631 0 0 1-.674.148z"/><path id="qo0rk" d="M1185.148 1316.844a1.644 1.644 0 1 1-3.288 0 1.644 1.644 0 0 1 3.288 0z"/><path id="qo0rl" d="M1184.326 1317.668a1.644 1.644 0 0 1-1.644-1.644c0-.24.055-.468.148-.674a1.642 1.642 0 1 0 2.17 2.17 1.631 1.631 0 0 1-.674.148z"/><path id="qo0rm" d="M1169.798 1301.504a1.644 1.644 0 1 1-3.288 0 1.644 1.644 0 0 1 3.288 0z"/><path id="qo0rn" d="M1168.976 1302.318a1.644 1.644 0 0 1-1.644-1.644c0-.24.055-.468.148-.674a1.641 1.641 0 1 0 2.17 2.17 1.634 1.634 0 0 1-.674.148z"/><path id="qo0ro" d="M1200.488 1301.504a1.644 1.644 0 1 1-3.288 0 1.644 1.644 0 0 1 3.288 0z"/><path id="qo0rp" d="M1199.666 1302.318a1.644 1.644 0 0 1-1.644-1.644c0-.24.055-.468.148-.674a1.642 1.642 0 1 0 2.17 2.17 1.636 1.636 0 0 1-.674.148z"/><path id="qo0rq" d="M1195.998 1290.654a1.644 1.644 0 1 1-3.288 0 1.644 1.644 0 0 1 3.288 0z"/><path id="qo0rr" d="M1195.176 1291.468a1.644 1.644 0 0 1-1.644-1.644c0-.24.055-.468.148-.674a1.642 1.642 0 1 0 2.17 2.17 1.634 1.634 0 0 1-.674.148z"/><path id="qo0rs" d="M1174.298 1312.354a1.644 1.644 0 1 1-3.288 0 1.644 1.644 0 0 1 3.288 0z"/><path id="qo0rt" d="M1173.476 1313.168a1.644 1.644 0 0 1-1.644-1.644c0-.24.055-.468.148-.674a1.642 1.642 0 1 0 2.17 2.17 1.631 1.631 0 0 1-.674.148z"/><path id="qo0ru" d="M1174.298 1290.654a1.644 1.644 0 1 1-3.288 0 1.644 1.644 0 0 1 3.288 0z"/><path id="qo0rv" d="M1173.476 1291.468a1.644 1.644 0 0 1-1.644-1.644c0-.24.055-.468.148-.674a1.642 1.642 0 1 0 2.17 2.17 1.635 1.635 0 0 1-.674.148z"/><path id="qo0rw" d="M1195.998 1312.354a1.644 1.644 0 1 1-3.288 0 1.644 1.644 0 0 1 3.288 0z"/><path id="qo0rx" d="M1195.176 1313.168a1.644 1.644 0 0 1-1.644-1.644c0-.24.055-.468.148-.674a1.642 1.642 0 1 0 2.17 2.17 1.63 1.63 0 0 1-.674.148z"/><path id="qo0ry" d="M1180.8 1299.313v.548a.513.513 0 1 0 1.025 0v-.548a.513.513 0 1 0-1.025 0z"/><path id="qo0rz" d="M1185.693 1300.373c.283 0 .512-.23.512-.512v-.548a.512.512 0 1 0-1.025 0v.548c0 .283.23.512.513.512z"/><path id="qo0rA" d="M1182.121 1302.481c.408.268.884.41 1.378.41.493 0 .97-.142 1.377-.41a.513.513 0 0 0-.563-.857c-.24.158-.522.242-.814.242a1.48 1.48 0 0 1-.815-.242.513.513 0 1 0-.563.857z"/><path id="qo0rB" d="M1183.496 1291.055c.993 0 1.835.65 2.12 1.546a5.979 5.979 0 0 0-2.12-.387c-.746 0-1.46.137-2.12.387a2.226 2.226 0 0 1 2.12-1.546zm4.966 7.16c0 .36-.04.718-.117 1.066a1.605 1.605 0 0 0-1.2-1.187c-1.217-.284-3.474-.979-4.93-2.434a.513.513 0 1 0-.724.725c1.635 1.635 4.097 2.398 5.42 2.707a.583.583 0 0 1 .455.57v.744a3.875 3.875 0 0 1-3.87 3.871 3.875 3.875 0 0 1-3.87-3.871v-1.19a.58.58 0 0 1 .172-.412l.774-.775a.513.513 0 0 0-.724-.725l-.775.775a1.596 1.596 0 0 0-.465 1.003 4.972 4.972 0 0 1 4.889-5.835 4.972 4.972 0 0 1 4.965 4.967zm-2.354 8.888l.666.307c-.978.81-2.094 1.237-3.262 1.241h-.016c-1.172 0-2.294-.427-3.277-1.24l.666-.308c.567-.261.934-.833.934-1.456v-.641a4.877 4.877 0 0 0 1.677.296c.59 0 1.155-.105 1.678-.296v.64c0 .624.367 1.196.934 1.457zm-7.23-5.072a4.92 4.92 0 0 0 1.914 2.454v1.163a.585.585 0 0 1-.34.53l-3.34 1.541a2.163 2.163 0 0 0-1.252 1.959v.592a.513.513 0 0 0 1.025 0v-.592c0-.44.258-.843.658-1.028l1.656-.764c1.236 1.163 2.753 1.8 4.298 1.8h.019c1.538-.005 3.047-.642 4.278-1.8l1.656.764c.4.185.657.588.657 1.028v.592a.513.513 0 1 0 1.026 0v-.592c0-.838-.492-1.607-1.253-1.958l-3.34-1.542a.585.585 0 0 1-.339-.53v-1.163a4.92 4.92 0 0 0 1.913-2.452l.006-.007a5.992 5.992 0 0 0-1.374-8.844 3.256 3.256 0 0 0-3.25-3.152 3.256 3.256 0 0 0-3.25 3.152 5.992 5.992 0 0 0-1.368 8.85z"/><path id="qo0rC" d="M1183.497 1285.025a1.131 1.131 0 0 1 0 2.263 1.131 1.131 0 0 1 0-2.263zm0 3.288c1.189 0 2.156-.967 2.156-2.156a2.16 2.16 0 0 0-2.156-2.157c-1.19 0-2.157.967-2.157 2.157a2.16 2.16 0 0 0 2.157 2.156z"/><path id="qo0rD" d="M1183.497 1317.978a1.131 1.131 0 0 1 0-2.263 1.131 1.131 0 0 1 0 2.263zm0-3.288c-1.19 0-2.157.967-2.157 2.157a2.16 2.16 0 0 0 2.157 2.156c1.189 0 2.156-.967 2.156-2.156a2.16 2.16 0 0 0-2.156-2.157z"/><path id="qo0rE" d="M1198.847 1302.625a1.131 1.131 0 0 1-1.132-1.128 1.131 1.131 0 0 1 2.263 0c0 .622-.507 1.128-1.131 1.128zm0-3.285a2.16 2.16 0 0 0-2.157 2.157 2.16 2.16 0 0 0 2.157 2.156c1.189 0 2.156-.967 2.156-2.156 0-1.19-.967-2.157-2.156-2.157z"/><path id="qo0rF" d="M1167.025 1301.497a1.131 1.131 0 0 1 2.263 0 1.131 1.131 0 0 1-2.263 0zm3.288 0c0-1.19-.967-2.157-2.156-2.157a2.16 2.16 0 0 0-2.157 2.157c0 1.189.967 2.156 2.157 2.156a2.16 2.16 0 0 0 2.156-2.156z"/><path id="qo0rG" d="M1193.549 1289.848c.213-.213.496-.33.798-.33.301 0 .585.117.798.33.213.214.33.497.33.799 0 .301-.117.585-.33.798-.213.213-.497.33-.798.33-.302 0-.585-.117-.798-.33a1.12 1.12 0 0 1-.33-.798c0-.302.116-.585.33-.799zm.798 2.955c.576 0 1.117-.224 1.525-.631.407-.408.631-.95.631-1.525 0-.576-.224-1.118-.631-1.525a2.142 2.142 0 0 0-1.525-.632c-.576 0-1.118.224-1.525.632a2.143 2.143 0 0 0-.632 1.525c0 .576.225 1.117.632 1.525.407.407.949.631 1.525.631z"/><path id="qo0rH" d="M1173.445 1313.145c-.214.213-.497.33-.798.33-.302 0-.586-.117-.799-.33a1.122 1.122 0 0 1-.33-.798c0-.302.117-.585.33-.799.214-.213.497-.33.799-.33.3 0 .584.117.798.33.213.214.33.497.33.799 0 .301-.117.584-.33.798zm-.798-2.955c-.576 0-1.118.224-1.525.632a2.143 2.143 0 0 0-.632 1.525c0 .576.224 1.117.632 1.525.407.407.949.631 1.525.631s1.117-.224 1.525-.631c.407-.408.631-.95.631-1.525 0-.576-.224-1.118-.631-1.525a2.143 2.143 0 0 0-1.525-.632z"/><path id="qo0rI" d="M1195.145 1313.145c-.213.213-.497.33-.798.33-.302 0-.585-.117-.798-.33a1.121 1.121 0 0 1-.331-.798c0-.302.118-.585.33-.799a1.12 1.12 0 0 1 .799-.33c.301 0 .585.117.798.33.213.214.33.497.33.799 0 .301-.117.584-.33.798zm-.798-2.955c-.576 0-1.118.224-1.525.632a2.144 2.144 0 0 0-.632 1.525c0 .576.225 1.117.632 1.525.407.407.949.631 1.525.631s1.117-.224 1.525-.631c.407-.408.631-.95.631-1.525 0-.576-.224-1.118-.631-1.525a2.143 2.143 0 0 0-1.525-.632z"/><path id="qo0rJ" d="M1173.445 1291.445c-.214.213-.497.33-.798.33-.302 0-.586-.117-.799-.33a1.121 1.121 0 0 1-.33-.798c0-.302.117-.586.33-.799.214-.213.497-.33.799-.33.3 0 .584.117.798.33.213.214.33.497.33.799 0 .301-.117.584-.33.798zm-.798-2.955c-.576 0-1.118.224-1.525.632a2.143 2.143 0 0 0-.632 1.525c0 .575.224 1.117.632 1.525.407.407.949.631 1.525.631s1.117-.224 1.525-.631c.407-.408.631-.95.631-1.525 0-.576-.224-1.118-.631-1.525a2.143 2.143 0 0 0-1.525-.632z"/><path id="qo0rK" d="M1170.728 1309.028a14.737 14.737 0 0 1-1.589-3.823.513.513 0 0 0-.993.256 15.762 15.762 0 0 0 1.699 4.089.513.513 0 1 0 .883-.522z"/><path id="qo0rL" d="M1168.515 1298.165a.513.513 0 0 0 .624-.369c.344-1.334.878-2.62 1.589-3.822a.513.513 0 1 0-.883-.522 15.764 15.764 0 0 0-1.699 4.09.513.513 0 0 0 .369.623z"/><path id="qo0rM" d="M1191.55 1287.845a15.764 15.764 0 0 0-4.09-1.699.513.513 0 0 0-.255.993c1.334.344 2.62.878 3.823 1.589a.513.513 0 0 0 .522-.883z"/><path id="qo0rN" d="M1179.797 1315.86a14.737 14.737 0 0 1-3.823-1.589.513.513 0 0 0-.522.883 15.764 15.764 0 0 0 4.09 1.699.513.513 0 0 0 .256-.993z"/><path id="qo0rO" d="M1191.028 1314.271a14.737 14.737 0 0 1-3.823 1.589.513.513 0 0 0 .256.993 15.765 15.765 0 0 0 4.089-1.699.513.513 0 0 0-.522-.883z"/><path id="qo0rP" d="M1196.271 1293.974a14.737 14.737 0 0 1 1.589 3.823.513.513 0 0 0 .993-.256 15.763 15.763 0 0 0-1.699-4.09.513.513 0 0 0-.883.523z"/><path id="qo0rQ" d="M1198.484 1304.836a.512.512 0 0 0-.624.369 14.737 14.737 0 0 1-1.589 3.823.513.513 0 1 0 .883.522 15.772 15.772 0 0 0 1.699-4.09.513.513 0 0 0-.369-.624z"/><path id="qo0rR" d="M1175.713 1288.799a.51.51 0 0 0 .26-.071 14.737 14.737 0 0 1 3.824-1.589.513.513 0 0 0-.256-.993 15.755 15.755 0 0 0-4.089 1.699.513.513 0 0 0 .261.954z"/></defs><g><g transform="translate(-1166 -1284)"><g><use fill="#6e4848" xlink:href="#qo0ra"/></g><g><use fill="#6e4848" xlink:href="#qo0rb"/></g><g><use fill="#ecbd83" xlink:href="#qo0rc"/></g><g><use fill="#e2a975" xlink:href="#qo0rd"/></g><g><use fill="#f6d190" xlink:href="#qo0re"/></g><g><use fill="#ecbd83" xlink:href="#qo0rf"/></g><g><use fill="#8a6055" xlink:href="#qo0rg"/></g><g><use fill="#f9eac7" xlink:href="#qo0rh"/></g><g><use fill="#ffe07d" xlink:href="#qo0ri"/></g><g><use fill="#ffd064" xlink:href="#qo0rj"/></g><g><use fill="#ffe07d" xlink:href="#qo0rk"/></g><g><use fill="#ffd064" xlink:href="#qo0rl"/></g><g><use fill="#ffe07d" xlink:href="#qo0rm"/></g><g><use fill="#ffd064" xlink:href="#qo0rn"/></g><g><use fill="#ffe07d" xlink:href="#qo0ro"/></g><g><use fill="#ffd064" xlink:href="#qo0rp"/></g><g><use fill="#ffc269" xlink:href="#qo0rq"/></g><g><use fill="#ffa95f" xlink:href="#qo0rr"/></g><g><use fill="#ffc269" xlink:href="#qo0rs"/></g><g><use fill="#ffa95f" xlink:href="#qo0rt"/></g><g><use fill="#ffc269" xlink:href="#qo0ru"/></g><g><use fill="#ffa95f" xlink:href="#qo0rv"/></g><g><use fill="#ffc269" xlink:href="#qo0rw"/></g><g><use fill="#ffa95f" xlink:href="#qo0rx"/></g><g><use xlink:href="#qo0ry"/></g><g><use xlink:href="#qo0rz"/></g><g><use xlink:href="#qo0rA"/></g><g><use xlink:href="#qo0rB"/></g><g><use xlink:href="#qo0rC"/></g><g><use xlink:href="#qo0rD"/></g><g><use xlink:href="#qo0rE"/></g><g><use xlink:href="#qo0rF"/></g><g><use xlink:href="#qo0rG"/></g><g><use xlink:href="#qo0rH"/></g><g><use xlink:href="#qo0rI"/></g><g><use xlink:href="#qo0rJ"/></g><g><use xlink:href="#qo0rK"/></g><g><use xlink:href="#qo0rL"/></g><g><use xlink:href="#qo0rM"/></g><g><use xlink:href="#qo0rN"/></g><g><use xlink:href="#qo0rO"/></g><g><use xlink:href="#qo0rP"/></g><g><use xlink:href="#qo0rQ"/></g><g><use xlink:href="#qo0rR"/></g></g></g></svg>