<svg xmlns="http://www.w3.org/2000/svg" xmlns:xlink="http://www.w3.org/1999/xlink" width="41" height="41" viewBox="0 0 41 41"><defs><path id="jh7wa" d="M939.043 2420.71h24.532c.753 0 1.363.611 1.363 1.366v36.87c0 .755-.61 1.366-1.363 1.366h-24.532a1.364 1.364 0 0 1-1.363-1.365v-36.871c0-.755.61-1.366 1.363-1.366z"/><path id="jh7wb" d="M939.043 2420.71h22.488c.752 0 1.363.611 1.363 1.366v36.87c0 .755-.61 1.366-1.363 1.366h-22.488a1.364 1.364 0 0 1-1.363-1.365v-36.871c0-.755.61-1.366 1.363-1.366z"/><path id="jh7wc" d="M944.661 2450.822l-2.891 6.759 6.746-2.897.75-1.2-3.407-3.414z"/><path id="jh7wd" d="M975.727 2427.415l-27.21 27.264-3.857-3.865 27.21-27.264 2.154 2.158z"/><path id="jh7we" d="M974.024 2425.708l-3.748 3.755-23.463 23.509-2.153-2.158 27.21-27.264z"/><path id="jh7wf" d="M970.69 2430.48v-2.41h2.94v2.41z"/><path id="jh7wg" d="M968.77 2428.87v-3.05h2.94v3.05z"/><path id="jh7wh" d="M976.463 2426.675l-2.406 2.41-1.676-1.68-2.181-2.184 2.406-2.41a2.723 2.723 0 0 1 4.562 1.224 2.736 2.736 0 0 1-.705 2.64z"/><path id="jh7wi" d="M974.786 2424.995l-2.405 2.41-2.181-2.184 2.406-2.41a2.73 2.73 0 0 1 2.828-.65c.343.992.092 2.092-.648 2.834z"/><path id="jh7wj" d="M939.044 2460.988h24.532c1.13 0 2.045-.917 2.045-2.048v-16.388a.682.682 0 1 0-1.363 0v16.388a.682.682 0 0 1-.681.682h-24.533a.682.682 0 0 1-.681-.682v-36.872c0-.377.305-.682.681-.682h24.532c.377 0 .682.305.682.682v4.097a.682.682 0 1 0 1.363 0v-4.097a2.046 2.046 0 0 0-2.045-2.048h-24.532a2.046 2.046 0 0 0-2.044 2.048v36.872c0 1.13.915 2.048 2.044 2.048z"/><path id="jh7wk" d="M975.98 2426.194l-1.928 1.932-2.888-2.9 1.928-1.929a2.042 2.042 0 0 1 3.42.919 2.051 2.051 0 0 1-.528 1.979zm-32.914 30.093l1.824-4.274 2.431 2.442zm25.058-28.015l2.891 2.897-22.497 22.542-2.892-2.897zm3.855 1.931l-2.891-2.896 1.113-1.116 2.891 2.897zm.15-7.874l-4.487 4.494-23.461 23.51c-.007.005-.009.014-.015.02a.678.678 0 0 0-.13.193l-.005.012-2.886 6.747a.684.684 0 0 0 .895.897l6.733-2.892.012-.006a.66.66 0 0 0 .192-.13c.006-.005.015-.007.021-.014l23.462-23.507 4.486-4.496a3.419 3.419 0 0 0-.01-4.817 3.403 3.403 0 0 0-4.809-.01z"/><path id="jh7wl" d="M959.486 2426.17h-16.355a.682.682 0 0 0 0 1.365h16.355a.682.682 0 0 0 0-1.365z"/><path id="jh7wm" d="M960.168 2430.943a.682.682 0 0 0-.682-.683h-16.355a.682.682 0 0 0 0 1.366h16.355a.682.682 0 0 0 .682-.683z"/><path id="jh7wn" d="M943.131 2434.36a.682.682 0 0 0 0 1.366h12.266a.682.682 0 0 0 0-1.366z"/></defs><g><g transform="translate(-937 -2420)"><g><g><use fill="#ffb301" xlink:href="#jh7wa"/></g><g><use fill="#fec108" xlink:href="#jh7wb"/></g><g><use fill="#ffecb3" xlink:href="#jh7wc"/></g><g><use fill="#fdd834" xlink:href="#jh7wd"/></g><g><use fill="#ffeb3a" xlink:href="#jh7we"/></g><g transform="rotate(135 972 2429.5)"><use fill="#9e9e9e" xlink:href="#jh7wf"/></g><g transform="rotate(135 969.5 2426.5)"><use fill="#f5f5f5" xlink:href="#jh7wg"/></g><g><use fill="#ad1457" xlink:href="#jh7wh"/></g><g><use fill="#e91e63" xlink:href="#jh7wi"/></g></g><g><g><use xlink:href="#jh7wj"/></g><g><use xlink:href="#jh7wk"/></g><g><use xlink:href="#jh7wl"/></g><g><use xlink:href="#jh7wm"/></g><g><use xlink:href="#jh7wn"/></g></g></g></g></svg>