<svg xmlns="http://www.w3.org/2000/svg" xmlns:xlink="http://www.w3.org/1999/xlink" width="1925" height="600" viewBox="0 0 1925 600"><defs><path id="dwlza" d="M602.6 4127.6v-32h32v32z"/><path id="dwlzb" d="M-2 4516v-600h1925v600z"/><path id="dwlze" d="M418.774 4336.393a2.39 2.39 0 0 1-2.388 2.394 2.39 2.39 0 0 1-2.386-2.394 2.39 2.39 0 0 1 2.386-2.393 2.39 2.39 0 0 1 2.388 2.393"/><path id="dwlzf" d="M433.094 4336.393a2.39 2.39 0 0 1-2.387 2.394 2.39 2.39 0 0 1-2.387-2.394 2.39 2.39 0 0 1 2.387-2.393 2.39 2.39 0 0 1 2.387 2.393"/><path id="dwlzg" d="M446.224 4336.393a2.39 2.39 0 0 1-2.387 2.394 2.39 2.39 0 0 1-2.387-2.394 2.39 2.39 0 0 1 2.387-2.393 2.39 2.39 0 0 1 2.387 2.393"/><path id="dwlzh" d="M460.544 4336.393a2.39 2.39 0 0 1-2.388 2.394 2.39 2.39 0 0 1-2.386-2.394 2.39 2.39 0 0 1 2.386-2.393 2.39 2.39 0 0 1 2.388 2.393"/><path id="dwlzi" d="M473.674 4336.393a2.39 2.39 0 0 1-2.387 2.394 2.39 2.39 0 0 1-2.387-2.394 2.39 2.39 0 0 1 2.387-2.393 2.39 2.39 0 0 1 2.387 2.393"/><path id="dwlzj" d="M418.774 4349.553a2.39 2.39 0 0 1-2.388 2.394 2.39 2.39 0 0 1-2.386-2.394 2.39 2.39 0 0 1 2.386-2.393 2.39 2.39 0 0 1 2.388 2.393"/><path id="dwlzk" d="M433.094 4349.553a2.39 2.39 0 0 1-2.387 2.394 2.39 2.39 0 0 1-2.387-2.394 2.39 2.39 0 0 1 2.387-2.393 2.39 2.39 0 0 1 2.387 2.393"/><path id="dwlzl" d="M446.224 4349.553a2.39 2.39 0 0 1-2.387 2.394 2.39 2.39 0 0 1-2.387-2.394 2.39 2.39 0 0 1 2.387-2.393 2.39 2.39 0 0 1 2.387 2.393"/><path id="dwlzm" d="M460.544 4349.553a2.39 2.39 0 0 1-2.388 2.394 2.39 2.39 0 0 1-2.386-2.394 2.39 2.39 0 0 1 2.386-2.393 2.39 2.39 0 0 1 2.388 2.393"/><path id="dwlzn" d="M473.674 4349.553a2.39 2.39 0 0 1-2.387 2.394 2.39 2.39 0 0 1-2.387-2.394 2.39 2.39 0 0 1 2.387-2.393 2.39 2.39 0 0 1 2.387 2.393"/><path id="dwlzo" d="M418.774 4364.512c0 1.652-1.068 2.992-2.388 2.992-1.317 0-2.386-1.34-2.386-2.992s1.069-2.992 2.386-2.992c1.32 0 2.388 1.34 2.388 2.992"/><path id="dwlzp" d="M433.094 4364.512c0 1.652-1.068 2.992-2.387 2.992-1.318 0-2.387-1.34-2.387-2.992s1.069-2.992 2.387-2.992c1.319 0 2.387 1.34 2.387 2.992"/><path id="dwlzq" d="M446.224 4364.512c0 1.652-1.069 2.992-2.387 2.992-1.319 0-2.387-1.34-2.387-2.992s1.068-2.992 2.387-2.992c1.318 0 2.387 1.34 2.387 2.992"/><path id="dwlzr" d="M460.544 4364.512c0 1.652-1.069 2.992-2.388 2.992-1.318 0-2.386-1.34-2.386-2.992s1.068-2.992 2.386-2.992c1.32 0 2.388 1.34 2.388 2.992"/><path id="dwlzs" d="M473.674 4364.512c0 1.652-1.068 2.992-2.387 2.992-1.318 0-2.387-1.34-2.387-2.992s1.069-2.992 2.387-2.992c1.32 0 2.387 1.34 2.387 2.992"/><path id="dwlzt" d="M418.774 4377.681c0 1.653-1.068 2.993-2.388 2.993-1.317 0-2.386-1.34-2.386-2.993 0-1.651 1.069-2.991 2.386-2.991 1.32 0 2.388 1.34 2.388 2.991"/><path id="dwlzu" d="M433.094 4377.681c0 1.653-1.068 2.993-2.387 2.993-1.318 0-2.387-1.34-2.387-2.993 0-1.651 1.069-2.991 2.387-2.991 1.319 0 2.387 1.34 2.387 2.991"/><path id="dwlzv" d="M446.224 4377.681c0 1.653-1.069 2.993-2.387 2.993-1.319 0-2.387-1.34-2.387-2.993 0-1.651 1.068-2.991 2.387-2.991 1.318 0 2.387 1.34 2.387 2.991"/><path id="dwlzw" d="M460.544 4377.681c0 1.653-1.069 2.993-2.388 2.993-1.318 0-2.386-1.34-2.386-2.993 0-1.651 1.068-2.991 2.386-2.991 1.32 0 2.388 1.34 2.388 2.991"/><path id="dwlzx" d="M473.674 4377.681c0 1.653-1.068 2.993-2.387 2.993-1.318 0-2.387-1.34-2.387-2.993 0-1.651 1.069-2.991 2.387-2.991 1.32 0 2.387 1.34 2.387 2.991"/><path id="dwlzy" d="M418.774 4391.443a2.39 2.39 0 0 1-2.388 2.394 2.39 2.39 0 0 1-2.386-2.394 2.39 2.39 0 0 1 2.386-2.393 2.39 2.39 0 0 1 2.388 2.393"/><path id="dwlzz" d="M433.094 4391.443a2.39 2.39 0 0 1-2.387 2.394 2.39 2.39 0 0 1-2.387-2.394 2.39 2.39 0 0 1 2.387-2.393 2.39 2.39 0 0 1 2.387 2.393"/><path id="dwlzA" d="M446.224 4391.443a2.39 2.39 0 0 1-2.387 2.394 2.39 2.39 0 0 1-2.387-2.394 2.39 2.39 0 0 1 2.387-2.393 2.39 2.39 0 0 1 2.387 2.393"/><path id="dwlzB" d="M460.544 4391.443a2.39 2.39 0 0 1-2.388 2.394 2.39 2.39 0 0 1-2.386-2.394 2.39 2.39 0 0 1 2.386-2.393 2.39 2.39 0 0 1 2.388 2.393"/><path id="dwlzC" d="M473.674 4391.443a2.39 2.39 0 0 1-2.387 2.394 2.39 2.39 0 0 1-2.387-2.394 2.39 2.39 0 0 1 2.387-2.393 2.39 2.39 0 0 1 2.387 2.393"/><path id="dwlzD" d="M418.774 4404.603a2.39 2.39 0 0 1-2.388 2.394 2.39 2.39 0 0 1-2.386-2.394 2.39 2.39 0 0 1 2.386-2.393 2.39 2.39 0 0 1 2.388 2.393"/><path id="dwlzE" d="M433.094 4404.603a2.39 2.39 0 0 1-2.387 2.394 2.39 2.39 0 0 1-2.387-2.394 2.39 2.39 0 0 1 2.387-2.393 2.39 2.39 0 0 1 2.387 2.393"/><path id="dwlzF" d="M446.224 4404.603a2.39 2.39 0 0 1-2.387 2.394 2.39 2.39 0 0 1-2.387-2.394 2.39 2.39 0 0 1 2.387-2.393 2.39 2.39 0 0 1 2.387 2.393"/><path id="dwlzG" d="M460.544 4404.603a2.39 2.39 0 0 1-2.388 2.394 2.39 2.39 0 0 1-2.386-2.394 2.39 2.39 0 0 1 2.386-2.393 2.39 2.39 0 0 1 2.388 2.393"/><path id="dwlzH" d="M473.674 4404.603a2.39 2.39 0 0 1-2.387 2.394 2.39 2.39 0 0 1-2.387-2.394 2.39 2.39 0 0 1 2.387-2.393 2.39 2.39 0 0 1 2.387 2.393"/><path id="dwlzI" d="M488.004 4336.393a2.39 2.39 0 0 1-2.387 2.394 2.39 2.39 0 0 1-2.387-2.394 2.39 2.39 0 0 1 2.387-2.393 2.39 2.39 0 0 1 2.387 2.393"/><path id="dwlzJ" d="M488.004 4349.553a2.39 2.39 0 0 1-2.387 2.394 2.39 2.39 0 0 1-2.387-2.394 2.39 2.39 0 0 1 2.387-2.393 2.39 2.39 0 0 1 2.387 2.393"/><path id="dwlzK" d="M488.004 4364.512c0 1.652-1.068 2.992-2.387 2.992-1.318 0-2.387-1.34-2.387-2.992s1.069-2.992 2.387-2.992c1.32 0 2.387 1.34 2.387 2.992"/><path id="dwlzL" d="M488.004 4377.681c0 1.653-1.068 2.993-2.387 2.993-1.318 0-2.387-1.34-2.387-2.993 0-1.651 1.069-2.991 2.387-2.991 1.32 0 2.387 1.34 2.387 2.991"/><path id="dwlzM" d="M488.004 4391.443a2.39 2.39 0 0 1-2.387 2.394 2.39 2.39 0 0 1-2.387-2.394 2.39 2.39 0 0 1 2.387-2.393 2.39 2.39 0 0 1 2.387 2.393"/><path id="dwlzN" d="M488.004 4404.603a2.39 2.39 0 0 1-2.387 2.394 2.39 2.39 0 0 1-2.387-2.394 2.39 2.39 0 0 1 2.387-2.393 2.39 2.39 0 0 1 2.387 2.393"/><path id="dwlzO" d="M418.774 4416.393a2.39 2.39 0 0 1-2.388 2.394 2.39 2.39 0 0 1-2.386-2.394 2.39 2.39 0 0 1 2.386-2.393 2.39 2.39 0 0 1 2.388 2.393"/><path id="dwlzP" d="M433.094 4416.393a2.39 2.39 0 0 1-2.387 2.394 2.39 2.39 0 0 1-2.387-2.394 2.39 2.39 0 0 1 2.387-2.393 2.39 2.39 0 0 1 2.387 2.393"/><path id="dwlzQ" d="M446.224 4416.393a2.39 2.39 0 0 1-2.387 2.394 2.39 2.39 0 0 1-2.387-2.394 2.39 2.39 0 0 1 2.387-2.393 2.39 2.39 0 0 1 2.387 2.393"/><path id="dwlzR" d="M460.544 4416.393a2.39 2.39 0 0 1-2.388 2.394 2.39 2.39 0 0 1-2.386-2.394 2.39 2.39 0 0 1 2.386-2.393 2.39 2.39 0 0 1 2.388 2.393"/><path id="dwlzS" d="M473.674 4416.393a2.39 2.39 0 0 1-2.387 2.394 2.39 2.39 0 0 1-2.387-2.394 2.39 2.39 0 0 1 2.387-2.393 2.39 2.39 0 0 1 2.387 2.393"/><path id="dwlzT" d="M418.774 4429.553a2.39 2.39 0 0 1-2.388 2.394 2.39 2.39 0 0 1-2.386-2.394 2.39 2.39 0 0 1 2.386-2.393 2.39 2.39 0 0 1 2.388 2.393"/><path id="dwlzU" d="M433.094 4429.553a2.39 2.39 0 0 1-2.387 2.394 2.39 2.39 0 0 1-2.387-2.394 2.39 2.39 0 0 1 2.387-2.393 2.39 2.39 0 0 1 2.387 2.393"/><path id="dwlzV" d="M446.224 4429.553a2.39 2.39 0 0 1-2.387 2.394 2.39 2.39 0 0 1-2.387-2.394 2.39 2.39 0 0 1 2.387-2.393 2.39 2.39 0 0 1 2.387 2.393"/><path id="dwlzW" d="M460.544 4429.553a2.39 2.39 0 0 1-2.388 2.394 2.39 2.39 0 0 1-2.386-2.394 2.39 2.39 0 0 1 2.386-2.393 2.39 2.39 0 0 1 2.388 2.393"/><path id="dwlzX" d="M473.674 4429.553a2.39 2.39 0 0 1-2.387 2.394 2.39 2.39 0 0 1-2.387-2.394 2.39 2.39 0 0 1 2.387-2.393 2.39 2.39 0 0 1 2.387 2.393"/><path id="dwlzY" d="M418.774 4444.512c0 1.652-1.068 2.992-2.388 2.992-1.317 0-2.386-1.34-2.386-2.992s1.069-2.992 2.386-2.992c1.32 0 2.388 1.34 2.388 2.992"/><path id="dwlzZ" d="M433.094 4444.512c0 1.652-1.068 2.992-2.387 2.992-1.318 0-2.387-1.34-2.387-2.992s1.069-2.992 2.387-2.992c1.319 0 2.387 1.34 2.387 2.992"/><path id="dwlzaa" d="M446.224 4444.512c0 1.652-1.069 2.992-2.387 2.992-1.319 0-2.387-1.34-2.387-2.992s1.068-2.992 2.387-2.992c1.318 0 2.387 1.34 2.387 2.992"/><path id="dwlzab" d="M460.544 4444.512c0 1.652-1.069 2.992-2.388 2.992-1.318 0-2.386-1.34-2.386-2.992s1.068-2.992 2.386-2.992c1.32 0 2.388 1.34 2.388 2.992"/><path id="dwlzac" d="M473.674 4444.512c0 1.652-1.068 2.992-2.387 2.992-1.318 0-2.387-1.34-2.387-2.992s1.069-2.992 2.387-2.992c1.32 0 2.387 1.34 2.387 2.992"/><path id="dwlzad" d="M418.774 4457.681c0 1.653-1.068 2.993-2.388 2.993-1.317 0-2.386-1.34-2.386-2.993 0-1.651 1.069-2.991 2.386-2.991 1.32 0 2.388 1.34 2.388 2.991"/><path id="dwlzae" d="M433.094 4457.681c0 1.653-1.068 2.993-2.387 2.993-1.318 0-2.387-1.34-2.387-2.993 0-1.651 1.069-2.991 2.387-2.991 1.319 0 2.387 1.34 2.387 2.991"/><path id="dwlzaf" d="M446.224 4457.681c0 1.653-1.069 2.993-2.387 2.993-1.319 0-2.387-1.34-2.387-2.993 0-1.651 1.068-2.991 2.387-2.991 1.318 0 2.387 1.34 2.387 2.991"/><path id="dwlzag" d="M460.544 4457.681c0 1.653-1.069 2.993-2.388 2.993-1.318 0-2.386-1.34-2.386-2.993 0-1.651 1.068-2.991 2.386-2.991 1.32 0 2.388 1.34 2.388 2.991"/><path id="dwlzah" d="M473.674 4457.681c0 1.653-1.068 2.993-2.387 2.993-1.318 0-2.387-1.34-2.387-2.993 0-1.651 1.069-2.991 2.387-2.991 1.32 0 2.387 1.34 2.387 2.991"/><path id="dwlzai" d="M418.774 4471.443a2.39 2.39 0 0 1-2.388 2.394 2.39 2.39 0 0 1-2.386-2.394 2.39 2.39 0 0 1 2.386-2.393 2.39 2.39 0 0 1 2.388 2.393"/><path id="dwlzaj" d="M433.094 4471.443a2.39 2.39 0 0 1-2.387 2.394 2.39 2.39 0 0 1-2.387-2.394 2.39 2.39 0 0 1 2.387-2.393 2.39 2.39 0 0 1 2.387 2.393"/><path id="dwlzak" d="M446.224 4471.443a2.39 2.39 0 0 1-2.387 2.394 2.39 2.39 0 0 1-2.387-2.394 2.39 2.39 0 0 1 2.387-2.393 2.39 2.39 0 0 1 2.387 2.393"/><path id="dwlzal" d="M460.544 4471.443a2.39 2.39 0 0 1-2.388 2.394 2.39 2.39 0 0 1-2.386-2.394 2.39 2.39 0 0 1 2.386-2.393 2.39 2.39 0 0 1 2.388 2.393"/><path id="dwlzam" d="M473.674 4471.443a2.39 2.39 0 0 1-2.387 2.394 2.39 2.39 0 0 1-2.387-2.394 2.39 2.39 0 0 1 2.387-2.393 2.39 2.39 0 0 1 2.387 2.393"/><path id="dwlzan" d="M418.774 4484.603a2.39 2.39 0 0 1-2.388 2.394 2.39 2.39 0 0 1-2.386-2.394 2.39 2.39 0 0 1 2.386-2.393 2.39 2.39 0 0 1 2.388 2.393"/><path id="dwlzao" d="M433.094 4484.603a2.39 2.39 0 0 1-2.387 2.394 2.39 2.39 0 0 1-2.387-2.394 2.39 2.39 0 0 1 2.387-2.393 2.39 2.39 0 0 1 2.387 2.393"/><path id="dwlzap" d="M446.224 4484.603a2.39 2.39 0 0 1-2.387 2.394 2.39 2.39 0 0 1-2.387-2.394 2.39 2.39 0 0 1 2.387-2.393 2.39 2.39 0 0 1 2.387 2.393"/><path id="dwlzaq" d="M460.544 4484.603a2.39 2.39 0 0 1-2.388 2.394 2.39 2.39 0 0 1-2.386-2.394 2.39 2.39 0 0 1 2.386-2.393 2.39 2.39 0 0 1 2.388 2.393"/><path id="dwlzar" d="M473.674 4484.603a2.39 2.39 0 0 1-2.387 2.394 2.39 2.39 0 0 1-2.387-2.394 2.39 2.39 0 0 1 2.387-2.393 2.39 2.39 0 0 1 2.387 2.393"/><path id="dwlzas" d="M488.004 4416.393a2.39 2.39 0 0 1-2.387 2.394 2.39 2.39 0 0 1-2.387-2.394 2.39 2.39 0 0 1 2.387-2.393 2.39 2.39 0 0 1 2.387 2.393"/><path id="dwlzat" d="M488.004 4429.553a2.39 2.39 0 0 1-2.387 2.394 2.39 2.39 0 0 1-2.387-2.394 2.39 2.39 0 0 1 2.387-2.393 2.39 2.39 0 0 1 2.387 2.393"/><path id="dwlzau" d="M488.004 4444.512c0 1.652-1.068 2.992-2.387 2.992-1.318 0-2.387-1.34-2.387-2.992s1.069-2.992 2.387-2.992c1.32 0 2.387 1.34 2.387 2.992"/><path id="dwlzav" d="M488.004 4457.681c0 1.653-1.068 2.993-2.387 2.993-1.318 0-2.387-1.34-2.387-2.993 0-1.651 1.069-2.991 2.387-2.991 1.32 0 2.387 1.34 2.387 2.991"/><path id="dwlzaw" d="M488.004 4471.443a2.39 2.39 0 0 1-2.387 2.394 2.39 2.39 0 0 1-2.387-2.394 2.39 2.39 0 0 1 2.387-2.393 2.39 2.39 0 0 1 2.387 2.393"/><path id="dwlzax" d="M488.004 4484.603a2.39 2.39 0 0 1-2.387 2.394 2.39 2.39 0 0 1-2.387-2.394 2.39 2.39 0 0 1 2.387-2.393 2.39 2.39 0 0 1 2.387 2.393"/><path id="dwlzay" d="M502.774 4336.393a2.39 2.39 0 0 1-2.388 2.394 2.39 2.39 0 0 1-2.386-2.394 2.39 2.39 0 0 1 2.386-2.393 2.39 2.39 0 0 1 2.388 2.393"/><path id="dwlzaz" d="M517.094 4336.393a2.39 2.39 0 0 1-2.387 2.394 2.39 2.39 0 0 1-2.387-2.394 2.39 2.39 0 0 1 2.387-2.393 2.39 2.39 0 0 1 2.387 2.393"/><path id="dwlzaA" d="M530.224 4336.393a2.39 2.39 0 0 1-2.387 2.394 2.39 2.39 0 0 1-2.387-2.394 2.39 2.39 0 0 1 2.387-2.393 2.39 2.39 0 0 1 2.387 2.393"/><path id="dwlzaB" d="M544.544 4336.393a2.39 2.39 0 0 1-2.388 2.394 2.39 2.39 0 0 1-2.386-2.394 2.39 2.39 0 0 1 2.386-2.393 2.39 2.39 0 0 1 2.388 2.393"/><path id="dwlzaC" d="M557.674 4336.393a2.39 2.39 0 0 1-2.387 2.394 2.39 2.39 0 0 1-2.387-2.394 2.39 2.39 0 0 1 2.387-2.393 2.39 2.39 0 0 1 2.387 2.393"/><path id="dwlzaD" d="M502.774 4349.553a2.39 2.39 0 0 1-2.388 2.394 2.39 2.39 0 0 1-2.386-2.394 2.39 2.39 0 0 1 2.386-2.393 2.39 2.39 0 0 1 2.388 2.393"/><path id="dwlzaE" d="M517.094 4349.553a2.39 2.39 0 0 1-2.387 2.394 2.39 2.39 0 0 1-2.387-2.394 2.39 2.39 0 0 1 2.387-2.393 2.39 2.39 0 0 1 2.387 2.393"/><path id="dwlzaF" d="M530.224 4349.553a2.39 2.39 0 0 1-2.387 2.394 2.39 2.39 0 0 1-2.387-2.394 2.39 2.39 0 0 1 2.387-2.393 2.39 2.39 0 0 1 2.387 2.393"/><path id="dwlzaG" d="M544.544 4349.553a2.39 2.39 0 0 1-2.388 2.394 2.39 2.39 0 0 1-2.386-2.394 2.39 2.39 0 0 1 2.386-2.393 2.39 2.39 0 0 1 2.388 2.393"/><path id="dwlzaH" d="M557.674 4349.553a2.39 2.39 0 0 1-2.387 2.394 2.39 2.39 0 0 1-2.387-2.394 2.39 2.39 0 0 1 2.387-2.393 2.39 2.39 0 0 1 2.387 2.393"/><path id="dwlzaI" d="M502.774 4364.512c0 1.652-1.068 2.992-2.388 2.992-1.317 0-2.386-1.34-2.386-2.992s1.069-2.992 2.386-2.992c1.32 0 2.388 1.34 2.388 2.992"/><path id="dwlzaJ" d="M517.094 4364.512c0 1.652-1.068 2.992-2.387 2.992-1.318 0-2.387-1.34-2.387-2.992s1.069-2.992 2.387-2.992c1.319 0 2.387 1.34 2.387 2.992"/><path id="dwlzaK" d="M530.224 4364.512c0 1.652-1.069 2.992-2.387 2.992-1.319 0-2.387-1.34-2.387-2.992s1.068-2.992 2.387-2.992c1.318 0 2.387 1.34 2.387 2.992"/><path id="dwlzaL" d="M544.544 4364.512c0 1.652-1.069 2.992-2.388 2.992-1.318 0-2.386-1.34-2.386-2.992s1.068-2.992 2.386-2.992c1.32 0 2.388 1.34 2.388 2.992"/><path id="dwlzaM" d="M557.674 4364.512c0 1.652-1.068 2.992-2.387 2.992-1.318 0-2.387-1.34-2.387-2.992s1.069-2.992 2.387-2.992c1.32 0 2.387 1.34 2.387 2.992"/><path id="dwlzaN" d="M502.774 4377.681c0 1.653-1.068 2.993-2.388 2.993-1.317 0-2.386-1.34-2.386-2.993 0-1.651 1.069-2.991 2.386-2.991 1.32 0 2.388 1.34 2.388 2.991"/><path id="dwlzaO" d="M517.094 4377.681c0 1.653-1.068 2.993-2.387 2.993-1.318 0-2.387-1.34-2.387-2.993 0-1.651 1.069-2.991 2.387-2.991 1.319 0 2.387 1.34 2.387 2.991"/><path id="dwlzaP" d="M530.224 4377.681c0 1.653-1.069 2.993-2.387 2.993-1.319 0-2.387-1.34-2.387-2.993 0-1.651 1.068-2.991 2.387-2.991 1.318 0 2.387 1.34 2.387 2.991"/><path id="dwlzaQ" d="M544.544 4377.681c0 1.653-1.069 2.993-2.388 2.993-1.318 0-2.386-1.34-2.386-2.993 0-1.651 1.068-2.991 2.386-2.991 1.32 0 2.388 1.34 2.388 2.991"/><path id="dwlzaR" d="M557.674 4377.681c0 1.653-1.068 2.993-2.387 2.993-1.318 0-2.387-1.34-2.387-2.993 0-1.651 1.069-2.991 2.387-2.991 1.32 0 2.387 1.34 2.387 2.991"/><path id="dwlzaS" d="M502.774 4391.443a2.39 2.39 0 0 1-2.388 2.394 2.39 2.39 0 0 1-2.386-2.394 2.39 2.39 0 0 1 2.386-2.393 2.39 2.39 0 0 1 2.388 2.393"/><path id="dwlzaT" d="M517.094 4391.443a2.39 2.39 0 0 1-2.387 2.394 2.39 2.39 0 0 1-2.387-2.394 2.39 2.39 0 0 1 2.387-2.393 2.39 2.39 0 0 1 2.387 2.393"/><path id="dwlzaU" d="M530.224 4391.443a2.39 2.39 0 0 1-2.387 2.394 2.39 2.39 0 0 1-2.387-2.394 2.39 2.39 0 0 1 2.387-2.393 2.39 2.39 0 0 1 2.387 2.393"/><path id="dwlzaV" d="M544.544 4391.443a2.39 2.39 0 0 1-2.388 2.394 2.39 2.39 0 0 1-2.386-2.394 2.39 2.39 0 0 1 2.386-2.393 2.39 2.39 0 0 1 2.388 2.393"/><path id="dwlzaW" d="M557.674 4391.443a2.39 2.39 0 0 1-2.387 2.394 2.39 2.39 0 0 1-2.387-2.394 2.39 2.39 0 0 1 2.387-2.393 2.39 2.39 0 0 1 2.387 2.393"/><path id="dwlzaX" d="M502.774 4404.603a2.39 2.39 0 0 1-2.388 2.394 2.39 2.39 0 0 1-2.386-2.394 2.39 2.39 0 0 1 2.386-2.393 2.39 2.39 0 0 1 2.388 2.393"/><path id="dwlzaY" d="M517.094 4404.603a2.39 2.39 0 0 1-2.387 2.394 2.39 2.39 0 0 1-2.387-2.394 2.39 2.39 0 0 1 2.387-2.393 2.39 2.39 0 0 1 2.387 2.393"/><path id="dwlzaZ" d="M530.224 4404.603a2.39 2.39 0 0 1-2.387 2.394 2.39 2.39 0 0 1-2.387-2.394 2.39 2.39 0 0 1 2.387-2.393 2.39 2.39 0 0 1 2.387 2.393"/><path id="dwlzba" d="M544.544 4404.603a2.39 2.39 0 0 1-2.388 2.394 2.39 2.39 0 0 1-2.386-2.394 2.39 2.39 0 0 1 2.386-2.393 2.39 2.39 0 0 1 2.388 2.393"/><path id="dwlzbb" d="M557.674 4404.603a2.39 2.39 0 0 1-2.387 2.394 2.39 2.39 0 0 1-2.387-2.394 2.39 2.39 0 0 1 2.387-2.393 2.39 2.39 0 0 1 2.387 2.393"/><path id="dwlzbc" d="M572.004 4336.393a2.39 2.39 0 0 1-2.387 2.394 2.39 2.39 0 0 1-2.387-2.394 2.39 2.39 0 0 1 2.387-2.393 2.39 2.39 0 0 1 2.387 2.393"/><path id="dwlzbd" d="M572.004 4349.553a2.39 2.39 0 0 1-2.387 2.394 2.39 2.39 0 0 1-2.387-2.394 2.39 2.39 0 0 1 2.387-2.393 2.39 2.39 0 0 1 2.387 2.393"/><path id="dwlzbe" d="M572.004 4364.512c0 1.652-1.068 2.992-2.387 2.992-1.318 0-2.387-1.34-2.387-2.992s1.069-2.992 2.387-2.992c1.32 0 2.387 1.34 2.387 2.992"/><path id="dwlzbf" d="M572.004 4377.681c0 1.653-1.068 2.993-2.387 2.993-1.318 0-2.387-1.34-2.387-2.993 0-1.651 1.069-2.991 2.387-2.991 1.32 0 2.387 1.34 2.387 2.991"/><path id="dwlzbg" d="M572.004 4391.443a2.39 2.39 0 0 1-2.387 2.394 2.39 2.39 0 0 1-2.387-2.394 2.39 2.39 0 0 1 2.387-2.393 2.39 2.39 0 0 1 2.387 2.393"/><path id="dwlzbh" d="M572.004 4404.603a2.39 2.39 0 0 1-2.387 2.394 2.39 2.39 0 0 1-2.387-2.394 2.39 2.39 0 0 1 2.387-2.393 2.39 2.39 0 0 1 2.387 2.393"/><path id="dwlzbi" d="M502.774 4416.393a2.39 2.39 0 0 1-2.388 2.394 2.39 2.39 0 0 1-2.386-2.394 2.39 2.39 0 0 1 2.386-2.393 2.39 2.39 0 0 1 2.388 2.393"/><path id="dwlzbj" d="M517.094 4416.393a2.39 2.39 0 0 1-2.387 2.394 2.39 2.39 0 0 1-2.387-2.394 2.39 2.39 0 0 1 2.387-2.393 2.39 2.39 0 0 1 2.387 2.393"/><path id="dwlzbk" d="M530.224 4416.393a2.39 2.39 0 0 1-2.387 2.394 2.39 2.39 0 0 1-2.387-2.394 2.39 2.39 0 0 1 2.387-2.393 2.39 2.39 0 0 1 2.387 2.393"/><path id="dwlzbl" d="M544.544 4416.393a2.39 2.39 0 0 1-2.388 2.394 2.39 2.39 0 0 1-2.386-2.394 2.39 2.39 0 0 1 2.386-2.393 2.39 2.39 0 0 1 2.388 2.393"/><path id="dwlzbm" d="M557.674 4416.393a2.39 2.39 0 0 1-2.387 2.394 2.39 2.39 0 0 1-2.387-2.394 2.39 2.39 0 0 1 2.387-2.393 2.39 2.39 0 0 1 2.387 2.393"/><path id="dwlzbn" d="M502.774 4429.553a2.39 2.39 0 0 1-2.388 2.394 2.39 2.39 0 0 1-2.386-2.394 2.39 2.39 0 0 1 2.386-2.393 2.39 2.39 0 0 1 2.388 2.393"/><path id="dwlzbo" d="M517.094 4429.553a2.39 2.39 0 0 1-2.387 2.394 2.39 2.39 0 0 1-2.387-2.394 2.39 2.39 0 0 1 2.387-2.393 2.39 2.39 0 0 1 2.387 2.393"/><path id="dwlzbp" d="M530.224 4429.553a2.39 2.39 0 0 1-2.387 2.394 2.39 2.39 0 0 1-2.387-2.394 2.39 2.39 0 0 1 2.387-2.393 2.39 2.39 0 0 1 2.387 2.393"/><path id="dwlzbq" d="M544.544 4429.553a2.39 2.39 0 0 1-2.388 2.394 2.39 2.39 0 0 1-2.386-2.394 2.39 2.39 0 0 1 2.386-2.393 2.39 2.39 0 0 1 2.388 2.393"/><path id="dwlzbr" d="M557.674 4429.553a2.39 2.39 0 0 1-2.387 2.394 2.39 2.39 0 0 1-2.387-2.394 2.39 2.39 0 0 1 2.387-2.393 2.39 2.39 0 0 1 2.387 2.393"/><path id="dwlzbs" d="M502.774 4444.512c0 1.652-1.068 2.992-2.388 2.992-1.317 0-2.386-1.34-2.386-2.992s1.069-2.992 2.386-2.992c1.32 0 2.388 1.34 2.388 2.992"/><path id="dwlzbt" d="M517.094 4444.512c0 1.652-1.068 2.992-2.387 2.992-1.318 0-2.387-1.34-2.387-2.992s1.069-2.992 2.387-2.992c1.319 0 2.387 1.34 2.387 2.992"/><path id="dwlzbu" d="M530.224 4444.512c0 1.652-1.069 2.992-2.387 2.992-1.319 0-2.387-1.34-2.387-2.992s1.068-2.992 2.387-2.992c1.318 0 2.387 1.34 2.387 2.992"/><path id="dwlzbv" d="M544.544 4444.512c0 1.652-1.069 2.992-2.388 2.992-1.318 0-2.386-1.34-2.386-2.992s1.068-2.992 2.386-2.992c1.32 0 2.388 1.34 2.388 2.992"/><path id="dwlzbw" d="M557.674 4444.512c0 1.652-1.068 2.992-2.387 2.992-1.318 0-2.387-1.34-2.387-2.992s1.069-2.992 2.387-2.992c1.32 0 2.387 1.34 2.387 2.992"/><path id="dwlzbx" d="M502.774 4457.681c0 1.653-1.068 2.993-2.388 2.993-1.317 0-2.386-1.34-2.386-2.993 0-1.651 1.069-2.991 2.386-2.991 1.32 0 2.388 1.34 2.388 2.991"/><path id="dwlzby" d="M517.094 4457.681c0 1.653-1.068 2.993-2.387 2.993-1.318 0-2.387-1.34-2.387-2.993 0-1.651 1.069-2.991 2.387-2.991 1.319 0 2.387 1.34 2.387 2.991"/><path id="dwlzbz" d="M530.224 4457.681c0 1.653-1.069 2.993-2.387 2.993-1.319 0-2.387-1.34-2.387-2.993 0-1.651 1.068-2.991 2.387-2.991 1.318 0 2.387 1.34 2.387 2.991"/><path id="dwlzbA" d="M544.544 4457.681c0 1.653-1.069 2.993-2.388 2.993-1.318 0-2.386-1.34-2.386-2.993 0-1.651 1.068-2.991 2.386-2.991 1.32 0 2.388 1.34 2.388 2.991"/><path id="dwlzbB" d="M557.674 4457.681c0 1.653-1.068 2.993-2.387 2.993-1.318 0-2.387-1.34-2.387-2.993 0-1.651 1.069-2.991 2.387-2.991 1.32 0 2.387 1.34 2.387 2.991"/><path id="dwlzbC" d="M502.774 4471.443a2.39 2.39 0 0 1-2.388 2.394 2.39 2.39 0 0 1-2.386-2.394 2.39 2.39 0 0 1 2.386-2.393 2.39 2.39 0 0 1 2.388 2.393"/><path id="dwlzbD" d="M517.094 4471.443a2.39 2.39 0 0 1-2.387 2.394 2.39 2.39 0 0 1-2.387-2.394 2.39 2.39 0 0 1 2.387-2.393 2.39 2.39 0 0 1 2.387 2.393"/><path id="dwlzbE" d="M530.224 4471.443a2.39 2.39 0 0 1-2.387 2.394 2.39 2.39 0 0 1-2.387-2.394 2.39 2.39 0 0 1 2.387-2.393 2.39 2.39 0 0 1 2.387 2.393"/><path id="dwlzbF" d="M544.544 4471.443a2.39 2.39 0 0 1-2.388 2.394 2.39 2.39 0 0 1-2.386-2.394 2.39 2.39 0 0 1 2.386-2.393 2.39 2.39 0 0 1 2.388 2.393"/><path id="dwlzbG" d="M557.674 4471.443a2.39 2.39 0 0 1-2.387 2.394 2.39 2.39 0 0 1-2.387-2.394 2.39 2.39 0 0 1 2.387-2.393 2.39 2.39 0 0 1 2.387 2.393"/><path id="dwlzbH" d="M502.774 4484.603a2.39 2.39 0 0 1-2.388 2.394 2.39 2.39 0 0 1-2.386-2.394 2.39 2.39 0 0 1 2.386-2.393 2.39 2.39 0 0 1 2.388 2.393"/><path id="dwlzbI" d="M517.094 4484.603a2.39 2.39 0 0 1-2.387 2.394 2.39 2.39 0 0 1-2.387-2.394 2.39 2.39 0 0 1 2.387-2.393 2.39 2.39 0 0 1 2.387 2.393"/><path id="dwlzbJ" d="M530.224 4484.603a2.39 2.39 0 0 1-2.387 2.394 2.39 2.39 0 0 1-2.387-2.394 2.39 2.39 0 0 1 2.387-2.393 2.39 2.39 0 0 1 2.387 2.393"/><path id="dwlzbK" d="M544.544 4484.603a2.39 2.39 0 0 1-2.388 2.394 2.39 2.39 0 0 1-2.386-2.394 2.39 2.39 0 0 1 2.386-2.393 2.39 2.39 0 0 1 2.388 2.393"/><path id="dwlzbL" d="M557.674 4484.603a2.39 2.39 0 0 1-2.387 2.394 2.39 2.39 0 0 1-2.387-2.394 2.39 2.39 0 0 1 2.387-2.393 2.39 2.39 0 0 1 2.387 2.393"/><path id="dwlzbM" d="M572.004 4416.393a2.39 2.39 0 0 1-2.387 2.394 2.39 2.39 0 0 1-2.387-2.394 2.39 2.39 0 0 1 2.387-2.393 2.39 2.39 0 0 1 2.387 2.393"/><path id="dwlzbN" d="M572.004 4429.553a2.39 2.39 0 0 1-2.387 2.394 2.39 2.39 0 0 1-2.387-2.394 2.39 2.39 0 0 1 2.387-2.393 2.39 2.39 0 0 1 2.387 2.393"/><path id="dwlzbO" d="M572.004 4444.512c0 1.652-1.068 2.992-2.387 2.992-1.318 0-2.387-1.34-2.387-2.992s1.069-2.992 2.387-2.992c1.32 0 2.387 1.34 2.387 2.992"/><path id="dwlzbP" d="M572.004 4457.681c0 1.653-1.068 2.993-2.387 2.993-1.318 0-2.387-1.34-2.387-2.993 0-1.651 1.069-2.991 2.387-2.991 1.32 0 2.387 1.34 2.387 2.991"/><path id="dwlzbQ" d="M572.004 4471.443a2.39 2.39 0 0 1-2.387 2.394 2.39 2.39 0 0 1-2.387-2.394 2.39 2.39 0 0 1 2.387-2.393 2.39 2.39 0 0 1 2.387 2.393"/><path id="dwlzbR" d="M572.004 4484.603a2.39 2.39 0 0 1-2.387 2.394 2.39 2.39 0 0 1-2.387-2.394 2.39 2.39 0 0 1 2.387-2.393 2.39 2.39 0 0 1 2.387 2.393"/><path id="dwlzbS" d="M1258 4495.816c2.977-3.101 56.887-82.238 180.066-79.96 123.18 2.277 167.864-97.856 167.864-97.856"/><path id="dwlzbT" d="M247.22 4157.075s80.281-22.191 98.387 29.836c18.105 52.028 65.633 24.188 94.136 31.457 28.504 7.27 32.25 39.867 35.102 57.465"/><path id="dwlzbU" d="M1204 4274.5c0-7.456 6.044-13.5 13.5-13.5s13.5 6.044 13.5 13.5-6.044 13.5-13.5 13.5-13.5-6.044-13.5-13.5z"/><linearGradient id="dwlzc" x1="1788.38" x2="-32.36" y1="4216" y2="4434.75" gradientUnits="userSpaceOnUse"><stop offset="0" stop-color="#ffcfbb"/><stop offset="1" stop-color="#fc6dab"/></linearGradient><clipPath id="dwlzbV"><use fill="#fff" xlink:href="#dwlza"/></clipPath><clipPath id="dwlzd"><use xlink:href="#dwlzb"/></clipPath></defs><g><g transform="translate(2 -3916)"><g><use fill="url(#dwlzc)" xlink:href="#dwlzb"/></g><g clip-path="url(#dwlzd)" opacity=".13"><g opacity=".13"><g opacity=".13"><use fill="#fbe9f1" xlink:href="#dwlze"/></g><g opacity=".13"><use fill="#fbe9f1" xlink:href="#dwlzf"/></g><g opacity=".13"><use fill="#fbe9f1" xlink:href="#dwlzg"/></g><g opacity=".13"><use fill="#fbe9f1" xlink:href="#dwlzh"/></g><g opacity=".13"><use fill="#fbe9f1" xlink:href="#dwlzi"/></g><g opacity=".13"><use fill="#fbe9f1" xlink:href="#dwlzj"/></g><g opacity=".13"><use fill="#fbe9f1" xlink:href="#dwlzk"/></g><g opacity=".13"><use fill="#fbe9f1" xlink:href="#dwlzl"/></g><g opacity=".13"><use fill="#fbe9f1" xlink:href="#dwlzm"/></g><g opacity=".13"><use fill="#fbe9f1" xlink:href="#dwlzn"/></g><g opacity=".13"><use fill="#fbe9f1" xlink:href="#dwlzo"/></g><g opacity=".13"><use fill="#fbe9f1" xlink:href="#dwlzp"/></g><g opacity=".13"><use fill="#fbe9f1" xlink:href="#dwlzq"/></g><g opacity=".13"><use fill="#fbe9f1" xlink:href="#dwlzr"/></g><g opacity=".13"><use fill="#fbe9f1" xlink:href="#dwlzs"/></g><g opacity=".13"><use fill="#fbe9f1" xlink:href="#dwlzt"/></g><g opacity=".13"><use fill="#fbe9f1" xlink:href="#dwlzu"/></g><g opacity=".13"><use fill="#fbe9f1" xlink:href="#dwlzv"/></g><g opacity=".13"><use fill="#fbe9f1" xlink:href="#dwlzw"/></g><g opacity=".13"><use fill="#fbe9f1" xlink:href="#dwlzx"/></g><g opacity=".13"><use fill="#fbe9f1" xlink:href="#dwlzy"/></g><g opacity=".13"><use fill="#fbe9f1" xlink:href="#dwlzz"/></g><g opacity=".13"><use fill="#fbe9f1" xlink:href="#dwlzA"/></g><g opacity=".13"><use fill="#fbe9f1" xlink:href="#dwlzB"/></g><g opacity=".13"><use fill="#fbe9f1" xlink:href="#dwlzC"/></g><g opacity=".13"><use fill="#fbe9f1" xlink:href="#dwlzD"/></g><g opacity=".13"><use fill="#fbe9f1" xlink:href="#dwlzE"/></g><g opacity=".13"><use fill="#fbe9f1" xlink:href="#dwlzF"/></g><g opacity=".13"><use fill="#fbe9f1" xlink:href="#dwlzG"/></g><g opacity=".13"><use fill="#fbe9f1" xlink:href="#dwlzH"/></g><g opacity=".13"><use fill="#fbe9f1" xlink:href="#dwlzI"/></g><g opacity=".13"><use fill="#fbe9f1" xlink:href="#dwlzJ"/></g><g opacity=".13"><use fill="#fbe9f1" xlink:href="#dwlzK"/></g><g opacity=".13"><use fill="#fbe9f1" xlink:href="#dwlzL"/></g><g opacity=".13"><use fill="#fbe9f1" xlink:href="#dwlzM"/></g><g opacity=".13"><use fill="#fbe9f1" xlink:href="#dwlzN"/></g></g><g opacity=".13"><g opacity=".13"><use fill="#fbe9f1" xlink:href="#dwlzO"/></g><g opacity=".13"><use fill="#fbe9f1" xlink:href="#dwlzP"/></g><g opacity=".13"><use fill="#fbe9f1" xlink:href="#dwlzQ"/></g><g opacity=".13"><use fill="#fbe9f1" xlink:href="#dwlzR"/></g><g opacity=".13"><use fill="#fbe9f1" xlink:href="#dwlzS"/></g><g opacity=".13"><use fill="#fbe9f1" xlink:href="#dwlzT"/></g><g opacity=".13"><use fill="#fbe9f1" xlink:href="#dwlzU"/></g><g opacity=".13"><use fill="#fbe9f1" xlink:href="#dwlzV"/></g><g opacity=".13"><use fill="#fbe9f1" xlink:href="#dwlzW"/></g><g opacity=".13"><use fill="#fbe9f1" xlink:href="#dwlzX"/></g><g opacity=".13"><use fill="#fbe9f1" xlink:href="#dwlzY"/></g><g opacity=".13"><use fill="#fbe9f1" xlink:href="#dwlzZ"/></g><g opacity=".13"><use fill="#fbe9f1" xlink:href="#dwlzaa"/></g><g opacity=".13"><use fill="#fbe9f1" xlink:href="#dwlzab"/></g><g opacity=".13"><use fill="#fbe9f1" xlink:href="#dwlzac"/></g><g opacity=".13"><use fill="#fbe9f1" xlink:href="#dwlzad"/></g><g opacity=".13"><use fill="#fbe9f1" xlink:href="#dwlzae"/></g><g opacity=".13"><use fill="#fbe9f1" xlink:href="#dwlzaf"/></g><g opacity=".13"><use fill="#fbe9f1" xlink:href="#dwlzag"/></g><g opacity=".13"><use fill="#fbe9f1" xlink:href="#dwlzah"/></g><g opacity=".13"><use fill="#fbe9f1" xlink:href="#dwlzai"/></g><g opacity=".13"><use fill="#fbe9f1" xlink:href="#dwlzaj"/></g><g opacity=".13"><use fill="#fbe9f1" xlink:href="#dwlzak"/></g><g opacity=".13"><use fill="#fbe9f1" xlink:href="#dwlzal"/></g><g opacity=".13"><use fill="#fbe9f1" xlink:href="#dwlzam"/></g><g opacity=".13"><use fill="#fbe9f1" xlink:href="#dwlzan"/></g><g opacity=".13"><use fill="#fbe9f1" xlink:href="#dwlzao"/></g><g opacity=".13"><use fill="#fbe9f1" xlink:href="#dwlzap"/></g><g opacity=".13"><use fill="#fbe9f1" xlink:href="#dwlzaq"/></g><g opacity=".13"><use fill="#fbe9f1" xlink:href="#dwlzar"/></g><g opacity=".13"><use fill="#fbe9f1" xlink:href="#dwlzas"/></g><g opacity=".13"><use fill="#fbe9f1" xlink:href="#dwlzat"/></g><g opacity=".13"><use fill="#fbe9f1" xlink:href="#dwlzau"/></g><g opacity=".13"><use fill="#fbe9f1" xlink:href="#dwlzav"/></g><g opacity=".13"><use fill="#fbe9f1" xlink:href="#dwlzaw"/></g><g opacity=".13"><use fill="#fbe9f1" xlink:href="#dwlzax"/></g></g><g opacity=".13"><g opacity=".13"><use fill="#fbe9f1" xlink:href="#dwlzay"/></g><g opacity=".13"><use fill="#fbe9f1" xlink:href="#dwlzaz"/></g><g opacity=".13"><use fill="#fbe9f1" xlink:href="#dwlzaA"/></g><g opacity=".13"><use fill="#fbe9f1" xlink:href="#dwlzaB"/></g><g opacity=".13"><use fill="#fbe9f1" xlink:href="#dwlzaC"/></g><g opacity=".13"><use fill="#fbe9f1" xlink:href="#dwlzaD"/></g><g opacity=".13"><use fill="#fbe9f1" xlink:href="#dwlzaE"/></g><g opacity=".13"><use fill="#fbe9f1" xlink:href="#dwlzaF"/></g><g opacity=".13"><use fill="#fbe9f1" xlink:href="#dwlzaG"/></g><g opacity=".13"><use fill="#fbe9f1" xlink:href="#dwlzaH"/></g><g opacity=".13"><use fill="#fbe9f1" xlink:href="#dwlzaI"/></g><g opacity=".13"><use fill="#fbe9f1" xlink:href="#dwlzaJ"/></g><g opacity=".13"><use fill="#fbe9f1" xlink:href="#dwlzaK"/></g><g opacity=".13"><use fill="#fbe9f1" xlink:href="#dwlzaL"/></g><g opacity=".13"><use fill="#fbe9f1" xlink:href="#dwlzaM"/></g><g opacity=".13"><use fill="#fbe9f1" xlink:href="#dwlzaN"/></g><g opacity=".13"><use fill="#fbe9f1" xlink:href="#dwlzaO"/></g><g opacity=".13"><use fill="#fbe9f1" xlink:href="#dwlzaP"/></g><g opacity=".13"><use fill="#fbe9f1" xlink:href="#dwlzaQ"/></g><g opacity=".13"><use fill="#fbe9f1" xlink:href="#dwlzaR"/></g><g opacity=".13"><use fill="#fbe9f1" xlink:href="#dwlzaS"/></g><g opacity=".13"><use fill="#fbe9f1" xlink:href="#dwlzaT"/></g><g opacity=".13"><use fill="#fbe9f1" xlink:href="#dwlzaU"/></g><g opacity=".13"><use fill="#fbe9f1" xlink:href="#dwlzaV"/></g><g opacity=".13"><use fill="#fbe9f1" xlink:href="#dwlzaW"/></g><g opacity=".13"><use fill="#fbe9f1" xlink:href="#dwlzaX"/></g><g opacity=".13"><use fill="#fbe9f1" xlink:href="#dwlzaY"/></g><g opacity=".13"><use fill="#fbe9f1" xlink:href="#dwlzaZ"/></g><g opacity=".13"><use fill="#fbe9f1" xlink:href="#dwlzba"/></g><g opacity=".13"><use fill="#fbe9f1" xlink:href="#dwlzbb"/></g><g opacity=".13"><use fill="#fbe9f1" xlink:href="#dwlzbc"/></g><g opacity=".13"><use fill="#fbe9f1" xlink:href="#dwlzbd"/></g><g opacity=".13"><use fill="#fbe9f1" xlink:href="#dwlzbe"/></g><g opacity=".13"><use fill="#fbe9f1" xlink:href="#dwlzbf"/></g><g opacity=".13"><use fill="#fbe9f1" xlink:href="#dwlzbg"/></g><g opacity=".13"><use fill="#fbe9f1" xlink:href="#dwlzbh"/></g></g><g opacity=".13"><g opacity=".13"><use fill="#fbe9f1" xlink:href="#dwlzbi"/></g><g opacity=".13"><use fill="#fbe9f1" xlink:href="#dwlzbj"/></g><g opacity=".13"><use fill="#fbe9f1" xlink:href="#dwlzbk"/></g><g opacity=".13"><use fill="#fbe9f1" xlink:href="#dwlzbl"/></g><g opacity=".13"><use fill="#fbe9f1" xlink:href="#dwlzbm"/></g><g opacity=".13"><use fill="#fbe9f1" xlink:href="#dwlzbn"/></g><g opacity=".13"><use fill="#fbe9f1" xlink:href="#dwlzbo"/></g><g opacity=".13"><use fill="#fbe9f1" xlink:href="#dwlzbp"/></g><g opacity=".13"><use fill="#fbe9f1" xlink:href="#dwlzbq"/></g><g opacity=".13"><use fill="#fbe9f1" xlink:href="#dwlzbr"/></g><g opacity=".13"><use fill="#fbe9f1" xlink:href="#dwlzbs"/></g><g opacity=".13"><use fill="#fbe9f1" xlink:href="#dwlzbt"/></g><g opacity=".13"><use fill="#fbe9f1" xlink:href="#dwlzbu"/></g><g opacity=".13"><use fill="#fbe9f1" xlink:href="#dwlzbv"/></g><g opacity=".13"><use fill="#fbe9f1" xlink:href="#dwlzbw"/></g><g opacity=".13"><use fill="#fbe9f1" xlink:href="#dwlzbx"/></g><g opacity=".13"><use fill="#fbe9f1" xlink:href="#dwlzby"/></g><g opacity=".13"><use fill="#fbe9f1" xlink:href="#dwlzbz"/></g><g opacity=".13"><use fill="#fbe9f1" xlink:href="#dwlzbA"/></g><g opacity=".13"><use fill="#fbe9f1" xlink:href="#dwlzbB"/></g><g opacity=".13"><use fill="#fbe9f1" xlink:href="#dwlzbC"/></g><g opacity=".13"><use fill="#fbe9f1" xlink:href="#dwlzbD"/></g><g opacity=".13"><use fill="#fbe9f1" xlink:href="#dwlzbE"/></g><g opacity=".13"><use fill="#fbe9f1" xlink:href="#dwlzbF"/></g><g opacity=".13"><use fill="#fbe9f1" xlink:href="#dwlzbG"/></g><g opacity=".13"><use fill="#fbe9f1" xlink:href="#dwlzbH"/></g><g opacity=".13"><use fill="#fbe9f1" xlink:href="#dwlzbI"/></g><g opacity=".13"><use fill="#fbe9f1" xlink:href="#dwlzbJ"/></g><g opacity=".13"><use fill="#fbe9f1" xlink:href="#dwlzbK"/></g><g opacity=".13"><use fill="#fbe9f1" xlink:href="#dwlzbL"/></g><g opacity=".13"><use fill="#fbe9f1" xlink:href="#dwlzbM"/></g><g opacity=".13"><use fill="#fbe9f1" xlink:href="#dwlzbN"/></g><g opacity=".13"><use fill="#fbe9f1" xlink:href="#dwlzbO"/></g><g opacity=".13"><use fill="#fbe9f1" xlink:href="#dwlzbP"/></g><g opacity=".13"><use fill="#fbe9f1" xlink:href="#dwlzbQ"/></g><g opacity=".13"><use fill="#fbe9f1" xlink:href="#dwlzbR"/></g></g></g><g clip-path="url(#dwlzd)" opacity=".04"><use fill="#fff" fill-opacity="0" stroke="#fff" stroke-linecap="round" stroke-miterlimit="50" stroke-width="6" xlink:href="#dwlzbS"/></g><g clip-path="url(#dwlzd)" opacity=".1"><use fill="#fff" fill-opacity="0" stroke="#fff" stroke-linecap="round" stroke-miterlimit="50" stroke-width="5" xlink:href="#dwlzbT"/></g><g clip-path="url(#dwlzd)" opacity=".04"><use fill="#fff" fill-opacity="0" stroke="#fff" stroke-miterlimit="50" stroke-width="5" xlink:href="#dwlzbU"/></g><g clip-path="url(#dwlzd)" opacity=".12" transform="rotate(15 619 4112)"><use fill="#fff" fill-opacity="0" stroke="#fff" stroke-miterlimit="50" stroke-width="10" clip-path="url(&quot;#dwlzbV&quot;)" xlink:href="#dwlza"/></g></g></g></svg>