<svg xmlns="http://www.w3.org/2000/svg" xmlns:xlink="http://www.w3.org/1999/xlink" width="50" height="48" viewBox="0 0 50 48"><defs><path id="a0sia" d="M1340 2428h6v29h-27"/><path id="a0sib" d="M1308 2457h-6v-29h21"/><path id="a0sic" d="M1339 2442h-15a1 1 0 0 1-1-1v-18a1 1 0 0 1 1-1h15a1 1 0 0 1 1 1v18a1 1 0 0 1-1 1z"/><path id="a0sid" d="M1318 2464h-9a1 1 0 0 1-1-1v-14a1 1 0 0 1 1-1h9a1 1 0 0 1 1 1v14a1 1 0 0 1-1 1z"/><path id="a0sie" d="M1335 2423h6v29h-27"/><path id="a0sif" d="M1303 2452h-6v-29h21"/><path id="a0sig" d="M1334 2437h-15a1 1 0 0 1-1-1v-18a1 1 0 0 1 1-1h15a1 1 0 0 1 1 1v18a1 1 0 0 1-1 1z"/><path id="a0sih" d="M1313 2459h-9a1 1 0 0 1-1-1v-14a1 1 0 0 1 1-1h9a1 1 0 0 1 1 1v14a1 1 0 0 1-1 1z"/><path id="a0sii" d="M1318 2457h6"/><path id="a0sij" d="M1308 2454h1"/><path id="a0sik" d="M1325 2432h3"/></defs><g><g transform="translate(-1296 -2416)"><g><use fill="#ffdf7b" xlink:href="#a0sia"/></g><g><use fill="#ffdf7b" xlink:href="#a0sib"/></g><g><use fill="#2e9fff" xlink:href="#a0sic"/></g><g><use fill="#d5f7d9" xlink:href="#a0sid"/></g><g><g><use fill="#fff" fill-opacity="0" stroke="#111" stroke-linecap="square" stroke-miterlimit="50" stroke-width="2" xlink:href="#a0sie"/></g><g><use fill="#fff" fill-opacity="0" stroke="#111" stroke-linecap="square" stroke-miterlimit="50" stroke-width="2" xlink:href="#a0sif"/></g><g><use fill="#fff" fill-opacity="0" stroke="#111" stroke-linecap="square" stroke-miterlimit="50" stroke-width="2" xlink:href="#a0sig"/></g><g><use fill="#fff" fill-opacity="0" stroke="#111" stroke-linecap="square" stroke-miterlimit="50" stroke-width="2" xlink:href="#a0sih"/></g><g><use fill="#fff" fill-opacity="0" stroke="#111" stroke-linecap="square" stroke-miterlimit="50" stroke-width="2" xlink:href="#a0sii"/></g><g><use fill="#fff" fill-opacity="0" stroke="#111" stroke-linecap="square" stroke-miterlimit="50" stroke-width="2" xlink:href="#a0sij"/></g><g><use fill="#fff" fill-opacity="0" stroke="#111" stroke-linecap="square" stroke-miterlimit="50" stroke-width="2" xlink:href="#a0sik"/></g></g></g></g></svg>