<svg xmlns="http://www.w3.org/2000/svg" xmlns:xlink="http://www.w3.org/1999/xlink" width="970" height="919" viewBox="0 0 970 919"><defs><path id="rd96f" d="M1400.853 195.782c-.37 1.206-1.55 1.945-2.845 1.924-.176 1.468-1.305 2.621-2.709 2.65-1.258.022-2.326-.872-2.704-2.115-1.452.29-2.896-.429-3.353-1.757-.413-1.19.104-2.487 1.168-3.226-.72-1.294-.483-2.887.633-3.736 1.005-.762 2.396-.669 3.426.115 1.012-1.086 2.6-1.354 3.751-.551 1.034.72 1.373 2.073.947 3.298 1.348.623 2.09 2.05 1.686 3.398"/><path id="rd96g" d="M1906.264 78.883c.259-.729-37.386 15.686-48.718 37.202-7.632 14.396-9.611 39.156-9.596 39.141.01-.022 12.199-5.449 21.356-16.66 9.348-11.48 28.47-51.007 36.958-59.683"/><path id="rd96h" d="M1898.623 76.04c-.012-.016-6.883-19.977-11.292-38.233-4.427-18.292-7.273-31.038-9.106-45.821-1.801-14.778-1.69-19.72-1.695-19.725-.013-.151 16.348 25.367 20.685 48.3 4.325 22.748 4.106 49.5 1.408 55.479"/><path id="rd96i" d="M1861.956 61.689c.277-.574-36.612 27.724-45.852 44.733-10.63 19.593-16.695 54.327-18.624 61.23.025-.029 17.19-21.161 31.445-40.121 14.24-18.958 33.414-50.579 33.031-65.842"/><path id="rd96j" d="M1858.323 57.264c.006.01-2.75-4.897-8.69-16.917-6.006-12.16-22.092-45.43-25.987-58.976-4.001-13.677-6.73-41.764-7.421-51.48-.29-3.737 12.347 20.84 19.557 37.213 5.433 12.286 13.662 30.624 16.165 43.74 1.15 6.082 3.9 34.547 11.69 45.216 7.77 10.704-5.31 1.144-5.314 1.204"/><path id="rd96k" d="M1833.662 53.936c.157-.385-31.997 17.142-43.276 31.52-10.434 13.076-21.575 30.85-28.606 50.15a5983.533 5983.533 0 0 1-13.32 36.352c.049-.078 20.19-17.695 31.805-32.99 11.704-15.462 23.578-28.372 32.6-46.74 9.075-18.43 20.822-38.322 20.797-38.292"/><path id="rd96l" d="M1823.428 49.853c-5.509-3.416-10.612-7.537-17.36-22.139-6.823-14.758-25.159-46.325-29.497-66.33-4.46-20.155-11.028-49.017-11.704-50.288-.767-1.482 25.092 33.09 33.961 56.878 7.275 19.626 12.737 41.404 16.053 54.252 3.322 12.865 8.337 25.221 14.378 30.206 0 0-3.704-1.267-5.831-2.579"/><path id="rd96m" d="M1789.186 49.58c-.026.012-13.759 5.484-31.47 25.548-17.726 20.035-33.837 39.277-40.654 50.108-6.768 10.801-16.457 36.77-18.579 40.078-2.05 3.211 22.058-15.21 28.576-21.776 6.618-6.725 18.227-21.158 28.735-41.08 10.623-20.04 28.11-47 33.392-52.878"/><path id="rd96n" d="M1786.355 48.246c-5.536-6.323-14.071-23.02-19.347-32.706-5.205-9.595-6.7-20.169-28.094-53.22-18.759-29.061-38.29-44.397-38.304-44.4.02.009 1.998 5.934 7.418 26.923 5.397 20.934 25.37 44.583 40.752 66.273 15.351 21.528 29.903 33.912 29.88 33.912 2.57 1.05 5.135 2.124 7.695 3.218"/><path id="rd96o" d="M1750.407 43.482c.155-.272-35.43 29.199-52.385 46.848-16.72 17.247-30.826 29.806-36.615 54.577-5.811 24.923-11.647 37.364-11.647 37.364.036-.03 21.863-23.378 36.314-42.996 14.602-19.8 33.686-45.579 38.912-55.106 5.4-9.74 27.142-36.278 25.421-40.687"/><path id="rd96p" d="M1726.682 49.189c-8.264-5.602-15.587-12.266-28.839-28.61-12.557-15.47-26.453-33.524-31.22-44.431-4.938-10.927-19.712-46.319-19.93-47.24-.361-.974 25.733 16.814 35.775 32.572 9.953 15.64 20.067 28.508 28.36 52.432 8.312 23.91 18.243 33.912 26.728 36.706 8.507 2.77-8.886-.156-10.874-1.43"/><path id="rd96q" d="M1701.214 54.766c.02-.055-17.289 14.095-23.526 28.204-6.063 13.928-30.053 46.55-38.98 56.528-8.596 9.698-44.117 52.547-47.755 55.2-3.43 2.511 9.696-18.565 15.739-35.84 6.118-17.309 23.965-41.39 39.072-58.166 15.294-17.01 43.947-43.487 48.375-46.102 4.523-2.732 7.066.177 7.075.176"/><path id="rd96r" d="M1681.055 55.249c-.016-.025-14.79-13.086-26.373-25.449-11.69-12.371-26.95-36.2-31.908-41.94-5.169-5.708-20.691-39.848-21.9-40.213-1.34-.335 22.258 11.636 38.8 30.355 16.54 18.712 24.646 34.253 32.16 50.286 7.53 16.01 14.838 24.602 20.175 26.005 5.335 1.37-10.95.897-10.954.956"/><path id="rd96s" d="M1631.277 69.315c.103-.097-31.438 30.496-44.364 46.705-12.757 16.064-29.173 33.536-38.277 48.772-9.066 15.227-23.219 38.424-23.246 38.44.046-.008 28.183-22.97 44.584-40.712 16.5-17.79 34.16-37.361 48.125-58.799 13.973-21.453 22.12-39.741 22.13-39.741-2.97 1.765-5.963 3.543-8.952 5.335"/><path id="rd96t" d="M1628.098 64.438c-.08-.038-26.51-22.058-37.845-34.972-11.566-12.93-27.276-36.316-31.683-47.45-4.471-11.096-9.889-20.346-9.889-20.346-.235.12 39.62 30.016 50.837 48.662 10.722 18.741 33.078 50.967 45.713 53.2 12.5 2.165-17.131.818-17.133.906"/><path id="rd96u" d="M1581.235 81.868c.124-.071-35.961 32.32-47.6 43.645-11.432 11.22-28.91 34.588-35.323 48.472-6.315 13.865-23.384 46.029-29.074 51.114-5.635 5.093 24.232-15.736 39.815-35.718 15.68-19.954 36.184-48.784 52.233-71.4 16.062-22.615 21.339-33.522 34.403-40.096 13.06-6.562-14.426 3.954-14.454 3.983"/><path id="rd96v" d="M1576.3 79.163c-.027-.014-17.183-11.078-27.181-22.047-10.064-10.947-20.728-29.423-26.635-37.924-6.09-8.38-19.85-42.363-21.968-43.605-2.323-1.022 30.748 19.096 44.834 41.181 13.912 22.262 20.742 39.6 27.196 47.199 6.453 7.579 14.537 14.104 14.535 14.1-3.594.36-7.196.725-10.78 1.096"/><path id="rd96w" d="M1523.73 100.317c.041-.008-30.3 26.954-48.113 49.198-17.694 22.254-32.367 55.641-38.256 67.671-5.867 12.024-7.611 19.089-7.611 19.097 0 .013 18.547-17.603 36.085-38.545 17.609-20.939 32.993-50.045 39.617-63.309 6.685-13.268 23.038-35.005 28.175-37.98 5.193-3.005-9.893 3.88-9.897 3.868"/><path id="rd96x" d="M1526.524 94.968c-.03.029-23.945-13.359-34.912-28.731-11.102-15.283-22.17-28.902-26.086-37.797-3.99-8.808-16.828-30.206-16.766-30.26-.013.06 21.907 10.344 36.866 27.494 10.902 13.098 33.246 54.491 45.078 64.916 9.306 8.43-4.177 4.375-4.18 4.378"/><path id="rd96y" d="M1478.979 114.475c.016.061-35.04 21.97-56.558 50.785-15.202 20.531-30.061 48.408-36.463 64.03-8.087 19.746-15.708 30.577-15.708 30.577.01.029 20.21-15.147 30.867-28.447 10.738-13.25 27.8-36.332 40.513-55.915 12.81-19.59 32.89-57.932 45.093-63.9 12.282-5.965-7.74 2.89-7.744 2.87"/><path id="rd96z" d="M1472.422 115.705c0 .012-10.528-7.484-20.081-15.117-9.632-7.515-28.98-23.594-35.645-36.836-6.96-12.861-24.57-48.621-26.258-50-1.947-.915 28.863 17.515 41.521 31.08 12.344 14.076 29.73 44.116 39.046 57.546 9.25 13.482 5.194 15.734 1.417 13.327"/><path id="rd96A" d="M1428.128 129.82c.089.155-43.743 33.367-60.106 52.196-16.194 19.092-32.126 41.948-44.382 63.602-12.275 21.65-14.733 28.093-14.71 28.103.076.174 38.214-30.995 52.05-48.348 13.956-17.119 28.414-34.19 40.343-53.637 11.972-19.44 25.93-40.003 38.577-45.035 12.673-5.052-11.765 3.18-11.772 3.12"/><path id="rd96B" d="M1430.523 127.316c.02-.054-10.458-3.427-28.443-10.555-18.027-7.011-38.96-18.443-46.174-26.285-7.538-7.351-26.564-50.187-27.188-51.569-.958-.604 35.973 15 50.309 27.82 16.842 15.895 25.487 33.894 44.267 47.556 18.916 13.424 21.059 11.41 21.005 11.473a978.703 978.703 0 0 1-13.776 1.56"/><path id="rd96C" d="M1381.733 143.819c-.023-.032-18.748 10.471-45.168 33.39-26.484 22.889-42.285 36.297-52.841 51.778-10.554 15.463-23.72 38.942-23.734 38.937.012.08 22.851-12.55 36.724-25.712 13.934-12.957 39.438-41.96 54.848-60.044 15.499-18.046 31.777-36.42 46.91-43.419 15.148-6.96-16.724 5.223-16.739 5.07"/><path id="rd96D" d="M1374.427 144.876c.04.022-27.294 1.908-47.435-13.664-20.045-15.562-30.612-21.6-35.988-31.514-5.53-9.62-24.477-44.974-24.323-45.278-.273 1.097 47.222 30.425 62.443 44.348 14.793 15.238 26.229 35.093 47.427 43.426 10.96 4.218-2.122 2.698-2.124 2.682"/><path id="rd96E" d="M1329.648 154.481c.015.114-28.35 16.468-45.074 29.03-16.699 12.765-33.248 25.673-51.776 47.773-18.558 22.067-26.28 32.4-26.258 32.44-.047.049 21.49-1.605 46.866-23.151 25.366-21.493 42.3-43.7 53.09-54.66 10.833-10.999 24.811-27.662 32.611-32.174 7.835-4.47-9.455.806-9.459.742"/><path id="rd96F" d="M1299.488 156.05c-.18.616-40.9-20.36-56.071-29.85-22.423-11.983-37.38-55.907-39.703-59.656-2.665-2.536 42.304 26.84 55.86 38.494 7.166 7.821 35.18 36.832 47.845 44.149 12.473 7.693 3.524 9.873-7.931 6.862"/><path id="rd96G" d="M1280.44 161.963c.014.02-19.216 10.973-36.487 20.898-17.218 10.26-47.59 28.082-57.051 39.093-9.408 11.282-24.353 32.064-24.362 32.052-.042.076 19.244 3.06 39.657-12.514 20.38-15.411 37.74-31.45 49.6-44.436 11.9-12.918 32.424-33.426 42.2-35.988 9.801-2.46-13.561 1.048-13.557.895"/><path id="rd96H" d="M1246.567 162.178c.009.007-17.55-4.025-33.511-14.44-15.993-10.171-34.335-24.786-45.184-36.204-10.965-11.009-25.14-35.237-25.082-35.374-.077.57 33.685 20.3 50.323 32.989 16.312 14.17 45.93 44.478 63.232 51.434 14.551 6.324-9.8 1.774-9.778 1.595"/><path id="rd96I" d="M1235.267 165.947c.015.077-23.931 9.996-38.926 10.045-14.965.594-44.96 8.255-58.358 17.816-13.35 9.99-30.553 21.55-30.563 21.501-.006.187 22.423.245 34.168-2.435 11.728-2.488 25.48-5.17 50.55-17.597 25.073-12.352 52.953-28.72 58.831-31.163 5.893-2.263-15.705 1.995-15.702 1.833"/><path id="rd96a" d="M1077 133.84h152.769v38.883H1077z"/><path id="rd96K" d="M1223.48 162.25c.015-.111-7.89-.99-26.976-7.36-19.163-5.83-52.902-18.43-63.895-20.863-11.022-.954-51.788 2.295-55.375-.17-3.692-.762 37.4 25.2 50.426 28.413 12.83 4.636 28.054 11.861 41.246 10.213 13.177-.844 53.004-7.244 59.01-6.504 5.987 1.334-4.447-3.683-4.437-3.728"/><path id="rd96L" d="M1979.427 127.448c.374-2.721-73.92-66.256-133.708-77.288-61.198-21.453-189.573 3.043-225.122 14.56-34.36 8.941-160.514 54.516-191.366 61.176-36.37 11.47-138.612 35.275-182.552 33.71-26.057.977-45.514 5.214-47.644 4.767-2.178-.155 30.112 4.154 40.685 3.266 10.46.473 60.821-3.375 89.903-10.544 28.995-5.733 77.767-17.342 98.332-23.884 20.61-4.815 129.733-42.075 192.007-59.441 14.173-2.996 62.894-15.59 112.982-18.633 50.305-4.061 101.968 1.43 126.915 11.08 38.926 12.439 69.955 35.752 84.164 48.883 14.32 12.634 33.928 18.234 35.404 12.348"/><path id="rd96M" d="M1795.044 174.074l9.25 19.391c-12.138 12.33-25.013 22.838-38.03 31.198-10.327-11.043-19.468-23.548-26.92-37.272-36.707-67.604 32.512-167.577 132.233-152.146 4.106 32.792-7.468 75.834-34.533 117.409a264.55 264.55 0 0 1-22.781 30.08z"/><path id="rd96N" d="M1766.263 224.668S1745.44 91.073 1871.575 35.25"/><path id="rd96O" d="M1744.96 197.084l21.251-14.264"/><path id="rd96P" d="M1734.04 174.186l36.593-19.646"/><path id="rd96Q" d="M1729.75 148.96l49.6-21.74"/><path id="rd96R" d="M1734.01 118.312l57.63-14.882"/><path id="rd96S" d="M1746.11 92.448l58.486-7.818"/><path id="rd96T" d="M1767.81 66.113l58.102-2.573"/><path id="rd96U" d="M1796.9 46.18l52.209.79"/><path id="rd96V" d="M1787.877 208.377l-22.257-24.807"/><path id="rd96W" d="M1770.63 154.54l31.942 40.681"/><path id="rd96X" d="M1779.35 127.22l42.15 46.453"/><path id="rd96Y" d="M1791.64 103.43l47.186 46.672"/><path id="rd96Z" d="M1804.59 84.63l46.724 43.162"/><path id="rd96aa" d="M1825.91 63.54l37.124 36.81"/><path id="rd96ab" d="M1849.11 46.97l20.866 25.02"/><path id="rd96b" d="M1160.52 331.82h894.39v806.119h-894.39z"/><path id="rd96ad" d="M1215.498 963.872s-32.312-6.95-33.005-48.642c-.692-41.686-58.509-68.065 16.267-151.62 52.326-58.47 18.982-134.421 115.115-150.576 96.137-16.161 144.704 75.475 246.87-43.912 102.167-119.383 329.224-361.122 418.327-160.25 89.106 200.87 99.24 261.474 32.78 331.447-66.457 69.974-95.583 112.162-74.153 198.441 21.43 86.278-6.416 219.285-131.103 193.578-124.687-25.712-123.518-182.532-243.052-71.904-119.535 110.625-136.943 75.217-175.589 59.057-38.645-16.164-56.987 19.085-79.92-37.408-38.521-94.89-32.031-103.462-92.537-118.21"/><path id="rd96ae" d="M1803.58 595.615s9.551-2.298 15.06-9.766c1.999-2.703 3.17-9.057.361-11.13-2.805-2.077-7.621-.316-10.524 3.619-5.511 7.464-4.897 17.277-4.897 17.277"/><path id="rd96af" d="M1793.495 607.372s4.196-7.499 2.575-15.344c-.59-2.843-4.068-7.24-7.113-6.606-3.044.625-4.761 4.753-3.909 8.887 1.623 7.843 8.447 13.063 8.447 13.063"/><path id="rd96ag" d="M1784.607 623.136s.771-8.56-3.908-15.06c-1.696-2.353-6.667-4.943-9.189-3.124-2.52 1.82-2.406 6.286.061 9.71 4.677 6.499 13.036 8.474 13.036 8.474"/><path id="rd96ah" d="M1796.5 608.791s6.437 4.677 14.44 4.767c2.902.034 7.93-1.975 7.956-4.518.03-2.541-3.637-4.644-7.854-4.689-8.002-.09-14.542 4.44-14.542 4.44"/><path id="rd96ai" d="M1787.06 624.311s6.436 4.945 14.436 5.032c2.902.031 7.932-2.095 7.961-4.784.029-2.69-3.635-4.912-7.852-4.958-8.002-.089-14.545 4.71-14.545 4.71"/><path id="rd96aj" d="M1775.85 645.999s4.901 4.926 11.01 4.992c2.215.026 6.06-2.114 6.089-4.803.031-2.69-2.76-4.902-5.98-4.937-6.11-.069-11.119 4.748-11.119 4.748"/><path id="rd96ak" d="M1773.15 644.435s1.173-6.535-1.803-12.316c-1.075-2.095-4.545-4.883-6.521-3.861-1.98 1.02-2.218 4.507-.647 7.554 2.975 5.78 8.97 8.623 8.97 8.623"/><path id="rd96al" d="M1815.327 581.93l-1.14-1c-.283.325-28.714 33.095-48.677 84.188l1.411.551c19.862-50.831 48.122-83.417 48.406-83.738"/><path id="rd96am" d="M1775.077 97.064c47.716-23.504 79.592-65.158 89.267-109.585-41.075-19.425-93.497-19.562-141.214 3.942-47.717 23.502-79.591 65.156-89.27 109.584 41.075 19.427 93.5 19.56 141.217-3.941"/><path id="rd96an" d="M1652.34 92.688L1855.908-7.58"/><path id="rd96ao" d="M1694.225 71.793L1660.48 60.3"/><path id="rd96ap" d="M1728.94 54.698l-41.59-14.168"/><path id="rd96aq" d="M1763.648 37.593L1694.12 13.91"/><path id="rd96ar" d="M1798.355 20.503L1730.71-2.54"/><path id="rd96as" d="M1833.067 3.41L1795.4-9.42"/><path id="rd96at" d="M1690.297 74.38l-11.487 33.772"/><path id="rd96au" d="M1725.007 57.28l-17.907 52.658"/><path id="rd96av" d="M1759.727 40.19l-22.417 65.91"/><path id="rd96aw" d="M1794.43 23.09l-23.02 67.702"/><path id="rd96ax" d="M1829.141 5.99l-19.781 58.163"/><path id="rd96ay" d="M1450.06 859.743c-7.283-1.07-64.52-23.356-98.855 4.535-27.241 22.125-35.67 6.368-37.562-9.208-1.892-15.575 3.263-31.136-16.425-30.217-64.827 3.026-116.17-36.42-76.943-56.692 21.208-10.958 4.654-35.013-11.769-34.633-34.832.804-64.667-23.818-40.29-32.783 42.73-15.713 20.965-34.636 6.398-39.548-14.565-4.912-44.291.934-38.794-28.236 2.167-11.495 28.6-24.555 51.582-17.02 13.102 4.296 49.544 28.613 44.417-6.015-5.283-35.694 22.775-26.952 32.44-9.62 3.6 6.453 41.61 63.632 47.174 41.673 6.569-25.928 29.455-21.962 40.15 10.51 4.854 14.74 5.667 49.966 17.999 44.817 12.33-5.148 31.129-8.315 38.192 14.395 12.184 39.178 27.171 145.828 42.286 148.042"/><path id="rd96az" d="M1156.58 628.27s96.291 19.349 171.85 102.412c53.11 58.39 82.173 94.475 114.703 123.935"/><path id="rd96aA" d="M1199.54 701.935s48.472-23.191 84.511-12.045"/><path id="rd96aB" d="M1250.2 606.75s7.874 52.022 40.806 88.676"/><path id="rd96aC" d="M1237.51 784.441s25.262 4.625 119.006-21.981"/><path id="rd96aD" d="M1329.521 637.09s-1.726 81.564 4.933 100.152"/><path id="rd96aE" d="M1390.12 708.89s-9.213 66.219 11.324 103.179"/><path id="rd96aF" d="M1646.169 822.257c-37.705 46.82-91.477 71.669-142.802 71.342-11.224-50.127 1.612-107.996 39.32-154.814 37.703-46.822 91.476-71.672 142.798-71.342 11.226 50.128-1.61 107.995-39.316 154.814"/><path id="rd96aG" d="M1671.752 685.77L1510.9 885.51"/><path id="rd96aH" d="M1638.372 726.795l-4.302-40.075"/><path id="rd96aI" d="M1610.942 760.852l-5.302-49.392"/><path id="rd96aJ" d="M1583.514 794.911l-8.864-82.571"/><path id="rd96aK" d="M1556.083 828.975l-8.623-80.335"/><path id="rd96aL" d="M1528.662 863.03l-4.802-44.73"/><path id="rd96aM" d="M1642.19 723.105l40.041-4.305"/><path id="rd96aN" d="M1614.76 757.164l62.431-6.714"/><path id="rd96aO" d="M1587.34 791.223l78.142-8.403"/><path id="rd96aP" d="M1559.91 825.276l80.264-8.626"/><path id="rd96aQ" d="M1532.48 859.346l68.959-7.416"/><path id="rd96aR" d="M1488.681 755.75c50.115 31.41 80.65 81.095 86.324 131.328-47.632 16.829-105.629 11.03-155.745-20.38-50.112-31.409-80.652-81.096-86.32-131.33 47.632-16.827 105.627-11.03 155.741 20.382"/><path id="rd96aS" d="M1352.44 746.67l213.796 133.996"/><path id="rd96aT" d="M1396.403 774.53l-38.623 8.884"/><path id="rd96aU" d="M1432.856 797.37l-47.606 10.952"/><path id="rd96aV" d="M1469.302 820.22l-79.582 18.31"/><path id="rd96aW" d="M1505.767 843.07l-77.427 17.813"/><path id="rd96aX" d="M1542.215 865.92l-43.115 9.918"/><path id="rd96aY" d="M1392.345 771.217l-8.875-38.657"/><path id="rd96aZ" d="M1428.802 794.067l-13.842-60.277"/><path id="rd96ba" d="M1465.256 816.912l-17.326-75.442"/><path id="rd96bb" d="M1501.715 839.76l-17.795-77.49"/><path id="rd96bc" d="M1538.172 862.607l-15.292-66.577"/><path id="rd96bd" d="M1812.28 474.922s-14.543.074-25.102-8.711c-3.827-3.18-7.752-11.898-4.447-15.875 3.3-3.978 10.844-3.152 16.405 1.48 10.564 8.784 13.144 23.106 13.144 23.106z"/><path id="rd96be" d="M1834.757 495.743s-8.13-9.036-7.624-20.887c.252-5.963 3.295-11.841 7.89-12.012 4.598-.169 7.033 4.89 7.264 11.132.436 11.848-7.53 21.767-7.53 21.767z"/><path id="rd96bf" d="M1855.567 517.952s-6.287-7.176-6.124-20.63c.055-4.296 2.074-13.6 6.673-13.769 4.597-.167 6.766 6.39 6.994 12.636.428 11.85-7.543 21.763-7.543 21.763z"/><path id="rd96bg" d="M1827.464 489.59s-8.036 8.237-19.734 10.127c-4.238.68-12.042-1.148-12.64-4.86-.597-3.717 4.308-7.603 10.47-8.596 11.694-1.885 21.904 3.328 21.904 3.328z"/><path id="rd96bh" d="M1845.449 507.785s-7.506 9.38-18.978 12.34c-4.16 1.068-12.141-.204-13.133-4.065-.994-3.858 3.49-8.344 9.538-9.908 11.47-2.955 22.573 1.633 22.573 1.633z"/><path id="rd96bi" d="M1867.155 531.58s-7.358 7.184-16.403 7.152c-3.278-.012-8.926-3.26-8.912-7.242.02-3.985 4.194-7.199 8.963-7.18 9.048.03 16.352 7.27 16.352 7.27z"/><path id="rd96bj" d="M1871.5 535.575s-3.996-8.978-1.76-18.339c.808-3.39 4.809-8.63 8.01-7.86 3.211.768 4.778 5.699 3.6 10.632-2.234 9.363-9.85 15.567-9.85 15.567z"/><path id="rd96bk" d="M1783.43 450.23s60.05 44.796 107.218 111.795"/><path id="rd96bl" d="M1795.45 495.005s17.488-5.272 32.379-5.435"/><path id="rd96bm" d="M1836.498 463.05s-5.387 23.332-1.742 32.694"/><path id="rd96bn" d="M1857.259 483.66s-4.774 24.651-1.693 34.288"/><path id="rd96bo" d="M1878.204 509.84s-6.089 21.55-6.704 25.736"/><path id="rd96bp" d="M1841.84 531.49s15.041-2.31 25.315.09"/><path id="rd96bq" d="M1813.65 516.326s15.18-7.48 31.797-8.536"/><path id="rd96br" d="M1735.73 761.934s-16.702-16.698-30.15-20.416c-16.608-4.589-29.023 4.903-32.402 7.02-.252.16 2.096 7.788 7.569 14.443 2.74 3.329 12.249 11.115 22.929 11.95 10.671.833 14.127.624 19.038-2.162 4.627-2.627 10.224-10.586 13.016-10.835"/><path id="rd96bs" d="M1723.473 740.185s-11.049-15.53-13.658-26.953c-3.077-13.499 2.678-27.942 2.678-27.942s2.724 5.788 5.058 9.409c2.975 4.619 15.011 15.505 15.862 25.352.537 6.304.686 11.955-9.94 20.134"/><path id="rd96bt" d="M1758.408 807.645s-11.917-7.385-22.407-9.271c-10.488-1.881-25.345-1.214-39.191 12.881 0 0 5.052.636 8.973 2.868 3.853 2.19 15.516 11.107 28.28 10.909 7.677-.126 10.81-1.81 14.798-4.516 3.973-2.695 7.534-12.313 9.547-12.87"/><path id="rd96bu" d="M1744.18 766.32s1.85-2.419 1.602-5.21c-.584-6.589-2.652-9.815-.933-14.75 1.72-4.947 7.345-11.27 7.345-11.27s8.043 10.583 5.536 17.914c-2.451 7.166-4.371 9.965-13.55 13.316"/><path id="rd96bv" d="M1763.54 806.387s1.303-9.604 3.082-18.118c1.776-8.515 7.9-16.667 12.116-18.823 4.22-2.163 7.632-1.718 7.632-1.718s-1.403 4.436-1.385 8.671c.014 3 1.65 16.263-1.663 21.37-7.98 12.29-19.782 8.618-19.782 8.618"/><path id="rd96bw" d="M1693.166 715.96s-1.595-7.371-11.367-12.789c-9.77-5.422-14.185-4.464-14.88-3.842-.692.626.15 3.055 4.082 7.9 3.332 4.107 5.97 7.077 12.236 8.863 6.253 1.792 9.929-.131 9.929-.131"/><path id="rd96bx" d="M1774.822 865.397c-.004-.247-.67-24.764-11.26-55.483-9.782-28.363-30.275-67.993-72.346-95.744l-1.296 1.979c41.505 27.377 61.744 66.523 71.403 94.539 10.478 30.37 11.13 54.523 11.14 54.76z"/><path id="rd96c" d="M1077 1137.94h977.907V-88.95H1077z"/><path id="rd96bz" d="M1801.99 808.291h50.67V757.58h-50.67z"/><path id="rd96bA" d="M1833.188 779.76l-5.923 5.864-5.795-5.864"/><path id="rd96bB" d="M1801.99 757.581h50.67V706.87h-50.67z"/><path id="rd96bC" d="M1821.47 735.394l5.923-5.864 5.795 5.864"/><path id="rd96bD" d="M1813.06 756.724h28.997"/><path id="rd96bE" d="M1241.93 728.521c0 9.717 7.87 17.592 17.576 17.592 9.708 0 17.576-7.876 17.576-17.592 0-9.714-7.868-17.591-17.576-17.591-9.707 0-17.576 7.877-17.576 17.591"/><path id="rd96bF" d="M1257.17 722.66l5.86 5.928-5.86 5.8"/><path id="rd96bG" d="M1570.815 224.992c0 51.57-41.769 93.372-93.3 93.372-51.526 0-93.295-41.803-93.295-93.372 0-51.57 41.769-93.372 93.295-93.372 51.531 0 93.3 41.802 93.3 93.372"/><path id="rd96bH" d="M1472.526 375.39c0 59.049-47.828 106.918-106.832 106.918-58.993 0-106.824-47.87-106.824-106.917 0-59.05 47.83-106.921 106.824-106.921 59.004 0 106.832 47.871 106.832 106.92"/><path id="rd96bI" d="M1709.241 417.246c0 94.13-47.622 170.433-106.373 170.433-58.75 0-106.378-76.304-106.378-170.433 0-94.131 47.629-170.436 106.378-170.436 58.751 0 106.373 76.305 106.373 170.436"/><path id="rd96bJ" d="M1719.972 349.92c23.477 115.594-16.287 221.256-88.822 236.017-72.53 14.762-150.364-66.986-173.843-182.579-23.48-115.593 16.29-221.254 88.819-236.015 72.524-14.763 150.36 66.975 173.846 182.578"/><path id="rd96bK" d="M1343.453 377.545s-13.296 109.268 3.507 119.533c16.793 10.283 22.384 7.717 56.213 11.218 8.242.85 9.332 3.73 24.264 20.538 14.924 16.808 64.382 93.384 59.72 105.529-4.667 12.143-41.059 42.03-41.059 42.03s179.777-42.749 183.436-87.284c3.931-47.757-114.855-48.275-91.478-102.515 98.28-228.1-6.107-234.187-21.977-236.992-15.857-2.796-116.63-36.423-172.626 127.943"/><path id="rd96bL" d="M1355.594 441.703s-3.78-7.064-2.655-13.39c.714-4.011 4.926-13.215 10.827-12.124 3.87.717 4.955 2.483 7.548 5.807.273.364 4.093-5.683 10.162-3.47 6.075 2.213 20.4 24.29 26.85 31.125 6.454 6.825 7.735 7.738 7.735 7.738s-17.01-5.557-23.76-10.107c-8.355-5.62-19.855-8.55-24.298-8.852-5.683-.36-6.893 5.247-12.409 3.273"/><path id="rd96bM" d="M1353.585 443.58c-2.692 3.987-7.474 13.92-3.17 18.97 4.319 5.047 10.723 7.78 22.785 8.205 12.07.427 24.67-5.121 30.98-7.387 6.304-2.274 11.884-5.974 11.884-5.974s-16.82-6.533-21.313-6.959c-4.492-.425-18.92-2.097-23.628-3.603-4.703-1.507-13.557-9.165-17.538-3.253"/><path id="rd96bN" d="M1467.458 365.489c-.735-8.095 12.868-15.937 30.38-17.526 17.513-1.59 32.304 3.676 33.044 11.758.73 8.094-12.872 15.946-30.388 17.537-17.509 1.59-32.309-3.678-33.036-11.77"/><path id="rd96bO" d="M1432.33 371.013s11.199-4.904 25.9 2.099c14.696 7.001 35.69 16.808 58.083 12.61 22.394-4.206 44.086-16.112 44.086-16.112s-36.392 3.502-51.089.695c-14.7-2.803-52.489-25.212-76.98.708"/><path id="rd96bP" d="M1445.6 365.74s8.614.435 21.09 5.35c12.478 4.903 33.076 14.545 50.795 9.09 17.723-5.443 31.408-20.34 31.408-20.34s-29.046 5.556-41.191 4.717c-17.983-1.258-47.372-9.662-62.102 1.183"/><path id="rd96bQ" d="M1494.23 330.692c19.68 0 37.12 5.518 48.185 14.035-7.47-9.588-20.895-17.048-36.665-19.156-15.749-2.12-30.07 1.6-38.92 8.975 8.24-2.45 17.518-3.854 27.4-3.854"/><path id="rd96bR" d="M1532.196 486.322c.71-1.015 1.367-2.014 2.056-3.022-29.315 18.502-82.312 23.572-82.312 23.572 7.702 1.924 58.468 26.388 87.573 33.265-12.385-19.903-17.872-38.551-7.317-53.815"/><path id="rd96bS" d="M1271.51 409.551l-1.871-7.884c-.694-2.266-1.115-6.057-1.589-10.254-.178-2.069-.6-4.395-.58-6.63a1082.23 1082.23 0 0 1 .084-10.855c.107-1.278.29-2.565.442-3.884.326-2.628.669-5.35 1.016-8.156.582-2.742 1.276-5.535 1.957-8.404.363-1.424.632-2.91 1.107-4.33.495-1.415.995-2.838 1.495-4.283 1.097-2.835 1.87-5.9 3.307-8.663 1.325-2.837 2.675-5.692 4.038-8.581 3.192-5.484 6.277-11.198 10.262-16.259 3.618-5.36 8.037-10.003 12.195-14.762 2.221-2.222 4.517-4.342 6.738-6.482 1.132-1.048 2.226-2.15 3.37-3.148 1.185-.944 2.358-1.891 3.526-2.824 2.354-1.85 4.625-3.73 6.913-5.466 2.396-1.6 4.733-3.168 7.013-4.684 4.463-3.2 9.162-5.412 13.296-7.791 2.077-1.207 4.146-2.182 6.144-3.034 1.99-.884 3.878-1.725 5.637-2.515 3.514-1.671 6.722-2.721 9.353-3.636 5.253-1.817 8.263-2.866 8.263-2.866l1.226 4.248s-2.947.957-8.11 2.619c-2.585.83-5.74 1.788-9.197 3.344-1.741.739-3.6 1.507-5.561 2.338-1.974.79-4.015 1.692-6.058 2.824-4.093 2.234-8.746 4.293-13.177 7.338a3975.32 3975.32 0 0 1-6.966 4.423c-2.275 1.663-4.555 3.449-6.892 5.225-1.164.894-2.338 1.787-3.518 2.691-1.153.957-2.23 1.994-3.362 3.014-2.234 2.044-4.538 4.071-6.767 6.211-4.176 4.58-8.627 9.058-12.303 14.253-4.026 4.884-7.172 10.45-10.446 15.79-1.4 2.816-2.792 5.611-4.168 8.373-1.474 2.71-2.3 5.704-3.435 8.49-.528 1.411-1.05 2.813-1.569 4.206-.508 1.39-.797 2.835-1.197 4.249-.723 2.824-1.47 5.59-2.11 8.29-.397 2.762-.801 5.454-1.173 8.051-.174 1.297-.384 2.587-.521 3.844-.045 1.277-.083 2.526-.124 3.75-.062 2.45-.123 4.788-.19 7.033-.053 2.233.314 4.538.455 6.597.38 4.188.714 7.978 1.358 10.264 1.073 5.05 1.689 7.926 1.689 7.926"/><path id="rd96bT" d="M1281.723 407.271s-.673-2.878-1.862-7.895c-.751-2.474-1.003-5.61-1.403-9.194-.154-1.787-.53-3.689-.518-5.714.009-2.017.02-4.135.038-6.368.008-1.101.02-2.234.024-3.397.092-1.143.273-2.306.41-3.5.28-2.381.582-4.832.891-7.368a3879.4 3879.4 0 0 0 1.776-7.615c.339-1.297.558-2.648 1.004-3.936.446-1.287.9-2.587 1.362-3.906 1-2.576 1.673-5.372 2.994-7.906 1.222-2.597 2.457-5.226 3.696-7.864 2.948-5.028 5.757-10.306 9.44-14.99 3.324-4.945 7.445-9.247 11.286-13.682 2.064-2.067 4.207-4.031 6.267-6.026 1.054-.977 2.057-1.994 3.127-2.93 1.102-.893 2.209-1.764 3.295-2.629 2.188-1.733 4.302-3.49 6.441-5.12 2.231-1.485 4.42-2.95 6.55-4.374 4.163-3.002 8.573-5.06 12.438-7.293 1.937-1.143 3.873-2.046 5.752-2.846 1.859-.832 3.621-1.621 5.29-2.36 3.278-1.577 6.293-2.563 8.763-3.428 4.93-1.701 7.754-2.69 7.754-2.69l1.226 4.25s-2.761.883-7.605 2.452c-2.416.768-5.385 1.65-8.61 3.126-1.64.686-3.378 1.413-5.211 2.182-1.847.727-3.762 1.579-5.67 2.639-3.82 2.098-8.18 3.99-12.31 6.835-2.114 1.34-4.29 2.722-6.503 4.126-2.103 1.587-4.246 3.209-6.426 4.86a333.032 333.032 0 0 1-3.287 2.493c-1.061.893-2.065 1.872-3.118 2.805-2.073 1.9-4.216 3.781-6.289 5.767-3.857 4.248-8.011 8.384-11.388 13.171-3.733 4.51-6.591 9.632-9.626 14.513-1.29 2.577-2.565 5.133-3.833 7.658-1.362 2.482-2.068 5.204-3.134 7.739l-1.433 3.813c-.466 1.275-.71 2.586-1.074 3.853-.664 2.566-1.308 5.07-1.936 7.51-.363 2.494-.714 4.926-1.057 7.274-.161 1.173-.36 2.326-.488 3.459a655.538 655.538 0 0 1-.094 3.366c-.074 2.202-.136 4.31-.194 6.315-.054 2.017.288 3.908.38 5.692.322 3.565.495 6.692 1.189 9.196 1.07 5.049 1.676 7.937 1.676 7.937"/><path id="rd96bU" d="M1291.94 404.964l-1.87-7.882c-.793-2.692-.88-5.164-1.223-8.126-.112-1.517-.466-3.002-.446-4.788.008-1.808.021-3.688.042-5.661v-3.013c.082-1.019.24-2.07.367-3.127.256-2.12.504-4.313.785-6.567.508-2.232 1.049-4.518 1.598-6.857.298-1.163.47-2.368.872-3.53.408-1.164.83-2.338 1.234-3.522.93-2.326 1.487-4.852 2.71-7.159 1.09-2.357 2.213-4.746 3.335-7.147 2.718-4.582 5.228-9.413 8.639-13.702 3.014-4.56 6.838-8.508 10.357-12.61 1.912-1.914 3.89-3.73 5.797-5.581.97-.903 1.9-1.86 2.887-2.71 1.028-.822 2.036-1.641 3.064-2.441 2.01-1.61 4.01-3.2 5.954-4.75 2.09-1.39 4.113-2.751 6.096-4.069 3.852-2.817 7.981-4.708 11.583-6.807 1.787-1.08 3.596-1.92 5.355-2.658 1.735-.779 3.378-1.507 4.93-2.203 3.053-1.496 5.889-2.41 8.185-3.211 4.617-1.61 7.247-2.533 7.247-2.533l1.231 4.248s-2.585.821-7.09 2.296c-2.263.706-5.043 1.527-8.04 2.91-1.524.631-3.15 1.307-4.852 2.014-1.73.687-3.518 1.455-5.286 2.462-3.547 1.964-7.627 3.698-11.447 6.337l-6.045 3.832c-1.95 1.466-3.931 2.962-5.938 4.49-1.012.769-2.036 1.537-3.056 2.305-.991.82-1.92 1.726-2.879 2.588-1.924 1.754-3.864 3.53-5.826 5.308-3.531 3.926-7.391 7.719-10.464 12.093-3.452 4.134-6.024 8.81-8.816 13.243-1.173 2.34-2.325 4.656-3.468 6.952-1.264 2.244-1.875 4.695-2.834 6.97a533.27 533.27 0 0 0-1.317 3.439c-.425 1.143-.635 2.327-.958 3.468-.607 2.288-1.184 4.53-1.762 6.723-.31 2.212-.633 4.382-.934 6.472-.153 1.05-.343 2.076-.45 3.085-.02 1.019-.054 2.015-.079 2.993-.062 1.952-.132 3.822-.19 5.61-.062 1.785.252 3.25.322 4.757.244 2.95.26 5.422 1 8.135 1.07 5.038 1.68 7.924 1.68 7.924"/><path id="rd96bV" d="M1302.703 404.891s-.508-2.098-1.4-5.796c-.502-1.61-.866-4.57-1.251-7.824-.14-1.61-.453-3.429-.462-5.14.009-1.715.009-3.522.016-5.403.013-.935.021-1.9.033-2.878.104-.965.207-1.952.31-2.96.261-2.016.508-4.093.768-6.223.996-4.145 1.73-8.664 3.423-12.975 1.38-4.478 3.465-8.758 5.547-13.142 2.41-4.167 4.752-8.518 7.742-12.362 11.26-16.103 27.35-27.613 40.047-34.322 3.122-1.83 6.236-2.952 8.882-4.22 2.647-1.278 5.067-2.078 7.05-2.774 3.972-1.381 6.239-2.182 6.239-2.182l1.222 4.25s-2.205.694-6.083 1.933c-1.928.612-4.298 1.318-6.891 2.482-2.594 1.162-5.666 2.151-8.738 3.833-12.487 6.15-28.494 16.883-39.952 32.318-3.044 3.679-5.451 7.865-7.941 11.897-2.147 4.239-4.336 8.394-5.798 12.756-1.805 4.197-2.63 8.634-3.74 12.693-.314 2.1-.624 4.146-.925 6.133-.13.984-.265 1.961-.402 2.917-.033.978-.066 1.922-.102 2.858-.058 1.859-.112 3.656-.162 5.36-.05 1.692.223 3.5.334 5.1.29 3.242.57 6.203 1.016 7.834.78 3.72 1.218 5.837 1.218 5.837"/><path id="rd96bW" d="M1312.926 402.597s-.508-2.097-1.4-5.796c-.557-1.83-.748-4.125-1.065-6.763-.104-1.329-.406-2.732-.401-4.208 0-1.496.013-3.054.013-4.694.004-.82.008-1.654.016-2.505.087-.851.182-1.703.285-2.587.206-1.754.417-3.563.631-5.432.913-3.626 1.495-7.595 3.011-11.418 1.185-3.936 3.064-7.737 4.897-11.667 2.16-3.706 4.217-7.625 6.925-11.084 10.068-14.512 24.769-25.068 36.377-31.227 2.849-1.692 5.73-2.702 8.142-3.875 2.425-1.185 4.659-1.921 6.48-2.557l5.727-2.024 1.227 4.248s-2.032.644-5.575 1.777c-1.784.55-3.96 1.195-6.322 2.265-2.367 1.058-5.19 1.954-7.99 3.49-11.406 5.6-26.016 15.374-36.294 29.223-2.758 3.292-4.877 7.043-7.127 10.617-1.888 3.772-3.865 7.448-5.146 11.282-1.622 3.72-2.308 7.583-3.324 11.147-.264 1.828-.541 3.604-.788 5.33-.132.862-.256 1.724-.376 2.543-.029.844-.058 1.674-.091 2.484-.04 1.621-.103 3.158-.157 4.644-.046 1.476.199 2.868.268 4.177.224 2.627.34 4.934.843 6.773.768 3.72 1.214 5.837 1.214 5.837"/><path id="rd96bX" d="M1323.142 400.306s-.507-2.119-1.411-5.806c-.596-2.047-.629-3.689-.872-5.704-.074-1.029-.342-2.024-.33-3.293 0-1.257.008-2.578.008-3.979 0-.686-.008-1.402-.017-2.12.079-.717.17-1.454.256-2.213.165-1.484.343-3.043.52-4.633.81-3.126 1.235-6.534 2.582-9.859 1.002-3.428 2.667-6.75 4.249-10.191 1.919-3.271 3.683-6.73 6.107-9.815 8.899-12.925 22.192-22.525 32.713-28.123 2.585-1.567 5.22-2.463 7.4-3.553 2.205-1.09 4.233-1.744 5.896-2.328 3.32-1.183 5.225-1.869 5.225-1.869l1.226 4.26s-1.842.581-5.067 1.61c-1.618.498-3.605 1.06-5.744 2.035-2.134.978-4.72 1.746-7.247 3.159-2.532 1.381-5.459 2.596-8.189 4.487-1.4.874-2.845 1.767-4.323 2.69a595.938 595.938 0 0 1-4.241 3.18c-1.474 1.059-2.916 2.181-4.24 3.47a1274.171 1274.171 0 0 0-4.16 3.75c-2.518 2.774-5.29 5.454-7.473 8.55-2.478 2.919-4.303 6.223-6.306 9.35-1.652 3.292-3.414 6.504-4.505 9.807-1.446 3.22-1.983 6.525-2.9 9.578-.234 1.569-.466 3.075-.676 4.55-.116.728-.223 1.455-.339 2.17-.017.707-.037 1.402-.062 2.09-.053 1.37-.103 2.69-.149 3.935-.057 1.259.153 2.225.194 3.265.153 2.003.1 3.644.658 5.702l1.217 5.848"/><path id="rd96bY" d="M1583.09 193.7s3.944 1.018 10.836 2.805c3.22.614 8.121 2.545 13.56 4.673 2.664 1.123 5.757 2.11 8.495 3.565 2.73 1.465 5.607 3.012 8.618 4.633 1.502.8 3.023 1.63 4.587 2.473 1.484.955 2.94 2.016 4.452 3.045 3.01 2.106 6.116 4.28 9.312 6.502 2.965 2.482 5.946 5.151 9.014 7.822 1.506 1.371 3.151 2.648 4.574 4.155 1.41 1.516 2.833 3.044 4.27 4.592 2.756 3.17 5.995 6.097 8.46 9.63 2.6 3.46 5.227 6.961 7.873 10.493 4.64 7.438 9.643 14.916 13.256 23.042 4.207 7.885 7.043 16.29 10.17 24.453 1.283 4.157 2.39 8.333 3.572 12.436.55 2.056 1.194 4.104 1.66 6.14.4 2.066.789 4.114 1.19 6.16.751 4.052 1.567 8.05 2.215 11.989.416 3.957.809 7.822 1.204 11.592 1.034 7.543.702 14.701.935 21.318.144 3.304 0 6.472-.26 9.464-.197 3.003-.384 5.86-.566 8.53-.223 5.38-.99 9.972-1.577 13.785l-1.838 11.956-5.973-1.235s.737-4.227 2.03-11.615c.658-3.697 1.525-8.176 1.831-13.411.244-2.608.494-5.391.753-8.311.296-2.93.52-6.016.44-9.256-.087-6.44.405-13.463-.446-20.85-.311-3.7-.613-7.5-.929-11.387-.549-3.852-1.271-7.789-1.925-11.8-.338-2.004-.68-4.02-1.023-6.046-.42-2.026-1.006-4.03-1.509-6.058-1.063-4.05-2.06-8.173-3.233-12.29-2.902-8.08-5.507-16.412-9.474-24.246-3.381-8.082-8.158-15.531-12.563-22.978a8998.194 8998.194 0 0 0-7.54-10.514c-2.368-3.553-5.503-6.493-8.16-9.681-1.381-1.557-2.76-3.106-4.121-4.636-1.38-1.514-2.97-2.803-4.432-4.206-2.978-2.702-5.859-5.391-8.757-7.926a2351.957 2351.957 0 0 1-9.085-6.638c-1.491-1.05-2.92-2.14-4.37-3.116-1.528-.862-3.025-1.736-4.505-2.567-2.944-1.661-5.772-3.25-8.456-4.768-2.696-1.517-5.748-2.546-8.37-3.709-5.36-2.223-10.213-4.259-13.421-4.955a69517.11 69517.11 0 0 1-10.774-3.054"/><path id="rd96bZ" d="M1579.3 207.7l10.848 2.793c3.518.697 7.503 2.41 12.14 4.228 2.288.968 4.857 1.726 7.322 3.045 2.453 1.32 5.05 2.71 7.746 4.155 1.355.718 2.734 1.466 4.139 2.223 1.333.861 2.646 1.82 4.013 2.753 2.725 1.89 5.53 3.843 8.424 5.86 2.656 2.307 5.385 4.664 8.168 7.084 1.375 1.246 2.874 2.389 4.162 3.75 1.287 1.393 2.583 2.784 3.893 4.198 2.506 2.9 5.49 5.516 7.737 8.778a3208.62 3208.62 0 0 0 7.23 9.588c4.234 6.867 8.876 13.702 12.206 21.224 3.915 7.27 6.518 15.085 9.446 22.637 1.204 3.875 2.222 7.76 3.322 11.572.518 1.922 1.121 3.802 1.561 5.714.374 1.922.733 3.833 1.096 5.735.7 3.79 1.474 7.51 2.097 11.178.383 3.697.746 7.324 1.11 10.845 1.008 7.034.66 13.744.898 19.937.15 3.096.006 6.057-.234 8.86-.181 2.826-.363 5.496-.518 8.01-.191 5.028-.935 9.361-1.484 12.934-1.08 7.147-1.704 11.231-1.704 11.231l-5.987-1.238s.705-3.957 1.914-10.886c.617-3.47 1.436-7.668 1.728-12.57.223-2.432.462-5.04.696-7.781.301-2.742.514-5.622.436-8.633-.09-6.035.404-12.613-.409-19.5-.277-3.45-.556-7.001-.853-10.617-.58-3.593-1.172-7.273-1.79-10.981-.305-1.87-.627-3.751-.94-5.652-.387-1.879-.929-3.728-1.395-5.62-.991-3.77-1.906-7.602-2.99-11.426-2.71-7.459-5.075-15.209-8.75-22.43-3.093-7.48-7.516-14.284-11.527-21.151-2.319-3.24-4.619-6.44-6.892-9.619-2.15-3.273-5.014-5.902-7.428-8.828-1.26-1.425-2.501-2.84-3.745-4.232-1.246-1.39-2.7-2.533-4.013-3.792-2.706-2.472-5.353-4.88-7.925-7.22a3260.686 3260.686 0 0 1-8.196-5.983c-1.343-.956-2.614-1.94-3.923-2.825-1.376-.78-2.734-1.548-4.047-2.295a1184.707 1184.707 0 0 0-7.603-4.311c-2.419-1.373-4.943-2.172-7.193-3.202-4.563-1.911-8.502-3.717-12-4.486-6.855-1.942-10.786-3.054-10.786-3.054"/><path id="rd96ca" d="M1575.52 221.69l10.835 2.795c3.808.78 6.888 2.256 10.725 3.761 1.915.831 3.972 1.36 6.144 2.534 2.189 1.175 4.485 2.411 6.888 3.7 1.206.634 2.428 1.286 3.692 1.941 1.18.78 2.353 1.654 3.58 2.473 2.416 1.672 4.934 3.418 7.523 5.194 2.383 2.068 4.828 4.197 7.33 6.38 1.235 1.11 2.59 2.109 3.758 3.355 1.156 1.245 2.32 2.515 3.502 3.781 2.247 2.629 4.972 4.935 7.007 7.927 2.169 2.867 4.365 5.776 6.585 8.696 3.842 6.283 8.129 12.475 11.174 19.415 3.607 6.627 5.985 13.869 8.72 20.807 1.106 3.575 2.05 7.18 3.072 10.713.482 1.764 1.048 3.51 1.46 5.275.342 1.777.684 3.555 1.005 5.309.671 3.523 1.32 6.992 1.967 10.379.353 3.44.707 6.805 1.043 10.066.946 6.544.604 12.82.842 18.575.155 2.879.021 5.65-.208 8.27-.176 2.628-.343 5.12-.483 7.467-.155 4.708-.867 8.747-1.375 12.083-1.007 6.691-1.577 10.503-1.577 10.503l-5.975-1.225s.649-3.7 1.77-10.162c.59-3.241 1.382-7.146 1.63-11.716.208-2.287.431-4.696.653-7.252.303-2.546.498-5.236.416-8.051-.103-5.6.405-11.73-.374-18.108-.25-3.21-.497-6.503-.768-9.869-.528-3.326-1.094-6.72-1.65-10.171-.29-1.733-.575-3.47-.856-5.224-.363-1.746-.867-3.46-1.299-5.184-.912-3.49-1.82-7.012-2.744-10.567-2.506-6.855-4.64-14.014-8.023-20.609-2.814-6.888-6.862-13.048-10.485-19.335-2.106-2.938-4.19-5.847-6.25-8.726-1.928-3.002-4.538-5.319-6.706-7.979-1.123-1.276-2.238-2.563-3.345-3.822-1.127-1.256-2.436-2.275-3.617-3.407-2.416-2.213-4.786-4.372-7.082-6.493a1630.944 1630.944 0 0 1-7.309-5.318c-1.181-.852-2.313-1.756-3.477-2.544-1.226-.687-2.432-1.362-3.605-2.028-2.346-1.338-4.596-2.617-6.73-3.854-2.14-1.214-4.143-1.787-6.026-2.67-3.761-1.61-6.793-3.187-10.592-4.02-6.85-1.943-10.765-3.065-10.765-3.065"/><path id="rd96cb" d="M1568.66 234.9s2.912.737 7.99 2.038c2.301.405 6.158 1.89 10.37 3.52 2.052.852 4.48 1.641 6.578 2.733 2.094 1.122 4.29 2.285 6.59 3.51 1.15.613 2.321 1.247 3.506 1.891 1.107.758 2.259 1.528 3.407 2.306 2.3 1.6 4.683 3.253 7.12 4.945 4.406 3.908 9.473 7.71 13.647 12.57 4.58 4.56 8.457 9.88 12.48 15.27 3.534 5.632 7.353 11.304 10.11 17.444 12.42 24.164 16.095 51.298 16.105 71.162.229 4.998-.422 9.538-.573 13.598-.148 4.062-.724 7.541-1.161 10.42-.862 5.755-1.356 9.037-1.356 9.037l-5.976-1.225s.57-3.168 1.556-8.695c.504-2.774 1.163-6.13 1.41-10.057.26-3.915 1.035-8.31.95-13.162.552-19.249-2.23-45.771-13.702-69.759-2.541-6.097-6.112-11.748-9.425-17.38-3.786-5.38-7.465-10.74-11.842-15.343-3.982-4.903-8.85-8.788-13.104-12.768a2653.117 2653.117 0 0 0-6.9-5.08 582.043 582.043 0 0 1-3.31-2.378c-1.154-.665-2.293-1.33-3.416-1.965-2.238-1.277-4.398-2.502-6.442-3.666-2.057-1.153-4.435-1.984-6.446-2.878-4.154-1.735-7.961-3.302-10.237-3.813-5.046-1.445-7.929-2.275-7.929-2.275"/><path id="rd96cc" d="M1564.87 248.9s2.911.728 7.999 2.026c2.589.499 5.525 1.746 8.953 3.064 1.68.717 3.58 1.268 5.409 2.223 1.809.977 3.72 1.984 5.72 3.054.99.52 2.01 1.061 3.059 1.623.97.652 1.961 1.329 2.96 2.014 2.008 1.391 4.093 2.815 6.236 4.29 3.848 3.449 8.32 6.722 12.012 11.043 4.051 3.99 7.491 8.747 11.097 13.516 3.141 5.048 6.598 10.087 9.08 15.635 11.242 21.702 14.647 46.498 14.682 64.679.24 4.58-.389 8.748-.505 12.466-.122 3.73-.658 6.93-1.056 9.568-.789 5.298-1.227 8.32-1.227 8.32l-5.98-1.238s.523-2.896 1.424-7.965c.466-2.546 1.09-5.61 1.317-9.205.218-3.573.968-7.605.88-12.03.524-17.568-1.999-41.761-12.285-63.276-2.25-5.506-5.463-10.523-8.4-15.573-3.365-4.757-6.598-9.547-10.455-13.577-3.49-4.384-7.772-7.72-11.476-11.25-2.056-1.519-4.059-3.004-6-4.438-.974-.695-1.94-1.401-2.874-2.087-1.007-.573-1.999-1.132-2.97-1.695l-5.573-3.188c-1.776-1.029-3.622-1.619-5.283-2.379-3.344-1.413-6.239-2.764-8.82-3.334-5.038-1.455-7.924-2.286-7.924-2.286"/><path id="rd96cd" d="M1561.1 262.89s2.9.737 7.982 2.025c2.883.574 4.906 1.59 7.545 2.598 1.305.58 2.688.892 4.224 1.723 1.544.812 3.163 1.674 4.857 2.577.85.446 1.72.894 2.605 1.362.83.55 1.672 1.132 2.531 1.723 1.727 1.174 3.51 2.391 5.335 3.627 3.296 3.012 7.186 5.734 10.381 9.526 3.551 3.438 6.542 7.625 9.726 11.77 2.75 4.457 5.843 8.87 8.044 13.816 10.059 19.24 13.214 41.69 13.276 58.185.24 4.168-.372 7.97-.45 11.356-.087 3.398-.587 6.317-.95 8.716-.702 4.832-1.098 7.594-1.098 7.594l-5.98-1.235 1.305-7.241c.425-2.306 1.008-5.102 1.202-8.352.185-3.244.908-6.909.817-10.909-.053-3.99.351-8.362-.19-12.913-.177-2.285-.343-4.633-.516-7.022-.376-2.38-.755-4.8-1.143-7.252-.344-2.483-.79-4.975-1.495-7.428-.637-2.482-1.264-4.985-1.913-7.522-1.759-4.872-3.25-9.981-5.608-14.666-1.977-4.903-4.835-9.269-7.366-13.734-2.965-4.166-5.74-8.373-9.09-11.854-2.988-3.845-6.697-6.628-9.83-9.723-1.756-1.29-3.457-2.556-5.109-3.762-.83-.624-1.64-1.225-2.44-1.808-.86-.488-1.698-.965-2.524-1.424-1.643-.954-3.213-1.868-4.711-2.742-1.487-.872-2.817-1.235-4.105-1.858-2.548-1.103-4.53-2.224-7.396-2.878a3627.035 3627.035 0 0 1-7.916-2.275"/><path id="rd96ce" d="M1706.132 494.433c0 51.568-41.768 93.37-93.292 93.37-51.532 0-93.3-41.802-93.3-93.37 0-51.57 41.768-93.373 93.3-93.373 51.524 0 93.292 41.803 93.292 93.373"/><path id="rd96cf" d="M1498.17 247.802a93.769 93.769 0 0 0-1.013-13.681c-7.543-51.009-54.973-86.238-105.951-78.694-50.978 7.563-86.173 55.029-78.628 106.046 7.482 50.592 54.202 85.633 104.689 78.85 2.932-44.859 35.595-83.41 80.902-92.52"/><path id="rd96cg" d="M1760.257 422.438c0 42.52-34.434 76.98-76.92 76.98-42.485 0-76.917-34.46-76.917-76.98 0-42.518 34.432-76.978 76.917-76.978 42.486 0 76.92 34.46 76.92 76.978"/><path id="rd96ch" d="M1676.215 404.61c0 31.891-25.829 57.737-57.691 57.737-31.859 0-57.684-25.846-57.684-57.737 0-31.883 25.825-57.73 57.684-57.73 31.862 0 57.691 25.847 57.691 57.73"/><path id="rd96ci" d="M1648.185 571.894s-.794.322-2.28.936l-2.733 1.111c-.557.218-1.152.457-1.78.718-.822.248-1.685.518-2.598.8-1.825.55-3.885 1.183-6.086 1.755l-6.825 1.278c-2.45.394-5.097.508-7.872.768-2.775.187-5.706.021-8.766 0-12.178-.676-26.404-4.405-39.47-12.538-6.565-4.021-12.623-9.289-18.115-15.23-2.594-3.106-5.24-6.234-7.396-9.735-1.14-1.703-2.3-3.407-3.2-5.257l-1.445-2.721-.715-1.37-.355-.687-.177-.343-.09-.166-.042-.093-.322-.739-1.941-4.767c-.33-.874-.644-1.404-.988-2.545l-.974-3.21c-1.458-4.384-2.098-8.353-2.816-12.363-1.023-8.082-1.16-16.184.005-23.894 2.208-15.415 8.605-28.973 16.087-38.956 7.582-9.972 15.886-16.674 22.113-20.476 2.998-2.13 5.67-3.232 7.363-4.218l2.659-1.382 2.234 4.924s-.88.437-2.523 1.257c-1.599.894-4.142 1.86-6.987 3.801-5.925 3.442-13.862 9.59-21.237 18.867-7.276 9.3-13.627 22.046-16.056 36.746-1.267 7.343-1.3 15.103-.479 22.905.611 3.864 1.153 7.719 2.45 11.895 1.135 4.509 2.398 7.044 3.6 10.42l.31.707.082.167.166.331.326.675.669 1.33 1.346 2.67c.834 1.817 1.924 3.489 2.998 5.165 2.019 3.448 4.526 6.523 6.987 9.618 5.232 5.89 11.033 11.166 17.376 15.23 12.632 8.228 26.577 12.225 38.614 13.142 3.023.083 5.926.309 8.69.175 2.749-.196 5.383-.26 7.824-.601 2.432-.407 4.712-.78 6.818-1.133 2.192-.52 4.245-1.111 6.082-1.62.917-.271 1.788-.52 2.606-.75.64-.238 1.235-.467 1.796-.673 1.09-.408 2.015-.758 2.763-1.05 1.503-.573 2.304-.874 2.304-.874"/><path id="rd96cj" d="M1643.485 559.96s-.789.323-2.27.926c-1.517.53-3.605 1.682-6.521 2.42-5.678 1.952-14.255 3.614-24.6 3.159-10.286-.562-22.348-3.711-33.435-10.568-5.562-3.374-10.67-7.842-15.341-12.848-4.588-5.154-8.313-10.982-11.472-17.37-2.73-6.17-4.938-13.079-5.942-19.884-.854-6.845-1.01-13.702-.024-20.247 1.858-13.09 7.267-24.621 13.598-33.11 6.43-8.455 13.441-14.169 18.735-17.389 2.527-1.838 4.823-2.743 6.257-3.595a477.762 477.762 0 0 0 2.254-1.204l2.238 4.934s-.744.363-2.123 1.06c-1.338.77-3.502 1.538-5.88 3.188-5.005 2.859-11.637 8.02-17.864 15.793-6.12 7.789-11.484 18.52-13.56 30.884-1.09 6.181-1.103 12.705-.446 19.262.817 6.594 2.634 12.868 5.272 19.32 2.792 5.963 6.318 11.865 10.613 16.913 4.402 4.945 9.254 9.423 14.61 12.851 10.638 6.961 22.415 10.368 32.565 11.166 10.2.708 18.784-.736 24.466-2.534 2.928-.653 5.047-1.764 6.578-2.254 1.496-.572 2.292-.873 2.292-.873"/><path id="rd96ck" d="M1638.783 548.018l-2.279.924c-.743.313-1.66.687-2.734 1.122-.524.21-1.098.436-1.705.676-.47.134-.962.26-1.487.405-1.048.312-2.213.655-3.485 1.03-1.445.267-3.015.569-4.695.891-1.681.292-3.51.324-5.413.55-1.916.157-3.94-.01-6.046.043-8.407-.448-18.301-3.002-27.394-8.582-4.567-2.752-8.734-6.42-12.578-10.482-1.777-2.16-3.667-4.279-5.142-6.72-.809-1.184-1.639-2.347-2.246-3.647l-1.012-1.901-.508-.945-.26-.468-.124-.239-.066-.115-.037-.062c.09.22-.244-.57.198.48-1.185-3.045-2.92-6.723-3.324-8.894-.83-2.338-1.297-5.216-1.838-8-.694-5.61-.87-11.228-.061-16.6 1.506-10.753 5.921-20.258 11.103-27.25 5.277-6.947 10.993-11.687 15.366-14.326 2.048-1.538 3.977-2.244 5.137-2.971 1.213-.653 1.858-1.007 1.858-1.007l2.234 4.926s-.595.309-1.71.871c-1.077.634-2.87 1.216-4.777 2.577-4.072 2.274-9.415 6.44-14.486 12.703-4.968 6.308-9.358 15.013-11.076 25.038-.908 5.017-.892 10.295-.412 15.614.437 2.638.806 5.402 1.474 7.521l.405 1.734c.074.52.545 1.527.797 2.265l1.82 4.8c-.544-1.297-.135-.322-.247-.603l.03.064.056.114.121.227.227.458.462.913.908 1.84c.549 1.277 1.314 2.41 2.045 3.552 1.345 2.389 3.097 4.457 4.732 6.608 3.589 4.01 7.494 7.677 11.855 10.482 8.647 5.682 18.252 8.498 26.52 9.183 2.077.01 4.076.23 5.97.136 1.888-.167 3.697-.147 5.373-.385a981.12 981.12 0 0 1 4.683-.748c1.267-.321 2.432-.623 3.489-.895.52-.124 1.028-.237 1.495-.353.61-.227 1.186-.436 1.718-.632 1.09-.415 2.02-.768 2.766-1.05 1.5-.572 2.3-.872 2.3-.872"/><path id="rd96cl" d="M1420.853 334.62s-.864.116-2.482.322c-.81.106-1.81.23-2.981.386-.6.072-1.248.146-1.933.228-.868.031-1.78.072-2.755.113-1.928.063-4.112.147-6.417.137-2.168-.168-4.513-.343-7.02-.531-2.502-.248-5.128-.83-7.916-1.298-2.775-.54-5.603-1.475-8.592-2.285-11.766-3.844-24.748-11.22-35.44-22.597-5.385-5.651-9.951-12.38-13.783-19.653-1.735-3.72-3.515-7.47-4.716-11.47-.677-1.964-1.367-3.937-1.772-5.984l-.706-3.043-.343-1.527-.177-.768-.083-.374-.041-.199-.02-.093-.125-.81-.665-5.185c-.09-.944-.26-1.547-.289-2.762l-.132-3.398c-.285-4.675.129-8.726.463-12.85 1.102-8.186 3.084-16.164 6.223-23.405 6.186-14.545 15.98-26.159 25.916-33.992 10.03-7.8 19.913-12.208 27.002-14.304 3.485-1.3 6.392-1.684 8.308-2.213 1.942-.425 2.97-.655 2.97-.655l.891 5.329s-.97.198-2.79.573c-1.805.457-4.56.748-7.856 1.911-6.71 1.827-16.087 5.786-25.734 12.965-9.56 7.23-19.11 18.074-25.318 31.86-3.154 6.868-5.198 14.483-6.428 22.335-.405 3.96-.88 7.876-.694 12.312-.062 4.706.52 7.54.822 11.167l.116.769.04.175.07.375.154.747.306 1.486.623 2.96c.351 1.996.978 3.928 1.598 5.85 1.086 3.907 2.746 7.584 4.36 11.25 3.589 7.138 7.908 13.817 13.074 19.469 10.245 11.355 22.876 18.907 34.444 22.95 2.943.86 5.735 1.847 8.47 2.44 2.749.518 5.35 1.143 7.828 1.443 2.49.24 4.823.457 6.983.666 2.284.062 4.46.021 6.384 0 .966-.02 1.88-.042 2.746-.064.69-.072 1.334-.134 1.936-.186 1.182-.124 2.182-.229 2.99-.312 1.627-.164 2.49-.26 2.49-.26"/><path id="rd96cm" d="M1419.375 321.883s-.86.102-2.482.312c-1.627.123-3.98.705-7.04.665-6.083.435-14.958-.167-25-3.325-9.977-3.242-20.998-9.485-30.104-19.127-4.587-4.778-8.44-10.501-11.723-16.64-3.159-6.266-5.298-12.976-6.743-20.072-1.07-6.784-1.442-14.148-.644-21.1.946-6.939 2.586-13.733 5.265-19.893 5.24-12.372 13.56-22.295 21.993-28.974 8.527-6.628 16.91-10.418 22.951-12.195 2.957-1.143 5.455-1.424 7.078-1.892 1.656-.383 2.54-.592 2.54-.592l.891 5.339s-.826.179-2.361.49c-1.516.406-3.85.602-6.616 1.6-5.67 1.506-13.54 4.841-21.691 10.864-8.053 6.068-16.139 15.22-21.404 26.836-2.68 5.795-4.39 12.206-5.467 18.822-.903 6.7-.76 13.361.15 20.383 1.188 6.596 3.124 13.318 6.024 19.406 3.043 6.026 6.648 11.687 11.013 16.454 8.66 9.622 19.342 16.053 29.116 19.49 9.84 3.355 18.657 4.188 24.714 3.896 3.053.125 5.418-.405 7.05-.498 1.63-.167 2.49-.249 2.49-.249"/><path id="rd96cn" d="M1417.9 309.14s-.868.106-2.482.312c-.81.106-1.809.24-2.98.385-.58.071-1.2.147-1.86.23h-1.573c-1.123.031-2.362.061-3.712.092-1.503-.103-3.134-.227-4.873-.353-1.734-.145-3.542-.592-5.487-.873-1.93-.353-3.882-1.038-5.976-1.547-8.176-2.64-17.265-7.761-24.768-15.656-3.787-3.917-6.933-8.622-9.667-13.639-1.181-2.608-2.487-5.186-3.308-7.99-.479-1.37-.995-2.73-1.255-4.176l-.5-2.14-.26-1.07-.128-.53-.066-.27-.03-.134-.015-.063c.028.228-.091-.624.066.51-.376-3.306-1.111-7.365-.95-9.62-.198-2.536.094-5.497.289-8.385.785-5.703 2.085-11.292 4.282-16.38 4.307-10.203 11.158-18.42 18.095-23.958 7.028-5.465 13.9-8.633 18.9-10.088 2.429-.975 4.514-1.174 5.852-1.579a917.72 917.72 0 0 1 2.093-.508l.892 5.34s-.669.145-1.92.405c-1.23.344-3.15.446-5.393 1.287-4.62 1.184-10.992 3.906-17.637 8.757-6.557 4.915-13.164 12.374-17.492 21.828-2.208 4.706-3.584 9.931-4.492 15.303-.256 2.722-.628 5.545-.516 7.831l-.054 1.819c-.062.53.136 1.64.198 2.432l.533 5.203c-.19-1.402-.046-.353-.087-.656l.017.075.024.124.058.25.107.52.22 1.028.416 2.056c.207 1.393.661 2.71 1.09 4.042.699 2.7 1.883 5.214 2.945 7.76 2.486 4.904 5.385 9.546 8.952 13.453 7.053 7.874 15.795 13.182 23.782 16.019 2.04.55 3.955 1.298 5.851 1.704 1.9.333 3.687.82 5.397 1.028 1.726.176 3.34.333 4.831.488 1.339.01 2.569.02 3.68.031.553.02 1.078.031 1.573.051.665-.072 1.28-.123 1.858-.185 1.177-.114 2.18-.22 2.99-.312 1.622-.165 2.49-.25 2.49-.25"/><path id="rd96co" d="M1632.25 385.737s.38-.519 1.095-1.507c.354-.498.8-1.101 1.308-1.818.277-.364.562-.758.867-1.174.45-.519.93-1.08 1.438-1.66 1.015-1.165 2.168-2.485 3.435-3.804 1.259-1.152 2.622-2.4 4.08-3.729 3.02-2.536 6.663-5.113 10.92-7.502 8.505-4.653 19.685-8.102 31.943-8.082 6.12-.04 12.43.976 18.648 2.702 3.067 1.008 6.17 2.014 9.098 3.48 1.494.675 2.989 1.35 4.374 2.212l2.123 1.237 1.056.634.528.312.264.154.135.083.067.031.645.458 3.15 2.287c.57.436.94.622 1.678 1.266l2.058 1.787c2.903 2.442 4.998 4.84 7.168 7.273 4.095 5.038 7.588 10.49 10.037 16.204 4.988 11.396 6.353 23.293 5.471 33.245-.956 9.972-3.784 18.044-6.414 23.25-1.143 2.71-2.487 4.591-3.23 5.973-.799 1.35-1.225 2.066-1.225 2.066l-4.485-3.023s.412-.644 1.18-1.87c.71-1.256 2.01-2.962 3.123-5.432 2.565-4.76 5.373-12.145 6.515-21.431 1.057-9.248.094-20.435-4.334-31.334-2.174-5.463-5.351-10.71-9.123-15.623-2.01-2.348-3.947-4.716-6.608-7.052-2.74-2.65-4.443-3.69-6.58-5.415l-.722-.499-.249-.154-.492-.313-1.008-.633-2.004-1.237c-1.318-.871-2.739-1.558-4.151-2.244-2.788-1.485-5.75-2.535-8.694-3.595-5.963-1.817-12.06-2.97-18.023-3.095-11.939-.32-23.01 2.754-31.53 7.126-4.245 2.245-7.925 4.705-10.991 7.138-1.486 1.287-2.87 2.493-4.15 3.604a109.287 109.287 0 0 0-3.502 3.688 157.86 157.86 0 0 0-1.475 1.632l-.903 1.141c-.533.698-.996 1.29-1.367 1.768-.743.966-1.144 1.475-1.144 1.475"/><path id="rd96cp" d="M1642.51 393.435l1.09-1.516c.769-.945 1.64-2.513 3.225-4.157 2.868-3.52 7.714-8.03 14.554-11.873 6.847-3.77 15.871-6.574 25.763-6.595 4.947-.065 10.033.767 15.052 2.128 5.034 1.486 9.762 3.74 14.391 6.608 4.2 2.866 8.449 6.472 11.819 10.47 3.299 4.073 6.165 8.455 8.157 13.091 4.064 9.226 5.201 18.875 4.516 26.937-.757 8.094-3.004 14.637-5.148 18.865-.904 2.213-2.024 3.73-2.611 4.873-.65 1.101-.992 1.693-.992 1.693l-4.478-3.023s.326-.53.934-1.507c.555-1.007 1.64-2.348 2.506-4.321 2.077-3.772 4.31-9.65 5.252-17.038.872-7.365.12-16.32-3.383-25.047-1.712-4.372-4.26-8.559-7.235-12.498-3.114-3.906-6.694-7.187-10.961-10.325-4.095-2.71-8.69-5.131-13.412-6.68-4.775-1.453-9.652-2.421-14.437-2.524-9.57-.29-18.488 2.152-25.339 5.642-6.85 3.551-11.815 7.874-14.77 11.272-1.627 1.578-2.564 3.126-3.353 4.05-.747.957-1.14 1.475-1.14 1.475"/><path id="rd96cq" d="M1652.77 401.115s.38-.518 1.097-1.507c.35-.487.788-1.101 1.306-1.815.253-.344.525-.707.82-1.102.219-.24.452-.49.706-.748.483-.541 1.018-1.152 1.598-1.808.764-.707 1.587-1.465 2.471-2.286 1.825-1.547 4.037-3.126 6.607-4.621 5.174-2.88 12.046-5.05 19.575-5.124 3.769-.062 7.63.572 11.456 1.558 1.873.645 3.799 1.196 5.599 2.12.923.394 1.862.78 2.716 1.341l1.323.758.658.375.337.186.167.093.083.052.04.02c-.201-.145.499.353-.43-.31 1.94 1.452 4.641 3.22 5.537 4.26 1.292 1.015 2.668 2.586 4.045 4.062 2.51 3.105 4.743 6.418 6.274 9.963 3.139 7.052 4.064 14.47 3.564 20.65-.57 6.201-2.23 11.231-3.886 14.482-.658 1.715-1.563 2.867-1.998 3.75-.478.851-.738 1.319-.738 1.319l-4.488-3.024s.243-.394.696-1.12c.398-.758 1.26-1.735 1.893-3.221 1.588-2.794 3.23-7.148 3.986-12.642.68-5.487.145-12.207-2.43-18.751-1.254-3.293-3.175-6.4-5.355-9.381-1.21-1.404-2.439-2.93-3.487-3.844l-.795-.841c-.182-.25-.93-.758-1.37-1.122l-3.067-2.38c1.152.82.302.218.545.394l-.037-.02-.076-.052-.152-.093-.305-.188-.61-.374-1.202-.769c-.78-.56-1.646-.955-2.491-1.37-1.662-.947-3.446-1.527-5.19-2.213-3.58-1.08-7.225-1.86-10.836-1.953-7.203-.25-13.973 1.558-19.156 4.146a47.066 47.066 0 0 0-6.691 4.268c-.903.77-1.75 1.485-2.532 2.151l-1.673 1.703c-.264.251-.507.488-.74.707-.306.385-.588.748-.852 1.081-.545.696-1 1.287-1.375 1.765-.743.966-1.137 1.475-1.137 1.475"/><path id="rd96cr" d="M1597.4 455.3l4.658-.884c.74-.135 1.565-.29 2.458-.468 1.126-.113 2.564-.186 3.988-.27 2.857-.093 6.376-.405 9.465.115 3.237.364 6.793.635 10.356 1.777 1.8.499 3.655 1.017 5.542 1.548 1.656.664 3.35 1.349 5.067 2.046 8.242 3.75 15.15 8.789 21.202 15.343 5.983 6.483 10.514 14.265 13.307 22.096 2.843 7.834 3.882 15.699 3.814 22.398.134 3.366-.378 6.43-.614 9.152-.502 2.67-.891 5.04-1.379 6.93-1.132 3.762-1.776 5.91-1.776 5.91l-5.054-1.9s.67-1.954 1.837-5.372c.519-1.733.96-3.894 1.537-6.357.295-2.502.902-5.33.898-8.456.296-6.233-.363-13.63-2.767-21.119-2.34-7.49-6.343-15.053-11.838-21.495-5.538-6.502-12.036-11.667-19.848-15.562l-2.173-1.02-1.082-.496-.532-.25-.265-.124-.131-.062-.719-.281c-1.833-.591-3.618-1.164-5.364-1.724-3.457-1.259-6.926-1.653-10.109-2.152-3.036-.633-6.504-.435-9.337-.446-1.412.032-2.845.052-3.976.124-.897.127-1.722.24-2.47.344-2.99.415-4.695.655-4.695.655"/><path id="rd96cs" d="M1599.47 467.95s1.693-.312 4.662-.871a179.4 179.4 0 0 1 2.449-.467c.904-.075 1.891-.086 2.948-.148 2.098-.02 4.514-.362 7.09.084 2.586.3 5.439.437 8.292 1.393 1.454.384 2.94.778 4.464 1.183 1.454.583 2.937 1.184 4.447 1.797 6.025 2.734 11.881 6.847 16.687 12.053 9.84 10.377 14.226 24.993 13.94 35.746.14 2.712-.31 5.172-.457 7.375-.42 2.152-.707 4.063-1.094 5.6-.898 3.043-1.406 4.778-1.406 4.778l-5.057-1.902s.531-1.547 1.474-4.247c.422-1.37.748-3.075 1.245-5.018.21-1.984.748-4.207.733-6.68.752-9.795-2.574-23.572-11.414-33.868-4.29-5.151-9.737-9.378-15.336-12.267-1.445-.666-2.878-1.33-4.282-1.985-1.458-.456-2.882-.915-4.274-1.362-2.75-1.068-5.525-1.338-8.052-1.753-2.527-.572-4.878-.344-6.962-.428-1.046 0-2.024-.042-2.928 0-.9.126-1.73.24-2.478.343-2.982.415-4.691.645-4.691.645"/><path id="rd96ct" d="M1601.54 480.61s1.693-.31 4.662-.872c.736-.144 1.557-.302 2.449-.467.677-.042 1.214.01 1.9-.01 1.362.041 2.663-.343 4.724.041 1.932.23 4.08.249 6.226.998 1.104.268 2.226.55 3.386.84 1.251.499 2.52 1.017 3.829 1.549 3.815 1.702 8.609 4.883 12.169 8.756 7.5 7.76 10.932 18.855 10.75 27 .156 2.057-.239 3.917-.286 5.59-.337 1.631-.519 3.096-.81 4.26-.662 2.337-1.043 3.665-1.043 3.665l-5.06-1.91s.404-1.133 1.115-3.118c.322-1.006.545-2.265.95-3.686.132-1.454.609-3.087.567-4.893.652-7.179-1.724-17.432-8.211-25.12-3.052-3.812-7.438-7.116-10.827-8.975l-2.18-1.02-1.07-.498-.533-.25-.264-.124-.128-.062-.037-.01c-.582-.24.748.303.599.248l-.05-.02c-1.09-.342-2.155-.685-3.196-1.017-2.04-.874-4.113-1.008-5.991-1.362-2.008-.497-3.246-.238-4.593-.395-.664-.02-1.198-.124-1.874-.134-.9.134-1.727.248-2.473.343-2.99.425-4.7.653-4.7.653"/><path id="rd96cu" d="M1709.097 474.187s-1.21.238-3.333.664c-.524.104-1.11.22-1.75.343-.876.103-2.039.178-3.164.25-2.253.103-5.099.333-7.458-.032-2.512-.27-5.269-.478-8.04-1.34-1.402-.384-2.839-.779-4.307-1.174-1.246-.498-2.522-.996-3.822-1.517-6.594-2.95-11.898-6.804-16.653-11.883-9.539-10.057-13.775-24.155-13.53-34.626-.059-5.256.795-9.608 1.499-12.58.867-2.941 1.36-4.622 1.36-4.622l5.054 1.9-1.426 4.093c-.768 2.638-1.733 6.524-1.93 11.313-.71 9.495 2.47 22.751 10.996 32.723 4.257 5.028 9.147 9.009 15.312 12.114l1.557.738.761.373.38.176.192.096.769.32c1.406.46 2.78.916 4.114 1.351 2.668.977 5.342 1.308 7.796 1.705 2.315.487 5.097.374 7.338.374 1.122-.033 2.175-.064 3.145-.105.645-.072 1.237-.155 1.776-.217 2.139-.282 3.364-.437 3.364-.437"/><path id="rd96cv" d="M1707.023 461.526s-1.208.24-3.326.665c-1.053.26-2.345.456-3.865.467-1.512.031-3.25.301-5.108-.01-1.848-.186-3.903-.271-5.963-.934-1.049-.27-2.122-.552-3.222-.83-1.054-.406-2.12-.833-3.21-1.26a38.004 38.004 0 0 1-12.145-8.599c-7.191-7.439-10.477-18.026-10.338-25.868-.076-3.95.542-7.22 1.05-9.474l.997-3.503 5.058 1.911s-.387 1.071-1.067 2.962c-.566 1.922-1.314 4.728-1.48 8.197-.6 6.878 1.631 16.623 7.81 23.987 3.007 3.678 6.847 6.732 10.797 8.82 1.032.487 2.05.967 3.045 1.444 1.033.343 2.047.676 3.038.998 1.95.79 3.922.996 5.722 1.318 1.807.426 3.484.271 4.972.344 1.496.103 2.798-.01 3.868-.199 2.143-.28 3.367-.436 3.367-.436"/><path id="rd96cw" d="M1704.96 448.865s-1.21.238-3.332.665c-.528.101-1.11.216-1.75.353-.418.02-.678-.032-1.062-.01-.768-.044-1.396.257-2.73.02-1.205-.126-2.56-.084-3.914-.55-.694-.157-1.406-.314-2.137-.478h-.031c-.136-.053 1.043.425.534.216l-.026-.01-.093-.042-.198-.071-.395-.156-.788-.312-1.598-.635c-2.16-.913-5.356-2.907-7.626-5.308-4.84-4.83-7.183-11.895-7.145-17.121-.11-2.627.284-4.818.592-6.346.405-1.516.632-2.38.632-2.38l5.056 1.901c.15.032-1.453 2.588-1.723 6.931-.498 4.249.778 10.47 4.618 15.229 1.76 2.347 4.537 4.456 6.281 5.527l1.557.736.762.364.38.188.185.094.096.041.03.01c.56.227-.757-.302-.612-.25l.03.01c.665.23 1.32.437 1.958.656 1.24.582 2.51.665 3.662.913 1.283.364 1.858.177 2.602.322.373.042.627.136 1.047.158.644-.085 1.236-.158 1.775-.23 2.14-.282 3.364-.435 3.364-.435"/><path id="rd96cx" d="M1568.05 400.661s.04-1.039.103-2.845c.016-.459.032-.957.053-1.507.087-.768.26-1.807.43-2.806.372-1.983.785-4.54 1.577-6.482.743-2.108 1.495-4.424 2.795-6.627a308.558 308.558 0 0 1 1.905-3.46c.838-1.111 1.701-2.233 2.572-3.386.594-.769 1.193-1.548 1.808-2.347.174-.313.98-1.03 1.545-1.58l1.895-1.735a78.644 78.644 0 0 1 4.01-3.346c1.35-.996 2.618-1.588 3.96-2.378l4.014-2.141c1.412-.55 2.845-1.006 4.278-1.475 1.425-.447 2.849-.914 4.27-1.277 1.457-.198 2.907-.385 4.324-.583 1.424-.166 2.832-.32 4.207-.426 1.388.085 2.746.158 4.064.24 2.65.166 5.161.374 7.38 1.091 2.254.602 4.318 1.184 6.11 1.787 1.697.831 3.18 1.559 4.402 2.15 2.408 1.279 3.783 2.005 3.783 2.005l-3.043 4.477s-1.182-.707-3.25-1.953c-1.045-.601-2.334-1.329-3.8-2.161-1.564-.611-3.382-1.225-5.368-1.89-7.92-2.514-19.834-2.638-30.112 2.556-1.291.654-2.551 1.142-3.852 2.004a77.782 77.782 0 0 0-3.886 2.94l-1.87 1.527c-.57.487-1.35 1.122-1.566 1.424l-1.994 2.192-.97 1.071-.483.529-.24.261-.12.124-.058.072-.756 1.007-.037.053-2.028 3.229c-1.391 2.079-2.24 4.292-3.092 6.317-.891 1.86-1.412 4.322-1.879 6.276-.21.975-.396 1.901-.574 2.753-.062.539-.124 1.037-.169 1.495l-.338 2.825"/><path id="rd96cy" d="M1580.84 401.636s.033-1.04.095-2.859c0-.913.07-2.004.363-3.25.264-1.248.385-2.734.987-4.187 1.842-6.066 6.702-13.423 14.383-17.827 7.507-4.477 16.827-5.09 23.285-3.524 1.62.429 3.115.813 4.42 1.209 1.225.6 2.295 1.121 3.171 1.557 1.77.882 2.779 1.392 2.779 1.392l-3.044 4.466s-.81-.487-2.23-1.328c-.719-.436-1.586-.967-2.581-1.569-1.094-.396-2.333-.832-3.684-1.31-5.404-1.798-13.659-2.015-20.852 1.507-.884.437-1.855.768-2.672 1.298l-2.342 1.715c-.763.603-1.627 1.049-2.308 1.776-.673.737-1.342 1.476-1.995 2.191l-1.874 2.068c-.487.769-.97 1.528-1.433 2.266-1.032 1.433-1.598 2.991-2.226 4.392-.714 1.383-.933 2.776-1.297 3.98a13.624 13.624 0 0 0-.61 3.199c-.22 1.798-.335 2.838-.335 2.838"/><path id="rd96cz" d="M1593.62 402.598s.038-1.037.091-2.855c.016-.446.037-.958.058-1.495.054-.313.136-.447.185-.708.157-.497-.028-.904.397-1.89.306-.862.482-1.88 1.07-2.804.227-.49.466-.999.705-1.518l.01-.02.007-.01c-1.461 1.921-.4.519-.718.944l.053-.073.108-.136.215-.278.429-.563.892-1.153c.59-.77 1.193-1.548 1.804-2.348.364-.529.47-.414.665-.592.178-.104.355-.227.52-.362.33-.26.633-.563.93-.916.37-.333 1.086-.61 1.594-.954 4.41-2.806 10.088-3.326 14.031-2.474 1 .23 1.912.437 2.726.624.752.375 1.407.697 1.944.966 1.125.49 1.768.758 1.768.758l-3.043 4.478s-.467-.22-1.223-.706c-.38-.25-.838-.561-1.35-.976-.599-.21-1.272-.405-1.994-.728-2.895-1.08-7.5-1.393-11.604.457-.462.217-1.157.394-1.483.59-.239.22-.5.376-.804.5a4.917 4.917 0 0 1-.488.165c-.203.105-.289-.092-.694.427-.673.738-1.338 1.475-1.99 2.192l-.974 1.07-.48.53-.239.26-.12.135-.058.064c.36-.48-.83 1.088.805-1.07l-.004.01-.016.02c-.265.446-.545.883-.835 1.298-.677.789-.949 1.705-1.361 2.483-.53.903-.438 1.226-.698 1.672-.1.24-.224.353-.327.666-.062.54-.12 1.039-.178 1.485-.206 1.808-.326 2.835-.326 2.835"/><path id="rd96cA" d="M1524.88 228.37c0 39.86-32.288 72.18-72.117 72.18-39.823 0-72.103-32.32-72.103-72.18 0-39.851 32.28-72.16 72.103-72.16 39.829 0 72.117 32.309 72.117 72.16"/><path id="rd96cB" d="M1418.61 232.602l-.706-1.712-.85-2.058c-.166-.417-.352-.874-.542-1.351-.206-.654-.425-1.35-.66-2.089-.45-1.465-.967-3.137-1.425-4.903-.318-1.67-.665-3.469-1.028-5.402a71.967 71.967 0 0 1-.644-13.183c.5-9.64 3.427-20.933 9.84-31.32 3.167-5.217 7.322-10.035 12.037-14.41 2.453-2.067 4.931-4.176 7.701-5.9 1.351-.905 2.702-1.818 4.163-2.546l2.155-1.152 1.09-.573.537-.279.273-.146.132-.073.075-.032.722-.311 3.563-1.486c.674-.247 1.017-.466 1.962-.748l2.59-.82c3.575-1.185 6.71-1.702 9.893-2.286 6.413-.83 12.855-.944 18.974-.04 12.266 1.724 23.047 6.782 31.01 12.724 7.956 6.025 13.308 12.644 16.347 17.6 1.693 2.388 2.585 4.509 3.374 5.857a292.11 292.11 0 0 0 1.103 2.121l-4.923 2.244-.975-1.986c-.69-1.256-1.452-3.25-2.956-5.494-2.688-4.654-7.474-10.899-14.742-16.716-7.276-5.733-17.248-10.75-28.795-12.693-5.76-1.02-11.864-1.06-17.99-.426-3.044.466-6.059.882-9.42 1.921-3.688.946-5.452 1.838-8.024 2.742l-.8.353-.265.125-.524.26-1.054.519-2.102 1.06c-1.429.654-2.745 1.506-4.067 2.337-2.709 1.59-5.153 3.562-7.586 5.508-4.654 4.09-8.82 8.671-12.037 13.659-6.516 9.953-9.691 20.955-10.44 30.47-.321 4.768-.156 9.184.303 13.058.309 1.922.606 3.719.875 5.392.413 1.756.887 3.428 1.292 4.903.22.738.426 1.434.615 2.1.173.478.343.934.496 1.36.313.82.574 1.516.78 2.079.426 1.132.653 1.743.653 1.743"/><path id="rd96cC" d="M1430.548 227.9s-.256-.593-.714-1.715c-.406-1.143-1.276-2.702-1.838-4.904-1.483-4.27-2.759-10.72-2.45-18.522.385-7.77 2.722-16.881 7.86-25.276 2.54-4.217 5.896-8.092 9.662-11.644 3.881-3.482 8.255-6.316 13.11-8.737 4.609-2.07 9.883-3.78 15.016-4.55 5.174-.676 10.381-.812 15.333-.084 9.926 1.37 18.696 5.444 25.155 10.232 6.447 4.873 10.816 10.192 13.276 14.213 1.4 1.922 2.095 3.666 2.75 4.757l.917 1.726-4.927 2.222-.776-1.57c-.561-.996-1.131-2.616-2.345-4.382-2.106-3.73-5.913-8.676-11.67-13.34-5.768-4.58-13.73-8.612-22.938-10.2-4.597-.832-9.462-.863-14.35-.396-4.931.593-9.576 1.912-14.448 3.885-4.436 2.058-8.88 4.686-12.654 7.875-3.72 3.284-7.085 6.91-9.666 10.91-5.24 7.957-7.83 16.786-8.457 24.411-.566 7.656.495 14.118 1.83 18.398.478 2.202 1.3 3.813 1.671 4.955a223.9 223.9 0 0 0 .653 1.737"/><path id="rd96cD" d="M1442.464 223.196s-.24-.59-.706-1.703c-.231-.563-.517-1.246-.847-2.056-.16-.397-.326-.822-.516-1.268-.083-.313-.166-.645-.26-.986-.207-.697-.438-1.465-.694-2.296-.198-1.018-.408-2.11-.64-3.284-.35-2.357-.537-5.037-.466-7.998.264-5.882 2.01-12.82 5.88-19.23 1.9-3.22 4.456-6.15 7.288-8.871 1.516-1.247 2.977-2.587 4.691-3.638.826-.57 1.64-1.164 2.553-1.599l1.33-.717.66-.364.338-.185.165-.094.083-.044.042-.02c-.228.084.548-.247-.5.199 2.254-.894 5.162-2.244 6.5-2.474 1.523-.56 3.571-.903 5.525-1.297 3.939-.509 7.903-.665 11.694-.114 7.586 1.016 14.334 4.103 19.301 7.738 4.935 3.71 8.32 7.739 10.203 10.837 1.107 1.443 1.603 2.825 2.127 3.645.475.861.727 1.31.727 1.31l-4.922 2.234-.587-1.176c-.433-.726-.805-1.973-1.73-3.271-1.524-2.795-4.344-6.451-8.59-9.952-4.277-3.428-10.22-6.482-17.09-7.72-3.432-.642-7.054-.654-10.712-.354-1.806.292-3.746.53-5.055.947l-1.118.228c-.311.021-1.124.396-1.665.582l-3.608 1.352c1.296-.553.33-.137.61-.261l-.037.021-.078.041-.161.083-.314.157-.636.312-1.272.622c-.888.363-1.66.892-2.453 1.393-1.66.912-3.089 2.117-4.58 3.23-2.77 2.463-5.334 5.143-7.296 8.145-3.96 5.962-5.963 12.622-6.471 18.357-.194 2.889-.128 5.537.12 7.884.178 1.163.342 2.255.5 3.261.202.843.392 1.612.565 2.296.066.354.137.687.202.998.165.457.327.883.47 1.287.307.824.567 1.517.786 2.09.425 1.122.644 1.723.644 1.723"/><path id="rd96cE" d="M1516.65 256.59s-.904 1.599-2.494 4.405c-.392.707-.834 1.475-1.317 2.327-.673.988-1.586 2.181-2.49 3.387-1.858 2.358-3.98 5.39-6.5 7.532-2.498 2.358-5.125 5.038-8.474 7.135-1.635 1.112-3.295 2.255-5.009 3.429-1.672.883-3.382 1.787-5.12 2.703-8.58 4.07-17.351 6.232-26.73 6.647-9.287.415-18.627-1.225-26.816-4.29-8.23-3.024-15.262-7.542-20.606-12.134-2.79-2.182-4.897-4.673-6.933-6.712-1.817-2.224-3.444-4.145-4.637-5.816-2.26-3.46-3.544-5.433-3.544-5.433l4.717-2.649s1.119 1.87 3.084 5.14c1.045 1.6 2.499 3.419 4.096 5.56 1.822 1.942 3.696 4.352 6.228 6.483 4.827 4.476 11.264 8.962 18.946 12.112 7.639 3.2 16.475 5.1 25.408 5.027 9.006-.061 17.603-1.818 26.023-5.463l2.33-1.091 1.143-.541.566-.259.285-.135.14-.063.694-.374c1.721-1.091 3.394-2.14 5.026-3.178 3.373-1.932 6.04-4.468 8.592-6.712 2.585-2.024 4.754-4.933 6.686-7.21.933-1.152 1.88-2.317 2.593-3.282.52-.821.991-1.58 1.417-2.266 1.717-2.721 2.696-4.279 2.696-4.279"/><path id="rd96cF" d="M1505.646 250.02s-.908 1.599-2.489 4.406c-.401.705-.839 1.483-1.314 2.327-.562.789-1.235 1.609-1.92 2.502-1.432 1.735-2.816 3.95-4.951 5.734-2.028 1.901-4.1 4.135-6.847 5.819-1.313.913-2.663 1.858-4.043 2.815-1.477.79-2.989 1.589-4.53 2.399-6.375 3.034-13.75 4.976-21.307 5.309-15.217.884-30.12-5.599-38.68-13.236-2.3-1.743-3.99-3.801-5.678-5.422-1.47-1.84-2.817-3.376-3.804-4.746a2023.424 2023.424 0 0 0-2.923-4.438l4.72-2.649s.892 1.518 2.465 4.146c.834 1.287 2.008 2.742 3.263 4.478 1.474 1.548 2.932 3.52 4.972 5.213 7.515 7.356 21.092 14.12 35.607 13.953 7.185.02 14.395-1.527 20.606-4.146 1.548-.727 3.072-1.444 4.563-2.138a565.062 565.062 0 0 1 4.063-2.577c2.764-1.517 4.885-3.607 6.97-5.381 2.202-1.684 3.626-3.771 5.13-5.425.714-.85 1.42-1.63 2.018-2.389.513-.83.98-1.578 1.417-2.263 1.718-2.732 2.692-4.291 2.692-4.291"/><path id="rd96cG" d="M1494.634 243.44s-.908 1.6-2.489 4.413c-.4.697-.843 1.477-1.317 2.317-.447.594-.873 1.03-1.343 1.623-1.003 1.11-1.639 2.491-3.398 3.946-1.553 1.445-3.08 3.22-5.22 4.488a267.414 267.414 0 0 0-3.076 2.224c-1.288.674-2.602 1.37-3.936 2.076-4.178 1.995-10.162 3.73-15.886 3.971-11.71.778-23.318-4.166-29.942-10.037-1.8-1.319-3.084-2.941-4.423-4.165-1.118-1.425-2.2-2.599-2.968-3.657l-2.296-3.427 4.711-2.65 1.847 3.137c.623.986 1.515 2.056 2.427 3.397 1.132 1.143 2.164 2.68 3.716 3.936 5.58 5.601 15.866 10.816 26.87 10.763 5.357.116 11.171-1.237 15.18-2.804l2.321-1.09 1.14-.531.582-.27.277-.135.144-.061.038-.02c.553-.293-.719.384-.582.308l.053-.04a654.019 654.019 0 0 0 3.093-1.963c2.156-1.102 3.737-2.732 5.344-4.063 1.828-1.33 2.51-2.596 3.58-3.625.499-.551.966-.946 1.445-1.507.511-.82.987-1.578 1.416-2.263 1.718-2.732 2.692-4.291 2.692-4.291"/><path id="rd96cH" d="M1466.66 225.368s.545-.79 1.5-2.182c.243-.354.511-.738.804-1.152l1.586-1.891c1.14-1.36 2.49-2.877 3.865-4.102 2.73-2.766 6.442-5.415 10.633-7.886 4.279-2.316 9.155-4.249 14.26-5.432 5.12-1.102 10.393-1.444 15.348-1.176 4.931.469 9.556 1.3 13.325 2.683 1.925.57 3.601 1.318 5.092 1.983a29.943 29.943 0 0 1 3.77 1.88l3.192 1.827-3.047 4.468s-1-.666-2.76-1.83c-.878-.611-1.98-1.266-3.31-1.932-1.317-.694-2.791-1.475-4.514-2.118-3.366-1.496-7.557-2.535-12.116-3.283-4.583-.55-9.56-.56-14.478.157-4.905.8-9.695 2.327-13.981 4.29-4.195 2.128-8.003 4.468-10.852 7.002-1.445 1.111-2.85 2.524-4.055 3.79-.599.646-1.157 1.236-1.677 1.778-.321.395-.624.758-.896 1.081l-1.689 2.045"/><path id="rd96cI" d="M1476.89 233.101s.54-.79 1.5-2.17c.453-.717 1.069-1.527 1.865-2.411.756-.903 1.61-1.942 2.701-2.917 2.015-2.131 4.827-4.115 7.961-6.047a45.281 45.281 0 0 1 10.787-4.238c3.885-.864 7.903-1.164 11.682-1.009 3.75.353 7.292.903 10.166 1.953 1.475.405 2.759.979 3.903 1.476 1.16.467 2.134.946 2.903 1.412 1.572.872 2.464 1.371 2.464 1.371l-3.034 4.468-2.045-1.37c-.64-.48-1.46-.978-2.436-1.465-.97-.52-2.056-1.133-3.332-1.612-2.465-1.164-5.579-1.922-8.957-2.555-3.407-.436-7.115-.489-10.811-.01a43.064 43.064 0 0 0-10.51 3.096c-3.133 1.589-6.036 3.26-8.18 5.161-1.151.854-2.064 1.787-2.886 2.608-.855.8-1.544 1.549-2.053 2.224l-1.688 2.035"/><path id="rd96cJ" d="M1487.11 240.857s.545-.8 1.503-2.182l.78-1.133c.178-.196.364-.405.566-.635.38-.456.744-1.006 1.537-1.723 1.309-1.496 3.208-2.825 5.29-4.217 2.175-1.225 4.67-2.316 7.304-3.034 2.668-.634 5.415-.881 8.02-.85 2.568.226 5.03.497 7.011 1.224 1.029.239 1.908.645 2.71.976.813.291 1.502.604 2.035.936 1.116.581 1.747.913 1.747.913l-3.04 4.467-1.325-.913c-.4-.343-.933-.676-1.565-.998-.62-.353-1.31-.8-2.139-1.101-1.577-.84-3.61-1.319-5.802-1.829a29.555 29.555 0 0 0-7.144-.165c-2.448.342-4.848 1.019-7.032 1.89-2.081 1.05-4.084 2.067-5.517 3.326-.855.6-1.272 1.048-1.71 1.42-.24.19-.455.364-.665.522-.317.385-.615.748-.883 1.068-1.07 1.3-1.681 2.038-1.681 2.038"/><path id="rd96cK" d="M1771.826 716.331c-.222-.335-.459-.647-.695-.957.177-.009.35-.011.529-.022 4.68-.322 8.336-2.563 8.167-5.01-.17-2.445-4.098-4.171-8.768-3.85-.405.025-.794.074-1.175.13.08-.157.165-.314.243-.473 2.059-4.215 1.95-8.5-.252-9.582-2.198-1.076-5.652 1.466-7.716 5.68-.175.36-.33.72-.477 1.081-.092-.148-.183-.302-.285-.451-2.613-3.892-6.382-5.94-8.42-4.573-2.03 1.367-1.558 5.634 1.057 9.528.224.334.458.647.696.955-.174.009-.35.01-.528.023-4.675.32-8.333 2.562-8.167 5.006.17 2.448 4.095 4.173 8.77 3.85.404-.026.79-.07 1.176-.13-.078.158-.168.314-.242.477-2.065 4.213-1.949 8.5.25 9.579 2.202 1.078 5.656-1.465 7.713-5.678.18-.36.333-.721.478-1.085.094.155.188.306.288.451 2.614 3.897 6.38 5.947 8.414 4.58 2.035-1.373 1.562-5.637-1.056-9.529m-10.914-.115a4.61 4.61 0 0 1-2.102-6.153 4.586 4.586 0 0 1 6.139-2.11c2.274 1.114 3.215 3.878 2.104 6.156a4.584 4.584 0 0 1-6.14 2.107"/><path id="rd96cL" d="M1739.686 646.837c.2-5.377-3.312-10.779-9.107-13.188-.148-.061-.313-.115-.466-.176 4.032-4.764 4.71-11.141 2.1-15.82-5.045-1.862-11.264-.18-15.343 4.594-.112.125-.203.257-.311.388-3.277-5.316-9.135-7.93-14.388-6.89-3.324 4.224-3.655 10.661-.384 16.025.091.143.192.274.28.416-6.063 1.477-10.352 6.241-10.987 11.569 2.984 4.468 9 6.765 15.108 5.305.155-.037.319-.083.474-.131-.456 6.222 2.74 11.786 7.592 14.041 5.183-1.47 9.23-6.49 9.721-12.748.014-.166.017-.32.022-.5 5.778 2.368 12.047 1.04 15.69-2.885m-27.222-5.636c-2.137-1.82-2.388-5.032-.564-7.174a5.083 5.083 0 0 1 7.17-.558 5.091 5.091 0 0 1 .55 7.17 5.053 5.053 0 0 1-7.156.562"/><path id="rd96d" d="M1534.51 644.94h74.24v163.368h-74.24z"/><path id="rd96cN" d="M1606.38 897.968c-47.67-64.899-63.99-130.208-69.288-173.567-5.743-47.01-.12-79.141-.062-79.461l2.888.514c-.057.316-5.606 32.107.102 78.71 5.266 42.988 21.464 107.735 68.73 172.084z"/><path id="rd96cO" d="M1537.48 649.038s-3.957-8.59-1.954-17.684c.724-3.291 4.473-8.443 7.554-7.775 3.081.67 4.657 5.399 3.606 10.195-2.002 9.093-9.205 15.264-9.205 15.264"/><path id="rd96cP" d="M1536.62 665.165s1.65-8.266 7.847-14.065c2.243-2.104 7.636-4.14 9.5-2.17 1.861 1.961.52 6.233-2.747 9.293-6.2 5.798-14.6 6.942-14.6 6.942"/><path id="rd96cQ" d="M1537.6 692.595s1.98-7.492 7.96-11.493c2.172-1.445 7.204-2.043 8.791.304 1.587 2.348.114 6.095-3.038 8.2-5.984 4-13.713 2.99-13.713 2.99"/><path id="rd96cR" d="M1537.602 664.23s-7.686.942-13.602-3.077c-2.144-1.463-4.547-5.856-2.952-8.173 1.597-2.317 5.62-2.35 8.734-.228 5.913 4.023 7.82 11.478 7.82 11.478"/><path id="rd96cS" d="M1535.876 692.571s-8.877.386-16.104-4.529c-2.619-1.782-5.794-6.817-4.13-9.23 1.662-2.406 6.337-2.104 10.146.488 7.236 4.916 10.088 13.271 10.088 13.271"/><path id="rd96cT" d="M1537.184 721.833s-8.69 1.697-15.006-2.607c-2.289-1.556-4.65-6.557-2.685-9.414 1.967-2.855 6.475-3.19 9.801-.926 6.32 4.297 7.89 12.947 7.89 12.947"/><path id="rd96cU" d="M1539.31 721.106s.6-8.645 6.343-13.984c2.083-1.933 7.497-3.342 9.735-.957 2.248 2.388 1.42 6.78-1.61 9.588-5.745 5.34-14.468 5.353-14.468 5.353"/><path id="rd96cV" d="M1548.87 777.228s1.89-5.364 8.246-9.272c2.301-1.42 7.74-2.886 9.54-1.679 1.802 1.21.333 3.996-3.015 6.059-6.355 3.907-14.771 4.892-14.771 4.892"/><path id="rd96cW" d="M1541.833 751.639s-5.372.178-10.526-4.05c-1.87-1.536-4.56-5.799-3.907-7.79.66-1.995 3.568-1.664 6.287.566 5.154 4.23 8.146 11.274 8.146 11.274"/><path id="rd96cX" d="M1559.675 807.182s-2.54-8.823-.586-15.336c.706-2.36 3.772-4.846 6.05-2.892 2.273 1.958 3.222 6.55 2.192 9.977-1.95 6.513-7.656 8.25-7.656 8.25"/><path id="rd96cY" d="M1549.812 778.088s-10.675 1.552-18.837-1.496c-2.962-1.108-6.255-4.815-4.017-7.038 2.238-2.216 7.812-2.612 12.117-1.005 8.167 3.05 10.737 9.539 10.737 9.539"/><path id="rd96e" d="M1537.72 798.34h21.246v9.965h-21.246z"/><path id="rd96da" d="M1558.966 808.73s-10.119 1.449-17.389-1.585c-2.633-1.098-5.291-4.748-2.963-6.905 2.334-2.158 7.574-2.502 11.4-.909 7.274 3.031 8.952 9.4 8.952 9.4"/><path id="rd96db" d="M1626.966 664.642s-7.1 3.53-14.789 2.122c-2.787-.519-7.202-3.492-6.72-6.075.48-2.575 4.41-4.02 8.459-3.272 7.688 1.407 13.05 7.225 13.05 7.225"/><path id="rd96dc" d="M1573.98 739.877s.94-8.482 4.932-13.955c1.447-1.984 4.963-3.593 6.232-1.361 1.261 2.233.454 6.571-1.65 9.45-3.99 5.474-9.514 5.866-9.514 5.866"/><path id="rd96dd" d="M1543.14 753.208s.682-7.201 6.389-14.303c2.063-2.571 7.402-6.373 9.58-5.564 2.18.802 1.321 4.72-1.69 8.46-5.702 7.102-14.279 11.407-14.279 11.407"/><clipPath id="rd96J"><use xlink:href="#rd96a"/></clipPath><clipPath id="rd96ac"><use xlink:href="#rd96b"/></clipPath><clipPath id="rd96by"><use xlink:href="#rd96c"/></clipPath><clipPath id="rd96cM"><use xlink:href="#rd96d"/></clipPath><clipPath id="rd96cZ"><use xlink:href="#rd96e"/></clipPath></defs><g><g clip-path="url(#clip-C4C490B8-5330-44E3-A34C-5B63E746E460)" transform="translate(-1077 89)"><g><g><use fill="#fff" xlink:href="#rd96f"/></g><g><use fill="#ffabb4" xlink:href="#rd96g"/></g><g><use fill="#ffabb4" xlink:href="#rd96h"/></g><g><use fill="#ffabb4" xlink:href="#rd96i"/></g><g><use fill="#ffabb4" xlink:href="#rd96j"/></g><g><use fill="#ffabb4" xlink:href="#rd96k"/></g><g><use fill="#ffabb4" xlink:href="#rd96l"/></g><g><use fill="#ffabb4" xlink:href="#rd96m"/></g><g><use fill="#ffabb4" xlink:href="#rd96n"/></g><g><use fill="#ffabb4" xlink:href="#rd96o"/></g><g><use fill="#ffabb4" xlink:href="#rd96p"/></g><g><use fill="#ffabb4" xlink:href="#rd96q"/></g><g><use fill="#ffabb4" xlink:href="#rd96r"/></g><g><use fill="#ffabb4" xlink:href="#rd96s"/></g><g><use fill="#ffabb4" xlink:href="#rd96t"/></g><g><use fill="#ffabb4" xlink:href="#rd96u"/></g><g><use fill="#ffabb4" xlink:href="#rd96v"/></g><g><use fill="#ffabb4" xlink:href="#rd96w"/></g><g><use fill="#ffabb4" xlink:href="#rd96x"/></g><g><use fill="#ffabb4" xlink:href="#rd96y"/></g><g><use fill="#ffabb4" xlink:href="#rd96z"/></g><g><use fill="#ffabb4" xlink:href="#rd96A"/></g><g><use fill="#ffabb4" xlink:href="#rd96B"/></g><g><use fill="#ffabb4" xlink:href="#rd96C"/></g><g><use fill="#ffabb4" xlink:href="#rd96D"/></g><g><use fill="#ffabb4" xlink:href="#rd96E"/></g><g><use fill="#ffabb4" xlink:href="#rd96F"/></g><g><use fill="#ffabb4" xlink:href="#rd96G"/></g><g><use fill="#ffabb4" xlink:href="#rd96H"/></g><g><use fill="#ffabb4" xlink:href="#rd96I"/></g><g><g/><g clip-path="url(#rd96J)"><use fill="#ffabb4" xlink:href="#rd96K"/></g></g><g><use fill="#ffabb4" xlink:href="#rd96L"/></g><g><use fill="#0c1153" xlink:href="#rd96M"/></g><g><use fill="#fff" fill-opacity="0" stroke="#ffaab4" stroke-miterlimit="50" stroke-width="1.71" xlink:href="#rd96N"/></g><g><use fill="#fff" fill-opacity="0" stroke="#ffaab4" stroke-miterlimit="50" stroke-width="1.71" xlink:href="#rd96O"/></g><g><use fill="#fff" fill-opacity="0" stroke="#ffaab4" stroke-miterlimit="50" stroke-width="1.71" xlink:href="#rd96P"/></g><g><use fill="#fff" fill-opacity="0" stroke="#ffaab4" stroke-miterlimit="50" stroke-width="1.71" xlink:href="#rd96Q"/></g><g><use fill="#fff" fill-opacity="0" stroke="#ffaab4" stroke-miterlimit="50" stroke-width="1.71" xlink:href="#rd96R"/></g><g><use fill="#fff" fill-opacity="0" stroke="#ffaab4" stroke-miterlimit="50" stroke-width="1.71" xlink:href="#rd96S"/></g><g><use fill="#fff" fill-opacity="0" stroke="#ffaab4" stroke-miterlimit="50" stroke-width="1.71" xlink:href="#rd96T"/></g><g><use fill="#fff" fill-opacity="0" stroke="#ffaab4" stroke-miterlimit="50" stroke-width="1.71" xlink:href="#rd96U"/></g><g><use fill="#fff" fill-opacity="0" stroke="#ffaab4" stroke-miterlimit="50" stroke-width="1.71" xlink:href="#rd96V"/></g><g><use fill="#fff" fill-opacity="0" stroke="#ffaab4" stroke-miterlimit="50" stroke-width="1.71" xlink:href="#rd96W"/></g><g><use fill="#fff" fill-opacity="0" stroke="#ffaab4" stroke-miterlimit="50" stroke-width="1.71" xlink:href="#rd96X"/></g><g><use fill="#fff" fill-opacity="0" stroke="#ffaab4" stroke-miterlimit="50" stroke-width="1.71" xlink:href="#rd96Y"/></g><g><use fill="#fff" fill-opacity="0" stroke="#ffaab4" stroke-miterlimit="50" stroke-width="1.71" xlink:href="#rd96Z"/></g><g><use fill="#fff" fill-opacity="0" stroke="#ffaab4" stroke-miterlimit="50" stroke-width="1.71" xlink:href="#rd96aa"/></g><g><use fill="#fff" fill-opacity="0" stroke="#ffaab4" stroke-miterlimit="50" stroke-width="1.71" xlink:href="#rd96ab"/></g><g><g/><g clip-path="url(#rd96ac)"><use fill="#ff586b" xlink:href="#rd96ad"/></g></g><g><use fill="#ffabb4" xlink:href="#rd96ae"/></g><g><use fill="#ffabb4" xlink:href="#rd96af"/></g><g><use fill="#ffabb4" xlink:href="#rd96ag"/></g><g><use fill="#ffabb4" xlink:href="#rd96ah"/></g><g><use fill="#ffabb4" xlink:href="#rd96ai"/></g><g><use fill="#ffabb4" xlink:href="#rd96aj"/></g><g><use fill="#ffabb4" xlink:href="#rd96ak"/></g><g><use fill="#ffabb4" xlink:href="#rd96al"/></g><g><use fill="#0c1153" xlink:href="#rd96am"/></g><g><use fill="#fff" fill-opacity="0" stroke="#ffaab4" stroke-miterlimit="50" stroke-width="1.88" xlink:href="#rd96an"/></g><g><use fill="#fff" fill-opacity="0" stroke="#ffaab4" stroke-miterlimit="50" stroke-width="1.88" xlink:href="#rd96ao"/></g><g><use fill="#fff" fill-opacity="0" stroke="#ffaab4" stroke-miterlimit="50" stroke-width="1.88" xlink:href="#rd96ap"/></g><g><use fill="#fff" fill-opacity="0" stroke="#ffaab4" stroke-miterlimit="50" stroke-width="1.88" xlink:href="#rd96aq"/></g><g><use fill="#fff" fill-opacity="0" stroke="#ffaab4" stroke-miterlimit="50" stroke-width="1.88" xlink:href="#rd96ar"/></g><g><use fill="#fff" fill-opacity="0" stroke="#ffaab4" stroke-miterlimit="50" stroke-width="1.88" xlink:href="#rd96as"/></g><g><use fill="#fff" fill-opacity="0" stroke="#ffaab4" stroke-miterlimit="50" stroke-width="1.88" xlink:href="#rd96at"/></g><g><use fill="#fff" fill-opacity="0" stroke="#ffaab4" stroke-miterlimit="50" stroke-width="1.88" xlink:href="#rd96au"/></g><g><use fill="#fff" fill-opacity="0" stroke="#ffaab4" stroke-miterlimit="50" stroke-width="1.88" xlink:href="#rd96av"/></g><g><use fill="#fff" fill-opacity="0" stroke="#ffaab4" stroke-miterlimit="50" stroke-width="1.88" xlink:href="#rd96aw"/></g><g><use fill="#fff" fill-opacity="0" stroke="#ffaab4" stroke-miterlimit="50" stroke-width="1.88" xlink:href="#rd96ax"/></g><g><use fill="#ffabb4" xlink:href="#rd96ay"/></g><g><use fill="#fff" fill-opacity="0" stroke="#ff586b" stroke-miterlimit="50" stroke-width="2.28" xlink:href="#rd96az"/></g><g><use fill="#fff" fill-opacity="0" stroke="#ff586b" stroke-miterlimit="50" stroke-width="2.28" xlink:href="#rd96aA"/></g><g><use fill="#fff" fill-opacity="0" stroke="#ff586b" stroke-miterlimit="50" stroke-width="2.28" xlink:href="#rd96aB"/></g><g><use fill="#fff" fill-opacity="0" stroke="#ff586b" stroke-miterlimit="50" stroke-width="2.28" xlink:href="#rd96aC"/></g><g><use fill="#fff" fill-opacity="0" stroke="#ff586b" stroke-miterlimit="50" stroke-width="2.28" xlink:href="#rd96aD"/></g><g><use fill="#fff" fill-opacity="0" stroke="#ff586b" stroke-miterlimit="50" stroke-width="2.28" xlink:href="#rd96aE"/></g><g><use fill="#fff" xlink:href="#rd96aF"/></g><g><use fill="#fff" fill-opacity="0" stroke="#ffabb4" stroke-miterlimit="50" stroke-width="2.79" xlink:href="#rd96aG"/></g><g><use fill="#fff" fill-opacity="0" stroke="#ffabb4" stroke-miterlimit="50" stroke-width="2.79" xlink:href="#rd96aH"/></g><g><use fill="#fff" fill-opacity="0" stroke="#ffabb4" stroke-miterlimit="50" stroke-width="2.79" xlink:href="#rd96aI"/></g><g><use fill="#fff" fill-opacity="0" stroke="#ffabb4" stroke-miterlimit="50" stroke-width="2.79" xlink:href="#rd96aJ"/></g><g><use fill="#fff" fill-opacity="0" stroke="#ffabb4" stroke-miterlimit="50" stroke-width="2.79" xlink:href="#rd96aK"/></g><g><use fill="#fff" fill-opacity="0" stroke="#ffabb4" stroke-miterlimit="50" stroke-width="2.79" xlink:href="#rd96aL"/></g><g><use fill="#fff" fill-opacity="0" stroke="#ffabb4" stroke-miterlimit="50" stroke-width="2.79" xlink:href="#rd96aM"/></g><g><use fill="#fff" fill-opacity="0" stroke="#ffabb4" stroke-miterlimit="50" stroke-width="2.79" xlink:href="#rd96aN"/></g><g><use fill="#fff" fill-opacity="0" stroke="#ffabb4" stroke-miterlimit="50" stroke-width="2.79" xlink:href="#rd96aO"/></g><g><use fill="#fff" fill-opacity="0" stroke="#ffabb4" stroke-miterlimit="50" stroke-width="2.79" xlink:href="#rd96aP"/></g><g><use fill="#fff" fill-opacity="0" stroke="#ffabb4" stroke-miterlimit="50" stroke-width="2.79" xlink:href="#rd96aQ"/></g><g><use fill="#fff" xlink:href="#rd96aR"/></g><g><use fill="#fff" fill-opacity="0" stroke="#ffabb4" stroke-miterlimit="50" stroke-width="2.28" xlink:href="#rd96aS"/></g><g><use fill="#fff" fill-opacity="0" stroke="#ffabb4" stroke-miterlimit="50" stroke-width="2.28" xlink:href="#rd96aT"/></g><g><use fill="#fff" fill-opacity="0" stroke="#ffabb4" stroke-miterlimit="50" stroke-width="2.28" xlink:href="#rd96aU"/></g><g><use fill="#fff" fill-opacity="0" stroke="#ffabb4" stroke-miterlimit="50" stroke-width="2.28" xlink:href="#rd96aV"/></g><g><use fill="#fff" fill-opacity="0" stroke="#ffabb4" stroke-miterlimit="50" stroke-width="2.28" xlink:href="#rd96aW"/></g><g><use fill="#fff" fill-opacity="0" stroke="#ffabb4" stroke-miterlimit="50" stroke-width="2.28" xlink:href="#rd96aX"/></g><g><use fill="#fff" fill-opacity="0" stroke="#ffabb4" stroke-miterlimit="50" stroke-width="2.28" xlink:href="#rd96aY"/></g><g><use fill="#fff" fill-opacity="0" stroke="#ffabb4" stroke-miterlimit="50" stroke-width="2.28" xlink:href="#rd96aZ"/></g><g><use fill="#fff" fill-opacity="0" stroke="#ffabb4" stroke-miterlimit="50" stroke-width="2.28" xlink:href="#rd96ba"/></g><g><use fill="#fff" fill-opacity="0" stroke="#ffabb4" stroke-miterlimit="50" stroke-width="2.28" xlink:href="#rd96bb"/></g><g><use fill="#fff" fill-opacity="0" stroke="#ffabb4" stroke-miterlimit="50" stroke-width="2.28" xlink:href="#rd96bc"/></g><g><use fill="#fff" fill-opacity="0" stroke="#ffabb4" stroke-miterlimit="50" stroke-width="2.28" xlink:href="#rd96bd"/></g><g><use fill="#fff" fill-opacity="0" stroke="#ffabb4" stroke-miterlimit="50" stroke-width="2.28" xlink:href="#rd96be"/></g><g><use fill="#fff" fill-opacity="0" stroke="#ffabb4" stroke-miterlimit="50" stroke-width="2.28" xlink:href="#rd96bf"/></g><g><use fill="#fff" fill-opacity="0" stroke="#ffabb4" stroke-miterlimit="50" stroke-width="2.28" xlink:href="#rd96bg"/></g><g><use fill="#fff" fill-opacity="0" stroke="#ffabb4" stroke-miterlimit="50" stroke-width="2.28" xlink:href="#rd96bh"/></g><g><use fill="#fff" fill-opacity="0" stroke="#ffabb4" stroke-miterlimit="50" stroke-width="2.28" xlink:href="#rd96bi"/></g><g><use fill="#fff" fill-opacity="0" stroke="#ffabb4" stroke-miterlimit="50" stroke-width="2.28" xlink:href="#rd96bj"/></g><g><use fill="#fff" fill-opacity="0" stroke="#ffabb4" stroke-miterlimit="50" stroke-width="2.28" xlink:href="#rd96bk"/></g><g><use fill="#fff" fill-opacity="0" stroke="#ffabb4" stroke-miterlimit="50" stroke-width="2.28" xlink:href="#rd96bl"/></g><g><use fill="#fff" fill-opacity="0" stroke="#ffabb4" stroke-miterlimit="50" stroke-width="2.28" xlink:href="#rd96bm"/></g><g><use fill="#fff" fill-opacity="0" stroke="#ffabb4" stroke-miterlimit="50" stroke-width="2.28" xlink:href="#rd96bn"/></g><g><use fill="#fff" fill-opacity="0" stroke="#ffabb4" stroke-miterlimit="50" stroke-width="2.28" xlink:href="#rd96bo"/></g><g><use fill="#fff" fill-opacity="0" stroke="#ffabb4" stroke-miterlimit="50" stroke-width="2.28" xlink:href="#rd96bp"/></g><g><use fill="#fff" fill-opacity="0" stroke="#ffabb4" stroke-miterlimit="50" stroke-width="2.28" xlink:href="#rd96bq"/></g><g><use fill="#0c1153" xlink:href="#rd96br"/></g><g><use fill="#0c1153" xlink:href="#rd96bs"/></g><g><use fill="#0c1153" xlink:href="#rd96bt"/></g><g><use fill="#0c1153" xlink:href="#rd96bu"/></g><g><use fill="#0c1153" xlink:href="#rd96bv"/></g><g><use fill="#0c1153" xlink:href="#rd96bw"/></g><g><use fill="#0c1153" xlink:href="#rd96bx"/></g><g/><g clip-path="url(#rd96by)"><use fill="#fff" xlink:href="#rd96bz"/></g><g clip-path="url(#rd96by)"><use fill="#fff" fill-opacity="0" stroke="#b7b9bb" stroke-miterlimit="50" stroke-width="2" xlink:href="#rd96bA"/></g><g clip-path="url(#rd96by)"><use fill="#fff" xlink:href="#rd96bB"/></g><g clip-path="url(#rd96by)"><use fill="#fff" fill-opacity="0" stroke="#b7b9bb" stroke-miterlimit="50" stroke-width="2" xlink:href="#rd96bC"/></g><g clip-path="url(#rd96by)"><use fill="#fff" fill-opacity="0" stroke="#b7b9bb" stroke-miterlimit="50" stroke-width="2" xlink:href="#rd96bD"/></g><g clip-path="url(#rd96by)"><use fill="#fff" xlink:href="#rd96bE"/></g><g clip-path="url(#rd96by)"><use fill="#fff" fill-opacity="0" stroke="#b7b9bb" stroke-miterlimit="50" stroke-width="2" xlink:href="#rd96bF"/></g><g clip-path="url(#rd96by)"><use fill="#ff4965" xlink:href="#rd96bG"/></g><g clip-path="url(#rd96by)"><use fill="#ff4965" xlink:href="#rd96bH"/></g><g clip-path="url(#rd96by)"><use fill="#ff4965" xlink:href="#rd96bI"/></g><g clip-path="url(#rd96by)"><use fill="#ff4965" xlink:href="#rd96bJ"/></g><g clip-path="url(#rd96by)"><use fill="#fff" xlink:href="#rd96bK"/></g><g clip-path="url(#rd96by)"><use fill="#ff4965" xlink:href="#rd96bL"/></g><g clip-path="url(#rd96by)"><use fill="#ff4965" xlink:href="#rd96bM"/></g><g clip-path="url(#rd96by)"><use fill="#ffcfbb" xlink:href="#rd96bN"/></g><g clip-path="url(#rd96by)"><use fill="#0c1153" xlink:href="#rd96bO"/></g><g clip-path="url(#rd96by)"><use fill="#0c1153" xlink:href="#rd96bP"/></g><g clip-path="url(#rd96by)"><use fill="#0c1153" xlink:href="#rd96bQ"/></g><g clip-path="url(#rd96by)"><use fill="#ffcfbb" xlink:href="#rd96bR"/></g><g clip-path="url(#rd96by)"><use fill="#fff" xlink:href="#rd96bS"/></g><g clip-path="url(#rd96by)"><use fill="#fff" xlink:href="#rd96bT"/></g><g clip-path="url(#rd96by)"><use fill="#fff" xlink:href="#rd96bU"/></g><g clip-path="url(#rd96by)"><use fill="#fff" xlink:href="#rd96bV"/></g><g clip-path="url(#rd96by)"><use fill="#fff" xlink:href="#rd96bW"/></g><g clip-path="url(#rd96by)"><use fill="#fff" xlink:href="#rd96bX"/></g><g clip-path="url(#rd96by)"><use fill="#fff" xlink:href="#rd96bY"/></g><g clip-path="url(#rd96by)"><use fill="#fff" xlink:href="#rd96bZ"/></g><g clip-path="url(#rd96by)"><use fill="#fff" xlink:href="#rd96ca"/></g><g clip-path="url(#rd96by)"><use fill="#fff" xlink:href="#rd96cb"/></g><g clip-path="url(#rd96by)"><use fill="#fff" xlink:href="#rd96cc"/></g><g clip-path="url(#rd96by)"><use fill="#fff" xlink:href="#rd96cd"/></g><g clip-path="url(#rd96by)"><use fill="#ff4965" xlink:href="#rd96ce"/></g><g clip-path="url(#rd96by)"><use fill="#ff4965" xlink:href="#rd96cf"/></g><g clip-path="url(#rd96by)"><use fill="#ff4965" xlink:href="#rd96cg"/></g><g clip-path="url(#rd96by)"><use fill="#ff4965" xlink:href="#rd96ch"/></g><g clip-path="url(#rd96by)"><use fill="#fff" xlink:href="#rd96ci"/></g><g clip-path="url(#rd96by)"><use fill="#fff" xlink:href="#rd96cj"/></g><g clip-path="url(#rd96by)"><use fill="#fff" xlink:href="#rd96ck"/></g><g clip-path="url(#rd96by)"><use fill="#fff" xlink:href="#rd96cl"/></g><g clip-path="url(#rd96by)"><use fill="#fff" xlink:href="#rd96cm"/></g><g clip-path="url(#rd96by)"><use fill="#fff" xlink:href="#rd96cn"/></g><g clip-path="url(#rd96by)"><use fill="#fff" xlink:href="#rd96co"/></g><g clip-path="url(#rd96by)"><use fill="#fff" xlink:href="#rd96cp"/></g><g clip-path="url(#rd96by)"><use fill="#fff" xlink:href="#rd96cq"/></g><g clip-path="url(#rd96by)"><use fill="#fff" xlink:href="#rd96cr"/></g><g clip-path="url(#rd96by)"><use fill="#fff" xlink:href="#rd96cs"/></g><g clip-path="url(#rd96by)"><use fill="#fff" xlink:href="#rd96ct"/></g><g clip-path="url(#rd96by)"><use fill="#fff" xlink:href="#rd96cu"/></g><g clip-path="url(#rd96by)"><use fill="#fff" xlink:href="#rd96cv"/></g><g clip-path="url(#rd96by)"><use fill="#fff" xlink:href="#rd96cw"/></g><g clip-path="url(#rd96by)"><use fill="#fff" xlink:href="#rd96cx"/></g><g clip-path="url(#rd96by)"><use fill="#fff" xlink:href="#rd96cy"/></g><g clip-path="url(#rd96by)"><use fill="#fff" xlink:href="#rd96cz"/></g><g clip-path="url(#rd96by)"><use fill="#ff4965" xlink:href="#rd96cA"/></g><g clip-path="url(#rd96by)"><use fill="#fff" xlink:href="#rd96cB"/></g><g clip-path="url(#rd96by)"><use fill="#fff" xlink:href="#rd96cC"/></g><g clip-path="url(#rd96by)"><use fill="#fff" xlink:href="#rd96cD"/></g><g clip-path="url(#rd96by)"><use fill="#fff" xlink:href="#rd96cE"/></g><g clip-path="url(#rd96by)"><use fill="#fff" xlink:href="#rd96cF"/></g><g clip-path="url(#rd96by)"><use fill="#fff" xlink:href="#rd96cG"/></g><g clip-path="url(#rd96by)"><use fill="#fff" xlink:href="#rd96cH"/></g><g clip-path="url(#rd96by)"><use fill="#fff" xlink:href="#rd96cI"/></g><g clip-path="url(#rd96by)"><use fill="#fff" xlink:href="#rd96cJ"/></g><g clip-path="url(#rd96by)"><use fill="#fff" xlink:href="#rd96cK"/></g><g clip-path="url(#rd96by)"><use fill="#fff" xlink:href="#rd96cL"/></g></g><g><g><g/><g clip-path="url(#rd96cM)"><use fill="#0c1153" xlink:href="#rd96cN"/></g></g><g><use fill="#0c1153" xlink:href="#rd96cO"/></g><g><use fill="#0c1153" xlink:href="#rd96cP"/></g><g><use fill="#0c1153" xlink:href="#rd96cQ"/></g><g><use fill="#0c1153" xlink:href="#rd96cR"/></g><g><use fill="#0c1153" xlink:href="#rd96cS"/></g><g><use fill="#0c1153" xlink:href="#rd96cT"/></g><g><use fill="#0c1153" xlink:href="#rd96cU"/></g><g><use fill="#0c1153" xlink:href="#rd96cV"/></g><g><use fill="#0c1153" xlink:href="#rd96cW"/></g><g><use fill="#0c1153" xlink:href="#rd96cX"/></g><g><use fill="#0c1153" xlink:href="#rd96cY"/></g><g><g/><g clip-path="url(#rd96cZ)"><use fill="#0c1153" xlink:href="#rd96da"/></g></g><g><use fill="#0c1153" xlink:href="#rd96db"/></g><g><use fill="#0c1153" xlink:href="#rd96dc"/></g><g><use fill="#0c1153" xlink:href="#rd96dd"/></g></g></g></g></svg>