<?xml version="1.0" encoding="UTF-8"?>
<svg width="450px" height="350px" viewBox="0 0 450 350" version="1.1" xmlns="http://www.w3.org/2000/svg" xmlns:xlink="http://www.w3.org/1999/xlink">
    <!-- Generator: Sketch 52.2 (67145) - http://www.bohemiancoding.com/sketch -->
    <title>Group 199</title>
    <desc>Created with Sketch.</desc>
    <defs>
        <polygon id="path-1" points="0 0.688909051 128.237055 0.688909051 128.237055 156.788211 0 156.788211"></polygon>
        <path d="M73.3396556,0.5957 L42.6234702,0.5957 L23.1700397,0.5957 L23.1700397,36.0233667 C16.6056689,40.2262333 8.81907285,42.6949 0.440953642,42.6949 C0.440953642,44.2742333 1.72386755,45.5553333 3.30715232,45.5553333 L23.1700397,45.5553333 L92.7930861,45.5553333 L112.655974,45.5553333 C114.239258,45.5553333 115.52294,44.2742333 115.52294,42.6949 C107.144053,42.6949 99.357457,40.2262333 92.7930861,36.0233667 L92.7930861,0.5957 L73.3396556,0.5957 Z" id="path-3"></path>
        <linearGradient x1="50.2964476%" y1="98.0033873%" x2="33.1605884%" y2="-137.078342%" id="linearGradient-5">
            <stop stop-color="#F4F4F9" offset="0%"></stop>
            <stop stop-color="#A7B6FF" offset="100%"></stop>
        </linearGradient>
        <linearGradient x1="48.1707261%" y1="200.95712%" x2="51.443883%" y2="-69.1711394%" id="linearGradient-6">
            <stop stop-color="#2A67B5" offset="0%"></stop>
            <stop stop-color="#5754CC" offset="100%"></stop>
        </linearGradient>
        <path d="M17.9206624,0.355087719 C8.40105627,0.355087719 0.683601023,8.09368421 0.683601023,17.6393684 L0.683601023,175.93207 L300.278678,175.93207 L300.278678,17.6393684 C300.278678,8.09368421 292.561992,0.355087719 283.042386,0.355087719 L17.9206624,0.355087719 Z" id="path-7"></path>
        <linearGradient x1="122.160632%" y1="138.111603%" x2="-19.6712069%" y2="-30.4579925%" id="linearGradient-9">
            <stop stop-color="#5D369C" offset="0%"></stop>
            <stop stop-color="#2A4B9E" offset="100%"></stop>
        </linearGradient>
        <path d="M0.683601023,0.709333333 L0.683601023,2.92988889 C0.683601023,12.5478889 8.40105627,20.3451111 17.9206624,20.3451111 L283.042386,20.3451111 C292.561992,20.3451111 300.278678,12.5478889 300.278678,2.92988889 L300.278678,0.709333333 L0.683601023,0.709333333 Z" id="path-10"></path>
        <linearGradient x1="-8.48268879%" y1="-56.9015048%" x2="151.04446%" y2="221.778102%" id="linearGradient-12">
            <stop stop-color="#F4F4F9" offset="0%"></stop>
            <stop stop-color="#A7B6FF" offset="100%"></stop>
        </linearGradient>
        <linearGradient x1="1.45191914e-05%" y1="50.0001164%" x2="99.9997591%" y2="50.0001164%" id="linearGradient-13">
            <stop stop-color="#FFEFA8" offset="0%"></stop>
            <stop stop-color="#FFC664" offset="100%"></stop>
        </linearGradient>
        <linearGradient x1="103.964921%" y1="36.9004142%" x2="-1.60684503%" y2="62.5370167%" id="linearGradient-14">
            <stop stop-color="#FF8A4B" offset="0%"></stop>
            <stop stop-color="#FFA864" offset="100%"></stop>
        </linearGradient>
        <linearGradient x1="104.080662%" y1="36.8656355%" x2="-1.49110405%" y2="62.5043119%" id="linearGradient-15">
            <stop stop-color="#FF8A4B" offset="0%"></stop>
            <stop stop-color="#FFA864" offset="100%"></stop>
        </linearGradient>
        <linearGradient x1="104.196403%" y1="36.8447925%" x2="-1.3753631%" y2="62.483469%" id="linearGradient-16">
            <stop stop-color="#FF8A4B" offset="0%"></stop>
            <stop stop-color="#FFA864" offset="100%"></stop>
        </linearGradient>
        <linearGradient x1="104.312144%" y1="36.8158587%" x2="-1.25962215%" y2="62.4545352%" id="linearGradient-17">
            <stop stop-color="#FF8A4B" offset="0%"></stop>
            <stop stop-color="#FFA864" offset="100%"></stop>
        </linearGradient>
        <linearGradient x1="104.427885%" y1="36.7869258%" x2="-1.1438812%" y2="62.4256023%" id="linearGradient-18">
            <stop stop-color="#FF8A4B" offset="0%"></stop>
            <stop stop-color="#FFA864" offset="100%"></stop>
        </linearGradient>
        <path d="M0.763802817,0.7234375 L0.763802817,24.578125 L54.5538028,24.578125 C54.5538028,24.578125 51.466831,0.7234375 39.9075352,0.7234375 L0.763802817,0.7234375 Z" id="path-19"></path>
        <linearGradient x1="50.0000686%" y1="49.9996777%" x2="121.821389%" y2="49.9996777%" id="linearGradient-21">
            <stop stop-color="#A8A7CD" offset="0%"></stop>
            <stop stop-color="#FFFFFF" offset="100%"></stop>
        </linearGradient>
        <path d="M29.572707,3.55758996 C16.0386884,11.2009038 0.598372093,39.6115816 0.655506977,103.066176 C0.71495814,167.784134 8.90454884,183.93841 8.90454884,183.93841 L141.390307,183.93841 C141.390307,183.93841 132.101256,153.034109 134.832921,95.7554477 C138.640884,15.8948285 165.627079,0.712903766 165.627079,0.712903766 C165.627079,0.712903766 135.608874,0.101623431 103.719888,0.101623431 C70.1446512,0.101623431 34.4948,0.778343096 29.572707,3.55758996" id="path-22"></path>
        <linearGradient x1="49.7745592%" y1="174.103681%" x2="50.0521708%" y2="-5.60214052%" id="linearGradient-24">
            <stop stop-color="#F4F4F9" offset="0%"></stop>
            <stop stop-color="#BCCDFF" offset="100%"></stop>
        </linearGradient>
        <path d="M97.6883019,4.67905435 C93.8551887,5.81659783 0.535320755,48.0623696 0.232075472,50.0488261 C-0.0719433962,52.0352826 6.78666038,70.275337 9.80054717,70.5037717 C14.9131698,70.890413 103.694415,26.2152065 106.260396,24.9819674 C107.694623,24.2928043 114.592679,17.107913 120.468057,10.5743696 C115.370132,7.44265217 125.951226,2.50815217 121.503887,0.89598913 C120.228245,0.86126087 119.139811,0.732380435 118.189075,0.474619565 C110.870189,1.6113913 101.889642,3.43115217 97.6883019,4.67905435" id="path-25"></path>
        <linearGradient x1="-0.000147150726%" y1="49.9995891%" x2="99.9999866%" y2="49.9995891%" id="linearGradient-27">
            <stop stop-color="#FFEFA8" offset="0%"></stop>
            <stop stop-color="#FFC664" offset="100%"></stop>
        </linearGradient>
        <path d="M0.489479167,50.5564932 C1.937875,53.3549589 3.367,55.4307945 4.36985417,55.5067397 C9.46429167,55.8910685 97.92975,11.4830685 100.486604,10.2572055 C101.591208,9.72712329 105.9495,5.33917808 110.573729,0.375123288 C72.9323958,15.082411 35.9370208,31.1697534 0.489479167,50.5564932" id="path-28"></path>
        <linearGradient x1="-9.99915973e-05%" y1="49.9998796%" x2="100.000325%" y2="49.9998796%" id="linearGradient-30">
            <stop stop-color="#FF8A4B" offset="0%"></stop>
            <stop stop-color="#FFA864" offset="100%"></stop>
        </linearGradient>
        <path d="M97.5404138,3.88394521 C93.7131034,5.01468493 0.534510345,47.0077808 0.231724138,48.9823562 C0.123586207,49.6873425 0.929986207,52.4528219 2.14422069,55.7230685 C40.2682483,40.7127671 76.9617655,22.6569863 111.844745,0.746410959 C106.20149,1.77282192 100.600717,2.97873973 97.5404138,3.88394521" id="path-31"></path>
        <linearGradient x1="-0.000190332213%" y1="50.0004468%" x2="100.000103%" y2="50.0004468%" id="linearGradient-33">
            <stop stop-color="#FF8A4B" offset="0%"></stop>
            <stop stop-color="#FFA864" offset="100%"></stop>
        </linearGradient>
        <path d="M110.05528,1.53197647 C73.4816815,23.2444235 38.212879,38.7722824 0.598063694,57.1785176 C1.64775796,60.0483529 3.00110828,63.2994353 4.34289809,65.9254588 C40.2729618,47.3406353 77.2265159,31.7343529 114.408197,15.1326353 C115.767713,13.6565647 117.148809,12.1323529 118.477497,10.6392 C113.39858,7.48828235 123.940223,2.52352941 119.509465,0.901482353 C118.23858,0.866541176 117.154204,0.736870588 116.207013,0.477529412 C114.23479,0.787341176 112.142338,1.14684706 110.05528,1.53197647" id="path-34"></path>
        <linearGradient x1="-0.000479459825%" y1="49.9997178%" x2="99.9999913%" y2="49.9997178%" id="linearGradient-36">
            <stop stop-color="#FFEFA8" offset="0%"></stop>
            <stop stop-color="#FFC664" offset="100%"></stop>
        </linearGradient>
        <path d="M0.138909091,0.7784 C1.016,3.1304 1.49381818,5.5472 2.72363636,7.2032 C5.39636364,3.7912 7.31054545,1.1448 7.36072727,0.604 C7.38690909,0.3272 6.84145455,0.2056 5.87709091,0.2056 C4.59054545,0.2056 2.55854545,0.4224 0.138909091,0.7784" id="path-37"></path>
        <linearGradient x1="-0.00343763748%" y1="50.0009683%" x2="100.001277%" y2="50.0009683%" id="linearGradient-39">
            <stop stop-color="#FFA56B" offset="0%"></stop>
            <stop stop-color="#E14D82" offset="100%"></stop>
        </linearGradient>
        <path d="M0.52364,4.490625 C-0.285,5.46171875 6.10052,23.5296875 9.10936,24.6539062 C10.40668,25.1390625 17.9436,21.35 18.24836,20.2703125 C18.55312,19.190625 9.4126,0.8078125 8.54392,0.64296875 C8.52112,0.6390625 8.49376,0.63671875 8.46412,0.63671875 C7.3454,0.63671875 1.31024,3.5453125 0.52364,4.490625" id="path-40"></path>
        <linearGradient x1="-0.00150916695%" y1="50.0012055%" x2="99.9997937%" y2="50.0012055%" id="linearGradient-42">
            <stop stop-color="#FFA56B" offset="0%"></stop>
            <stop stop-color="#E14D82" offset="100%"></stop>
        </linearGradient>
        <path d="M2.27583333,0.23775 C-0.999166667,0.8685 1.96416667,11.67825 1.96416667,11.67825 L4.22666667,11.67825 C4.22666667,11.67825 4.30416667,3.396 4.22666667,2.41275 C4.1525,1.485 3.23,0.22425 2.41833333,0.22425 C2.37,0.22425 2.32333333,0.22875 2.27583333,0.23775" id="path-43"></path>
        <linearGradient x1="0.00941087535%" y1="49.9958872%" x2="99.9865076%" y2="49.9958872%" id="linearGradient-45">
            <stop stop-color="#FFEFA8" offset="0%"></stop>
            <stop stop-color="#FFC664" offset="100%"></stop>
        </linearGradient>
        <path d="M1.024,0.324333333 C0.2208,0.605888889 1.592,4.57255556 2.3888,5.20022222 C3.1872,5.82944444 3.8312,6.83822222 3.8312,6.83822222 C3.8312,6.83822222 2.0464,0.312666667 1.0912,0.312666667 C1.068,0.312666667 1.0456,0.316555556 1.024,0.324333333" id="path-46"></path>
        <linearGradient x1="-0.0012838981%" y1="50.0005471%" x2="100.00671%" y2="50.0005471%" id="linearGradient-48">
            <stop stop-color="#FFEFA8" offset="0%"></stop>
            <stop stop-color="#FFC664" offset="100%"></stop>
        </linearGradient>
        <path d="M1.3915,5.25222727 C1.31764286,5.36118182 0.179142857,11.7245909 0.179142857,11.7245909 L4.59014286,16.2442727 L6.90957143,16.2442727 L7.64107143,9.62740909 C7.64107143,9.62740909 9.99428571,9.08495455 10.2512143,6.08368182 C10.5089286,3.08240909 3.56085714,0.516181818 3.56085714,0.516181818 C3.56085714,0.516181818 1.46535714,5.14327273 1.3915,5.25222727" id="path-49"></path>
        <linearGradient x1="-0.00811356244%" y1="49.9973823%" x2="100.004924%" y2="49.9973823%" id="linearGradient-51">
            <stop stop-color="#FFEFA8" offset="0%"></stop>
            <stop stop-color="#FFC664" offset="100%"></stop>
        </linearGradient>
        <path d="M17.0881176,2.5757541 C13.6538235,1.81836066 11.882,0.574786885 11.882,0.574786885 L5.65652941,14.0946066 L7.48111765,16.4130164 C7.48111765,16.4130164 8.55476471,21.3403115 4.68994118,27.397918 C2.91352941,30.1824754 -3.46794118,42.864 4.79776471,45.0267705 C13.0634706,47.1903115 21.3284118,48.7043279 23.7976471,43.1876066 C26.2661176,37.6724262 26.2661176,22.8550984 25.2643529,16.2211639 C24.9531176,14.1624098 22.1321176,0.857557377 20.7915882,0.574786885 C20.7915882,0.574786885 20.5239412,3.33237705 17.0881176,2.5757541" id="path-52"></path>
        <linearGradient x1="-0.000168105485%" y1="50.0000896%" x2="100.000598%" y2="50.0000896%" id="linearGradient-54">
            <stop stop-color="#6090E1" offset="0%"></stop>
            <stop stop-color="#5762CC" offset="100%"></stop>
        </linearGradient>
        <path d="M11.1705,3.83736364 C9.51578571,6.94604545 9.69964286,10.3089545 9.00114286,10.8150909 C8.30264286,11.3212273 2.7885,14.1416818 1.42764286,18.9503636 C0.0675714286,23.7590455 -0.00628571429,31.2436818 4.4055,32.9073636 C8.81728571,34.5695 17.1631429,32.4012273 18.854,27.5191364 C20.5456429,22.6385909 18.2309286,15.2690909 17.7516429,12.4424545 C17.2715714,9.61504545 17.5677857,8.57263636 17.8977857,8.42890909 C18.2293571,8.28440909 23.7435,6.51254545 21.3572857,2.21 C20.7499286,1.11504545 19.3725714,0.6375 17.8074286,0.6375 C15.2522857,0.6375 12.1966429,1.90863636 11.1705,3.83736364" id="path-55"></path>
        <linearGradient x1="0.000548911945%" y1="50.0004782%" x2="100.000782%" y2="50.0004782%" id="linearGradient-57">
            <stop stop-color="#FFA56B" offset="0%"></stop>
            <stop stop-color="#E14D82" offset="100%"></stop>
        </linearGradient>
        <path d="M0.10275,2.8184 C0.31425,4.6896 1.5765,5.1392 1.7175,5.4096 C1.74375,5.4616 1.9455,6.164 2.2605,7.272 C3.42375,7.0856 4.503,6.7112 5.556,5.96 C5.3505,5.2656 5.22675,4.84 5.22675,4.84 C5.22675,4.84 5.862,3.8704 5.74125,2.2208 C5.6325,0.7224 4.57725,0.6568 2.68275,0.6568 C0.78675,0.6568 -0.10725,0.9464 0.10275,2.8184" id="path-58"></path>
        <linearGradient x1="-0.00137583053%" y1="49.9917608%" x2="100.003725%" y2="49.9917608%" id="linearGradient-60">
            <stop stop-color="#FFEFA8" offset="0%"></stop>
            <stop stop-color="#FFC664" offset="100%"></stop>
        </linearGradient>
        <path d="M18.5974444,0.654171429 C12.3713333,0.661114286 9.80233333,7.1712 9.80233333,7.1712 C9.80233333,7.1712 5.20255556,5.94848571 1.967,11.1672 C-2.22055556,17.9202857 2.19566667,26.5008857 4.69233333,26.4306857 C19.7656667,26.0087143 31.4805556,26.5471714 33.5245556,21.3940286 C36.9934444,12.6514286 28.539,9.70534286 27.7721111,9.70534286 C27.0052222,9.70534286 26.2398889,0.6534 18.6091111,0.6534 C18.6052222,0.6534 18.6013333,0.6534 18.5974444,0.654171429" id="path-61"></path>
        <linearGradient x1="-0.00126984198%" y1="50.0009182%" x2="100.000136%" y2="50.0009182%" id="linearGradient-63">
            <stop stop-color="#FFA56B" offset="0%"></stop>
            <stop stop-color="#E14D82" offset="100%"></stop>
        </linearGradient>
        <path d="M13.3550847,3.03634286 C11.0455932,4.8816 -0.180762712,15.0143143 0.491949153,16.2941143 C1.16466102,17.5739143 5.04762712,21.7805143 5.91101695,21.0484286 C6.77440678,20.3171143 11.0181356,15.4038857 11.0181356,15.4038857 C11.0181356,15.4038857 7.19618644,46.0998 7.68661017,46.9221429 C8.17627119,47.7460286 23.7111864,53.4137143 23.7111864,53.4137143 L34.930678,46.7400857 C34.930678,46.7400857 32.6661864,16.5402 32.2337288,15.4424571 C31.8020339,14.3454857 38.3834746,19.5858 39.1377966,19.6768286 C39.8928814,19.7686286 44.7475424,16.2941143 44.9633898,15.1979143 C45.1792373,14.1001714 32.664661,2.67145714 29.6450847,1.39165714 C28.5231356,0.916457143 26.4394068,0.661114286 24.0963559,0.661114286 C20.1272034,0.660342857 15.4113559,1.39397143 13.3550847,3.03634286" id="path-64"></path>
        <linearGradient x1="-0.000780477218%" y1="49.9998557%" x2="99.9997241%" y2="49.9998557%" id="linearGradient-66">
            <stop stop-color="#6090E1" offset="0%"></stop>
            <stop stop-color="#5762CC" offset="100%"></stop>
        </linearGradient>
        <path d="M0.640888889,10.4550333 C0.576333333,10.8245667 9.51844444,22.3514 12.1372222,22.5622333 C14.7567778,22.7738333 13.16,19.5032333 12.8403333,18.7649333 C12.5206667,18.0258667 5.43044444,10.5876667 5.62333333,10.1652333 C5.81466667,9.7428 11.2435556,3.88623333 11.6907778,3.5167 C12.1372222,3.14793333 8.49722222,0.193966667 7.34766667,0.193966667 C7.34766667,0.193966667 0.704666667,10.0862667 0.640888889,10.4550333" id="path-67"></path>
        <linearGradient x1="-0.0055219961%" y1="50.0006294%" x2="100.001313%" y2="50.0006294%" id="linearGradient-69">
            <stop stop-color="#FFEFA8" offset="0%"></stop>
            <stop stop-color="#FFC664" offset="100%"></stop>
        </linearGradient>
        <path d="M2.36833333,3.67156667 C2.81477778,4.0411 8.24444444,9.8969 8.43655556,10.3185667 C8.62788889,10.741 1.53688889,18.1799667 1.21877778,18.9182667 C0.898333333,19.6565667 -0.697666667,22.9279333 1.92033333,22.7171 C4.53988889,22.5062667 13.4827778,10.8989333 13.419,10.5286333 C13.3544444,10.1598667 6.71144444,0.3473 6.71144444,0.3473 C5.56111111,0.3473 1.92033333,3.30203333 2.36833333,3.67156667" id="path-70"></path>
        <linearGradient x1="0.00105110269%" y1="50.0000975%" x2="99.9973057%" y2="50.0000975%" id="linearGradient-72">
            <stop stop-color="#FFEFA8" offset="0%"></stop>
            <stop stop-color="#FFC664" offset="100%"></stop>
        </linearGradient>
        <path d="M0.636235294,6.48164706 C0.636235294,9.89376471 3.40294118,12.6604706 6.81429412,12.6604706 C10.2271765,12.6604706 12.9931176,9.89376471 12.9931176,6.48164706 C12.9931176,3.07029412 10.2271765,0.304352941 6.81429412,0.304352941 C3.40294118,0.304352941 0.636235294,3.07029412 0.636235294,6.48164706" id="path-73"></path>
        <linearGradient x1="0.000948697321%" y1="49.9979063%" x2="100.001565%" y2="49.9979063%" id="linearGradient-75">
            <stop stop-color="#FFEFA8" offset="0%"></stop>
            <stop stop-color="#FFC664" offset="100%"></stop>
        </linearGradient>
        <path d="M2.15238095,3.40875 C-0.288761905,5.33475 0.441904762,9.69075 0.441904762,9.69075 C0.441904762,9.69075 0.776380952,10.63575 2.6872381,10.389 C4.59885714,10.14225 4.28342857,6.711 4.28342857,6.711 C4.28342857,6.711 6.18971429,10.52025 9.86361905,11.427 C13.2967619,12.273 15.3706667,11.427 15.2822857,8.5965 C15.1885714,5.62725 13.319619,0.468 8.83428571,0.46875 C7.04228571,0.46875 4.8327619,1.29225 2.15238095,3.40875" id="path-76"></path>
        <linearGradient x1="0.00217621091%" y1="49.9996306%" x2="99.9977851%" y2="49.9996306%" id="linearGradient-78">
            <stop stop-color="#FFA56B" offset="0%"></stop>
            <stop stop-color="#E14D82" offset="100%"></stop>
        </linearGradient>
        <path d="M1.059125,1.99277419 C0.2104375,2.8443871 0.467895833,22.3393548 1.059125,22.848 C1.65035417,23.355871 36.0033125,24.0340645 36.6785625,23.1863226 C37.3538125,22.3393548 36.4249583,0.976258065 35.7497083,0.298064516 C35.5677917,0.115354839 33.0965,0.0247741935 29.5498958,0.0247741935 C19.9206458,0.0247741935 2.35489583,0.691354839 1.059125,1.99277419" id="path-79"></path>
        <linearGradient x1="19.9965842%" y1="-31.3969602%" x2="74.3279759%" y2="118.452336%" id="linearGradient-81">
            <stop stop-color="#F4F4F9" offset="0%"></stop>
            <stop stop-color="#BCCDFF" offset="100%"></stop>
        </linearGradient>
        <path d="M6.66153846,1.56 C-12.8230769,7.79235294 18.8423077,38.2536471 23.0284615,38.3064118 C23.7746154,38.3155882 29.0907692,38.3821176 29.0907692,38.3821176 C37.3707692,31.2825882 57.3446154,4.55305882 46.8946154,1.90947059 C27.7015385,-2.94488235 24.3046154,14.2449412 24.3046154,14.2449412 C24.3046154,14.2449412 25.5830769,4.94611765 19.4646154,1.57758824 C18.3123077,0.942882353 16.1007692,0.659176471 13.7323077,0.659176471 C11.1823077,0.659176471 8.45076923,0.988 6.66153846,1.56" id="path-82"></path>
        <linearGradient x1="41.0267419%" y1="-62.8193189%" x2="58.3481719%" y2="94.4698131%" id="linearGradient-84">
            <stop stop-color="#FFA56B" offset="0%"></stop>
            <stop stop-color="#E14D82" offset="100%"></stop>
        </linearGradient>
        <path d="M6.40318966,0.8853 C-13.2486207,7.24308 18.6889655,38.31282 22.9119828,38.36586 C27.1342241,38.41968 53.2986207,9.00276 42.1789655,1.78698 C31.6637069,-5.0349 24.1991379,13.82316 24.1991379,13.82316 C24.1991379,13.82316 19.8651724,0.27378 10.0962931,0.273 C8.94103448,0.273 7.7112931,0.46254 6.40318966,0.8853" id="path-85"></path>
        <linearGradient x1="36.8226598%" y1="-17.0635405%" x2="101.460218%" y2="171.385061%" id="linearGradient-87">
            <stop stop-color="#FFA56B" offset="0%"></stop>
            <stop stop-color="#E14D82" offset="100%"></stop>
        </linearGradient>
    </defs>
    <g id="Page-1" stroke="none" stroke-width="1" fill="none" fill-rule="evenodd">
        <g id="Group-199">
            <g id="Group-60">
                <path d="M406.923904,163.369519 C407.0025,163.122985 414.741113,138.549687 417.650702,126.583533 C427.785719,84.9069234 443.555753,75.2797623 443.713716,75.1873119 L443.091113,74.1133472 C442.426901,74.4977865 426.727757,84.0016806 416.444024,126.290003 C413.545223,138.217636 405.817397,162.750102 405.741113,162.996636 L406.923904,163.369519 Z" id="Fill-1" fill="#E3E8FF"></path>
                <path d="M447.421284,66.6585377 C457.215719,71.690147 434.02762,85.4868181 434.02762,85.4868181 C434.02762,85.4868181 434.498425,60.0190631 447.421284,66.6585377" id="Fill-3" fill="#E3E8FF"></path>
                <path d="M441.901849,98.8995892 C443.160925,106.4497 425.838236,99.2470483 425.838236,99.2470483 C425.838236,99.2470483 440.241318,88.9372956 441.901849,98.8995892" id="Fill-5" fill="#E3E8FF"></path>
                <path d="M418.385034,85.9265735 C424.171079,80.9142247 427.059863,99.4474344 427.059863,99.4474344 C427.059863,99.4474344 410.750445,92.5390834 418.385034,85.9265735" id="Fill-7" fill="#E3E8FF"></path>
                <path d="M428.820565,140.117722 C430.07964,147.668603 412.756952,140.465181 412.756952,140.465181 C412.756952,140.465181 427.160034,130.155428 428.820565,140.117722" id="Fill-9" fill="#E3E8FF"></path>
                <path d="M405.303827,127.144783 C411.090642,122.132434 413.979426,140.665644 413.979426,140.665644 C413.979426,140.665644 397.669238,133.757293 405.303827,127.144783" id="Fill-11" fill="#E3E8FF"></path>
                <path d="M441.422491,119.48797 C444.056224,130.497263 417.762046,121.652848 417.762046,121.652848 C417.762046,121.652848 437.94732,104.962482 441.422491,119.48797" id="Fill-13" fill="#E3E8FF"></path>
                <path d="M406.464118,105.49931 C413.296567,98.6749349 418.589461,121.73667 418.589461,121.73667 C418.589461,121.73667 397.448707,114.503972 406.464118,105.49931" id="Fill-15" fill="#E3E8FF"></path>
                <path d="M418.985522,223.511156 C378.628074,206.612006 349.634666,313.287362 353.009666,319.471518 C358.166173,310.668706 365.751447,297.751854 376.871995,278.868874 C395.54083,247.169196 410.256755,231.197631 418.985522,223.511156" id="Fill-17" fill="#E3E8FF"></path>
                <path d="M378.276627,279.693839 C367.421918,298.125353 359.941438,310.860386 354.794178,319.643938 C368.247175,315.770269 451.323801,251.197565 429.598973,230.719817 C426.566866,227.862331 423.585616,225.759857 420.660616,224.29683 C412.117551,231.725214 397.143493,247.656717 378.276627,279.693839" id="Fill-19" fill="#C0C8F9"></path>
                <path d="M354.794486,319.643553 C359.941747,310.860772 367.422226,298.124968 378.276935,279.693454 C397.143801,247.657103 412.11786,231.725599 420.660925,224.296445 C420.099966,224.016012 419.540548,223.744054 418.985753,223.511387 C410.256986,231.197092 395.541062,247.169427 376.871455,278.869105 C365.751678,297.752085 358.166404,310.668937 353.009897,319.470979 C353.053818,319.552643 353.099281,319.631997 353.15476,319.678992 C353.425223,319.901643 353.993116,319.874679 354.794486,319.643553" id="Fill-21" fill="#FFFFFF"></path>
                <path d="M348.676798,328.229492 C370.764555,315.685523 406.937158,298.204706 419.701284,292.102214 C400.385188,261.958013 352.368493,318.871978 348.676798,328.229492" id="Fill-23" fill="#E3E8FF"></path>
                <path d="M421.44018,295.200764 C421.099598,294.502764 420.743604,293.847908 420.379906,293.218475 C407.638125,299.30864 370.866807,317.071431 348.824512,329.637742 C354.879478,332.730206 435.532731,324.101508 421.44018,295.200764" id="Fill-25" fill="#C0C8F9"></path>
                <path d="M348.486396,329.359543 C348.536481,329.461239 348.658228,329.552919 348.823896,329.637665 C370.866961,317.071354 407.638279,299.308563 420.38006,293.218398 C420.158142,292.833958 419.931601,292.461846 419.701207,292.10283 C406.93708,298.205323 370.764478,315.685369 348.676721,328.229338 C348.46405,328.770173 348.389307,329.162316 348.486396,329.359543" id="Fill-27" fill="#FFFFFF"></path>
                <path d="M175.275308,137.112085 C175.16589,136.767707 164.342774,102.400837 160.27351,85.6657865 C146.100051,27.3797049 124.044658,13.9166254 123.824281,13.7864245 L124.695,12.2856475 C125.62351,12.8226298 147.578733,26.1139057 161.96024,85.255153 C166.015634,101.936274 176.821798,136.246133 176.929675,136.590511 L175.275308,137.112085 Z" id="Fill-29" fill="#E3E8FF"></path>
                <path d="M118.638878,1.85909912 C104.941618,8.89688057 137.370128,28.1912647 137.370128,28.1912647 C137.370128,28.1912647 136.71131,-7.42676623 118.638878,1.85909912" id="Fill-31" fill="#E3E8FF"></path>
                <path d="M126.35792,46.9488976 C124.597217,57.5082662 148.822474,47.4350322 148.822474,47.4350322 C148.822474,47.4350322 128.681122,33.0166327 126.35792,46.9488976" id="Fill-33" fill="#E3E8FF"></path>
                <path d="M159.247295,28.8056742 C151.155,21.7948574 147.114247,47.7148486 147.114247,47.7148486 C147.114247,47.7148486 169.924007,38.053789 159.247295,28.8056742" id="Fill-35" fill="#E3E8FF"></path>
                <path d="M144.652423,104.593451 C142.891721,115.15359 167.116978,105.079586 167.116978,105.079586 C167.116978,105.079586 146.974854,90.6611861 144.652423,104.593451" id="Fill-37" fill="#E3E8FF"></path>
                <path d="M177.541413,86.4502276 C169.449118,79.4401812 165.409135,105.360172 165.409135,105.360172 C165.409135,105.360172 188.218125,95.6991128 177.541413,86.4502276" id="Fill-39" fill="#E3E8FF"></path>
                <path d="M127.027988,75.7425532 C123.344769,91.1393854 160.118399,78.7695311 160.118399,78.7695311 C160.118399,78.7695311 131.887834,55.4281338 127.027988,75.7425532" id="Fill-41" fill="#E3E8FF"></path>
                <path d="M175.919024,56.1789075 C166.363459,46.6341812 158.960805,78.8885609 158.960805,78.8885609 C158.960805,78.8885609 188.526729,68.771413 175.919024,56.1789075" id="Fill-43" fill="#E3E8FF"></path>
                <path d="M23.2508219,171.206919 C89.2567295,143.540387 136.67625,318.185996 131.156815,328.309308 C122.722397,313.898612 110.316575,292.75214 92.1293322,261.83752 C61.5940582,209.938985 37.5259932,183.789409 23.2508219,171.206919" id="Fill-45" fill="#E3E8FF"></path>
                <g id="Group-49" transform="translate(0.000000, 171.803532)">
                    <mask id="mask-2" fill="white">
                        <use xlink:href="#path-1"></use>
                    </mask>
                    <g id="Clip-48"></g>
                    <path d="M89.8314041,91.3834543 C107.584829,121.558472 119.818818,142.409103 128.237055,156.788211 C106.234829,150.44766 -29.6397432,44.730706 5.8917637,11.2051342 C10.8510103,6.52560662 15.7270377,3.08491347 20.5113699,0.688909051 C34.4829452,12.8515205 58.9732705,38.9340702 89.8314041,91.3834543" id="Fill-47" fill="#C0C8F9" mask="url(#mask-2)"></path>
                </g>
                <path d="M128.236901,328.591435 C119.819435,314.213098 107.584675,293.361696 89.83125,263.186678 C58.9731164,210.737294 34.4827911,184.655515 20.5112158,172.492903 C21.4273973,172.033733 22.3420377,171.588431 23.2505137,171.207073 C37.5264555,183.789563 61.5945205,209.93914 92.129024,261.837674 C110.316267,292.751524 122.72286,313.898766 131.157277,328.309462 C131.084075,328.442744 131.010873,328.574486 130.919178,328.649217 C130.477654,329.014396 129.548373,328.968941 128.236901,328.591435" id="Fill-50" fill="#FFFFFF"></path>
                <path d="M128.163159,328.203144 C92.0383305,307.666844 32.8756592,279.047303 12.0007449,269.057274 C43.5924401,219.706517 122.125916,312.883354 128.163159,328.203144" id="Fill-52" fill="#E3E8FF"></path>
                <path d="M9.15634418,274.130101 C9.71345034,272.986798 10.295214,271.915915 10.8900771,270.884324 C31.7303168,280.855092 91.8708134,309.935344 127.92167,330.509394 C118.019358,335.57105 -13.8938271,321.44541 9.15634418,274.130101" id="Fill-54" fill="#C0C8F9"></path>
                <path d="M128.475385,330.053229 C128.392937,330.22041 128.193365,330.370642 127.922132,330.509317 C91.8705051,309.935267 31.7307791,280.855015 10.8905394,270.884247 C11.2534675,270.254814 11.624101,269.646183 12.0001284,269.057582 C32.8758134,279.047611 92.0384846,307.666381 128.163313,328.203452 C128.512372,329.089434 128.634118,329.730423 128.475385,330.053229" id="Fill-56" fill="#FFFFFF"></path>
                <path d="M441.785959,338.237472 C441.785959,343.931642 348.643664,348.547995 233.74726,348.547995 C118.850086,348.547995 25.7077911,343.931642 25.7077911,338.237472 C25.7077911,332.542531 118.850086,327.926949 233.74726,327.926949 C348.643664,327.926949 441.785959,332.542531 441.785959,338.237472" id="Fill-58" fill="#E3E8FF"></path>
            </g>
            <g id="Group-63" transform="translate(179.000000, 291.000000)">
                <mask id="mask-4" fill="white">
                    <use xlink:href="#path-3"></use>
                </mask>
                <g id="Clip-62"></g>
                <path d="M73.3396556,0.5957 L42.6234702,0.5957 L23.1700397,0.5957 L23.1700397,36.0233667 C16.6056689,40.2262333 8.81907285,42.6949 0.440953642,42.6949 C0.440953642,44.2742333 1.72386755,45.5553333 3.30715232,45.5553333 L23.1700397,45.5553333 L92.7930861,45.5553333 L112.655974,45.5553333 C114.239258,45.5553333 115.52294,44.2742333 115.52294,42.6949 C107.144053,42.6949 99.357457,40.2262333 92.7930861,36.0233667 L92.7930861,0.5957 L73.3396556,0.5957 Z" id="Fill-61" fill="url(#linearGradient-5)" mask="url(#mask-4)"></path>
            </g>
            <polygon id="Fill-64" fill="url(#linearGradient-6)" points="202 303 272 303 272 283 202 283"></polygon>
            <g id="Group-68" transform="translate(86.000000, 98.000000)">
                <mask id="mask-8" fill="white">
                    <use xlink:href="#path-7"></use>
                </mask>
                <g id="Clip-67"></g>
                <path d="M17.9206624,0.355087719 C8.40105627,0.355087719 0.683601023,8.09368421 0.683601023,17.6393684 L0.683601023,175.93207 L300.278678,175.93207 L300.278678,17.6393684 C300.278678,8.09368421 292.561992,0.355087719 283.042386,0.355087719 L17.9206624,0.355087719 Z" id="Fill-66" fill="url(#linearGradient-9)" mask="url(#mask-8)"></path>
            </g>
            <g id="Group-71" transform="translate(86.000000, 273.000000)">
                <mask id="mask-11" fill="white">
                    <use xlink:href="#path-10"></use>
                </mask>
                <g id="Clip-70"></g>
                <path d="M0.683601023,0.709333333 L0.683601023,2.92988889 C0.683601023,12.5478889 8.40105627,20.3451111 17.9206624,20.3451111 L283.042386,20.3451111 C292.561992,20.3451111 300.278678,12.5478889 300.278678,2.92988889 L300.278678,0.709333333 L0.683601023,0.709333333 Z" id="Fill-69" fill="url(#linearGradient-12)" mask="url(#mask-11)"></path>
            </g>
            <polygon id="Fill-72" fill="url(#linearGradient-13)" points="102 259 371 259 371 114 102 114"></polygon>
            <polygon id="Fill-74" fill="url(#linearGradient-14)" points="124 145 342 145 342 135 124 135"></polygon>
            <polygon id="Fill-76" fill="url(#linearGradient-15)" points="124 169 342 169 342 159 124 159"></polygon>
            <polygon id="Fill-78" fill="url(#linearGradient-16)" points="124 193 342 193 342 183 124 183"></polygon>
            <polygon id="Fill-80" fill="url(#linearGradient-17)" points="124 217 342 217 342 207 124 207"></polygon>
            <polygon id="Fill-82" fill="url(#linearGradient-18)" points="124 241 342 241 342 231 124 231"></polygon>
            <polygon id="Fill-84" fill="#C0C8F9" points="306 99 306 259 260 259 288.361007 99.2413959"></polygon>
            <g id="Group-88" transform="translate(280.000000, 74.000000)">
                <mask id="mask-20" fill="white">
                    <use xlink:href="#path-19"></use>
                </mask>
                <g id="Clip-87"></g>
                <path d="M0.763802817,0.7234375 L0.763802817,24.578125 L54.5538028,24.578125 C54.5538028,24.578125 51.466831,0.7234375 39.9075352,0.7234375 L0.763802817,0.7234375 Z" id="Fill-86" fill="url(#linearGradient-21)" mask="url(#mask-20)"></path>
            </g>
            <g id="Group-91" transform="translate(155.000000, 74.000000)">
                <mask id="mask-23" fill="white">
                    <use xlink:href="#path-22"></use>
                </mask>
                <g id="Clip-90"></g>
                <path d="M29.572707,3.55758996 C16.0386884,11.2009038 0.598372093,39.6115816 0.655506977,103.066176 C0.71495814,167.784134 8.90454884,183.93841 8.90454884,183.93841 L141.390307,183.93841 C141.390307,183.93841 132.101256,153.034109 134.832921,95.7554477 C138.640884,15.8948285 165.627079,0.712903766 165.627079,0.712903766 C165.627079,0.712903766 135.608874,0.101623431 103.719888,0.101623431 C70.1446512,0.101623431 34.4948,0.778343096 29.572707,3.55758996" id="Fill-89" fill="url(#linearGradient-24)" mask="url(#mask-23)"></path>
            </g>
            <g id="Group-102" transform="translate(171.000000, 95.000000)" fill="#BBC4F9">
                <polygon id="Fill-92" points="14.1715352 6.62336022 108.680676 6.62336022 108.680676 0.234489247 14.1715352 0.234489247"></polygon>
                <polygon id="Fill-94" points="8.70464789 27.3975699 43.3850704 27.3975699 43.3850704 21.0086989 8.70464789 21.0086989"></polygon>
                <polygon id="Fill-95" points="57.5727254 27.3975699 103.007303 27.3975699 103.007303 21.0086989 57.5727254 21.0086989"></polygon>
                <polygon id="Fill-96" points="3.92092958 46.5611075 97.5404155 46.5611075 97.5404155 40.1722366 3.92092958 40.1722366"></polygon>
                <polygon id="Fill-97" points="3.0105493 65.725414 88.0873521 65.725414 88.0873521 59.336543 3.0105493 59.336543"></polygon>
                <polygon id="Fill-98" points="0.688542254 84.8897204 40.6378099 84.8897204 40.6378099 78.5008495 0.688542254 78.5008495"></polygon>
                <polygon id="Fill-99" points="0.0491267606 104.054027 82.3932535 104.054027 82.3932535 97.6651559 0.0491267606 97.6651559"></polygon>
                <polygon id="Fill-100" points="2.21300704 123.217565 91.0487746 123.217565 91.0487746 116.829462 2.21300704 116.829462"></polygon>
                <polygon id="Fill-101" points="8.70464789 142.381102 103.007303 142.381102 103.007303 135.993 8.70464789 135.993"></polygon>
            </g>
            <g id="Group-105" transform="translate(60.000000, 145.000000)">
                <mask id="mask-26" fill="white">
                    <use xlink:href="#path-25"></use>
                </mask>
                <g id="Clip-104"></g>
                <path d="M97.6883019,4.67905435 C93.8551887,5.81659783 0.535320755,48.0623696 0.232075472,50.0488261 C-0.0719433962,52.0352826 6.78666038,70.275337 9.80054717,70.5037717 C14.9131698,70.890413 103.694415,26.2152065 106.260396,24.9819674 C107.694623,24.2928043 114.592679,17.107913 120.468057,10.5743696 C115.370132,7.44265217 125.951226,2.50815217 121.503887,0.89598913 C120.228245,0.86126087 119.139811,0.732380435 118.189075,0.474619565 C110.870189,1.6113913 101.889642,3.43115217 97.6883019,4.67905435" id="Fill-103" fill="url(#linearGradient-27)" mask="url(#mask-26)"></path>
            </g>
            <g id="Group-108" transform="translate(65.000000, 160.000000)">
                <mask id="mask-29" fill="white">
                    <use xlink:href="#path-28"></use>
                </mask>
                <g id="Clip-107"></g>
                <path d="M0.489479167,50.5564932 C1.937875,53.3549589 3.367,55.4307945 4.36985417,55.5067397 C9.46429167,55.8910685 97.92975,11.4830685 100.486604,10.2572055 C101.591208,9.72712329 105.9495,5.33917808 110.573729,0.375123288 C72.9323958,15.082411 35.9370208,31.1697534 0.489479167,50.5564932" id="Fill-106" fill="url(#linearGradient-30)" mask="url(#mask-29)"></path>
            </g>
            <g id="Group-111" transform="translate(60.000000, 146.000000)">
                <mask id="mask-32" fill="white">
                    <use xlink:href="#path-31"></use>
                </mask>
                <g id="Clip-110"></g>
                <path d="M97.5404138,3.88394521 C93.7131034,5.01468493 0.534510345,47.0077808 0.231724138,48.9823562 C0.123586207,49.6873425 0.929986207,52.4528219 2.14422069,55.7230685 C40.2682483,40.7127671 76.9617655,22.6569863 111.844745,0.746410959 C106.20149,1.77282192 100.600717,2.97873973 97.5404138,3.88394521" id="Fill-109" fill="url(#linearGradient-33)" mask="url(#mask-32)"></path>
            </g>
            <g id="Group-114" transform="translate(62.000000, 145.000000)">
                <mask id="mask-35" fill="white">
                    <use xlink:href="#path-34"></use>
                </mask>
                <g id="Clip-113"></g>
                <path d="M110.05528,1.53197647 C73.4816815,23.2444235 38.212879,38.7722824 0.598063694,57.1785176 C1.64775796,60.0483529 3.00110828,63.2994353 4.34289809,65.9254588 C40.2729618,47.3406353 77.2265159,31.7343529 114.408197,15.1326353 C115.767713,13.6565647 117.148809,12.1323529 118.477497,10.6392 C113.39858,7.48828235 123.940223,2.52352941 119.509465,0.901482353 C118.23858,0.866541176 117.154204,0.736870588 116.207013,0.477529412 C114.23479,0.787341176 112.142338,1.14684706 110.05528,1.53197647" id="Fill-112" fill="url(#linearGradient-36)" mask="url(#mask-35)"></path>
            </g>
            <path d="M157.214321,153.840914 C159.522611,156.709916 163.87084,153.161195 165.279497,156.122989 C167.393251,160.566434 160.288453,161.452106 162.983509,165.488172 C164.212239,167.327412 167.94149,166.551883 169.580822,167 C172.455804,164.219263 176.548752,159.933489 180.238788,155.898176 C184.905348,150.794627 188.923711,146.097702 188.999065,145.375736 C189.078264,144.622085 184.114132,145.086045 177.972788,146.025279 C171.10251,147.074656 162.76283,148.719259 158.339247,149.926307 C157.521119,151.434362 156.565354,153.03521 157.214321,153.840914" id="Fill-115" fill="#D8DDEF"></path>
            <g id="Group-119" transform="translate(181.000000, 144.000000)">
                <mask id="mask-38" fill="white">
                    <use xlink:href="#path-37"></use>
                </mask>
                <g id="Clip-118"></g>
                <path d="M0.138909091,0.7784 C1.016,3.1304 1.49381818,5.5472 2.72363636,7.2032 C5.39636364,3.7912 7.31054545,1.1448 7.36072727,0.604 C7.38690909,0.3272 6.84145455,0.2056 5.87709091,0.2056 C4.59054545,0.2056 2.55854545,0.4224 0.138909091,0.7784" id="Fill-117" fill="url(#linearGradient-39)" mask="url(#mask-38)"></path>
            </g>
            <g id="Group-122" transform="translate(45.000000, 198.000000)">
                <mask id="mask-41" fill="white">
                    <use xlink:href="#path-40"></use>
                </mask>
                <g id="Clip-121"></g>
                <path d="M0.52364,4.490625 C-0.285,5.46171875 6.10052,23.5296875 9.10936,24.6539062 C10.40668,25.1390625 17.9436,21.35 18.24836,20.2703125 C18.55312,19.190625 9.4126,0.8078125 8.54392,0.64296875 C8.52112,0.6390625 8.49376,0.63671875 8.46412,0.63671875 C7.3454,0.63671875 1.31024,3.5453125 0.52364,4.490625" id="Fill-120" fill="url(#linearGradient-42)" mask="url(#mask-41)"></path>
            </g>
            <g id="Group-135" transform="translate(52.000000, 194.000000)">
                <path d="M9.70876098,25.8349076 C10.9971878,26.0324305 19.9439561,22.0603695 18.9244317,21.1722883 C17.1596634,19.6337706 8.31430976,3.49630863 9.42141951,0.721729949 C10.1297854,-1.05366091 0.691309756,4.69919188 0.0743707317,5.1019533 C-0.5418,5.50471472 7.1127,25.4375472 9.70876098,25.8349076" id="Fill-123" fill="#D8DDEF"></path>
                <path d="M22.5937976,24.2661442 C23.6087122,27.4998091 26.6096634,36.916865 27.1451634,36.9770477 C27.7928341,37.0488041 37.7775659,34.6630985 38.3614683,34.6661848 C38.9453707,34.6692711 42.1299439,39.5502457 42.1360902,40.8040528 C42.1360902,40.8040528 25.8513585,42.6087635 24.9163463,42.247667 C24.1580415,41.9552406 20.607761,30.1247025 19.2179195,25.5315249 C20.4095415,25.3509766 21.5151146,24.9898802 22.5937976,24.2661442" id="Fill-125" fill="#97A1FC"></path>
                <path d="M23.5943451,139.715082 C22.646272,139.843163 19.3679671,130.978554 19.9034671,129.173072 C20.4397354,127.368361 23.237089,127.224077 23.237089,127.65693 C23.237089,128.090554 25.2016134,139.499042 23.5943451,139.715082" id="Fill-127" fill="#394678"></path>
                <path d="M60.56505,151.318855 C59.8659037,151.975464 52.0777207,146.661637 51.4723061,144.87853 C50.8661232,143.096195 53.062672,141.349352 53.3123671,141.701961 C53.5628305,142.055342 61.7497573,150.207017 60.56505,151.318855" id="Fill-129" fill="#394678"></path>
                <path d="M61.7846378,70.780536 C61.7846378,70.780536 59.3399305,108.378546 58.1897963,117.476171 C57.0388939,126.574566 54.7386256,143.469714 54.7386256,143.469714 C53.9472841,144.733551 51.7184671,143.469714 51.7184671,143.469714 C51.7184671,143.469714 50.9355768,113.757186 51.366589,112.169287 C51.7983695,110.580617 50.5683329,92.7819574 50.5683329,92.7819574 C50.5683329,92.7819574 49.382089,109.966445 47.0096012,112.277308 C44.6371134,114.587399 24.397211,130.761896 22.9597354,130.329044 C21.5214915,129.895419 21.8088329,128.018181 21.8088329,128.018181 C21.8088329,128.018181 39.0646866,108.378546 40.2148207,108.089978 C41.3649549,107.800638 36.4763085,74.7302213 39.4956988,69.8206985 C42.5158573,64.9111756 52.0058085,66.7128 52.0058085,66.7128 L61.7846378,70.780536 Z" id="Fill-131" fill="#4152A5"></path>
                <path d="M62.2895598,69.1349239 C62.2895598,69.1349239 62.7405476,73.9912081 61.5181939,74.8067614 C60.2958402,75.6223147 56.7517061,78.0527716 47.4046573,76.2472893 C39.568072,74.7334619 36.6201329,73.539066 39.0809744,68.2684467 C41.3858524,63.3311472 62.2895598,69.1349239 62.2895598,69.1349239" id="Fill-133" fill="#97A1FC"></path>
            </g>
            <g id="Group-138" transform="translate(132.000000, 178.000000)">
                <mask id="mask-44" fill="white">
                    <use xlink:href="#path-43"></use>
                </mask>
                <g id="Clip-137"></g>
                <path d="M2.27583333,0.23775 C-0.999166667,0.8685 1.96416667,11.67825 1.96416667,11.67825 L4.22666667,11.67825 C4.22666667,11.67825 4.30416667,3.396 4.22666667,2.41275 C4.1525,1.485 3.23,0.22425 2.41833333,0.22425 C2.37,0.22425 2.32333333,0.22875 2.27583333,0.23775" id="Fill-136" fill="url(#linearGradient-45)" mask="url(#mask-44)"></path>
            </g>
            <g id="Group-141" transform="translate(130.000000, 181.000000)">
                <mask id="mask-47" fill="white">
                    <use xlink:href="#path-46"></use>
                </mask>
                <g id="Clip-140"></g>
                <path d="M1.024,0.324333333 C0.2208,0.605888889 1.592,4.57255556 2.3888,5.20022222 C3.1872,5.82944444 3.8312,6.83822222 3.8312,6.83822222 C3.8312,6.83822222 2.0464,0.312666667 1.0912,0.312666667 C1.068,0.312666667 1.0456,0.316555556 1.024,0.324333333" id="Fill-139" fill="url(#linearGradient-48)" mask="url(#mask-47)"></path>
            </g>
            <path d="M135.905744,189 L132.758578,189 C132.758578,189 129.898003,205.98391 128.753927,207.423524 C127.60985,208.863139 120.529107,217.822276 116.201944,220.485409 C113.029558,222.437962 111.017297,222.680205 111.017297,222.680205 C111.017297,222.680205 108.728379,226.710663 111.017297,230.740353 C113.30545,234.77158 113.592043,232.179967 113.592043,232.179967 C113.592043,232.179967 130.35273,216.742565 132.472749,210.014369 C134.332161,204.112873 136.478165,191.303229 135.905744,189" id="Fill-142" fill="#97A1FC"></path>
            <g id="Group-146" transform="translate(105.000000, 208.000000)">
                <mask id="mask-50" fill="white">
                    <use xlink:href="#path-49"></use>
                </mask>
                <g id="Clip-145"></g>
                <path d="M1.3915,5.25222727 C1.31764286,5.36118182 0.179142857,11.7245909 0.179142857,11.7245909 L4.59014286,16.2442727 L6.90957143,16.2442727 L7.64107143,9.62740909 C7.64107143,9.62740909 9.99428571,9.08495455 10.2512143,6.08368182 C10.5089286,3.08240909 3.56085714,0.516181818 3.56085714,0.516181818 C3.56085714,0.516181818 1.46535714,5.14327273 1.3915,5.25222727" id="Fill-144" fill="url(#linearGradient-51)" mask="url(#mask-50)"></path>
            </g>
            <g id="Group-149" transform="translate(91.000000, 221.000000)">
                <mask id="mask-53" fill="white">
                    <use xlink:href="#path-52"></use>
                </mask>
                <g id="Clip-148"></g>
                <path d="M17.0881176,2.5757541 C13.6538235,1.81836066 11.882,0.574786885 11.882,0.574786885 L5.65652941,14.0946066 L7.48111765,16.4130164 C7.48111765,16.4130164 8.55476471,21.3403115 4.68994118,27.397918 C2.91352941,30.1824754 -3.46794118,42.864 4.79776471,45.0267705 C13.0634706,47.1903115 21.3284118,48.7043279 23.7976471,43.1876066 C26.2661176,37.6724262 26.2661176,22.8550984 25.2643529,16.2211639 C24.9531176,14.1624098 22.1321176,0.857557377 20.7915882,0.574786885 C20.7915882,0.574786885 20.5239412,3.33237705 17.0881176,2.5757541" id="Fill-147" fill="url(#linearGradient-54)" mask="url(#mask-53)"></path>
            </g>
            <g id="Group-152" transform="translate(90.000000, 204.000000)">
                <mask id="mask-56" fill="white">
                    <use xlink:href="#path-55"></use>
                </mask>
                <g id="Clip-151"></g>
                <path d="M11.1705,3.83736364 C9.51578571,6.94604545 9.69964286,10.3089545 9.00114286,10.8150909 C8.30264286,11.3212273 2.7885,14.1416818 1.42764286,18.9503636 C0.0675714286,23.7590455 -0.00628571429,31.2436818 4.4055,32.9073636 C8.81728571,34.5695 17.1631429,32.4012273 18.854,27.5191364 C20.5456429,22.6385909 18.2309286,15.2690909 17.7516429,12.4424545 C17.2715714,9.61504545 17.5677857,8.57263636 17.8977857,8.42890909 C18.2293571,8.28440909 23.7435,6.51254545 21.3572857,2.21 C20.7499286,1.11504545 19.3725714,0.6375 17.8074286,0.6375 C15.2522857,0.6375 12.1966429,1.90863636 11.1705,3.83736364" id="Fill-150" fill="url(#linearGradient-57)" mask="url(#mask-56)"></path>
            </g>
            <g id="Group-155" transform="translate(69.000000, 212.000000)">
                <mask id="mask-59" fill="white">
                    <use xlink:href="#path-58"></use>
                </mask>
                <g id="Clip-154"></g>
                <path d="M0.10275,2.8184 C0.31425,4.6896 1.5765,5.1392 1.7175,5.4096 C1.74375,5.4616 1.9455,6.164 2.2605,7.272 C3.42375,7.0856 4.503,6.7112 5.556,5.96 C5.3505,5.2656 5.22675,4.84 5.22675,4.84 C5.22675,4.84 5.862,3.8704 5.74125,2.2208 C5.6325,0.7224 4.57725,0.6568 2.68275,0.6568 C0.78675,0.6568 -0.10725,0.9464 0.10275,2.8184" id="Fill-153" fill="url(#linearGradient-60)" mask="url(#mask-59)"></path>
            </g>
            <g id="Group-158" transform="translate(320.000000, 269.000000)">
                <mask id="mask-62" fill="white">
                    <use xlink:href="#path-61"></use>
                </mask>
                <g id="Clip-157"></g>
                <path d="M18.5974444,0.654171429 C12.3713333,0.661114286 9.80233333,7.1712 9.80233333,7.1712 C9.80233333,7.1712 5.20255556,5.94848571 1.967,11.1672 C-2.22055556,17.9202857 2.19566667,26.5008857 4.69233333,26.4306857 C19.7656667,26.0087143 31.4805556,26.5471714 33.5245556,21.3940286 C36.9934444,12.6514286 28.539,9.70534286 27.7721111,9.70534286 C27.0052222,9.70534286 26.2398889,0.6534 18.6091111,0.6534 C18.6052222,0.6534 18.6013333,0.6534 18.5974444,0.654171429" id="Fill-156" fill="url(#linearGradient-63)" mask="url(#mask-62)"></path>
            </g>
            <g id="Group-161" transform="translate(317.000000, 283.000000)">
                <mask id="mask-65" fill="white">
                    <use xlink:href="#path-64"></use>
                </mask>
                <g id="Clip-160"></g>
                <path d="M13.3550847,3.03634286 C11.0455932,4.8816 -0.180762712,15.0143143 0.491949153,16.2941143 C1.16466102,17.5739143 5.04762712,21.7805143 5.91101695,21.0484286 C6.77440678,20.3171143 11.0181356,15.4038857 11.0181356,15.4038857 C11.0181356,15.4038857 7.19618644,46.0998 7.68661017,46.9221429 C8.17627119,47.7460286 23.7111864,53.4137143 23.7111864,53.4137143 L34.930678,46.7400857 C34.930678,46.7400857 32.6661864,16.5402 32.2337288,15.4424571 C31.8020339,14.3454857 38.3834746,19.5858 39.1377966,19.6768286 C39.8928814,19.7686286 44.7475424,16.2941143 44.9633898,15.1979143 C45.1792373,14.1001714 32.664661,2.67145714 29.6450847,1.39165714 C28.5231356,0.916457143 26.4394068,0.661114286 24.0963559,0.661114286 C20.1272034,0.660342857 15.4113559,1.39397143 13.3550847,3.03634286" id="Fill-159" fill="url(#linearGradient-66)" mask="url(#mask-65)"></path>
            </g>
            <path d="M311,317 L342.037122,320.414791 L366,318.262212 L363.64166,327.316522 L337.766656,335 C337.766656,335 316.927279,323.67022 316.736377,323.67022 C316.544699,323.67022 311,317 311,317" id="Fill-162" fill="#394678"></path>
            <g id="Group-166" transform="translate(310.000000, 300.000000)">
                <mask id="mask-68" fill="white">
                    <use xlink:href="#path-67"></use>
                </mask>
                <g id="Clip-165"></g>
                <path d="M0.640888889,10.4550333 C0.576333333,10.8245667 9.51844444,22.3514 12.1372222,22.5622333 C14.7567778,22.7738333 13.16,19.5032333 12.8403333,18.7649333 C12.5206667,18.0258667 5.43044444,10.5876667 5.62333333,10.1652333 C5.81466667,9.7428 11.2435556,3.88623333 11.6907778,3.5167 C12.1372222,3.14793333 8.49722222,0.193966667 7.34766667,0.193966667 C7.34766667,0.193966667 0.704666667,10.0862667 0.640888889,10.4550333" id="Fill-164" fill="url(#linearGradient-69)" mask="url(#mask-68)"></path>
            </g>
            <g id="Group-169" transform="translate(354.000000, 299.000000)">
                <mask id="mask-71" fill="white">
                    <use xlink:href="#path-70"></use>
                </mask>
                <g id="Clip-168"></g>
                <path d="M2.36833333,3.67156667 C2.81477778,4.0411 8.24444444,9.8969 8.43655556,10.3185667 C8.62788889,10.741 1.53688889,18.1799667 1.21877778,18.9182667 C0.898333333,19.6565667 -0.697666667,22.9279333 1.92033333,22.7171 C4.53988889,22.5062667 13.4827778,10.8989333 13.419,10.5286333 C13.3544444,10.1598667 6.71144444,0.3473 6.71144444,0.3473 C5.56111111,0.3473 1.92033333,3.30203333 2.36833333,3.67156667" id="Fill-167" fill="url(#linearGradient-72)" mask="url(#mask-71)"></path>
            </g>
            <g id="Group-178" transform="translate(308.000000, 279.000000)">
                <path d="M27.2423846,7.53047609 C27.1131538,8.64332391 28.4700769,12.2527478 31.4700769,12.030487 C34.4708462,11.8089978 35.7393077,9.55937826 35.7077692,8.19571522 C35.6762308,6.83359565 34.8862308,4.77382391 33.6223846,4.77382391 C32.3593077,4.77382391 27.6208462,4.2667913 27.2423846,7.53047609" id="Fill-170" fill="#97A1FC"></path>
                <path d="M0.755,70.3902489 C0.755,72.304162 15.1142308,69.3823576 17.4626923,66.1858141 C19.8111538,62.9892707 18.0896154,62.1256946 18.0896154,62.1256946 C18.0896154,62.1256946 0.755,63.9755533 0.755,70.3902489" id="Fill-172" fill="#394678"></path>
                <path d="M59.8979231,69.0374674 C59.8979231,70.9521522 45.5386923,68.0303478 43.1902308,64.8338043 C40.8417692,61.6372609 42.5633077,60.7736848 42.5633077,60.7736848 C42.5633077,60.7736848 59.8979231,62.6235435 59.8979231,69.0374674" id="Fill-174" fill="#394678"></path>
                <path d="M29.0137692,0.125870652 L29.0137692,8.40663152 C29.0137692,8.40663152 29.713,10.4664033 31.7222308,10.2132728 C33.7299231,9.95937065 33.9276154,7.67810978 33.9276154,7.67810978 L33.7476154,0.125870652 L29.0137692,0.125870652 Z" id="Fill-176" fill="#E0B868"></path>
            </g>
            <g id="Group-181" transform="translate(332.000000, 273.000000)">
                <mask id="mask-74" fill="white">
                    <use xlink:href="#path-73"></use>
                </mask>
                <g id="Clip-180"></g>
                <path d="M0.636235294,6.48164706 C0.636235294,9.89376471 3.40294118,12.6604706 6.81429412,12.6604706 C10.2271765,12.6604706 12.9931176,9.89376471 12.9931176,6.48164706 C12.9931176,3.07029412 10.2271765,0.304352941 6.81429412,0.304352941 C3.40294118,0.304352941 0.636235294,3.07029412 0.636235294,6.48164706" id="Fill-179" fill="url(#linearGradient-75)" mask="url(#mask-74)"></path>
            </g>
            <g id="Group-184" transform="translate(331.000000, 270.000000)">
                <mask id="mask-77" fill="white">
                    <use xlink:href="#path-76"></use>
                </mask>
                <g id="Clip-183"></g>
                <path d="M2.15238095,3.40875 C-0.288761905,5.33475 0.441904762,9.69075 0.441904762,9.69075 C0.441904762,9.69075 0.776380952,10.63575 2.6872381,10.389 C4.59885714,10.14225 4.28342857,6.711 4.28342857,6.711 C4.28342857,6.711 6.18971429,10.52025 9.86361905,11.427 C13.2967619,12.273 15.3706667,11.427 15.2822857,8.5965 C15.1885714,5.62725 13.319619,0.468 8.83428571,0.46875 C7.04228571,0.46875 4.8327619,1.29225 2.15238095,3.40875" id="Fill-182" fill="url(#linearGradient-78)" mask="url(#mask-77)"></path>
            </g>
            <g id="Group-187" transform="translate(321.000000, 303.000000)">
                <mask id="mask-80" fill="white">
                    <use xlink:href="#path-79"></use>
                </mask>
                <g id="Clip-186"></g>
                <path d="M1.059125,1.99277419 C0.2104375,2.8443871 0.467895833,22.3393548 1.059125,22.848 C1.65035417,23.355871 36.0033125,24.0340645 36.6785625,23.1863226 C37.3538125,22.3393548 36.4249583,0.976258065 35.7497083,0.298064516 C35.5677917,0.115354839 33.0965,0.0247741935 29.5498958,0.0247741935 C19.9206458,0.0247741935 2.35489583,0.691354839 1.059125,1.99277419" id="Fill-185" fill="url(#linearGradient-81)" mask="url(#mask-80)"></path>
            </g>
            <g id="Group-192" transform="translate(302.000000, 317.000000)" fill="#4152A5">
                <path d="M22.512929,24.0402368 C22.4935742,24.9277895 22.7598968,28.797 23.5023484,28.797 C24.2448,28.797 67.9248,17.2099737 70.2760258,12.9401053 C72.4251871,9.03884211 71.4063484,5.28563158 70.2760258,4.15768421 C67.4571871,1.34773684 64.0236387,0.609763158 61.1188645,2.69394737 C57.0373161,5.62447368 22.5438968,22.5902368 22.512929,24.0402368" id="Fill-188"></path>
                <path d="M49.3707871,22.7031842 C49.3893677,23.5907368 49.1230452,27.4599474 48.3805935,27.4599474 C47.6381419,27.4599474 3.95814194,15.8729211 1.60691613,11.6030526 C-0.542245161,7.70102632 0.628335484,4.07984211 1.60691613,2.82063158 C3.79169032,0.0106842105 8.43917419,-0.708973684 10.7640774,1.35689474 C14.514271,4.68960526 49.3390452,21.2531842 49.3707871,22.7031842" id="Fill-190"></path>
            </g>
            <g id="Group-195" transform="translate(43.000000, 130.000000)">
                <mask id="mask-83" fill="white">
                    <use xlink:href="#path-82"></use>
                </mask>
                <g id="Clip-194"></g>
                <path d="M6.66153846,1.56 C-12.8230769,7.79235294 18.8423077,38.2536471 23.0284615,38.3064118 C23.7746154,38.3155882 29.0907692,38.3821176 29.0907692,38.3821176 C37.3707692,31.2825882 57.3446154,4.55305882 46.8946154,1.90947059 C27.7015385,-2.94488235 24.3046154,14.2449412 24.3046154,14.2449412 C24.3046154,14.2449412 25.5830769,4.94611765 19.4646154,1.57758824 C18.3123077,0.942882353 16.1007692,0.659176471 13.7323077,0.659176471 C11.1823077,0.659176471 8.45076923,0.988 6.66153846,1.56" id="Fill-193" fill="url(#linearGradient-84)" mask="url(#mask-83)"></path>
            </g>
            <g id="Group-198" transform="translate(49.000000, 130.000000)">
                <mask id="mask-86" fill="white">
                    <use xlink:href="#path-85"></use>
                </mask>
                <g id="Clip-197"></g>
                <path d="M6.40318966,0.8853 C-13.2486207,7.24308 18.6889655,38.31282 22.9119828,38.36586 C27.1342241,38.41968 53.2986207,9.00276 42.1789655,1.78698 C31.6637069,-5.0349 24.1991379,13.82316 24.1991379,13.82316 C24.1991379,13.82316 19.8651724,0.27378 10.0962931,0.273 C8.94103448,0.273 7.7112931,0.46254 6.40318966,0.8853" id="Fill-196" fill="url(#linearGradient-87)" mask="url(#mask-86)"></path>
            </g>
        </g>
    </g>
</svg>