<svg xmlns="http://www.w3.org/2000/svg" xmlns:xlink="http://www.w3.org/1999/xlink" width="41" height="41" viewBox="0 0 41 41"><defs><path id="nlyba" d="M590.612 2437l-3.29.022a5.055 5.055 0 0 0-3.322 4.764V2446h10v-4.214a5.053 5.053 0 0 0-3.388-4.786z"/><path id="nlybb" d="M610.916 2454h3.169c.559-.403.915-1.016.915-1.701v-1.1c0-1.214-1.119-2.199-2.5-2.199-1.38 0-2.5.985-2.5 2.2v1.099c0 .685.357 1.298.916 1.701z"/><path id="nlybc" d="M601.916 2454h3.169c.559-.403.915-1.016.915-1.701v-1.1c0-1.214-1.12-2.199-2.5-2.199s-2.5.985-2.5 2.2v1.099c0 .685.357 1.298.916 1.701z"/><path id="nlybd" d="M591.916 2454h3.169c.559-.403.915-1.016.915-1.701v-1.1c0-1.214-1.12-2.199-2.5-2.199s-2.5.985-2.5 2.2v1.099c0 .685.357 1.298.916 1.701z"/><path id="nlybe" d="M582.916 2454h3.168c.56-.403.916-1.016.916-1.701v-1.1c0-1.214-1.12-2.199-2.5-2.199s-2.5.985-2.5 2.2v1.099c0 .685.357 1.298.916 1.701z"/><path id="nlybf" d="M592 2438.74a4.915 4.915 0 0 0-1.45-.74l-3.164.02a4.912 4.912 0 0 0-1.386.72 4.132 4.132 0 0 0 3 1.26 4.133 4.133 0 0 0 3-1.26z"/><path id="nlybg" d="M589.5 2438c-1.38 0-2.5-1.074-2.5-2.4v-1.2c0-1.326 1.12-2.4 2.5-2.4s2.5 1.074 2.5 2.4v1.2c0 1.326-1.12 2.4-2.5 2.4z"/><path id="nlybh" d="M610.89 2454h3.224c.451-.437.772-1.053.886-1.757a6.113 6.113 0 0 0-.312-.136l-.265-.107h-3.92l-.276.116a6.46 6.46 0 0 0-.227.101c.11.714.433 1.34.89 1.783z"/><path id="nlybi" d="M614.612 2454h-3.29c-1.936.667-3.322 2.478-3.322 4.58v2.42h10v-2.42c0-2.126-1.418-3.93-3.388-4.58z"/><path id="nlybj" d="M601.89 2454h3.224c.451-.437.772-1.053.886-1.757a5.998 5.998 0 0 0-.312-.136l-.265-.107h-3.92l-.276.116a6.46 6.46 0 0 0-.227.101c.11.714.433 1.34.89 1.783z"/><path id="nlybk" d="M604.612 2454h-3.29c-1.936.667-3.322 2.478-3.322 4.58v2.42h10v-2.42c0-2.126-1.418-3.93-3.388-4.58z"/><path id="nlybl" d="M591.89 2454h3.224c.451-.437.772-1.053.886-1.757a5.998 5.998 0 0 0-.312-.136l-.265-.107h-3.92l-.276.116a6.46 6.46 0 0 0-.227.101c.11.714.433 1.34.89 1.783z"/><path id="nlybm" d="M595.612 2454h-3.29c-1.936.667-3.322 2.478-3.322 4.58v2.42h10v-2.42c0-2.126-1.418-3.93-3.388-4.58z"/><path id="nlybn" d="M582.89 2454h3.224c.451-.437.772-1.053.886-1.757a5.998 5.998 0 0 0-.312-.136l-.265-.107h-3.92l-.276.116a6.46 6.46 0 0 0-.227.101c.11.714.433 1.34.89 1.783z"/><path id="nlybo" d="M585.612 2454h-3.29c-1.936.667-3.322 2.478-3.322 4.58v2.42h10v-2.42c0-2.126-1.418-3.93-3.388-4.58z"/><path id="nlybp" d="M598 2423h19v17h-19z"/><path id="nlybq" d="M592 2420h-14v8.63h2.485l3.314 3.37v-3.37H592z"/><path id="nlybr" d="M596 2421h22v2h-22z"/><path id="nlybs" d="M596 2440h22v2h-22z"/><path id="nlybt" d="M611 2431.22c-.37-1.836-2.02-3.22-4-3.22v4z"/><path id="nlybu" d="M607 2432v-4a4 4 0 1 0 3.924 3.22z"/><path id="nlybv" d="M598 2423h19v2h-19z"/><path id="nlybw" d="M586 2443h1v3h-1z"/><path id="nlybx" d="M591 2443h1v3h-1z"/><path id="nlyby" d="M591.323 2435.315c0 1.02-.82 1.85-1.828 1.85a1.841 1.841 0 0 1-1.828-1.85v-1.233c0-1.02.82-1.849 1.828-1.849a1.84 1.84 0 0 1 1.828 1.85zm1.233 0v-1.233c0-1.7-1.371-3.082-3.056-3.082s-3.056 1.383-3.056 3.082v1.233c0 .615.18 1.188.49 1.67a5.568 5.568 0 0 0-2.934 4.905v4.11h1.222v-4.11a4.325 4.325 0 0 1 2.63-3.981 3.017 3.017 0 0 0 3.295 0 4.314 4.314 0 0 1 2.63 3.981v4.11H595v-4.11c0-2.08-1.15-3.958-2.933-4.906a3.08 3.08 0 0 0 .489-1.669z"/><path id="nlybz" d="M615.354 2452.2c0 .474-.186.921-.515 1.256h-2.597a1.787 1.787 0 0 1-.515-1.256v-1.2c0-.993.814-1.8 1.814-1.8s1.813.807 1.813 1.8zm-9.687 0c0 .474-.186.921-.516 1.256h-2.605a1.784 1.784 0 0 1-.516-1.256v-1.2c0-.993.816-1.8 1.818-1.8 1.003 0 1.819.807 1.819 1.8zm-9.697 0c0 .474-.186.921-.516 1.256h-2.605a1.784 1.784 0 0 1-.516-1.256v-1.2c0-.993.816-1.8 1.819-1.8 1.002 0 1.818.807 1.818 1.8zm-9.707 0c0 .474-.186.921-.515 1.256h-2.597a1.787 1.787 0 0 1-.515-1.256v-1.2c0-.993.814-1.8 1.814-1.8s1.813.807 1.813 1.8zm30.313 0v-1.2c0-1.654-1.36-3-3.03-3-1.671 0-3.03 1.346-3.03 3v1.2c0 .58.167 1.134.473 1.61a5.44 5.44 0 0 0-2.294 2.313 5.424 5.424 0 0 0-2.3-2.298c.313-.479.484-1.04.484-1.625v-1.2c0-1.654-1.36-3-3.03-3-1.671 0-3.03 1.346-3.03 3v1.2c0 .58.167 1.134.473 1.61a5.44 5.44 0 0 0-2.294 2.313 5.424 5.424 0 0 0-2.3-2.298c.313-.479.484-1.04.484-1.625v-1.2c0-1.654-1.36-3-3.03-3-1.671 0-3.03 1.346-3.03 3v1.2c0 .58.167 1.134.472 1.61a5.442 5.442 0 0 0-2.293 2.313 5.424 5.424 0 0 0-2.3-2.298c.313-.479.484-1.04.484-1.625v-1.2c0-1.654-1.36-3-3.03-3-1.672 0-3.03 1.346-3.03 3v1.2c0 .58.167 1.134.472 1.61a5.427 5.427 0 0 0-2.897 4.79v2.4h1.212v-2.4a4.227 4.227 0 0 1 2.724-3.944h2.978a4.201 4.201 0 0 1 2.783 3.944v2.4h1.212v-2.4a4.227 4.227 0 0 1 2.724-3.944h2.978a4.2 4.2 0 0 1 2.783 3.944v2.4h1.212v-2.4a4.227 4.227 0 0 1 2.724-3.944h2.978a4.2 4.2 0 0 1 2.783 3.944v2.4h1.212v-2.4a4.227 4.227 0 0 1 2.724-3.944h2.978a4.2 4.2 0 0 1 2.783 3.944v2.4H619v-2.4a5.392 5.392 0 0 0-2.908-4.775c.313-.479.484-1.04.484-1.625z"/><path id="nlybA" d="M579.223 2421.221h12.564v7.33h-8.077v2.448l-2.394-2.449h-2.093zm5.706 12.779v-4.229H593V2420h-15v9.771h2.8z"/><path id="nlybB" d="M596.22 2422.361v-1.175h21.56v1.175zm1.627 17.073v-15.877h18.296v15.877zm19.933 1.195v1.176h-21.56v-1.176zm1.22-17.072V2420h-24v3.557h1.627v15.887H595V2443h24v-3.556h-1.627v-15.887z"/><path id="nlybC" d="M607.505 2434.826a3.332 3.332 0 0 1-3.331-3.326 3.332 3.332 0 0 1 2.743-3.273v3.988l3.918-.778.001.063a3.332 3.332 0 0 1-3.33 3.326zm.582-6.6c1.147.206 2.092 1 2.509 2.06l-2.509.499zM603 2431.5c0 2.481 2.019 4.5 4.5 4.5 2.482 0 4.5-2.019 4.5-4.5s-2.018-4.5-4.5-4.5a4.505 4.505 0 0 0-4.5 4.5z"/><path id="nlybD" d="M600.502 2426.39H599.3v-1.21h1.202zm2.413 0h-1.211v-1.21h1.211z"/><path id="nlybE" d="M612.522 2438.98h-1.202v-1.21h1.202zm2.403 0h-1.202v-1.21h1.202z"/><path id="nlybF" d="M613.76 2425.14h1.202v3.23h-1.202z"/><path id="nlybG" d="M611.36 2425.14h1.202v2.018h-1.202z"/><path id="nlybH" d="M599.26 2435.71h1.202v3.23h-1.202z"/><path id="nlybI" d="M601.67 2436.92h1.202v2.018h-1.202z"/><path id="nlybJ" d="M582.242 2424.29h-1.202v-1.21h1.202zm2.413 0h-1.211v-1.21h1.211zm2.393 0h-1.201v-1.21h1.201zm2.404 0h-1.202v-1.21h1.202z"/><path id="nlybK" d="M583.442 2426.87h-1.202v-1.21h1.202zm2.413 0h-1.211v-1.21h1.211zm2.394 0h-1.202v-1.21h1.202z"/></defs><g><g transform="translate(-578 -2420)"><g><use fill="#40a2e7" xlink:href="#nlyba"/></g><g><use fill="#ecce93" xlink:href="#nlybb"/></g><g><use fill="#ecce93" xlink:href="#nlybc"/></g><g><use fill="#ecce93" xlink:href="#nlybd"/></g><g><use fill="#ecce93" xlink:href="#nlybe"/></g><g><use fill="#168de2" xlink:href="#nlybf"/></g><g><use fill="#ecce93" xlink:href="#nlybg"/></g><g><use fill="#e5bd76" xlink:href="#nlybh"/></g><g><use fill="#77959e" xlink:href="#nlybi"/></g><g><use fill="#e5bd76" xlink:href="#nlybj"/></g><g><use fill="#77959e" xlink:href="#nlybk"/></g><g><use fill="#e5bd76" xlink:href="#nlybl"/></g><g><use fill="#77959e" xlink:href="#nlybm"/></g><g><use fill="#e5bd76" xlink:href="#nlybn"/></g><g><use fill="#77959e" xlink:href="#nlybo"/></g><g><use fill="#ffcb5a" xlink:href="#nlybp"/></g><g><use fill="#00ddc2" xlink:href="#nlybq"/></g><g><use fill="#77959e" xlink:href="#nlybr"/></g><g><use fill="#77959e" xlink:href="#nlybs"/></g><g><use fill="#00ddc2" xlink:href="#nlybt"/></g><g><use fill="#a477bd" xlink:href="#nlybu"/></g><g><use fill="#fba61f" xlink:href="#nlybv"/></g><g><use xlink:href="#nlybw"/></g><g><use xlink:href="#nlybx"/></g><g><use xlink:href="#nlyby"/></g><g><use xlink:href="#nlybz"/></g><g><use xlink:href="#nlybA"/></g><g><use xlink:href="#nlybB"/></g><g><use xlink:href="#nlybC"/></g><g><g><use fill="#fff" xlink:href="#nlybD"/></g><g><use fill="#fff" xlink:href="#nlybE"/></g><g><use fill="#fff" xlink:href="#nlybF"/></g><g><use fill="#fff" xlink:href="#nlybG"/></g><g><use fill="#fff" xlink:href="#nlybH"/></g><g><use fill="#fff" xlink:href="#nlybI"/></g><g><use fill="#fff" xlink:href="#nlybJ"/></g><g><use fill="#fff" xlink:href="#nlybK"/></g></g></g></g></svg>