<?xml version="1.0" encoding="UTF-8"?>
<svg width="351px" height="382px" viewBox="0 0 351 382" version="1.1" xmlns="http://www.w3.org/2000/svg" xmlns:xlink="http://www.w3.org/1999/xlink">
    <!-- Generator: Sketch 52.2 (67145) - http://www.bohemiancoding.com/sketch -->
    <title>Group 4</title>
    <desc>Created with Sketch.</desc>
    <defs>
        <path d="M316.516263,0 C308.725341,0.10042334 300.543912,7.51465713 290.249908,14.9288909 C278.669153,23.2704381 264.412469,31.6098486 245.027988,29.5394185 C217.265758,26.5715883 212.545539,5.8437837 187.230909,5.63439035 C157.874645,5.38867367 155.584955,33.1867087 116.44896,49.2501697 C94.8238687,58.123747 76.0027414,57.6515436 59.7721864,57.1750669 C41.2711463,56.6344902 26.1374234,56.0960502 14.0594664,69.3989377 C5.77134188,78.5267782 3.66090027,88.7592755 1.86627804,98.9832262 C-7.4802682,152.145633 20.8090385,190.684692 30.7978931,212.765007 C49.5784761,254.282579 27.7784038,265.171033 45.7694384,304.466472 C51.4840619,316.946743 65.4718725,320.938037 80.8531294,321 L81.5701247,321 C107.766061,320.901713 137.683545,309.673529 137.683545,309.673529 C165.46498,316.824953 216.326836,324.882324 262.368179,299.962379 C380.46115,236.037581 359.064388,13.4417708 320.417059,0.600403371 C319.228469,0.20725668 318.035611,0.0149566676 316.834217,0 L316.516263,0 Z" id="path-1"></path>
        <linearGradient x1="9.00282834%" y1="109.567955%" x2="91.709163%" y2="-21.3626914%" id="linearGradient-3">
            <stop stop-color="#4DCAE8" offset="0%"></stop>
            <stop stop-color="#FFC8FF" offset="100%"></stop>
        </linearGradient>
        <polygon id="path-4" points="0 259 330 259 330 0 0 0"></polygon>
    </defs>
    <g id="Page-1" stroke="none" stroke-width="1" fill="none" fill-rule="evenodd">
        <g id="Group-4">
            <g id="Group-3">
                <mask id="mask-2" fill="white">
                    <use xlink:href="#path-1"></use>
                </mask>
                <g id="Clip-2"></g>
                <path d="M316.516263,0 C308.725341,0.10042334 300.543912,7.51465713 290.249908,14.9288909 C278.669153,23.2704381 264.412469,31.6098486 245.027988,29.5394185 C217.265758,26.5715883 212.545539,5.8437837 187.230909,5.63439035 C157.874645,5.38867367 155.584955,33.1867087 116.44896,49.2501697 C94.8238687,58.123747 76.0027414,57.6515436 59.7721864,57.1750669 C41.2711463,56.6344902 26.1374234,56.0960502 14.0594664,69.3989377 C5.77134188,78.5267782 3.66090027,88.7592755 1.86627804,98.9832262 C-7.4802682,152.145633 20.8090385,190.684692 30.7978931,212.765007 C49.5784761,254.282579 27.7784038,265.171033 45.7694384,304.466472 C51.4840619,316.946743 65.4718725,320.938037 80.8531294,321 L81.5701247,321 C107.766061,320.901713 137.683545,309.673529 137.683545,309.673529 C165.46498,316.824953 216.326836,324.882324 262.368179,299.962379 C380.46115,236.037581 359.064388,13.4417708 320.417059,0.600403371 C319.228469,0.20725668 318.035611,0.0149566676 316.834217,0 L316.516263,0 Z" id="Fill-1" fill="url(#linearGradient-3)" mask="url(#mask-2)"></path>
            </g>
            <g id="Group-86" transform="translate(11.000000, 123.000000)">
                <path d="M238,237.5 C238,246.06055 254.345328,253 274.502014,253 C294.658701,253 311,246.06055 311,237.5 C311,228.943512 294.658701,222 274.502014,222 C254.345328,222 238,228.943512 238,237.5" id="Fill-1" fill="#92A098"></path>
                <path d="M311,237.605219 C311,246.115302 294.661828,253 274.5,253 C254.338172,253 238,246.115302 238,237.605219 C238,237.064769 238.072525,236.520285 238.201457,236 C240.131416,243.747805 255.639585,249.769395 274.5,249.769395 C293.364444,249.769395 308.872613,243.747805 310.798543,236 C310.927475,236.520285 311,237.064769 311,237.605219" id="Fill-3" fill="#A9B5A9"></path>
                <path d="M289.963603,229.73649 C277.670524,226.657436 278.321946,213.862885 278.321946,213.862885 C278.321946,213.862885 278.401875,168.412684 278.401875,165 L274.565283,165 L270.400983,165 C270.400983,168.412684 270.564837,213.862885 270.564837,213.862885 C270.564837,213.862885 271.464038,226.657436 259.166964,229.73649 C253.020424,231.276016 260.509771,237 274.565283,237 C287.581719,237 296.110142,231.276016 289.963603,229.73649" id="Fill-5" fill="#A9B5A9"></path>
                <path d="M289.248131,71.2990977 C285.633177,73.4159424 276.585718,79.9415235 273.901706,81.671637 C264.922758,87.4563225 240.988299,89.7034346 232.79118,99.823581 C227.560177,106.275887 227.322404,111.563928 227.201502,120.385471 C227.084631,129.207015 228.080053,138.08555 227,146.821606 C228.998904,147.407809 232.396235,146.455229 235.499373,145.331673 C236.623756,144.920516 237.554697,144.362809 238.235776,143.84581 C239.775254,142.685617 237.969792,142.193043 239.041785,140.495497 C241.806399,136.123398 243.120194,130.782436 244.893416,125.771213 C248.331047,116.078506 253.783703,107.155191 261.271533,101.272805 C266.76852,96.953628 273.131967,94.4174851 279.19316,91.2625722 C285.254353,88.1117302 291.271215,84.093796 295.047371,77.7636159 C296.248325,75.7526134 313.122139,71.7835294 310.776651,70.0412034 C308.749536,68.5349869 298.722775,65.7627344 289.248131,71.2990977" id="Fill-7" fill="#FC7E6C"></path>
                <path d="M294.537606,118.429157 C284.052998,118.205368 275.971785,121.179731 267.906702,130.558538 C265.98318,132.788293 263.309605,134.334474 260.837657,135.892861 C258.482652,137.378008 255.909891,138.342337 253.35326,139.298527 C247.385098,141.532352 241.408872,143.766176 235.436677,146 C235.166497,139.058462 234.581779,126.42047 235.485068,117.306141 C236.477073,107.345483 239.271624,103.060934 246.751989,97.9219181 C253.010494,93.6292322 265.99931,92.8683485 272.745752,89.7719182 C283.423922,84.8729668 289.089643,72.4262122 299.69926,72.0071158 C303.961656,71.840291 307.889351,74.6396919 311.655745,76.9426874 C315.200349,79.1114092 318.865929,81.6422629 320.688638,85.7721929 C322.644421,90.1950835 322.067767,95.5009246 321.172543,100.363256 C319.244988,110.89356 318.938515,137.605866 313.204241,128.861808 C311.619452,126.453021 307.219949,118.693635 294.537606,118.429157" id="Fill-9" fill="#C14C49"></path>
                <path d="M227,146 C227,157.601827 249.164723,167 276.502025,167 C303.839327,167 326,157.601827 326,146 C325.736713,132.867859 303.839327,125 276.502025,125 C249.164723,125 227,134.402254 227,146" id="Fill-11" fill="#C14C49"></path>
                <path d="M325.128619,149.928826 C320.784212,159.604474 300.774955,166.933401 276.739667,166.933401 C256.557117,166.933401 239.211731,161.780376 231.602974,154.390442 C230.148122,152.971022 229.043885,151.490595 228.338624,149.928826 C227.786506,148.659888 227.484251,147.334011 227.484251,146 C227.484251,146 226.907952,149.188612 227.012734,152.344687 C227.105425,155.098119 227.238417,156.159634 227.492311,157.619725 C229.491222,168.914082 249.971996,178 276.739667,178 C303.938554,178 324.814274,168.401627 325.982992,153.841383 C326.087773,152.511439 325.696857,151.197763 325.128619,149.928826" id="Fill-13" fill="#FC7E6C"></path>
                <path d="M327.890679,153.241066 C330.149778,128.232208 332.046305,108.956494 325.500099,85 C323.846614,98.5506969 317.898053,110.797114 314.220543,123.795219 C311.164584,134.611397 309.694377,145.939536 308.905485,157.263612 C308.51104,163.013008 307.9373,160.018446 307.765975,165.784095 C307.710195,167.82381 305.929213,172.69556 307.997065,172.992172 C309.088763,173.146572 312.929629,170.972773 314.009375,170.375485 C327.886695,162.659511 327.528108,157.22298 327.890679,153.241066" id="Fill-15" fill="#E05F5F"></path>
                <path d="M303.936128,147.573234 C304.864246,135.792862 307.399192,124.020557 312.599921,113.764657 C315.682743,107.682904 319.816342,101.677778 319.759101,94.6644041 C319.710037,88.3084079 317.481738,80.6820189 309.234984,77.4072289 C298.441018,73.1161249 288.579258,77.4515919 284,81.4482875 C290.190176,75.0600273 291.784739,66.9900092 306.822696,69.4541676 C315.143045,70.8173191 322.469858,77.2660742 325.826618,85.9531402 C329.191555,94.6361732 328.615059,105.138086 324.33427,113.280698 C322.441238,116.88216 319.898114,119.999663 318.00917,123.601126 C313.85104,131.525956 313.478975,141.136577 312.967897,150.3439 C312.285097,162.600164 312.203325,171.589704 308.392728,172.884295 C307.959334,173.029483 307.562737,173.041582 307.014861,172.900427 C302.627769,171.767156 303.576329,152.126482 303.936128,147.573234" id="Fill-17" fill="#FC7E6C"></path>
                <path d="M179.595915,251.818099 C176.808123,249.863941 184.175285,246.852942 193.908455,242.741232 C199.970095,240.180886 204.131698,236.491913 208.735171,237.05822 C212.936944,237.568694 210.145135,246.143064 209.406008,247.658533 C209.052513,247.7702 208.421845,247.869902 208.265183,247.662521 C206.25267,242.940636 199.050204,250.242808 194.824329,250.920782 C192.309693,251.327566 180.475636,252.432264 179.595915,251.818099" id="Fill-19" fill="#7C3E8C"></path>
                <mask id="mask-5" fill="white">
                    <use xlink:href="#path-4"></use>
                </mask>
                <g id="Clip-22"></g>
                <polygon id="Fill-21" fill="#92A098" mask="url(#mask-5)" points="222 233 232 233 232 110 222 110"></polygon>
                <path d="M201.63169,240.43796 C203.159339,241.708074 208.1182,240.583116 210.013765,239.454126 C210.305698,239.280745 210.55764,239.075108 210.681611,238.909792 C211.837346,217.132378 217.476051,179.04509 210.777589,155.175013 C209.869798,151.925134 208.454123,148.465586 205.206869,146.820486 C199.936079,144.155263 195.837021,148.47365 196.004982,152.747684 C196.272921,159.654684 198.080506,166.690712 198.872324,173.569488 C200.479955,187.641543 201.439734,201.794241 201.743664,215.979196 C201.923623,224.124053 201.883632,232.281007 201.63169,240.43796" id="Fill-23" fill="#FFB276" mask="url(#mask-5)"></path>
                <path d="M190.818611,245.94494 C194.169546,246.390883 203.147822,244.106878 209.770097,239.860723 C210.239705,239.558257 209.829793,237.599984 209.917347,237.053219 C209.981023,236.642176 208.890576,238.755559 208.560258,238.487993 C207.871764,237.929594 206.956426,237.689173 206.057006,237.658151 C205.161567,237.627128 204.266127,237.789995 203.382626,237.948983 C202.924957,238.034294 201.679301,238.348393 201.006726,238.720659 C199.983935,239.279057 186.604074,245.382664 190.818611,245.94494" id="Fill-24" fill="#FFB276" mask="url(#mask-5)"></path>
                <path d="M233.100322,253.998584 C229.712429,253.637634 234.647927,247.255378 241.094947,238.703319 C245.108296,233.379303 246.916509,227.993761 251.202494,226.197214 C255.107591,224.556531 256.899766,233.641812 257,235.372732 C256.747412,235.647547 256.246244,236.049514 256.009693,235.946971 C251.932194,232.718928 249.257964,242.866551 245.914174,245.585983 C243.921532,247.206157 234.170816,254.113432 233.100322,253.998584" id="Fill-25" fill="#7C3E8C" mask="url(#mask-5)"></path>
                <path d="M246.789221,233.975174 C249.052055,234.389242 254.278315,229.505668 253.988415,228.137617 C244.357278,208.440939 231.058097,171.458924 213.148693,154.575477 C210.680513,152.249385 207.825799,149.838044 204.169833,150.008543 C198.238953,150.284589 196.753214,156.118086 198.987863,159.783811 C202.599539,165.718795 207.628506,170.992082 211.683085,176.642901 C219.973432,188.196229 227.736321,200.143328 234.939541,212.439543 C239.074649,219.507127 243.024542,226.684317 246.789221,233.975174" id="Fill-26" fill="#FFC593" mask="url(#mask-5)"></path>
                <path d="M240.077867,243.856777 C243.318306,242.578978 250.045295,235.891008 253.962535,228.908161 C254.245561,228.400318 252.838636,226.590102 252.637646,226.045399 C252.477675,225.635847 252.596628,228.134109 252.157733,228.056295 C251.251231,227.888379 250.30371,228.125918 249.479243,228.551851 C248.658879,228.973689 247.94106,229.575729 247.227343,230.165483 C246.858179,230.472646 246.505422,230.546365 245.455356,232.016654 C244.753944,232.999577 236.000656,245.466313 240.077867,243.856777" id="Fill-27" fill="#FFC593" mask="url(#mask-5)"></path>
                <path d="M261.615044,161.50285 C261.163475,161.50285 260.711906,161.518945 260.264406,161.531015 C245.801994,161.933369 228.870192,165.799989 221.876975,164.850434 C215.925215,164.061821 200.824098,155.061165 197,147.56129 C215.64451,134.396273 239.508506,141.437465 249.740001,128.743201 C252.868438,124.868534 252.441278,118.567673 251.949027,115.706937 C270.65456,112.56053 275.536387,109.039934 279.022825,107 C279.083847,107.05633 279.128597,107.112659 279.181484,107.173012 C284.518948,112.934719 292.338007,130.598052 292.931962,138.834235 C293.802555,151.053721 286.479815,161.17292 261.615044,161.50285" id="Fill-28" fill="#EB6782" mask="url(#mask-5)"></path>
                <path d="M261.472801,161.971503 C261.019185,161.971503 260.56557,161.987787 260.116041,162 C263.789918,161.303849 267.341197,160.155811 270.569632,158.234271 C276.364469,154.802369 280.610474,148.997039 282.612921,142.585122 C284.623542,136.140637 284.464163,129.146558 282.670134,122.677646 C281.983581,120.218727 280.814806,117.544041 278.420042,116.623982 C276.201004,115.781273 273.732681,116.758327 271.485037,117.588823 C266.830369,119.314952 261.938676,120.438564 257.002031,120.931162 C255.776043,121.045152 254.521449,121.118431 253.295461,121.163212 C253.033917,121.163212 252.686553,121.236491 252.30241,121.281273 C252.433182,119.082902 252.228851,117.079941 252,115.764989 C270.655451,112.597705 275.616616,109.064027 279.118855,107 C284.48051,112.829756 292.335007,130.701702 292.931654,139.035159 C293.806192,151.398964 286.450264,161.637676 261.472801,161.971503" id="Fill-29" fill="#EB6782" mask="url(#mask-5)"></path>
                <path d="M270.880857,123.569773 C269.525568,128.253061 272.956269,138.035931 268.93895,140.849907 C266.094866,142.843307 262.380971,143.051453 258.897676,142.991411 C246.906404,142.771256 234.967725,140.161424 224,135.358051 C230.549888,123.289576 241.42861,113.570751 254.233055,108.347083 C256.219463,107.538515 258.38388,106.818009 260.491657,107.262321 C263.716031,107.942799 278.179188,104.516393 280.497339,106.789989 C283.211962,109.455861 274.202326,112.105722 270.880857,123.569773" id="Fill-30" fill="#D94F6E" mask="url(#mask-5)"></path>
                <path d="M92,244.5 C92,253.06055 75.6546719,260 55.4979855,260 C35.3412992,260 19,253.06055 19,244.5 C19,235.93945 35.3412992,229 55.4979855,229 C75.6546719,229 92,235.93945 92,244.5" id="Fill-31" fill="#92A098" mask="url(#mask-5)"></path>
                <path d="M19,243.605219 C19,252.115302 35.338172,259 55.5,259 C75.661828,259 92,252.115302 92,243.605219 C92,243.064769 91.9274754,242.520285 91.7985429,242 C89.8685837,249.747805 74.3604151,255.769395 55.5,255.769395 C36.6355558,255.769395 21.1273871,249.747805 19.197428,242 C19.0725246,242.520285 19,243.064769 19,243.605219" id="Fill-32" fill="#A9B5A9" mask="url(#mask-5)"></path>
                <path d="M40.0363973,235.736895 C52.3294757,232.658014 51.6780544,219.864177 51.6780544,219.864177 C51.6780544,219.864177 51.5981255,174.416513 51.5981255,171 L55.4347169,171 L59.5990172,171 C59.5990172,174.416513 59.4351627,219.864177 59.4351627,219.864177 C59.4351627,219.864177 58.5359616,232.658014 70.8330364,235.736895 C76.9795756,237.276336 69.4902294,243 55.4347169,243 C42.4182812,243 33.8898582,237.276336 40.0363973,235.736895" id="Fill-33" fill="#A9B5A9" mask="url(#mask-5)"></path>
                <path d="M40.751869,78.2990977 C44.3668226,80.4159424 53.4142817,86.9415235 56.0982941,88.671637 C65.0772425,94.4563225 89.0117012,96.7034346 97.2088201,106.81951 C102.439823,113.275887 102.677596,118.559857 102.798498,127.385471 C102.915369,136.207015 101.919947,145.08555 103,153.821606 C101.001096,154.407809 97.6037649,153.455229 94.5006275,152.331673 C93.3762439,151.920516 92.4453027,151.362809 91.7601944,150.84581 C90.2247459,149.685617 92.0302076,149.188972 90.9582147,147.495497 C88.1936014,143.123398 86.8798055,137.782436 85.1065841,132.771213 C81.6689526,123.078506 76.2162968,114.155191 68.7284665,108.272805 C63.2314802,103.953628 56.8680334,101.417485 50.8068403,98.2625722 C44.7456471,95.1076593 38.7287846,91.093796 34.952629,84.7636159 C33.7516745,82.7526134 16.8778609,78.7835294 19.2233492,77.0412034 C21.2464336,75.5349869 31.2772246,72.7627344 40.751869,78.2990977" id="Fill-34" fill="#FC7E6C" mask="url(#mask-5)"></path>
                <path d="M35.4634453,124.429157 C45.9478681,124.205368 54.0289386,127.179731 62.0938793,136.558538 C64.0173676,138.788293 66.6908954,140.334474 69.1627997,141.892861 C71.5177624,143.378008 74.0904784,144.342337 76.6470646,145.298527 C82.6151207,147.532352 88.5912417,149.766176 94.5633302,152 C94.8335057,145.058462 95.4182139,132.416401 94.5149406,123.306141 C93.5229529,113.345483 90.728451,109.060934 83.2482185,103.921918 C76.9898246,99.6292322 64.0012377,98.8642796 57.2549149,95.7719182 C46.5769335,90.8729668 40.9113127,78.4221433 30.3018833,78.0071158 C26.0395622,77.840291 22.1119361,80.6396919 18.3456088,82.9426874 C14.8010674,85.1073403 11.1355519,87.6422629 9.31287531,91.7721929 C7.35309473,96.1950835 7.93377046,101.500925 8.82897887,106.363256 C10.7564997,116.89356 11.058935,143.605866 16.7971402,134.861808 C18.381901,132.453021 22.7813262,124.693635 35.4634453,124.429157" id="Fill-35" fill="#C14C49" mask="url(#mask-5)"></path>
                <path d="M103,153.368843 C103,164.766896 80.8352768,174 53.4979747,174 C26.1606726,174 4,164.766896 4,153.368843 C4.2632871,140.467354 23.1267951,139 50.4640972,139 C77.8013993,139 103,141.97079 103,153.368843" id="Fill-36" fill="#C14C49" mask="url(#mask-5)"></path>
                <path d="M4.87540536,156.928826 C9.21577867,166.604474 29.2250205,173.933401 53.2602911,173.933401 C73.4428254,173.933401 90.7881984,168.780376 98.3929193,161.390442 C99.8518006,159.971022 100.956037,158.490595 101.661297,156.928826 C102.213415,155.659888 102.5197,154.334011 102.5197,153 C102.5197,153 103.091968,156.188612 102.987186,159.344687 C102.894495,162.098119 102.761503,163.159634 102.507609,164.619725 C100.5087,175.914082 80.0279415,185 53.2602911,185 C26.0614244,185 5.18571989,175.401627 4.01700284,160.841383 C3.91222132,159.511439 4.30313702,158.197763 4.87540536,156.928826" id="Fill-37" fill="#FC7E6C" mask="url(#mask-5)"></path>
                <path d="M2.10915936,160.241077 C-0.149766503,135.232215 -2.04614871,115.956498 4.4995571,92 C6.15291553,105.550699 12.1010219,117.797118 15.7782504,130.795225 C18.8339755,141.611405 20.3040701,152.939545 21.0929014,164.263623 C21.487317,170.01302 22.0610125,167.018458 22.2323243,172.784107 C22.2881003,174.81976 24.0729306,179.695573 22.0012525,179.992185 C20.9096376,180.146586 17.0690652,177.968723 15.9894022,177.375499 C2.11314336,169.659523 2.46771902,164.222991 2.10915936,160.241077" id="Fill-38" fill="#E05F5F" mask="url(#mask-5)"></path>
                <path d="M88.4519699,34.3832265 C91.1767061,33.1767222 93.9014423,31.9702179 96.6181053,30.7637137 C97.6797432,30.2974713 98.8261507,29.8189595 99.9564117,30.06844 C101.001903,30.3015612 101.841525,31.1481591 102.309776,32.1297219 C102.773991,33.1071948 102.911237,34.2155428 102.96775,35.3034416 C103.306828,41.7367677 100.9575,48.2723399 96.610032,52.9715718 C95.3021586,54.3866581 93.7763063,55.6708694 91.9517422,56.2598071 C90.482403,56.738319 88.9000377,56.7342291 87.3943686,57.0695964 C82.2718646,58.2065733 78.6631028,62.9753325 73.7343578,64.7912237 C73.3347298,64.9384581 72.9028087,65.0652433 72.4910708,64.9629972 C71.8936471,64.8157628 71.5101657,64.2390946 71.2276005,63.6828757 C69.4151463,60.0674528 69.7703712,55.6463304 71.2477837,51.8754933 C72.7251962,48.1046563 75.215807,44.8491397 77.6700879,41.6386114 C79.3614426,39.4382748 81.0850906,37.2011296 83.3335025,35.6020003 C85.5859511,33.998781 88.4882998,33.0990151 91.132303,33.867906 L88.4519699,34.3832265 Z" id="Fill-39" fill="#F1A32C" mask="url(#mask-5)"></path>
                <path d="M117.737977,76.9625544 C116.355092,81.2036011 114.036727,85.3235904 110.323275,87.8375505 C106.626093,90.3636164 101.318256,90.8881987 97.6942854,88.2733574 C94.3753624,85.868349 93.1470356,81.5829145 92.2969683,77.5799475 C90.5683626,69.3359338 89.5515357,60.7610297 90.1941703,52.371747 C92.8297856,52.0408566 94.542122,49.1354773 95.6606316,45.5279647 C96.0429585,44.3093195 96.3602085,43.0018988 96.6205162,41.6944781 C97.0760546,39.3621042 97.3607662,37.0014835 97.5275258,35 C101.167766,35.6012521 106.382054,44.1438742 110.006025,44.7491616 C109.729448,46.2220275 108.200141,48.5342252 107.667323,50.8988811 C107.333804,52.3273592 108.143198,53.4693347 109.01767,54.7646496 C111.474323,58.3116335 118.832083,55.9954006 119.356765,58.3277745 C120.768121,64.461353 119.690284,71.0065269 117.737977,76.9625544" id="Fill-40" fill="#FFC593" mask="url(#mask-5)"></path>
                <path d="M109,44.8111675 C108.733976,46.293401 107.241066,48.6203046 106.72093,51 C105.585366,49.684264 104.707884,48.7299492 101.944413,47.3695431 C98.7918321,45.8060914 96.4968803,45.5786802 95,45.5949239 C95.3692569,44.3725888 95.6829268,43.0527919 95.9330686,41.7370558 C96.3777652,39.3898477 96.659671,37.0142132 96.8224617,35 C100.372093,35.6050761 105.46228,44.2060914 109,44.8111675" id="Fill-41" fill="#FFB276" mask="url(#mask-5)"></path>
                <path d="M132.982748,86.5405434 C132.686971,88.0875716 131.708935,89.3888479 130.750618,90.621636 C129.011449,92.8535465 127.24073,95.0653134 125.442406,97.2529079 C125.182122,97.5671481 124.890289,97.9015318 124.491976,97.9821061 C123.651969,98.1472836 123.095908,97.1360751 122.835624,96.3021302 C120.090813,87.5718955 116.214162,78.2816689 116.001203,69.1163326 C115.938104,66.2841429 118.375306,63.5204415 119.235032,60.7970273 C119.676725,59.4030904 120.102644,58.246848 121.21871,59.6085551 C122.157309,60.7647975 123.711124,62.07816 124.420989,63.3915225 C127.414253,68.9390689 133.361343,84.5785571 132.982748,86.5405434" id="Fill-42" fill="#95A225" mask="url(#mask-5)"></path>
                <path d="M117.523085,72.9313295 C117.055733,76.2621573 114.533648,84.7179545 109.682863,89.6176505 C109.594227,89.7101735 109.505592,89.7986738 109.412927,89.8751058 C104.348611,94.7949155 91.2708312,102.337551 83.7770941,105.708606 C76.1383168,109.160116 68.0563616,116.384955 64.5713709,124 C58.0848565,118.710098 43.3552311,118.710098 39,108.600955 C40.3214762,107.748135 42.7831286,105.125309 45.1561454,102.36571 C48.0851491,99.0187914 50.8932861,95.4828039 51.4331575,94.7949155 C54.6159813,90.7882675 57.4845517,86.5322098 60.0106663,82.0790378 C61.9767651,78.5993686 63.2660102,73.0520117 66.045945,70.2320717 C68.1167949,68.1362247 71.0135675,68.0437017 73.8217045,68.6591808 C73.7330689,68.3896573 73.7008378,68.1040428 73.7935023,67.7741782 C73.914369,67.3397224 74.3172581,66.9495168 74.4824426,66.515061 C74.7684939,65.8070589 74.8893606,65.0145793 75.1149785,64.2824409 C76.0134212,61.2211365 77.2180596,58.240287 78.7006915,55.4042561 C79.6192786,53.634251 80.8078014,51.7918365 82.6973513,51.1602665 C84.6191323,50.5327193 87.955054,51.8964277 89.8325172,52.6929301 C89.9090661,56.7116462 94.7115041,64.3548502 98.4221127,66.1127871 C102.116606,67.8626785 106.979477,67.3397224 109.203425,63.8922352 C110.629652,61.6555923 111.052686,58.5098105 113.437789,57.3231025 C115.117837,59.4953816 116.830115,61.7320244 117.567403,64.3870321 C118.332892,67.146631 117.930003,70.0832304 117.523085,72.9313295" id="Fill-43" fill="#A6B641" mask="url(#mask-5)"></path>
                <path d="M110,90 C104.893752,94.9018036 91.7076897,102.416834 84.1519053,105.779559 C76.4458176,109.214429 68.2969447,116.412826 64.787161,124 C58.246939,118.729459 43.3953542,118.729459 39,108.657315 C40.3364801,107.807615 42.8185147,105.194389 45.2111798,102.44489 C48.5097265,105.627255 52.6572834,109.126253 57.3329328,109.45491 C63.4831789,109.891784 70.4336881,108.084168 75.9461609,105.346693 C89.9649846,98.4048096 102.37922,94.7655311 110,90" id="Fill-44" fill="#A6B641" mask="url(#mask-5)"></path>
                <path d="M127.760293,68.7154209 C127.096421,72.8056088 120.413167,73.6486554 119.810015,77.7348096 C119.554991,79.4652737 120.550799,81.0868275 121.287536,82.6680441 C122.040465,84.2331259 122.510033,86.2620849 121.408976,87.6012786 C120.652,88.533067 118.648238,92.1674449 117.454077,91.9939952 C114.964555,91.6309607 115.883452,89.6020017 114.073994,88.2305383 C112.353593,86.9518503 109.321638,85.1810491 110.046231,83.1641911 C110.770823,81.1352321 112.11476,79.404768 112.867689,77.3919438 C114.00113,74.3827917 113.640858,70.8653915 111.9326,68.1426333 C111.16348,66.9284848 109.56047,65.9805616 108.835878,64.7502783 C108.099141,63.4998263 107.880549,62.326015 108.410837,60.9868214 C108.908742,59.7242683 109.264966,58.8933228 109.382358,57.542028 C109.532134,55.682485 107.629573,54.2505159 106.617572,52.6692993 C105.034803,50.2369686 107.297636,46.7195684 108.159861,43.9363044 C110.333639,36.9337737 110.588663,29.4875342 110.815351,22.1542388 C110.892263,20.0042683 110.908455,17.6606794 109.637382,15.9140804 C109.414742,15.5994505 109.15567,15.3291916 108.868262,15.0710338 C107.771253,14.0182339 106.305876,13.3123337 105.188627,12.2474327 C104.747394,11.8238925 104.358786,11.3277455 104.059234,10.8033624 C103.002705,9.07289829 102.699105,6.87855687 103.318449,4.95044069 C105.156243,-0.94281818 121.376592,2.30028937 123.453218,11.9368366 C124.254723,15.6599563 124.473315,18.0922869 124.214243,21.8839799 C124.214243,21.9404519 124.198051,22.0170925 124.198051,22.0775982 C123.943026,25.8208865 123.882306,29.6408154 125.044083,33.2025865 C125.724148,35.2960851 126.825205,37.397651 126.44874,39.5637565 C125.918452,42.480133 122.793393,45.0980146 123.959218,47.8167391 C124.817395,49.7892262 127.638853,50.600003 127.97079,52.7177039 C128.318918,55.0169219 125.452932,56.5376328 124.817395,58.7763451 C123.849922,62.1929024 128.33511,65.2302904 127.760293,68.7154209" id="Fill-45" fill="#F1A32C" mask="url(#mask-5)"></path>
                <path d="M95.6008997,27.9476437 C95.3533514,30.1083135 94.4390201,30.7385089 95.5050745,33.2633825 C98.4596825,40.2732829 104.612454,46.4361025 109.100264,46.9680856 C114.426543,47.6105575 120.623235,38.4604482 121.829034,27.861708 C123.038826,17.2670599 117.67262,9.89704792 110.649437,9.05405932 C103.626254,8.21107071 96.8106918,17.3489035 95.6008997,27.9476437" id="Fill-46" fill="#FFC593" mask="url(#mask-5)"></path>
                <path d="M123.939885,23.7942585 C123.939885,23.853257 123.927857,23.9240552 123.927857,23.9830538 C122.957626,24.1325167 121.983384,23.3104705 121.085319,20.8325322 C118.383103,13.3987172 112.994708,16.3801097 111.996411,16.0025191 C110.769589,15.5187311 109.971754,16.5964376 108.744932,17.154957 C106.515804,18.1618653 108.159585,16.5885711 105.890366,16.0025191 C105.60972,15.9277876 102.570729,18.6613862 102.346213,18.4607912 C102.04953,18.1618653 101.989392,17.7370759 102.00142,17.3555521 C102.033494,15.6721273 102.799255,14.1932308 103.977966,12.9896607 C104.471101,12.4468742 105.084512,11.9630863 105.725987,11.5540298 C107.790737,10.2481956 110.316547,9.55987941 112.794247,8.88336292 C114.498166,8.43104084 116.23015,7.96298582 118.082411,8.00231818 C119.698128,8.049517 121.462186,8.51757202 122.777211,9.54414647 C123.001727,9.58741206 122.957626,11.7546248 123.08993,12.7654663 C123.599101,16.4469747 124.192466,20.1009504 123.939885,23.7942585" id="Fill-47" fill="#F1A32C" mask="url(#mask-5)"></path>
                <path d="M257.708238,82.4607272 C257.274926,86.5226827 256.501443,90.9197698 253.452058,93.645237 C250.131346,96.6250811 244.834405,96.6250811 240.894097,94.4971978 C236.969987,92.3612391 234.252673,88.4930945 232.44248,84.4149881 C229.891201,78.6814127 229.607726,75.7500213 230.373109,69.5036543 C230.676833,67.1254318 235.155745,64.8804544 238.176783,61.799667 C239.415975,60.5277823 239.460521,58.892502 239.35523,58.0647675 C239.278287,57.4025799 239.039358,56.6959773 238.747783,55.9691861 C238.330669,54.9920556 237.783967,53.9705102 237.362803,53.0216438 C237.334456,52.9449269 237.302058,52.8722478 237.269661,52.8116819 L237.269661,52.795531 C237.075278,52.3594562 236.925441,51.9516456 236.803952,51.5640236 C237.767768,51.3056089 238.840925,50.6151572 239.958628,49.7551209 C242.975616,47.4092003 246.340874,43.7066026 248.908352,43 C248.92455,43.3189806 248.956947,43.6177726 248.985295,43.9165645 C249.001494,44.2476583 249.029841,44.5343371 249.074387,44.8048649 C249.106784,45.1076946 249.151331,45.3741848 249.208026,45.6487503 C249.349763,46.6420317 249.540097,47.5747471 249.787125,48.4468966 C249.888367,48.8224055 249.997707,49.1858011 250.119197,49.5491967 C252.670475,57.3097122 258.61536,60.44299 262.750051,60.5641219 C264.244372,68.8576176 258.587012,74.0784014 257.708238,82.4607272" id="Fill-48" fill="#FFC593" mask="url(#mask-5)"></path>
                <path d="M250,48.426045 C249.688774,49.7041801 249.255581,50.7371383 246.189583,52.5860129 C242.097379,55.0418006 239.918797,57.0996785 239.165966,58 C239.086056,57.340836 238.837917,56.6374598 238.535102,55.9139871 C238.101909,54.9413183 237.534131,53.9244373 237.096732,52.9799035 C237.067292,52.903537 237.033646,52.8311897 237,52.7709003 L237,52.7548232 C237.206082,52.5016077 237.424782,52.2604502 237.643481,52.0233119 C238.366872,51.255627 239.069233,50.4959807 239.792624,49.7282958 C242.925914,47.3930868 246.420899,43.7073955 249.08735,43 C249.104173,43.329582 249.137819,43.6511254 249.16726,43.9163987 C249.184083,44.2459807 249.213523,44.5313505 249.259786,44.8006431 C249.293433,45.10209 249.339696,45.3673633 249.398577,45.6406752 C249.545778,46.6294212 249.743449,47.5578778 250,48.426045" id="Fill-49" fill="#FFB276" mask="url(#mask-5)"></path>
                <path d="M250.714745,33.7972181 C251.373576,35.8423639 252.41947,36.2739825 251.822405,38.9242011 C250.154739,46.2697842 245.089977,53.4056087 240.646986,54.7811407 C235.368104,56.4108033 227.363308,48.7304133 224.130919,38.7023411 C220.89853,28.670235 224.937987,20.5178883 231.896888,18.3678632 C238.851672,16.217838 247.486474,23.7691458 250.714745,33.7972181" id="Fill-50" fill="#FFC593" mask="url(#mask-5)"></path>
                <path d="M230.980415,72.9622275 C225.403843,82.1141886 217.32548,98.4024038 206.870417,102.567928 C205.147409,103.258795 179.161069,89.4495749 175.896636,82.4596223 C174.956447,80.4561069 171.833244,77.156199 169.847952,74.4455604 C167.584235,71.3569767 161.535551,70.7798992 157.52058,71.064374 C156.665129,71.1253329 155.317391,71.2106754 155.071247,72.2144651 C154.554748,74.2789395 156.983906,74.9494872 157.932165,76.4003088 C159.219377,78.3509932 158.097606,80.3219973 159.73184,82.1548279 C163.391718,86.263457 164.844371,85.5075668 169.868127,88.6611733 C178.192634,93.8833181 188.106988,105.408612 198.352223,111.829615 C199.92593,112.821213 205.849525,115.783815 207.903414,115.970756 C210.857141,116.238975 213.16121,114.637788 216.647576,112.170985 C223.353988,107.436511 233.922036,94.5741855 240.571957,85.6498042 C243.130239,82.2198507 233.490275,68.8414066 230.980415,72.9622275" id="Fill-51" fill="#FFB276" mask="url(#mask-5)"></path>
                <path d="M280,108.461982 C273.961513,114.129392 265.659099,116.328868 258.72962,116.853327 C256.510243,117.036278 254.428565,117.036278 252.614184,116.918376 C251.200748,109.689785 249.945261,106.811359 246.049202,103.778441 C244.963813,102.932802 243.663776,102.083097 242.096443,101.111425 C231.526052,94.5943096 231.092706,83.3082764 229.023178,74.7136532 C228.79233,71.9571941 230.262465,67.5745054 234.486571,65.1961447 C235.150764,65.7124726 241.007004,79.4093911 243.27498,77.8197517 C249.297268,73.5468335 254.201767,60.9110298 262.172085,61.0004724 C266.274692,61.0451937 270.097853,63.4560791 271.908184,68.0339153 C273.358069,71.7132597 276.978731,95.8099162 280,108.461982" id="Fill-52" fill="#FCA1B7" mask="url(#mask-5)"></path>
                <path d="M268.786603,82.3063281 C268.35599,86.1981533 266.876755,90.3630891 265.022727,93.7769709 C262.363293,98.6407484 259.213439,103.464363 258.43993,108.974769 C258.124945,111.248013 258.232598,113.553387 258.483789,115.858762 C256.298827,116.03548 254.249428,116.03548 252.463182,115.919007 C251.071664,108.777969 249.835645,105.934406 246,102.938223 C246.817367,101.263413 247.858015,99.6568803 248.882715,98.090511 C253.077204,91.6643805 257.263719,85.2422664 261.47017,78.8081033 C262.542715,77.1614074 263.555453,75.4544665 264.69578,73.8639993 C265.513147,72.7113121 266.003567,70.1328273 267.012318,71.2935471 C269.388664,74.0246525 269.11355,79.3985041 268.786603,82.3063281" id="Fill-53" fill="#D94F6E" mask="url(#mask-5)"></path>
                <polygon id="Fill-54" fill="#92A098" mask="url(#mask-5)" points="104 233 114 233 114 110 104 110"></polygon>
                <path d="M269.972127,130.999201 C269.701285,131.03148 268.961524,130.075224 268.650259,130.075224 L83.3178261,130.075224 C83.0065604,130.075224 82.7235916,130.051015 82.4487077,130.018736 C82.2991384,129.518416 82,130.813598 82,130.28907 C82,128.997922 82.0323393,127.755193 83.5644132,126.286513 L101.726967,108.609899 C102.777994,107.585051 104.338365,107 105.975542,107 L245.996585,107 C247.62972,107 249.19009,107.585051 250.241117,108.609899 L268.403671,126.286513 C270.29552,128.029562 269.988297,129.151246 269.972127,130.999201" id="Fill-55" fill="#D3EAE2" mask="url(#mask-5)"></path>
                <path d="M170,89 C178.406551,94.1574236 188.418619,105.539878 198.76483,111.881301 C200.349973,112.856596 206.336024,115.786494 208.410156,115.971118 C211.388919,116.236013 213.719771,114.654671 217.240498,112.21844 L222,103.03943 L205.957057,102.794603 L170,89 Z" id="Fill-56" fill="#FFB276" mask="url(#mask-5)"></path>
                <path d="M90.3437693,111.388883 C86.9999555,113.111003 83.724712,115.145131 81.316682,118.038293 C78.9046185,120.931456 77.4525401,124.825474 78.1947135,128.524994 C78.3278207,129.205738 78.7110081,130.008043 79.4007453,129.999939 C80.1025832,129.995887 80.4615692,129.161165 80.5785422,128.464213 C80.6955152,127.771313 80.8487901,126.932539 81.5022254,126.67726 C82.2443988,126.385512 83.9949599,128.35886 86.9273515,127.605179 C88.0244774,127.321535 88.9158922,126.543542 89.3716835,125.502166 C90.7874599,122.268632 93.6714489,117.094166 96.5594714,115.068142 C98.4592739,113.739071 121.071361,112.142564 131.6675,107.810924 C133.563269,107.036983 137.024055,106.712819 135.709118,101.643707 C135.551809,101.0359 132.740424,85.3180061 131.982117,85.0141026 C130.550206,84.4427638 126.423883,101.424897 124.209464,100.796829 C122.140252,100.20523 99.7177419,107.348991 98.1930596,107.92033 C95.5107481,108.921186 92.8929735,110.080071 90.3437693,111.388883" id="Fill-57" fill="#FFB276" mask="url(#mask-5)"></path>
                <path d="M182.756017,240.084846 C184.512601,237.237894 176.56386,237.413873 166.004308,237.531192 C159.427147,237.597673 154.133334,235.916094 150.150943,238.215556 C146.517462,240.323396 152.533159,246.928482 153.820518,248 C154.18948,247.964804 154.803081,247.804468 154.867249,247.558097 C154.799071,242.532913 164.335955,246.275404 168.470744,245.23126 C170.937179,244.613378 182.202573,240.980385 182.756017,240.084846" id="Fill-58" fill="#EB6782" mask="url(#mask-5)"></path>
                <path d="M159,239.342352 C157.958257,241.411102 150.932546,242.67669 150.015973,241.617977 C140.192091,222.021644 119.668132,189.229932 116.260258,164.510401 C115.799953,161.143612 115.711122,157.379299 118.057063,154.543895 C121.8566,149.935857 127.3843,152.247989 128.950953,156.251628 C131.478594,162.725598 132.633395,169.949996 134.672466,176.606503 C138.83944,190.2278 143.640342,203.654391 149.059023,216.849769 C152.172139,224.427072 155.487144,231.927304 159,239.342352" id="Fill-59" fill="#FFB276" mask="url(#mask-5)"></path>
                <path d="M170.422671,239.673663 C167.499173,241.311885 158.354181,242.776299 150.449462,241.537464 C149.881675,241.445013 149.321942,239.473971 149.019928,239.030209 C148.78637,238.693689 150.678993,240.135916 150.872282,239.777208 C151.278995,239.030209 152.02799,238.482902 152.845442,238.120497 C153.66692,237.758091 154.560883,237.569492 155.442764,237.377195 C155.905853,237.281047 154.862897,236.785513 157.943442,237.10724 C159.123311,237.229275 174.091137,237.61017 170.422671,239.673663" id="Fill-60" fill="#FFB276" mask="url(#mask-5)"></path>
                <path d="M92.8991867,255.998683 C96.2870097,255.637785 91.3556224,249.256441 84.9087356,240.705604 C80.8914591,235.378248 79.087293,229.993476 74.8013963,228.197185 C70.8923698,226.556737 69.1002314,235.64072 69,237.371393 C69.2565925,237.646168 69.7577498,238.048078 69.9902867,237.94555 C74.0677021,234.722069 76.7458864,244.86414 80.0896075,247.583183 C82.0781995,249.203126 91.8287148,256.109414 92.8991867,255.998683" id="Fill-61" fill="#ED81A8" mask="url(#mask-5)"></path>
                <path d="M79.2067603,235.975625 C76.9439268,236.385635 71.7216936,231.506109 72.011594,230.138056 C81.6387023,210.437273 95.3042839,174.202123 112.851309,156.571688 C115.242987,154.17252 118.174202,151.838304 121.830168,152.008803 C127.761047,152.28485 129.246786,158.1143 127.012137,161.784094 C123.400462,167.715032 118.371496,172.99239 114.316917,178.639163 C106.026571,190.196576 98.2636835,202.139643 91.0604645,214.439946 C86.9253577,221.507546 82.9754651,228.684752 79.2067603,235.975625" id="Fill-62" fill="#FFC593" mask="url(#mask-5)"></path>
                <path d="M85.9349318,245.856914 C82.6857941,244.57911 75.7926867,238.185991 72.0335577,230.941004 C71.7703364,230.420872 73.1357969,228.590171 73.3373257,228.045466 C73.501839,227.635913 73.3825668,230.130089 73.8185271,230.052274 C74.7274631,229.884358 75.6816402,230.125994 76.5042067,230.551929 C77.3308861,230.973768 78.0506318,231.571715 78.7621518,232.161471 C79.1323067,232.472731 79.9301962,233.173066 80.427849,233.967598 C81.0694509,234.987385 90.0230873,247.466456 85.9349318,245.856914" id="Fill-63" fill="#FFC593" mask="url(#mask-5)"></path>
                <path d="M249.046323,11.1036562 C250.309901,10.9139739 252.617824,10.9510856 253.941193,11.4995148 C257.265558,12.8767731 259.178862,15.8745777 259.840547,19.5568879 C260.418524,22.769116 259.386137,26.1586558 257.377168,28.6410195 C254.893858,31.6965535 250.469343,31.3790419 248.990518,29.9605483 C246.570986,27.6431258 235.1948,23.4618687 238.646719,19.1074234 C240.093655,17.2848242 240.930725,15.8539601 242.652699,14.3859842 C244.60985,12.711832 246.650707,11.4582795 249.046323,11.1036562" id="Fill-64" fill="#6C3511" mask="url(#mask-5)"></path>
                <path d="M244.051119,32.1087552 C245.309754,32.1645873 247.529676,32.6072567 248.376913,33.5244994 C250.356513,35.6860019 249.550009,42.0907492 250.629421,41.9990249 C251.187457,41.3489789 256.845204,34.5494185 255.892063,26.070905 C254.56011,14.1985933 244.087778,12.5914245 239.081751,13.0739739 C234.812982,13.4767631 229.684758,15.3949969 226.9068,18.5854065 C224.124768,21.7798041 222.915012,26.4617302 223.004624,29.8714804 C223.318264,29.8635044 223.8763,30.1147492 225.831461,27.5464694 C227.20822,25.7399 227.949552,24.3321318 228.817155,23.9652347 C230.91488,26.0110848 233.802816,31.6620978 244.051119,32.1087552" id="Fill-65" fill="#8D4B1E" mask="url(#mask-5)"></path>
                <path d="M169.928091,75.5240117 C169.352367,76.4553188 168.273899,74.8154085 166.056146,75.5726016 C163.838393,76.3419423 164.856046,77.3582818 163.805958,79.2289943 C162.869394,80.9174946 161.243582,81.2616734 159.35829,80.901298 C157.452725,80.5368735 152.903697,80.2777271 150.998133,79.998335 C146.927523,79.4071574 143.838076,84.1325288 140.63916,88.5906554 C134.581898,97.0655501 127.061,106.151868 119.313056,113.136672 C116.933128,115.26653 115.453275,116.793064 112.266523,116.975277 C108.394578,117.222275 106.026813,115.594513 103.00629,113.169065 C100.658797,111.302401 98.392392,109.350706 96.1908569,107.30183 C90.8228414,102.333509 85.8845915,96.887387 81.497739,91.0322997 C77.8893298,86.2137977 74.5079666,80.901298 73.2227242,74.9328341 C72.0915488,69.6689244 75.359389,65.4375508 80.9747224,66.0611216 C84.8507215,66.4903327 87.8550262,70.9484594 90.2836072,73.9812812 C98.2302163,83.9665131 101.137216,90.2629591 107.770201,98.1021354 C107.91616,98.2802985 108.066172,98.4625108 108.228348,98.6406739 C109.132477,99.6772592 110.247435,100.725992 111.609711,100.709795 C112.728723,100.693599 113.681506,99.9687988 114.5532,99.2804414 C120.46045,94.5429226 126.387971,89.7730105 131.378928,84.0798897 C134.792726,80.1764981 139.098491,75.9977636 141.689248,74.1958868 C146.432887,70.8512795 148.030318,69.5353021 153.824044,69.5676953 C156.021525,69.583892 163.578912,70.7824438 165.62638,71.5679811 C167.661685,72.3737642 170.487597,74.5886554 169.928091,75.5240117" id="Fill-66" fill="#FFC593" mask="url(#mask-5)"></path>
                <polygon id="Fill-67" fill="#FC7E6C" mask="url(#mask-5)" points="173.983562 73.482 169.121918 75.506 169.171233 75.73 168 75.974 168.226027 76.518 169.228767 75.85 169.360274 76.046 174 74.098"></polygon>
                <path d="M180.385086,70 L173.252086,72.5006094 C173.047115,72.5681934 172.948729,72.8005136 173.026618,73.0032657 L173.719421,74.7604507 C173.801409,74.9674268 174.030977,75.0561309 174.22365,74.9632028 L181,71.5713289 L180.385086,70 Z" id="Fill-68" fill="#F1A32C" mask="url(#mask-5)"></path>
                <path d="M260.323362,69.1870528 C255.258458,70.2692798 250.48413,80.0415084 248.429918,83.3404905 C243.88563,90.6505519 240.786151,94.0179275 233.981825,102.329753 C233.106061,103.399911 231.140636,105.029286 229.841115,105.049402 C228.549665,105.069517 204.952458,94.6576082 192.050069,83.5738331 C190.673868,82.3910273 190.238004,79.2409018 189.277488,77.6678506 C188.042539,75.6562761 187.32417,74.2803592 185.213457,73.2182479 C182.138193,71.6733588 178.062055,71.7819838 174.865717,72.9446738 C174.224028,73.1780165 172.819576,74.437262 176.015914,75.1855677 C177.630226,75.5637437 174.058561,76.9798921 175.406511,77.6235959 C177.420366,78.5811054 176.229811,78.8506563 178.134699,79.6110315 C180.866922,80.6932585 179.337361,84.3301851 181.056604,86.3779679 C184.152047,90.0551259 188.603513,89.9585703 190.169395,91.0729826 C192.276073,92.5736171 203.568186,106.308647 220.352995,115.063019 C223.105398,116.503307 227.589149,118.913173 229.288213,118.993636 C231.91147,119.118353 235.676853,117.396446 238.74001,115.026811 C246.900358,108.706444 253.543252,102.530911 259.734139,94.1627609 C263.362305,89.2625656 266.64743,83.8997082 267.805699,77.8247534 C268.81868,72.4820117 265.803952,68.0203396 260.323362,69.1870528" id="Fill-69" fill="#FFC593" mask="url(#mask-5)"></path>
                <path d="M125,152.288597 C121.209299,159.867221 106.600146,167.1897 102.98726,168.474488 C101.176776,169.133145 93.0376793,168.844474 81.2129542,168.95425 C69.9176341,169.043698 57.4422663,168.978645 50.2892371,168.95425 C44.2031004,168.937987 37.8906532,168.860737 32.3945404,166.238306 C24.8333441,162.631954 19.9676677,154.447529 19.1836634,146.055749 C18.383494,137.6721 20.1818545,129.292517 24.8939629,122.335958 C25.3748728,121.640709 26.0538044,120.758434 26.8984276,119.774514 C30.0142386,116.078715 35.1951332,110.894839 39.0222059,108 C42.4855652,110.04509 47.3067877,118.062818 65.880416,121.242262 C65.9814475,122.7588 67.1574539,126.503388 70.2611412,130.426871 C80.930066,143.872422 116.974059,147.625142 125,152.288597" id="Fill-70" fill="#F8DB61" mask="url(#mask-5)"></path>
                <path d="M81,168.953352 C69.7433896,169.042388 57.3107755,168.981682 50.1822602,168.953352 C44.116981,168.937164 37.8261669,168.864317 32.3488895,166.24991 C24.8136058,162.660159 19.9646044,154.517456 19.1832869,146.160257 C18.3858597,137.819247 20.1740297,129.47419 24.8699895,122.549654 C25.3532787,121.857605 26.0298835,120.979391 26.8716122,120 C26.3601311,121.991158 25.2767579,124.059211 24.9022088,125.673991 C23.7785615,130.502145 23.7463422,135.585265 24.9304007,140.381042 C26.8393929,148.123086 31.9139293,155.043575 38.7766356,159.025891 C44.4955575,162.344488 51.1407837,163.566703 57.6571328,164.7444 C65.4501707,166.148733 73.2230717,167.549019 81,168.953352" id="Fill-71" fill="#EB602D" mask="url(#mask-5)"></path>
                <path d="M26.063872,153.573892 C25.1357544,141.793825 22.6008079,130.021825 17.4000789,119.76619 C14.3172568,113.680562 10.1836584,107.675591 10.2408992,100.666431 C10.2899626,94.3105996 12.5182624,86.6884409 20.765016,83.4097028 C28.8604904,80.1914581 36.4326211,81.8247778 41.645616,84.5308458 C43.3791924,85.4342127 44.8551854,86.4505005 46,87.4506568 C39.8098241,81.0625619 38.2152609,72.9927526 23.1773038,75.4528144 C14.8569551,76.8199635 7.5301418,83.2685518 4.17338194,91.9553929 C0.808444822,100.638201 1.38494073,111.139842 5.6657295,119.282243 C7.55876217,122.883612 10.101886,126.001035 11.99083,129.602404 C16.1489601,137.52703 16.5210248,147.137402 17.0321027,156.344486 C17.7149029,168.5964 17.7966753,177.589741 21.6072724,178.884298 C22.0406665,179.029482 22.437263,179.041581 22.9851385,178.900429 C27.3722315,177.767188 26.4236708,158.127022 26.063872,153.573892" id="Fill-72" fill="#FC7E6C" mask="url(#mask-5)"></path>
                <path d="M107,98.1670551 C106.708026,98.7459399 106.20407,99.3045839 105.512131,100.025154 C103.760286,101.86706 101.804459,103.494414 99.7286417,104.931506 C99.3086788,105.231069 96.7809019,106.911049 94.7890777,108 C89.1295771,102.688833 83.1781024,95.6531569 78.5545104,89.3947243 C74.7468465,84.2414354 70.5472171,78.5133098 69.1953364,72.1293847 C67.999442,66.5065109 72.4470495,60.3857152 78.3705267,61.0496111 C82.4541663,61.5030033 85.8698648,66.0895519 88.1896601,69.5142828 C95.7569922,80.6993082 100.004617,89.7914425 107,98.1670551" id="Fill-73" fill="#95A225" mask="url(#mask-5)"></path>
                <path d="M113.30877,16.9182621 C111.54351,18.2459728 105.896295,18.4517881 104.203747,19.8803887 C100.802491,22.7658389 102.640462,29.008904 98.7181114,33.799155 C96.72664,36.2285831 93.5112014,37.7257887 92.3801426,40.6677373 C91.111741,43.976925 92.8325661,48.3595809 90.3603948,50.8939344 C88.0457637,53.2708997 83.7113848,52.1046128 81.194779,54.263656 C79.1467547,56.0191398 79.1750311,59.2072596 79.760758,61.8505742 C80.3464849,64.4938888 81.3159639,67.2340576 80.5686572,69.8329806 C79.0336488,75.1599657 71.4555548,76.5482103 69.435807,81.7137716 C68.3936171,84.3812998 69.1247658,87.3676399 69.6377818,90.1885206 C70.1507977,93.0094014 70.3366145,96.2338416 68.5026835,98.4292051 C66.7172264,100.559999 63.5906567,100.97163 60.8478391,100.620533 C58.0969425,100.265401 55.762114,106.012088 52.9910199,105.999981 C50.2239654,105.99191 50.2360838,102.186344 45.9097839,103.207349 C41.5875235,104.228355 41.3370748,91.5565872 42.8195697,85.6323341 C44.0596949,80.6806594 50.5430855,78.6870755 52.1952393,73.852433 C53.4838384,70.0912587 51.3954191,66.0879487 50.9187586,62.1330658 C50.4097822,57.9199049 51.8761191,53.5049642 54.800714,50.450019 C56.8204619,48.3353673 59.510766,46.8058769 60.928629,44.2473098 C63.251339,40.0704693 61.5022374,34.4246722 64.0551987,30.3850418 C66.3940667,26.6844014 71.4757523,25.7198943 74.2912808,22.3703506 C76.4241346,19.8319615 78.2661446,17.2370741 79.4093219,14.1175594 C82.9761966,4.38774038 93.898993,0.62253047 104.187589,0.0373692299 C106.894051,-0.115983371 109.826725,0.146330288 111.903025,1.89374282 C115.158859,4.63391166 118.491443,13.0279488 113.30877,16.9182621" id="Fill-74" fill="#FFB843" mask="url(#mask-5)"></path>
                <polygon id="Fill-75" fill="#A9B5A9" mask="url(#mask-5)" points="98 259 108 259 108 136 98 136"></polygon>
                <polygon id="Fill-76" fill="#A9B5A9" mask="url(#mask-5)" points="245 259 255 259 255 136 245 136"></polygon>
                <path d="M267.03243,140 L84.9716129,140 C83.3261075,140 82,138.705689 82,137.103584 L82,130.896416 C82,129.298257 83.3261075,128 84.9716129,128 L267.03243,128 C268.669849,128 270,129.298257 270,130.896416 L270,137.103584 C270,138.705689 268.669849,140 267.03243,140" id="Fill-77" fill="#BFD8CE" mask="url(#mask-5)"></path>
                <polygon id="Fill-78" fill="#8A4E97" mask="url(#mask-5)" points="154.286 104 153.902 108 156.098 108 155.658 104"></polygon>
                <path d="M153.344398,107.573248 L153.112398,111.951168 C152.960398,112.473461 153.328398,113 153.844398,113 L156.156398,113 C156.676398,113 157.044398,112.464968 156.884398,111.942675 L156.564398,107.56051 C156.460398,107.225053 156.164398,107 155.832398,107 L154.076398,107 C153.740398,107 153.440398,107.233546 153.344398,107.573248" id="Fill-79" fill="#619F94" mask="url(#mask-5)"></path>
                <polygon id="Fill-80" fill="#FC7E6C" mask="url(#mask-5)" points="158.154 102 157.702 108 160.298 108 159.778 102"></polygon>
                <path d="M157.803843,108.529115 L156.035476,114.031915 C155.879565,114.513998 156.257035,115 156.786314,115 L162.214502,115 C162.747884,115 163.125355,114.506159 162.961237,114.024076 L161.102606,108.517357 C160.995929,108.207727 160.696415,108 160.355871,108 L158.550578,108 C158.210034,108 157.902314,108.215566 157.803843,108.529115" id="Fill-81" fill="#FF7736" mask="url(#mask-5)"></path>
                <path d="M176.803843,109.532736 L175.035476,115.032457 C174.879565,115.510353 175.257035,116 175.786314,116 L181.214502,116 C181.747884,116 182.125355,115.502518 181.961237,115.020705 L180.102606,109.520985 C179.995929,109.211528 179.696415,109 179.355871,109 L177.554681,109 C177.210034,109 176.902314,109.215445 176.803843,109.532736" id="Fill-82" fill="#EB6782" mask="url(#mask-5)"></path>
                <path d="M177.388007,108.656 L176.752007,109.292 C176.696007,109.352 176.832007,109.404 177.020007,109.404 L178.976007,109.404 C179.168007,109.404 179.304007,109.348 179.248007,109.292 L178.576007,108.656 C178.540007,108.62 178.432007,108.596 178.304007,108.596 L177.656007,108.596 C177.532007,108.596 177.424007,108.62 177.388007,108.656" id="Fill-83" fill="#EB6782" mask="url(#mask-5)"></path>
                <path d="M168.526,106.588 L171.474,106.588 C171.598,106.588 171.698,106.684 171.698,106.812 L171.698,109.184 C171.698,109.312 171.598,109.412 171.474,109.412 L168.526,109.412 C168.406,109.412 168.302,109.312 168.302,109.184 L168.302,106.812 C168.302,106.684 168.406,106.588 168.526,106.588" id="Fill-84" fill="#92A098" mask="url(#mask-5)"></path>
                <path d="M167.853512,113 L171.144405,113 C171.660775,113 172.061539,112.542074 171.992176,112.021526 L171.695456,109.751468 C171.637653,109.320939 171.279278,109 170.851538,109 L168.204181,109 C167.780295,109 167.429626,109.313112 167.360263,109.731898 L167.009594,112.001957 C166.932524,112.526419 167.329435,113 167.853512,113" id="Fill-85" fill="#ABD0DE" mask="url(#mask-5)"></path>
            </g>
        </g>
    </g>
</svg>