<svg xmlns="http://www.w3.org/2000/svg" xmlns:xlink="http://www.w3.org/1999/xlink" width="435" height="476" viewBox="0 0 435 476"><defs><path id="fzy3b" d="M781.419 2667.21l-12.451-2.263c-1.708-10.096-2.291-19.916-1.8-29.06a106.213 106.213 0 0 1 27.08-.04c44.944 5.752 68.852 73.585 27.12 116.153-17.08-9.37-33.653-29.82-44.187-57.203a157.052 157.052 0 0 1-6.521-21.349z"/><path id="fzy3c" d="M767 2636s71.28 36.174 54.42 116"/><path id="fzy3d" d="M788.236 2636l-.466 15"/><path id="fzy3e" d="M803 2638l-3 25"/><path id="fzy3f" d="M816 2645l-6 32"/><path id="fzy3g" d="M829 2657l-12 33"/><path id="fzy3h" d="M838 2672l-16 31"/><path id="fzy3i" d="M843 2692l-18 29"/><path id="fzy3j" d="M843 2713l-18 25"/><path id="fzy3k" d="M768 2652l19-2"/><path id="fzy3l" d="M800 2663l-31 1"/><path id="fzy3m" d="M810 2676l-37 4"/><path id="fzy3n" d="M817 2690l-39 6"/><path id="fzy3o" d="M821 2704l-37 7"/><path id="fzy3p" d="M825 2721l-31 5"/><path id="fzy3q" d="M823 2737l-19 1"/><path id="fzy3a" d="M502 2675.04h434.915v379.754H502z"/><path id="fzy3s" d="M514.475 2891.093s-14.053-6.774-9.807-26.639c4.244-19.862-19.374-38.602 24.05-70.223 30.387-22.128 23.412-61.767 69.25-59.098 45.842 2.667 58.078 51.388 117.98 5.704s190.448-136.017 209.313-31.083c18.867 104.934 16.88 134.792-21.244 160.86-38.124 26.07-56.094 42.964-55.711 86.224.381 43.26-26.94 103.403-81.287 77.79-54.347-25.613-36.65-99.929-103.555-60.269-66.906 39.658-71.011 20.978-86.959 9.151-15.947-11.829-28.213 2.931-32.544-26.352-7.276-49.185-3.362-52.557-29.486-66.065"/><path id="fzy3t" d="M838.01 2849s4.466-1.055 7.042-4.485c.934-1.241 1.482-4.16.169-5.111-1.312-.954-3.564-.145-4.922 1.662-2.577 3.428-2.29 7.934-2.29 7.934"/><path id="fzy3u" d="M832.73 2854s1.808-3.407 1.11-6.97c-.255-1.292-1.752-3.29-3.063-3.002-1.311.285-2.05 2.16-1.683 4.037.699 3.564 3.637 5.935 3.637 5.935"/><path id="fzy3v" d="M827.978 2862s.36-4.099-1.826-7.211c-.792-1.127-3.115-2.367-4.292-1.496-1.177.871-1.125 3.01.028 4.65 2.185 3.111 6.09 4.057 6.09 4.057"/><path id="fzy3w" d="M835 2855.412s2.874 2.539 6.447 2.588c1.296.018 3.541-1.073 3.553-2.453.013-1.38-1.624-2.522-3.507-2.546-3.573-.05-6.493 2.41-6.493 2.41"/><path id="fzy3x" d="M830 2862.418s2.873 2.537 6.446 2.582c1.295.016 3.54-1.075 3.554-2.455.013-1.38-1.623-2.521-3.506-2.544-3.573-.046-6.494 2.417-6.494 2.417"/><path id="fzy3y" d="M825 2872.437s2.293 2.529 5.151 2.563c1.037.013 2.836-1.085 2.849-2.466.015-1.38-1.292-2.515-2.798-2.534-2.858-.035-5.202 2.437-5.202 2.437"/><path id="fzy3z" d="M822.889 2872s.573-3.189-.882-6.01c-.525-1.022-2.221-2.382-3.188-1.884-.968.498-1.084 2.2-.316 3.686 1.454 2.82 4.386 4.208 4.386 4.208"/><path id="fzy3A" d="M844 2842.484l-.573-.484c-.141.157-14.409 16.012-24.427 40.733l.708.267c9.967-24.594 24.15-40.36 24.292-40.516"/><path id="fzy3B" d="M828.694 2649.392c-13.293 28.57-12.455 59.585-.3 83.608 26.294-6.364 50.617-25.82 63.91-54.39 13.296-28.57 12.457-59.585.302-83.61-26.293 6.364-50.617 25.822-63.912 54.392"/><path id="fzy3C" d="M888 2606l-56 122"/><path id="fzy3D" d="M876 2631l19-7"/><path id="fzy3E" d="M866 2651l25-9"/><path id="fzy3F" d="M856 2672l41-15"/><path id="fzy3G" d="M847 2693l40-14"/><path id="fzy3H" d="M838 2714l21-8"/><path id="fzy3I" d="M877 2628l-7-19"/><path id="fzy3J" d="M867 2648l-11-31"/><path id="fzy3K" d="M857 2670l-14-39"/><path id="fzy3L" d="M848 2690l-14-40"/><path id="fzy3M" d="M838 2711l-12-34"/><path id="fzy3N" d="M666 2977.474c-3.561-.52-31.552-11.356-48.343 2.205-13.321 10.758-17.443 3.096-18.37-4.477-.924-7.573 1.597-15.14-8.031-14.692-31.702 1.471-56.81-17.708-37.627-27.565 10.37-5.328 2.276-17.024-5.756-16.84-17.034.391-31.624-11.58-19.703-15.94 20.897-7.64 10.253-16.84 3.13-19.229-7.124-2.388-21.66.455-18.973-13.729 1.06-5.589 13.987-11.939 25.226-8.275 6.407 2.09 24.228 13.912 21.721-2.924-2.583-17.355 11.138-13.105 15.865-4.678 1.76 3.138 20.348 30.94 23.069 20.262 3.212-12.606 14.404-10.678 19.634 5.11 2.374 7.167 2.772 24.295 8.802 21.791 6.03-2.502 15.223-4.042 18.677 7 5.958 19.049 13.288 70.904 20.679 71.98"/><path id="fzy3O" d="M524 2864s46.708 9.489 83.36 50.223c25.763 28.634 39.86 46.33 55.64 60.777"/><path id="fzy3P" d="M544 2900s23.516-10.769 41-5.593"/><path id="fzy3Q" d="M568 2854s3.859 25.226 20 43"/><path id="fzy3R" d="M563 2939.862s12.1 2.075 57-9.862"/><path id="fzy3S" d="M607.078 2869s-.672 39.091 1.922 48"/><path id="fzy3T" d="M635.924 2904s-4.13 32.09 5.076 50"/><path id="fzy3U" d="M761.06 2958.984c-18.262 22.98-44.305 35.175-69.163 35.014-5.436-24.602.781-53.004 19.044-75.982 18.26-22.98 44.305-35.176 69.161-35.014 5.438 24.602-.78 53.003-19.042 75.982"/><path id="fzy3V" d="M773 2893l-79 97"/><path id="fzy3W" d="M757 2912l-2-19"/><path id="fzy3X" d="M745 2929l-3-25"/><path id="fzy3Y" d="M730 2945l-4-40"/><path id="fzy3Z" d="M717 2963l-4-39"/><path id="fzy3aa" d="M704 2979l-2-21"/><path id="fzy3ab" d="M759 2910l19-2"/><path id="fzy3ac" d="M745 2927l31-3"/><path id="fzy3ad" d="M732 2944l38-4"/><path id="fzy3ae" d="M719 2960l39-4"/><path id="fzy3af" d="M706 2977l34-4"/><path id="fzy3ag" d="M683.92 2926.446c24.43 15.318 39.314 39.55 42.08 64.048-23.22 8.207-51.491 5.38-75.922-9.939-24.428-15.318-39.316-39.55-42.078-64.05 23.219-8.206 51.49-5.379 75.92 9.94"/><path id="fzy3ah" d="M618 2921l104 66"/><path id="fzy3ai" d="M639 2936l-18 4"/><path id="fzy3aj" d="M658 2947l-24 5"/><path id="fzy3ak" d="M675 2957l-39 9"/><path id="fzy3al" d="M692 2969l-38 9"/><path id="fzy3am" d="M710 2980l-20 5"/><path id="fzy3an" d="M638 2934l-4-18"/><path id="fzy3ao" d="M655 2945l-6-30"/><path id="fzy3ap" d="M673 2956l-8-37"/><path id="fzy3aq" d="M691 2968l-9-38"/><path id="fzy3ar" d="M709 2978l-7-32"/><path id="fzy3as" d="M801 2929s-7.085.035-12.23-4.174c-1.864-1.524-3.776-5.7-2.166-7.606 1.609-1.906 5.283-1.51 7.992.709C799.743 2922.138 801 2929 801 2929z"/><path id="fzy3at" d="M811.523 2939s-3.745-4.394-3.513-10.157c.117-2.9 1.519-5.758 3.635-5.841 2.119-.082 3.24 2.377 3.347 5.413.2 5.762-3.469 10.585-3.469 10.585z"/><path id="fzy3au" d="M821.686 2950s-2.756-3.338-2.685-9.595c.024-1.998.91-6.325 2.926-6.404 2.015-.077 2.965 2.972 3.066 5.877.187 5.512-3.307 10.122-3.307 10.122z"/><path id="fzy3av" d="M808 2935.869s-3.717 4.117-9.13 5.06c-1.96.341-5.57-.573-5.847-2.428-.276-1.857 1.993-3.8 4.844-4.296 5.41-.942 10.133 1.664 10.133 1.664z"/><path id="fzy3aw" d="M817 2945.199s-3.491 4.284-8.827 5.635c-1.935.488-5.648-.093-6.109-1.856-.462-1.762 1.623-3.81 4.437-4.525 5.335-1.35 10.499.746 10.499.746z"/><path id="fzy3ax" d="M827 2955.528s-3.488 3.487-7.775 3.472c-1.555-.006-4.232-1.583-4.225-3.515.01-1.934 1.988-3.494 4.249-3.485 4.289.015 7.751 3.528 7.751 3.528z"/><path id="fzy3ay" d="M830.154 2958s-1.89-4.1-.832-8.375c.382-1.549 2.275-3.942 3.79-3.59 1.52.35 2.26 2.602 1.703 4.855-1.057 4.277-4.661 7.11-4.661 7.11z"/><path id="fzy3az" d="M787 2918s29.124 21.638 52 54"/><path id="fzy3aA" d="M793 2939s8.101-2.91 15-3"/><path id="fzy3aB" d="M812 2923s-1.791 11.418-.58 16"/><path id="fzy3aC" d="M822 2934s-1.75 11.503-.62 16"/><path id="fzy3aD" d="M833 2946s-2.725 10.048-3 12"/><path id="fzy3aE" d="M815 2956.198s7.13-.989 12 .039"/><path id="fzy3aF" d="M802 2949s7.16-3.505 15-4"/><path id="fzy3aG" d="M741.022 2651.215s2.961-7.087-4.109-11.804c-7.07-4.716-1.332-23.274-23.974-13.713-22.643 9.56-29.68-10.816-44.817 6.224s-5.645 36.613-39.284 43.492c-33.64 6.878-104.35 24.758-81.311 64.267 23.039 39.51 32.144 48.154 52.706 42.834 20.561-5.32 31.552-6.384 43.613 7.29 12.06 13.674 38.484 22.839 50.102-4.39 11.618-27.228-15.464-44.23 18.904-55.47 34.368-11.24 30.526-18.539 32.72-27.877 2.193-9.34 10.605-9.057 3.853-19.752-11.343-17.966-13.65-17.638-8.403-31.101"/><path id="fzy3aH" d="M697.1 2744s-10.42 13.41-11.058 40.91c-.788 34.05 9.596 77.909 20.886 105.633 10.443 25.645 12.286-12.212 10.443-44.574-1.773-31.144-3.685-62.28-3.685-71.44 0-9.158-16.586-30.529-16.586-30.529"/><path id="fzy3aI" d="M712.811 2878.517s10.341 17.676 1.826 47.54c-8.516 29.865-17.641 88.985-21.9 97.518-4.258 8.533-2.433-23.77-1.824-30.474.608-6.704 2.433-65.215 3.041-76.796.608-11.58 3.65-31.693 9.733-41.445 6.083-9.752 8.516 1.828 9.124 3.657"/><path id="fzy3aJ" d="M719 2781.778s18.852-26.734 22.621-16.405c3.77 10.33 6.284 37.67 2.514 63.797-3.77 26.127-8.168 51.037-14.452 55.291-6.284 4.254-8.798-17.62-9.426-32.201-.63-14.583-1.257-70.482-1.257-70.482"/><path id="fzy3aK" d="M732.712 2865.887s14.89 25.512 14.27 58.923c-.621 33.41-12.409 72.288-17.992 86.867-5.584 14.58-1.861-95.98-1.861-104.484 0-8.503-9.927-73.502 5.583-41.306"/><path id="fzy3aL" d="M694.609 3007.64s6.509 34.975 8.875 44.179c2.367 9.204 4.465 10.712-.591 15.953-5.03 5.213-8.58 3.37-14.498-.308-3.864-2.404-5.03-4.6-.295-32.825 4.734-28.225 5.326-36.202 6.509-26.998"/><path id="fzy3aM" d="M731.007 3001.402s3.768 15.092.942 41.888c-2.826 26.797-3.14 23.717-9.735 26.797-6.595 3.08-11.305-2.464-11.933-4.312-.629-1.849-4.397-5.236-.629-10.78 3.769-5.545 20.413-59.138 21.355-53.593"/><path id="fzy3aN" d="M688.28 2704.809s36.314-13.07 41.115 0c4.8 13.07 2.106 13.282-1.201 17.932-.434.612-2.1 19.149-2.1 19.149s14.704 11.549 16.805 30.394c2.1 18.844-29.109 21.883-43.814 12.764-14.706-9.117-8.557-28.792-3.602-37.992 3.602-6.686-2.7-19.756-3.601-22.796-.9-3.04-10.038-6.987-3.601-19.451"/><path id="fzy3aO" d="M705.234 2670.918s3.025 10.177-1.513 13.26c-4.537 3.084-9.377 3.391-14.217 3.084-4.84-.308-7.26 20.043 10.588 19.735 17.846-.309 28.28-11.029 29.644-14.802 2.117-5.858 2.39-2.552-5.748-4.626-6.05-1.54-6.957-2.156-6.352-16.342.605-14.185-14.52-3.7-12.402-.309"/><path id="fzy3aP" d="M694.044 2688.911s-6.34-4.911-9.055-4.911c-2.717 0-9.358 3.376-12.074 11.665-2.717 8.29-17.643 39.606-22.775 47.281-3.769 5.638 2.415 15.658 9.66 2.764 7.244-12.895 22.472-35.309 22.472-35.309s6.339-13.2 5.132-4.912c-1.208 8.29 11.033-4.601 6.64-16.578"/><path id="fzy3aQ" d="M660.98 2740.399s.92 11.442-9.508 25.895c-10.427 14.453-23.752 34.781-25.455 31.315-.444-.902 7.974-23.186 12.574-32.219 4.6-9.033 19.321-40.95 22.388-24.991"/><path id="fzy3aR" d="M725.557 2687.768s10.799-4.525 15.298.905c4.5 5.43 21.297 38.614 26.696 46.457 5.399 7.842 1.28 12.215-6.6 5.731-9.897-8.145-24.896-31.07-27.295-35.295-2.4-4.223-4.5.001-4.5 3.319s-22.496-15.085-3.599-21.117"/><path id="fzy3aS" d="M763.914 2735.218s9.738-2.675 62.993 10.701c4.22 1.06-4.869 2.081-8.825 2.081-3.956 0-50.516 0-53.255-5.053-2.739-5.053-4.261-8.323-.913-7.729"/><path id="fzy3aT" d="M718.982 2670.979c.615-13.698-14.748-3.574-12.597-.299 0 0 3.073 9.828-1.536 12.805-.282.182-.565.353-.849.515 2.78-.564 9.075-2.561 14.823-6.874-.01-1.687.05-3.707.159-6.147"/><path id="fzy3aU" d="M708.087 2636c-1.871 11.535-10.395 20.999-8.915 27.21 1.473 6.185 2.352 7.06 4.304 8.866 4.935 4.569 6.383 5.348 8.374 4.748 3.03-.912 14.054-8.677 11.864-23.16-2.161-14.299-15.627-17.664-15.627-17.664"/><path id="fzy3aV" d="M702.283 2629.656c-18.71 4.043-20.274-9.504-34.054 5.977-14.868 16.703-8.753 33.597-41.447 40.65-32.246 6.955-99.576 24.7-80.408 61.717-3.872-18.635 21.35-34.981 41.211-36.826 32.63-3.032 64.023-10.474 84.04-35.518 20.016-25.043 30.488-38.976 39.375-30.755 0 0-3.284-6.418-8.717-5.245"/><path id="fzy3aW" d="M721 2743.693c4.065-1.497 11.165-2.251 27.148-5.15 11.406-2.068 27.071 2.113 24.99 6.738-1.062 2.358-5.343 2.043-7.12 4.07-2.306 2.631 2.304 3.877 5.315 3.806 21.475-.502 39.221 9.662 26.686 16.833-6.777 3.876-.776 11.298 4.646 10.891 11.507-.857 19.74 3.62 14.043 9.808-5.598 6.078-6.181 11.454-1.255 12.777 4.925 1.322 14.632-1.063 13.448 8.376-.467 3.719-8.928 8.359-16.695 6.34-4.427-1.149-17.011-8.31-14.562 2.693 2.524 11.344-8.888 10.814-12.462 5.429-1.332-2.006-13.21-21.452-14.572-14.321-1.609 8.417-9.266 7.541-13.51-2.676-1.928-4.637-2.963-15.907-6.93-14.045-3.968 1.861-8.497 2.395-12.949-3.952-19.389-27.645-14.729-48.167-16.221-47.617"/><path id="fzy3aX" d="M802.581 2778.401s4.78 1.981 7.447-1.263c2.666-3.243 4.338-6.683 1.484-7.938-2.856-1.255-14.747 3.583-8.93 9.201"/><path id="fzy3aY" d="M770.125 2766.17c-10.765-1.055-20.72 2.89-27.125 9.783 5.043 8.015 14.108 13.824 24.874 14.878 10.766 1.055 20.72-2.893 27.126-9.785-5.046-8.014-14.108-13.823-24.875-14.877"/><path id="fzy3aZ" d="M790 2780l-46-4"/><path id="fzy3ba" d="M780 2779l5 5"/><path id="fzy3bb" d="M773 2778l5 7"/><path id="fzy3bc" d="M764 2778l10 11"/><path id="fzy3bd" d="M757 2776l9 11"/><path id="fzy3be" d="M749 2776l5 6"/><path id="fzy3bf" d="M783 2779l5-5"/><path id="fzy3bg" d="M773 2778l9-7"/><path id="fzy3bh" d="M766 2777l11-9"/><path id="fzy3bi" d="M758 2776l11-9"/><path id="fzy3bj" d="M750 2776l10-8"/><path id="fzy3bk" d="M685.948 2720.203c7.006 12.629 18.753 20.738 30.973 22.797 4.768-11.372 4.138-25.574-2.87-38.203-7.005-12.629-18.753-20.737-30.972-22.797-4.768 11.372-4.138 25.573 2.869 38.203"/><path id="fzy3bl" d="M686 2687l30 53"/><path id="fzy3bm" d="M692 2697l3-9"/><path id="fzy3bn" d="M698 2706l3-11"/><path id="fzy3bo" d="M703 2717l5-19"/><path id="fzy3bp" d="M708 2725l5-18"/><path id="fzy3bq" d="M712 2734l3-10"/><path id="fzy3br" d="M691 2697l-9-3"/><path id="fzy3bs" d="M696 2707l-14-4"/><path id="fzy3bt" d="M701 2715l-18-5"/><path id="fzy3bu" d="M706 2724l-18-5"/><path id="fzy3bv" d="M711 2734l-15-5"/><path id="fzy3bw" d="M817.62 2748.454c10.318-1.162 15.25 2.934 19.498 3.898 4.247.965 8.593 2.684 8.565 2.647-2.733-3.664-6.08-3.402-7.886-4.488-1.81-1.083-1.304-.49 2.34-1.149 2.071-.374 6.107 2.488 8.952 4 2.461 1.308 3.911 1.278 3.911 1.278.002.001-3.032-3.008-6.738-5.287-4.47-2.749-9.846-4.875-11.097-5.158-2.286-.52-9.206.043-14.055 1.18-5.472 1.28-10.92 3.916-3.49 3.079"/><path id="fzy3bx" d="M628.5 2790.804c-.861 1.553-4.16 2.88-7.295 4.496-3.707 1.91-4.23 2.634-4.23 2.634l-2.975 6.79.298 8.276s2.016-.325 1.882-6.708c-.066-3.166 2.181-4.808 2.181-4.808s5.471-3.108 4.219-.44c-1.788 3.81-4.07 5.574-4.64 7.942-.575 2.37 2.906-2.04 2.906-2.04s6.023-4.645 7.5-6.96c1.472-2.316 2.836-6.346 2.634-8.407-.102-1.034-1.514-2.519-2.48-.775"/><path id="fzy3by" d="M782 2860s3.547.338 5.9 2.672c.853.846 1.59 3.003.686 3.863-.905.86-2.723.48-3.962-.75C782.27 2863.45 782 2860 782 2860"/><path id="fzy3bz" d="M776.334 2857s1.84 2.449 1.653 5.307c-.068 1.036-1.075 2.764-2.174 2.69-1.098-.072-1.903-1.449-1.805-2.954.186-2.858 2.326-5.043 2.326-5.043"/><path id="fzy3bA" d="M772.812 2851s.723 2.905-.668 5.36c-.504.891-2.202 2.02-3.225 1.515-1.02-.505-1.209-2.045-.476-3.338 1.392-2.458 4.37-3.537 4.37-3.537"/><path id="fzy3bB" d="M777 2855.882s2.067-2.342 4.922-2.847c1.035-.183 2.932.364 3.067 1.432.137 1.066-1.067 2.164-2.572 2.43-2.855.506-5.417-1.015-5.417-1.015"/><path id="fzy3bC" d="M773 2850.839s2.053-2.329 4.906-2.808c1.036-.174 2.937.393 3.082 1.465.144 1.07-1.053 2.16-2.558 2.412-2.854.48-5.43-1.069-5.43-1.069"/><path id="fzy3bD" d="M768 2842.654s1.477-2.266 3.615-2.636c.776-.136 2.229.512 2.37 1.597.142 1.085-.729 2.136-1.856 2.33-2.139.373-4.129-1.29-4.129-1.29"/><path id="fzy3bE" d="M766.707 2844s.678 2.192-.029 4.322c-.256.772-1.258 1.897-1.948 1.64-.692-.255-.927-1.445-.554-2.566.706-2.131 2.531-3.396 2.531-3.396"/><path id="fzy3bF" d="M786 2865s-12.567-10.685-23-29"/><path id="fzy3bG" d="M699.474 2818s-15.47 39.62-4.607 58.55c8.118 14.147 13.711 7.895 24.695 3.681 10.983-4.216 9.116 5.392 13.596 10.667 4.48 5.275 25.211 5.38 10.847-12.224-14.365-17.603-37.736-38.98-44.53-60.674"/><path id="fzy3bH" d="M760.952 2805.778c-10.235-27.74-31.519-47.808-55.67-55.778-13.267 21.536-16.469 50.48-6.234 78.221 10.234 27.742 31.519 47.808 55.67 55.779 13.267-21.536 16.469-50.48 6.234-78.222"/><path id="fzy3bI" d="M751 2874l-43-119"/><path id="fzy3bJ" d="M741 2849l-8 18"/><path id="fzy3bK" d="M734 2830l-10 21"/><path id="fzy3bL" d="M727 2809l-17 37"/><path id="fzy3bM" d="M720 2788l-16 36"/><path id="fzy3bN" d="M712 2768l-9 20"/><path id="fzy3bO" d="M743 2852l18 8"/><path id="fzy3bP" d="M735 2832l28 13"/><path id="fzy3bQ" d="M728 2811l35 16"/><path id="fzy3bR" d="M721 2791l36 16"/><path id="fzy3bS" d="M714 2771l31 14"/><path id="fzy3bT" d="M737 2768c-2.587 1.032-20.461 10.674-36.778 6.98-12.785-2.895-13.681.767-13.024 6.702.656 5.936 8.523 10.687 1.84 14.017-21.883 10.903-31.347 16.873-20.361 25.66 7.07 5.653-3.536 13.266-9.612 14.564-12.89 2.755-20.354 10.505-11.981 15.677 8.23 5.083 10.725 10.993 5.792 14.09-4.935 3.097-16.383 3.535-11.825 13.861 1.796 4.068 12.66 6.592 20.464 1.786 4.449-2.74 15.748-14.942 16.87-1.664 1.158 13.687 10.725 7.99 12.775.724.765-2.71 9.786-27.222 13.742-19.573 4.67 9.03 12.75 5.555 13.864-7.413.506-5.885-2.256-19.007 2.73-18.181 4.986.828 12.179.354 12.805-8.68 1.08-15.582-2.672-56.406 2.699-58.55"/><path id="fzy3bU" d="M649 2880s33.973-15.592 54.695-52.957C721.93 2794.16 729.26 2777.517 743 2761"/><path id="fzy3bV" d="M658 2848.784s19.76 4.11 32-2.784"/><path id="fzy3bW" d="M686.109 2880s-1.53-20.277 6.891-37"/><path id="fzy3bX" d="M671 2815s3.55-4.227 41-2.646"/><path id="fzy3bY" d="M713 2861s-7.779-30.438-6.936-38"/><path id="fzy3bZ" d="M728 2828s-9.191-23.593-4.822-39"/><path id="fzy3ca" d="M705 2752s26.957 75.73 58.994 89.661c32.037 13.93 85.17.357 33.208-37.866-51.961-38.222-76.574-27.504-92.202-51.795"/><path id="fzy3cb" d="M802 2836s-69.512-27.4-95-84"/><path id="fzy3cc" d="M704.086 2879.813c1.282-.461 7.387-5.565 5.584-10.989-1.802-5.423-7.17-4.808-7.995.14-.824 4.946-1.642 12.305 2.41 10.849"/><path id="fzy3cd" d="M749.592 2760.33c-12.373-11.37-28.285-16.008-42.477-13.792-1.032 14.31 4.917 29.76 17.293 41.13 12.373 11.372 28.285 16.01 42.478 13.794 1.03-14.308-4.918-29.76-17.294-41.131"/><path id="fzy3ce" d="M761 2797l-52-48"/><path id="fzy3cf" d="M750.77 2788l.466 11"/><path id="fzy3cg" d="M742.77 2778l.466 14"/><path id="fzy3ch" d="M732 2770l1 24"/><path id="fzy3ci" d="M724 2762l1 23"/><path id="fzy3cj" d="M714.77 2754l.466 12"/><path id="fzy3ck" d="M752 2787.237l11-.467"/><path id="fzy3cl" d="M744 2779l17-1"/><path id="fzy3cm" d="M735 2771l21-1"/><path id="fzy3cn" d="M725 2763l23-1"/><path id="fzy3co" d="M716 2755l19-1"/><path id="fzy3cp" d="M599 2819.55s-3.382-1.197-6.572-.06c-1.155.412-2.794 2.073-2.355 3.245.438 1.17 2.264 1.594 3.944.994 3.19-1.137 4.983-4.178 4.983-4.178z"/><path id="fzy3cq" d="M605.575 2817s-2.538 1.468-3.372 4.348c-.42 1.45-.208 3.115.807 3.55 1.014.435 1.962-.569 2.513-2.043 1.042-2.799.052-5.855.052-5.855z"/><path id="fzy3cr" d="M614.545 2813s-2.109 1.128-3.216 4.224c-.352.988-.663 3.283.42 3.7 1.081.413 2.157-.91 2.743-2.322 1.111-2.679.053-5.602.053-5.602z"/><path id="fzy3cs" d="M604 2816.953s-1.15-2.874-3.637-4.443c-.901-.568-2.81-.817-3.244.088-.434.906.36 2.364 1.67 3.19 2.488 1.57 5.211 1.165 5.211 1.165z"/><path id="fzy3ct" d="M610 2813.997s-.97-2.767-3.402-4.386c-.881-.587-2.85-.95-3.403-.145-.553.804.12 2.2 1.4 3.054 2.432 1.619 5.405 1.477 5.405 1.477z"/><path id="fzy3cu" d="M618 2810.362s-1.12-2.456-3.235-3.258c-.766-.29-2.356.019-2.684 1.016-.329.998.38 2.175 1.495 2.598 2.115.8 4.424-.356 4.424-.356z"/><path id="fzy3cv" d="M618.958 2810s-1.688 1.857-1.947 4.357c-.094.906.406 2.546 1.222 2.637.814.095 1.596-.98 1.732-2.298.26-2.5-1.007-4.696-1.007-4.696z"/><path id="fzy3cw" d="M590 2823s18.606-5.399 36-17"/><path id="fzy3cx" d="M597 2814s3.588 2.71 7 4"/><path id="fzy3cy" d="M604 2825s.593-6.065 2-8"/><path id="fzy3cz" d="M612 2821s.763-6.044 2-8"/><path id="fzy3cA" d="M618.77 2817s.3-5.904.466-7"/><path id="fzy3cB" d="M612 2809s3.365 1.715 6 2"/><path id="fzy3cC" d="M603 2810s3.046 3.242 7 5"/><path id="fzy3cD" d="M714.092 2798.636c7.922-19.448 7.834-37.8-.004-55.636-19.32.458-37.7 12.582-45.847 35.766-8.233 23.02-3.842 49.76 7.687 66.234 16.29-9.735 30.167-27.088 38.164-46.364"/><path id="fzy3cE" d="M677 2836c7.487-34.444 19.605-64.795 35-90"/><path id="fzy3cF" d="M682 2815a319.421 319.421 0 0 0-13 8"/><path id="fzy3cG" d="M687 2799a307.143 307.143 0 0 0-16 8"/><path id="fzy3cH" d="M694 2783a329.545 329.545 0 0 0-29 12"/><path id="fzy3cI" d="M700 2768a318.443 318.443 0 0 0-29 10"/><path id="fzy3cJ" d="M707 2755a296.023 296.023 0 0 0-16 4"/><path id="fzy3cK" d="M682 2817a446.883 446.883 0 0 0 7 14"/><path id="fzy3cL" d="M687 2801a422.555 422.555 0 0 0 10 21"/><path id="fzy3cM" d="M693 2785a431.867 431.867 0 0 0 12 27"/><path id="fzy3cN" d="M700 2770a442.47 442.47 0 0 0 11 28"/><path id="fzy3cO" d="M707 2757a423.744 423.744 0 0 0 9 24"/><path id="fzy3cP" d="M732.79 2701.025l8.891-2.494c.58-7.532.363-14.787-.592-21.474a76.572 76.572 0 0 0-19.665 1.78c-32.253 7.23-45.177 58.673-12.095 87.163 11.787-8.026 22.483-24.158 28.34-44.984a117.194 117.194 0 0 0 3.34-16.124z"/><path id="fzy3cQ" d="M743 2677s-49.88 31.37-32.213 89"/><path id="fzy3cR" d="M727 2677l1 11"/><path id="fzy3cS" d="M716 2681l4 17"/><path id="fzy3cT" d="M707 2686l7 23"/><path id="fzy3cU" d="M699 2696l11 24"/><path id="fzy3cV" d="M693 2708l14 21"/><path id="fzy3cW" d="M691 2723l15 19"/><path id="fzy3cX" d="M693 2737l15 16"/><path id="fzy3cY" d="M742 2688.18l-14-.354"/><path id="fzy3cZ" d="M720 2697l23-1"/><path id="fzy3da" d="M714 2709.77l27 .467"/><path id="fzy3db" d="M710 2720l29 2"/><path id="fzy3dc" d="M707 2729l28 3"/><path id="fzy3dd" d="M706 2742l23 2"/><path id="fzy3de" d="M707 2755.2l14-.392"/><clipPath id="fzy3r"><use xlink:href="#fzy3a"/></clipPath></defs><g><g transform="translate(-502 -2595)"><g><use fill="#d4f3fb" xlink:href="#fzy3b"/></g><g><use fill="#fff" fill-opacity="0" stroke="#9ae2f6" stroke-miterlimit="50" stroke-width="2.08" xlink:href="#fzy3c"/></g><g><use fill="#fff" fill-opacity="0" stroke="#9ae2f6" stroke-miterlimit="50" stroke-width="2.08" xlink:href="#fzy3d"/></g><g><use fill="#fff" fill-opacity="0" stroke="#9ae2f6" stroke-miterlimit="50" stroke-width="2.08" xlink:href="#fzy3e"/></g><g><use fill="#fff" fill-opacity="0" stroke="#9ae2f6" stroke-miterlimit="50" stroke-width="2.08" xlink:href="#fzy3f"/></g><g><use fill="#fff" fill-opacity="0" stroke="#9ae2f6" stroke-miterlimit="50" stroke-width="2.08" xlink:href="#fzy3g"/></g><g><use fill="#fff" fill-opacity="0" stroke="#9ae2f6" stroke-miterlimit="50" stroke-width="2.08" xlink:href="#fzy3h"/></g><g><use fill="#fff" fill-opacity="0" stroke="#9ae2f6" stroke-miterlimit="50" stroke-width="2.08" xlink:href="#fzy3i"/></g><g><use fill="#fff" fill-opacity="0" stroke="#9ae2f6" stroke-miterlimit="50" stroke-width="2.08" xlink:href="#fzy3j"/></g><g><use fill="#fff" fill-opacity="0" stroke="#9ae2f6" stroke-miterlimit="50" stroke-width="2.08" xlink:href="#fzy3k"/></g><g><use fill="#fff" fill-opacity="0" stroke="#9ae2f6" stroke-miterlimit="50" stroke-width="2.08" xlink:href="#fzy3l"/></g><g><use fill="#fff" fill-opacity="0" stroke="#9ae2f6" stroke-miterlimit="50" stroke-width="2.08" xlink:href="#fzy3m"/></g><g><use fill="#fff" fill-opacity="0" stroke="#9ae2f6" stroke-miterlimit="50" stroke-width="2.08" xlink:href="#fzy3n"/></g><g><use fill="#fff" fill-opacity="0" stroke="#9ae2f6" stroke-miterlimit="50" stroke-width="2.08" xlink:href="#fzy3o"/></g><g><use fill="#fff" fill-opacity="0" stroke="#9ae2f6" stroke-miterlimit="50" stroke-width="2.08" xlink:href="#fzy3p"/></g><g><use fill="#fff" fill-opacity="0" stroke="#9ae2f6" stroke-miterlimit="50" stroke-width="2.08" xlink:href="#fzy3q"/></g><g><g/><g clip-path="url(#fzy3r)"><use fill="#f8feff" xlink:href="#fzy3s"/></g></g><g><use fill="#d7f6ff" xlink:href="#fzy3t"/></g><g><use fill="#d7f6ff" xlink:href="#fzy3u"/></g><g><use fill="#d7f6ff" xlink:href="#fzy3v"/></g><g><use fill="#d7f6ff" xlink:href="#fzy3w"/></g><g><use fill="#d7f6ff" xlink:href="#fzy3x"/></g><g><use fill="#d7f6ff" xlink:href="#fzy3y"/></g><g><use fill="#d7f6ff" xlink:href="#fzy3z"/></g><g><use fill="#d7f6ff" xlink:href="#fzy3A"/></g><g><use fill="#d4f3fb" xlink:href="#fzy3B"/></g><g><use fill="#fff" fill-opacity="0" stroke="#9ae2f6" stroke-miterlimit="50" stroke-width="2.28" xlink:href="#fzy3C"/></g><g><use fill="#fff" fill-opacity="0" stroke="#9ae2f6" stroke-miterlimit="50" stroke-width="2.29" xlink:href="#fzy3D"/></g><g><use fill="#fff" fill-opacity="0" stroke="#9ae2f6" stroke-miterlimit="50" stroke-width="2.29" xlink:href="#fzy3E"/></g><g><use fill="#fff" fill-opacity="0" stroke="#9ae2f6" stroke-miterlimit="50" stroke-width="2.29" xlink:href="#fzy3F"/></g><g><use fill="#fff" fill-opacity="0" stroke="#9ae2f6" stroke-miterlimit="50" stroke-width="2.29" xlink:href="#fzy3G"/></g><g><use fill="#fff" fill-opacity="0" stroke="#9ae2f6" stroke-miterlimit="50" stroke-width="2.29" xlink:href="#fzy3H"/></g><g><use fill="#fff" fill-opacity="0" stroke="#9ae2f6" stroke-miterlimit="50" stroke-width="2.29" xlink:href="#fzy3I"/></g><g><use fill="#fff" fill-opacity="0" stroke="#9ae2f6" stroke-miterlimit="50" stroke-width="2.29" xlink:href="#fzy3J"/></g><g><use fill="#fff" fill-opacity="0" stroke="#9ae2f6" stroke-miterlimit="50" stroke-width="2.29" xlink:href="#fzy3K"/></g><g><use fill="#fff" fill-opacity="0" stroke="#9ae2f6" stroke-miterlimit="50" stroke-width="2.29" xlink:href="#fzy3L"/></g><g><use fill="#fff" fill-opacity="0" stroke="#9ae2f6" stroke-miterlimit="50" stroke-width="2.29" xlink:href="#fzy3M"/></g><g><use fill="#d7f6ff" xlink:href="#fzy3N"/></g><g><use fill="#fff" fill-opacity="0" stroke="#d4f3fb" stroke-miterlimit="50" stroke-width="2.28" xlink:href="#fzy3O"/></g><g><use fill="#fff" fill-opacity="0" stroke="#d4f3fb" stroke-miterlimit="50" stroke-width="2.28" xlink:href="#fzy3P"/></g><g><use fill="#fff" fill-opacity="0" stroke="#d4f3fb" stroke-miterlimit="50" stroke-width="2.28" xlink:href="#fzy3Q"/></g><g><use fill="#fff" fill-opacity="0" stroke="#d4f3fb" stroke-miterlimit="50" stroke-width="2.28" xlink:href="#fzy3R"/></g><g><use fill="#fff" fill-opacity="0" stroke="#d4f3fb" stroke-miterlimit="50" stroke-width="2.28" xlink:href="#fzy3S"/></g><g><use fill="#fff" fill-opacity="0" stroke="#d4f3fb" stroke-miterlimit="50" stroke-width="2.28" xlink:href="#fzy3T"/></g><g><use fill="#9ae2f6" xlink:href="#fzy3U"/></g><g><use fill="#fff" fill-opacity="0" stroke="#d7f6ff" stroke-miterlimit="50" stroke-width="2.79" xlink:href="#fzy3V"/></g><g><use fill="#fff" fill-opacity="0" stroke="#d7f6ff" stroke-miterlimit="50" stroke-width="2.79" xlink:href="#fzy3W"/></g><g><use fill="#fff" fill-opacity="0" stroke="#d7f6ff" stroke-miterlimit="50" stroke-width="2.79" xlink:href="#fzy3X"/></g><g><use fill="#fff" fill-opacity="0" stroke="#d7f6ff" stroke-miterlimit="50" stroke-width="2.79" xlink:href="#fzy3Y"/></g><g><use fill="#fff" fill-opacity="0" stroke="#d7f6ff" stroke-miterlimit="50" stroke-width="2.79" xlink:href="#fzy3Z"/></g><g><use fill="#fff" fill-opacity="0" stroke="#d7f6ff" stroke-miterlimit="50" stroke-width="2.79" xlink:href="#fzy3aa"/></g><g><use fill="#fff" fill-opacity="0" stroke="#d7f6ff" stroke-miterlimit="50" stroke-width="2.79" xlink:href="#fzy3ab"/></g><g><use fill="#fff" fill-opacity="0" stroke="#d7f6ff" stroke-miterlimit="50" stroke-width="2.79" xlink:href="#fzy3ac"/></g><g><use fill="#fff" fill-opacity="0" stroke="#d7f6ff" stroke-miterlimit="50" stroke-width="2.79" xlink:href="#fzy3ad"/></g><g><use fill="#fff" fill-opacity="0" stroke="#d7f6ff" stroke-miterlimit="50" stroke-width="2.79" xlink:href="#fzy3ae"/></g><g><use fill="#fff" fill-opacity="0" stroke="#d7f6ff" stroke-miterlimit="50" stroke-width="2.79" xlink:href="#fzy3af"/></g><g><use fill="#9ae2f6" xlink:href="#fzy3ag"/></g><g><use fill="#fff" fill-opacity="0" stroke="#d7f6ff" stroke-miterlimit="50" stroke-width="2.28" xlink:href="#fzy3ah"/></g><g><use fill="#fff" fill-opacity="0" stroke="#d7f6ff" stroke-miterlimit="50" stroke-width="2.28" xlink:href="#fzy3ai"/></g><g><use fill="#fff" fill-opacity="0" stroke="#d7f6ff" stroke-miterlimit="50" stroke-width="2.28" xlink:href="#fzy3aj"/></g><g><use fill="#fff" fill-opacity="0" stroke="#d7f6ff" stroke-miterlimit="50" stroke-width="2.28" xlink:href="#fzy3ak"/></g><g><use fill="#fff" fill-opacity="0" stroke="#d7f6ff" stroke-miterlimit="50" stroke-width="2.28" xlink:href="#fzy3al"/></g><g><use fill="#fff" fill-opacity="0" stroke="#d7f6ff" stroke-miterlimit="50" stroke-width="2.28" xlink:href="#fzy3am"/></g><g><use fill="#fff" fill-opacity="0" stroke="#d7f6ff" stroke-miterlimit="50" stroke-width="2.28" xlink:href="#fzy3an"/></g><g><use fill="#fff" fill-opacity="0" stroke="#d7f6ff" stroke-miterlimit="50" stroke-width="2.28" xlink:href="#fzy3ao"/></g><g><use fill="#fff" fill-opacity="0" stroke="#d7f6ff" stroke-miterlimit="50" stroke-width="2.28" xlink:href="#fzy3ap"/></g><g><use fill="#fff" fill-opacity="0" stroke="#d7f6ff" stroke-miterlimit="50" stroke-width="2.28" xlink:href="#fzy3aq"/></g><g><use fill="#fff" fill-opacity="0" stroke="#d7f6ff" stroke-miterlimit="50" stroke-width="2.28" xlink:href="#fzy3ar"/></g><g><use fill="#fff" fill-opacity="0" stroke="#d7f6ff" stroke-miterlimit="50" stroke-width="2.28" xlink:href="#fzy3as"/></g><g><use fill="#fff" fill-opacity="0" stroke="#d7f6ff" stroke-miterlimit="50" stroke-width="2.28" xlink:href="#fzy3at"/></g><g><use fill="#fff" fill-opacity="0" stroke="#d7f6ff" stroke-miterlimit="50" stroke-width="2.28" xlink:href="#fzy3au"/></g><g><use fill="#fff" fill-opacity="0" stroke="#d7f6ff" stroke-miterlimit="50" stroke-width="2.28" xlink:href="#fzy3av"/></g><g><use fill="#fff" fill-opacity="0" stroke="#d7f6ff" stroke-miterlimit="50" stroke-width="2.28" xlink:href="#fzy3aw"/></g><g><use fill="#fff" fill-opacity="0" stroke="#d7f6ff" stroke-miterlimit="50" stroke-width="2.28" xlink:href="#fzy3ax"/></g><g><use fill="#fff" fill-opacity="0" stroke="#d7f6ff" stroke-miterlimit="50" stroke-width="2.28" xlink:href="#fzy3ay"/></g><g><use fill="#fff" fill-opacity="0" stroke="#d7f6ff" stroke-miterlimit="50" stroke-width="2.28" xlink:href="#fzy3az"/></g><g><use fill="#fff" fill-opacity="0" stroke="#d7f6ff" stroke-miterlimit="50" stroke-width="2.28" xlink:href="#fzy3aA"/></g><g><use fill="#fff" fill-opacity="0" stroke="#d7f6ff" stroke-miterlimit="50" stroke-width="2.28" xlink:href="#fzy3aB"/></g><g><use fill="#fff" fill-opacity="0" stroke="#d7f6ff" stroke-miterlimit="50" stroke-width="2.28" xlink:href="#fzy3aC"/></g><g><use fill="#fff" fill-opacity="0" stroke="#d7f6ff" stroke-miterlimit="50" stroke-width="2.28" xlink:href="#fzy3aD"/></g><g><use fill="#fff" fill-opacity="0" stroke="#d7f6ff" stroke-miterlimit="50" stroke-width="2.28" xlink:href="#fzy3aE"/></g><g><use fill="#fff" fill-opacity="0" stroke="#d7f6ff" stroke-miterlimit="50" stroke-width="2.28" xlink:href="#fzy3aF"/></g><g><use fill="#553973" xlink:href="#fzy3aG"/></g><g><use fill="#ffdccf" xlink:href="#fzy3aH"/></g><g><use fill="#ffdccf" xlink:href="#fzy3aI"/></g><g><use fill="#ffdccf" xlink:href="#fzy3aJ"/></g><g><use fill="#ffdccf" xlink:href="#fzy3aK"/></g><g><use fill="#ffdccf" xlink:href="#fzy3aL"/></g><g><use fill="#ffdccf" xlink:href="#fzy3aM"/></g><g><use fill="#ffdccf" xlink:href="#fzy3aN"/></g><g><use fill="#ffdccf" xlink:href="#fzy3aO"/></g><g><use fill="#ffdccf" xlink:href="#fzy3aP"/></g><g><use fill="#ffdccf" xlink:href="#fzy3aQ"/></g><g><use fill="#ffdccf" xlink:href="#fzy3aR"/></g><g><use fill="#ffdccf" xlink:href="#fzy3aS"/></g><g><use fill="#ffd3c2" xlink:href="#fzy3aT"/></g><g><use fill="#ffdccf" xlink:href="#fzy3aU"/></g><g><use fill="#9072b1" xlink:href="#fzy3aV"/></g><g><use fill="#553973" xlink:href="#fzy3aW"/></g><g><use fill="#553973" xlink:href="#fzy3aX"/></g><g><use fill="#ff879c" xlink:href="#fzy3aY"/></g><g><use fill="#fff" fill-opacity="0" stroke="#9072b1" stroke-miterlimit="50" stroke-width="2.97" xlink:href="#fzy3aZ"/></g><g><use fill="#fff" fill-opacity="0" stroke="#9072b1" stroke-miterlimit="50" stroke-width="2.97" xlink:href="#fzy3ba"/></g><g><use fill="#fff" fill-opacity="0" stroke="#9072b1" stroke-miterlimit="50" stroke-width="2.97" xlink:href="#fzy3bb"/></g><g><use fill="#fff" fill-opacity="0" stroke="#9072b1" stroke-miterlimit="50" stroke-width="2.97" xlink:href="#fzy3bc"/></g><g><use fill="#fff" fill-opacity="0" stroke="#9072b1" stroke-miterlimit="50" stroke-width="2.97" xlink:href="#fzy3bd"/></g><g><use fill="#fff" fill-opacity="0" stroke="#9072b1" stroke-miterlimit="50" stroke-width="2.97" xlink:href="#fzy3be"/></g><g><use fill="#fff" fill-opacity="0" stroke="#9072b1" stroke-miterlimit="50" stroke-width="2.97" xlink:href="#fzy3bf"/></g><g><use fill="#fff" fill-opacity="0" stroke="#9072b1" stroke-miterlimit="50" stroke-width="2.97" xlink:href="#fzy3bg"/></g><g><use fill="#fff" fill-opacity="0" stroke="#9072b1" stroke-miterlimit="50" stroke-width="2.97" xlink:href="#fzy3bh"/></g><g><use fill="#fff" fill-opacity="0" stroke="#9072b1" stroke-miterlimit="50" stroke-width="2.97" xlink:href="#fzy3bi"/></g><g><use fill="#fff" fill-opacity="0" stroke="#9072b1" stroke-miterlimit="50" stroke-width="2.97" xlink:href="#fzy3bj"/></g><g><use fill="#734d9c" xlink:href="#fzy3bk"/></g><g><use fill="#fff" fill-opacity="0" stroke="#0c1153" stroke-miterlimit="50" stroke-width="2.97" xlink:href="#fzy3bl"/></g><g><use fill="#fff" fill-opacity="0" stroke="#0c1153" stroke-miterlimit="50" stroke-width="2.97" xlink:href="#fzy3bm"/></g><g><use fill="#fff" fill-opacity="0" stroke="#0c1153" stroke-miterlimit="50" stroke-width="2.97" xlink:href="#fzy3bn"/></g><g><use fill="#fff" fill-opacity="0" stroke="#0c1153" stroke-miterlimit="50" stroke-width="2.97" xlink:href="#fzy3bo"/></g><g><use fill="#fff" fill-opacity="0" stroke="#0c1153" stroke-miterlimit="50" stroke-width="2.97" xlink:href="#fzy3bp"/></g><g><use fill="#fff" fill-opacity="0" stroke="#0c1153" stroke-miterlimit="50" stroke-width="2.97" xlink:href="#fzy3bq"/></g><g><use fill="#fff" fill-opacity="0" stroke="#0c1153" stroke-miterlimit="50" stroke-width="2.97" xlink:href="#fzy3br"/></g><g><use fill="#fff" fill-opacity="0" stroke="#0c1153" stroke-miterlimit="50" stroke-width="2.97" xlink:href="#fzy3bs"/></g><g><use fill="#fff" fill-opacity="0" stroke="#0c1153" stroke-miterlimit="50" stroke-width="2.97" xlink:href="#fzy3bt"/></g><g><use fill="#fff" fill-opacity="0" stroke="#0c1153" stroke-miterlimit="50" stroke-width="2.97" xlink:href="#fzy3bu"/></g><g><use fill="#fff" fill-opacity="0" stroke="#0c1153" stroke-miterlimit="50" stroke-width="2.97" xlink:href="#fzy3bv"/></g><g><use fill="#ffdccf" xlink:href="#fzy3bw"/></g><g><use fill="#ffdccf" xlink:href="#fzy3bx"/></g><g><use fill="#9072b1" xlink:href="#fzy3by"/></g><g><use fill="#9072b1" xlink:href="#fzy3bz"/></g><g><use fill="#9072b1" xlink:href="#fzy3bA"/></g><g><use fill="#9072b1" xlink:href="#fzy3bB"/></g><g><use fill="#9072b1" xlink:href="#fzy3bC"/></g><g><use fill="#9072b1" xlink:href="#fzy3bD"/></g><g><use fill="#9072b1" xlink:href="#fzy3bE"/></g><g><use fill="#fff" fill-opacity="0" stroke="#9072b1" stroke-miterlimit="50" stroke-width="2.97" xlink:href="#fzy3bF"/></g><g><use fill="#beb8b8" xlink:href="#fzy3bG"/></g><g><use fill="#ff879c" xlink:href="#fzy3bH"/></g><g><use fill="#fff" fill-opacity="0" stroke="#553973" stroke-miterlimit="50" stroke-width="2.97" xlink:href="#fzy3bI"/></g><g><use fill="#fff" fill-opacity="0" stroke="#553973" stroke-miterlimit="50" stroke-width="2.97" xlink:href="#fzy3bJ"/></g><g><use fill="#fff" fill-opacity="0" stroke="#553973" stroke-miterlimit="50" stroke-width="2.97" xlink:href="#fzy3bK"/></g><g><use fill="#fff" fill-opacity="0" stroke="#553973" stroke-miterlimit="50" stroke-width="2.97" xlink:href="#fzy3bL"/></g><g><use fill="#fff" fill-opacity="0" stroke="#553973" stroke-miterlimit="50" stroke-width="2.97" xlink:href="#fzy3bM"/></g><g><use fill="#fff" fill-opacity="0" stroke="#553973" stroke-miterlimit="50" stroke-width="2.97" xlink:href="#fzy3bN"/></g><g><use fill="#fff" fill-opacity="0" stroke="#553973" stroke-miterlimit="50" stroke-width="2.97" xlink:href="#fzy3bO"/></g><g><use fill="#fff" fill-opacity="0" stroke="#553973" stroke-miterlimit="50" stroke-width="2.97" xlink:href="#fzy3bP"/></g><g><use fill="#fff" fill-opacity="0" stroke="#553973" stroke-miterlimit="50" stroke-width="2.97" xlink:href="#fzy3bQ"/></g><g><use fill="#fff" fill-opacity="0" stroke="#553973" stroke-miterlimit="50" stroke-width="2.97" xlink:href="#fzy3bR"/></g><g><use fill="#fff" fill-opacity="0" stroke="#553973" stroke-miterlimit="50" stroke-width="2.97" xlink:href="#fzy3bS"/></g><g><use fill="#553973" xlink:href="#fzy3bT"/></g><g><use fill="#fff" fill-opacity="0" stroke="#9072b1" stroke-miterlimit="50" stroke-width="2.97" xlink:href="#fzy3bU"/></g><g><use fill="#fff" fill-opacity="0" stroke="#9072b1" stroke-miterlimit="50" stroke-width="2.97" xlink:href="#fzy3bV"/></g><g><use fill="#fff" fill-opacity="0" stroke="#9072b1" stroke-miterlimit="50" stroke-width="2.97" xlink:href="#fzy3bW"/></g><g><use fill="#fff" fill-opacity="0" stroke="#9072b1" stroke-miterlimit="50" stroke-width="2.97" xlink:href="#fzy3bX"/></g><g><use fill="#fff" fill-opacity="0" stroke="#9072b1" stroke-miterlimit="50" stroke-width="2.97" xlink:href="#fzy3bY"/></g><g><use fill="#fff" fill-opacity="0" stroke="#9072b1" stroke-miterlimit="50" stroke-width="2.97" xlink:href="#fzy3bZ"/></g><g><use fill="#9072b1" xlink:href="#fzy3ca"/></g><g><use fill="#fff" fill-opacity="0" stroke="#0c1153" stroke-miterlimit="50" stroke-width="2.85" xlink:href="#fzy3cb"/></g><g><use fill="#553973" xlink:href="#fzy3cc"/></g><g><use fill="#734d9c" xlink:href="#fzy3cd"/></g><g><use fill="#fff" fill-opacity="0" stroke="#0c1153" stroke-miterlimit="50" stroke-width="2.97" xlink:href="#fzy3ce"/></g><g><use fill="#fff" fill-opacity="0" stroke="#0c1153" stroke-miterlimit="50" stroke-width="2.97" xlink:href="#fzy3cf"/></g><g><use fill="#fff" fill-opacity="0" stroke="#0c1153" stroke-miterlimit="50" stroke-width="2.97" xlink:href="#fzy3cg"/></g><g><use fill="#fff" fill-opacity="0" stroke="#0c1153" stroke-miterlimit="50" stroke-width="2.97" xlink:href="#fzy3ch"/></g><g><use fill="#fff" fill-opacity="0" stroke="#0c1153" stroke-miterlimit="50" stroke-width="2.97" xlink:href="#fzy3ci"/></g><g><use fill="#fff" fill-opacity="0" stroke="#0c1153" stroke-miterlimit="50" stroke-width="2.97" xlink:href="#fzy3cj"/></g><g><use fill="#fff" fill-opacity="0" stroke="#0c1153" stroke-miterlimit="50" stroke-width="2.97" xlink:href="#fzy3ck"/></g><g><use fill="#fff" fill-opacity="0" stroke="#0c1153" stroke-miterlimit="50" stroke-width="2.97" xlink:href="#fzy3cl"/></g><g><use fill="#fff" fill-opacity="0" stroke="#0c1153" stroke-miterlimit="50" stroke-width="2.97" xlink:href="#fzy3cm"/></g><g><use fill="#fff" fill-opacity="0" stroke="#0c1153" stroke-miterlimit="50" stroke-width="2.97" xlink:href="#fzy3cn"/></g><g><use fill="#fff" fill-opacity="0" stroke="#0c1153" stroke-miterlimit="50" stroke-width="2.97" xlink:href="#fzy3co"/></g><g><use fill="#fff" fill-opacity="0" stroke="#d7f6ff" stroke-miterlimit="50" stroke-width="2.97" xlink:href="#fzy3cp"/></g><g><use fill="#fff" fill-opacity="0" stroke="#d7f6ff" stroke-miterlimit="50" stroke-width="2.97" xlink:href="#fzy3cq"/></g><g><use fill="#fff" fill-opacity="0" stroke="#d7f6ff" stroke-miterlimit="50" stroke-width="2.97" xlink:href="#fzy3cr"/></g><g><use fill="#fff" fill-opacity="0" stroke="#d7f6ff" stroke-miterlimit="50" stroke-width="2.97" xlink:href="#fzy3cs"/></g><g><use fill="#fff" fill-opacity="0" stroke="#d7f6ff" stroke-miterlimit="50" stroke-width="2.97" xlink:href="#fzy3ct"/></g><g><use fill="#fff" fill-opacity="0" stroke="#d7f6ff" stroke-miterlimit="50" stroke-width="2.97" xlink:href="#fzy3cu"/></g><g><use fill="#fff" fill-opacity="0" stroke="#d7f6ff" stroke-miterlimit="50" stroke-width="2.97" xlink:href="#fzy3cv"/></g><g><use fill="#fff" fill-opacity="0" stroke="#d7f6ff" stroke-miterlimit="50" stroke-width="2.97" xlink:href="#fzy3cw"/></g><g><use fill="#fff" fill-opacity="0" stroke="#d7f6ff" stroke-miterlimit="50" stroke-width="2.97" xlink:href="#fzy3cx"/></g><g><use fill="#fff" fill-opacity="0" stroke="#d7f6ff" stroke-miterlimit="50" stroke-width="2.97" xlink:href="#fzy3cy"/></g><g><use fill="#fff" fill-opacity="0" stroke="#d7f6ff" stroke-miterlimit="50" stroke-width="2.97" xlink:href="#fzy3cz"/></g><g><use fill="#fff" fill-opacity="0" stroke="#d7f6ff" stroke-miterlimit="50" stroke-width="2.97" xlink:href="#fzy3cA"/></g><g><use fill="#fff" fill-opacity="0" stroke="#d7f6ff" stroke-miterlimit="50" stroke-width="2.97" xlink:href="#fzy3cB"/></g><g><use fill="#fff" fill-opacity="0" stroke="#d7f6ff" stroke-miterlimit="50" stroke-width="2.97" xlink:href="#fzy3cC"/></g><g><use fill="#9072b1" xlink:href="#fzy3cD"/></g><g><use fill="#fff" fill-opacity="0" stroke="#0c1153" stroke-miterlimit="50" stroke-width="2.97" xlink:href="#fzy3cE"/></g><g><use fill="#fff" fill-opacity="0" stroke="#0c1153" stroke-miterlimit="50" stroke-width="2.97" xlink:href="#fzy3cF"/></g><g><use fill="#fff" fill-opacity="0" stroke="#0c1153" stroke-miterlimit="50" stroke-width="2.97" xlink:href="#fzy3cG"/></g><g><use fill="#fff" fill-opacity="0" stroke="#0c1153" stroke-miterlimit="50" stroke-width="2.97" xlink:href="#fzy3cH"/></g><g><use fill="#fff" fill-opacity="0" stroke="#0c1153" stroke-miterlimit="50" stroke-width="2.97" xlink:href="#fzy3cI"/></g><g><use fill="#fff" fill-opacity="0" stroke="#0c1153" stroke-miterlimit="50" stroke-width="2.97" xlink:href="#fzy3cJ"/></g><g><use fill="#fff" fill-opacity="0" stroke="#0c1153" stroke-miterlimit="50" stroke-width="2.97" xlink:href="#fzy3cK"/></g><g><use fill="#fff" fill-opacity="0" stroke="#0c1153" stroke-miterlimit="50" stroke-width="2.97" xlink:href="#fzy3cL"/></g><g><use fill="#fff" fill-opacity="0" stroke="#0c1153" stroke-miterlimit="50" stroke-width="2.97" xlink:href="#fzy3cM"/></g><g><use fill="#fff" fill-opacity="0" stroke="#0c1153" stroke-miterlimit="50" stroke-width="2.97" xlink:href="#fzy3cN"/></g><g><use fill="#fff" fill-opacity="0" stroke="#0c1153" stroke-miterlimit="50" stroke-width="2.97" xlink:href="#fzy3cO"/></g><g><use fill="#fff" xlink:href="#fzy3cP"/></g><g><use fill="#fff" fill-opacity="0" stroke="#9072b1" stroke-miterlimit="50" stroke-width="2.97" xlink:href="#fzy3cQ"/></g><g><use fill="#fff" fill-opacity="0" stroke="#9072b1" stroke-miterlimit="50" stroke-width="2.97" xlink:href="#fzy3cR"/></g><g><use fill="#fff" fill-opacity="0" stroke="#9072b1" stroke-miterlimit="50" stroke-width="2.97" xlink:href="#fzy3cS"/></g><g><use fill="#fff" fill-opacity="0" stroke="#9072b1" stroke-miterlimit="50" stroke-width="2.97" xlink:href="#fzy3cT"/></g><g><use fill="#fff" fill-opacity="0" stroke="#9072b1" stroke-miterlimit="50" stroke-width="2.97" xlink:href="#fzy3cU"/></g><g><use fill="#fff" fill-opacity="0" stroke="#9072b1" stroke-miterlimit="50" stroke-width="2.97" xlink:href="#fzy3cV"/></g><g><use fill="#fff" fill-opacity="0" stroke="#9072b1" stroke-miterlimit="50" stroke-width="2.97" xlink:href="#fzy3cW"/></g><g><use fill="#fff" fill-opacity="0" stroke="#9072b1" stroke-miterlimit="50" stroke-width="2.97" xlink:href="#fzy3cX"/></g><g><use fill="#fff" fill-opacity="0" stroke="#9072b1" stroke-miterlimit="50" stroke-width="2.97" xlink:href="#fzy3cY"/></g><g><use fill="#fff" fill-opacity="0" stroke="#9072b1" stroke-miterlimit="50" stroke-width="2.97" xlink:href="#fzy3cZ"/></g><g><use fill="#fff" fill-opacity="0" stroke="#9072b1" stroke-miterlimit="50" stroke-width="2.97" xlink:href="#fzy3da"/></g><g><use fill="#fff" fill-opacity="0" stroke="#9072b1" stroke-miterlimit="50" stroke-width="2.97" xlink:href="#fzy3db"/></g><g><use fill="#fff" fill-opacity="0" stroke="#9072b1" stroke-miterlimit="50" stroke-width="2.97" xlink:href="#fzy3dc"/></g><g><use fill="#fff" fill-opacity="0" stroke="#9072b1" stroke-miterlimit="50" stroke-width="2.97" xlink:href="#fzy3dd"/></g><g><use fill="#fff" fill-opacity="0" stroke="#9072b1" stroke-miterlimit="50" stroke-width="2.97" xlink:href="#fzy3de"/></g></g></g></svg>