<?xml version="1.0" encoding="utf-8"?>
<!-- Svg Vector Icons : http://www.onlinewebfonts.com/icon -->
<!DOCTYPE svg PUBLIC "-//W3C//DTD SVG 1.1//EN" "http://www.w3.org/Graphics/SVG/1.1/DTD/svg11.dtd">
<svg version="1.1" xmlns="http://www.w3.org/2000/svg" xmlns:xlink="http://www.w3.org/1999/xlink" x="0px" y="0px" viewBox="0 0 1000 1000" enable-background="new 0 0 1000 1000" xml:space="preserve">
<metadata> Svg Vector Icons : http://www.onlinewebfonts.com/icon </metadata>
<g><path d="M500,10C229.4,10,10,229.4,10,500c0,270.6,219.4,490,490,490s490-219.4,490-490C990,229.4,770.6,10,500,10z M500,945.5C254,945.5,54.5,746,54.5,500C54.5,254,254,54.5,500,54.5C746,54.5,945.5,254,945.5,500C945.5,746,746,945.5,500,945.5z"/><path d="M599.1,544.4c46.9-31.5,77.7-84.8,77.7-145.3c0-96.9-79.2-175.4-176.9-175.4c-97.7,0-176.8,78.5-176.8,175.4c0,60.4,30.8,113.7,77.7,145.3c-90.3,38.2-153.5,127.1-153.5,230.6h50.5c0-110.7,90.5-200.4,202.1-200.4c111.6,0,202.1,89.8,202.1,200.4h50.5C752.7,671.4,689.4,582.6,599.1,544.4z M373.7,399.1c0-69.2,56.6-125.3,126.3-125.3s126.3,56.1,126.3,125.3c0,69.2-56.6,125.3-126.3,125.3C430.2,524.4,373.7,468.3,373.7,399.1z"/></g>
</svg>